%TF.GenerationSoftware,KiCad,Pcbnew,10.0.4*%
%TF.CreationDate,2026-09-18T18:19:43+02:00*%
%TF.ProjectId,hams-telex,68616d73-2d74-4656-9c65-782e6b696361,rev?*%
%TF.SameCoordinates,Original*%
%TF.FileFunction,Copper,L2,Bot*%
%TF.FilePolarity,Positive*%
%FSLAX46Y46*%
G04 Gerber Fmt 4.6, Leading zero omitted, Abs format (unit mm)*
G04 Created by KiCad (PCBNEW 10.0.4) date 2026-09-18 18:19:43*
%MOMM*%
%LPD*%
G01*
G04 APERTURE LIST*
G04 Aperture macros list*
%AMRoundRect*
0 Rectangle with rounded corners*
0 $1 Rounding radius*
0 $2 $3 $4 $5 $6 $7 $8 $9 X,Y pos of 4 corners*
0 Add a 4 corners polygon primitive as box body*
4,1,4,$2,$3,$4,$5,$6,$7,$8,$9,$2,$3,0*
0 Add four circle primitives for the rounded corners*
1,1,$1+$1,$2,$3*
1,1,$1+$1,$4,$5*
1,1,$1+$1,$6,$7*
1,1,$1+$1,$8,$9*
0 Add four rect primitives between the rounded corners*
20,1,$1+$1,$2,$3,$4,$5,0*
20,1,$1+$1,$4,$5,$6,$7,0*
20,1,$1+$1,$6,$7,$8,$9,0*
20,1,$1+$1,$8,$9,$2,$3,0*%
G04 Aperture macros list end*
%TA.AperFunction,ComponentPad*%
%ADD10O,1.700000X1.700000*%
%TD*%
%TA.AperFunction,ComponentPad*%
%ADD11R,1.700000X1.700000*%
%TD*%
%TA.AperFunction,ComponentPad*%
%ADD12RoundRect,0.250000X0.550000X-0.550000X0.550000X0.550000X-0.550000X0.550000X-0.550000X-0.550000X0*%
%TD*%
%TA.AperFunction,ComponentPad*%
%ADD13C,1.600000*%
%TD*%
%TA.AperFunction,ComponentPad*%
%ADD14C,2.000000*%
%TD*%
%TA.AperFunction,ComponentPad*%
%ADD15C,1.400000*%
%TD*%
%TA.AperFunction,ComponentPad*%
%ADD16RoundRect,0.250000X0.725000X-0.600000X0.725000X0.600000X-0.725000X0.600000X-0.725000X-0.600000X0*%
%TD*%
%TA.AperFunction,ComponentPad*%
%ADD17O,1.950000X1.700000*%
%TD*%
%TA.AperFunction,ComponentPad*%
%ADD18C,1.700000*%
%TD*%
%TA.AperFunction,ComponentPad*%
%ADD19RoundRect,0.250000X-1.330000X-1.800000X1.330000X-1.800000X1.330000X1.800000X-1.330000X1.800000X0*%
%TD*%
%TA.AperFunction,ComponentPad*%
%ADD20O,3.160000X4.100000*%
%TD*%
%TA.AperFunction,ComponentPad*%
%ADD21RoundRect,0.250000X-0.600000X-0.725000X0.600000X-0.725000X0.600000X0.725000X-0.600000X0.725000X0*%
%TD*%
%TA.AperFunction,ComponentPad*%
%ADD22O,1.700000X1.950000*%
%TD*%
%TA.AperFunction,ComponentPad*%
%ADD23RoundRect,0.250000X-0.750000X-0.750000X0.750000X-0.750000X0.750000X0.750000X-0.750000X0.750000X0*%
%TD*%
%TA.AperFunction,ComponentPad*%
%ADD24RoundRect,0.250000X-0.550000X-0.550000X0.550000X-0.550000X0.550000X0.550000X-0.550000X0.550000X0*%
%TD*%
%TA.AperFunction,ComponentPad*%
%ADD25RoundRect,0.250000X0.750000X-0.600000X0.750000X0.600000X-0.750000X0.600000X-0.750000X-0.600000X0*%
%TD*%
%TA.AperFunction,ComponentPad*%
%ADD26O,2.000000X1.700000*%
%TD*%
%TA.AperFunction,ComponentPad*%
%ADD27R,1.050000X1.500000*%
%TD*%
%TA.AperFunction,ComponentPad*%
%ADD28O,1.050000X1.500000*%
%TD*%
%TA.AperFunction,ComponentPad*%
%ADD29R,1.905000X2.000000*%
%TD*%
%TA.AperFunction,ComponentPad*%
%ADD30O,1.905000X2.000000*%
%TD*%
%TA.AperFunction,ViaPad*%
%ADD31C,0.900000*%
%TD*%
%TA.AperFunction,Conductor*%
%ADD32C,0.200000*%
%TD*%
%TA.AperFunction,Conductor*%
%ADD33C,0.300000*%
%TD*%
G04 APERTURE END LIST*
D10*
%TO.P,J40,14,Pin_14_14*%
%TO.N,GND*%
X124960000Y-37530000D03*
%TO.P,J40,9,Pin_9_9*%
X119880000Y-34990000D03*
%TO.P,J40,25,Pin_25_25*%
X140200000Y-34990000D03*
D11*
%TO.P,J40,1,Pin_1_1*%
%TO.N,+3V3*%
X109720000Y-34990000D03*
D10*
%TO.P,J40,2,Pin_2_2*%
%TO.N,+5VD*%
X109720000Y-37530000D03*
%TO.P,J40,3,Pin_3_3*%
%TO.N,/GPIO2{slash}SDA1*%
X112260000Y-34990000D03*
%TO.P,J40,4,Pin_4_4*%
%TO.N,+5VD*%
X112260000Y-37530000D03*
%TO.P,J40,5,Pin_5_5*%
%TO.N,/GPIO3{slash}SCL1*%
X114800000Y-34990000D03*
%TO.P,J40,6,Pin_6_6*%
%TO.N,GND*%
X114800000Y-37530000D03*
%TO.P,J40,7,Pin_7_7*%
%TO.N,/GPIO4{slash}GPCLK0*%
X117340000Y-34990000D03*
%TO.P,J40,8,Pin_8_8*%
%TO.N,/GPIO14{slash}TXD0*%
X117340000Y-37530000D03*
%TO.P,J40,10,Pin_10_10*%
%TO.N,/GPIO15{slash}RXD0*%
X119880000Y-37530000D03*
%TO.P,J40,11,Pin_11_11*%
%TO.N,/GPIO17*%
X122420000Y-34990000D03*
%TO.P,J40,12,Pin_12_12*%
%TO.N,/GPIO18{slash}PCM.CLK*%
X122420000Y-37530000D03*
%TO.P,J40,13,Pin_13_13*%
%TO.N,/GPIO27*%
X124960000Y-34990000D03*
%TO.P,J40,15,Pin_15_15*%
%TO.N,/GPIO22*%
X127500000Y-34990000D03*
%TO.P,J40,16,Pin_16_16*%
%TO.N,/GPIO23*%
X127500000Y-37530000D03*
%TO.P,J40,17,Pin_17_17*%
%TO.N,+3V3*%
X130040000Y-34990000D03*
%TO.P,J40,18,Pin_18_18*%
%TO.N,unconnected-(J40-Pin_18-Pad18)*%
X130040000Y-37530000D03*
%TO.P,J40,19,Pin_19_19*%
%TO.N,/GPIO10{slash}SPI0.MOSI*%
X132580000Y-34990000D03*
%TO.P,J40,20,Pin_20_20*%
%TO.N,GND*%
X132580000Y-37530000D03*
%TO.P,J40,21,Pin_21_21*%
%TO.N,/GPIO9{slash}SPI0.MISO*%
X135120000Y-34990000D03*
%TO.P,J40,22,Pin_22_22*%
%TO.N,unconnected-(J40-Pin_22-Pad22)*%
X135120000Y-37530000D03*
%TO.P,J40,23,Pin_23_23*%
%TO.N,/GPIO11{slash}SPI0.SCLK*%
X137660000Y-34990000D03*
%TO.P,J40,24,Pin_24_24*%
%TO.N,/GPIO8{slash}SPI0.CE0*%
X137660000Y-37530000D03*
%TO.P,J40,26,Pin_26_26*%
%TO.N,/GPIO7{slash}SPI0.CE1*%
X140200000Y-37530000D03*
%TO.P,J40,27,Pin_27_27*%
%TO.N,/ID_SDA*%
X142740000Y-34990000D03*
%TO.P,J40,28,Pin_28_28*%
%TO.N,/ID_SCL*%
X142740000Y-37530000D03*
%TO.P,J40,29,Pin_29_29*%
%TO.N,/GPIO5*%
X145280000Y-34990000D03*
%TO.P,J40,30,Pin_30_30*%
%TO.N,GND*%
X145280000Y-37530000D03*
%TO.P,J40,31,Pin_31_31*%
%TO.N,/GPIO6*%
X147820000Y-34990000D03*
%TO.P,J40,32,Pin_32_32*%
%TO.N,/GPIO12{slash}PWM0*%
X147820000Y-37530000D03*
%TO.P,J40,33,Pin_33_33*%
%TO.N,/GPIO13{slash}PWM1*%
X150360000Y-34990000D03*
%TO.P,J40,34,Pin_34_34*%
%TO.N,GND*%
X150360000Y-37530000D03*
%TO.P,J40,35,Pin_35_35*%
%TO.N,/GPIO19{slash}PCM.FS*%
X152900000Y-34990000D03*
%TO.P,J40,36,Pin_36_36*%
%TO.N,/GPIO16*%
X152900000Y-37530000D03*
%TO.P,J40,37,Pin_37_37*%
%TO.N,/GPIO26*%
X155440000Y-34990000D03*
%TO.P,J40,38,Pin_38_38*%
%TO.N,/GPIO20{slash}PCM.DIN*%
X155440000Y-37530000D03*
%TO.P,J40,39,Pin_39_39*%
%TO.N,GND*%
X157980000Y-34990000D03*
%TO.P,J40,40,Pin_40_40*%
%TO.N,/GPIO21{slash}PCM.DOUT*%
X157980000Y-37530000D03*
%TD*%
D12*
%TO.P,U2,1,QB_1*%
%TO.N,unconnected-(U2-QB-Pad1)*%
X104800000Y-71480000D03*
D13*
%TO.P,U2,2,QC_2*%
%TO.N,Net-(U2-QC)*%
X107340000Y-71480000D03*
%TO.P,U2,3,QD_3*%
%TO.N,Net-(U2-QD)*%
X109880000Y-71480000D03*
%TO.P,U2,4,QE_4*%
%TO.N,Net-(U2-QE)*%
X112420000Y-71480000D03*
%TO.P,U2,5,QF_5*%
%TO.N,Net-(U2-QF)*%
X114960000Y-71480000D03*
%TO.P,U2,6,QG_6*%
%TO.N,unconnected-(U2-QG-Pad6)*%
X117500000Y-71480000D03*
%TO.P,U2,7,QH_7*%
%TO.N,unconnected-(U2-QH-Pad7)*%
X120040000Y-71480000D03*
%TO.P,U2,8,GND_8*%
%TO.N,GND*%
X122580000Y-71480000D03*
%TO.P,U2,9,QH'_9*%
%TO.N,unconnected-(U2-QH'-Pad9)*%
X122580000Y-63860000D03*
%TO.P,U2,10,~{SRCLR}_10*%
%TO.N,+5VD*%
X120040000Y-63860000D03*
%TO.P,U2,11,SRCLK_11*%
%TO.N,/GPIO11{slash}SPI0.SCLK*%
X117500000Y-63860000D03*
%TO.P,U2,12,RCLK_12*%
%TO.N,/GPIO7{slash}SPI0.CE1*%
X114960000Y-63860000D03*
%TO.P,U2,13,~{OE}_13*%
%TO.N,GND*%
X112420000Y-63860000D03*
%TO.P,U2,14,SER_14*%
%TO.N,/GPIO10{slash}SPI0.MOSI*%
X109880000Y-63860000D03*
%TO.P,U2,15,QA_15*%
%TO.N,unconnected-(U2-QA-Pad15)*%
X107340000Y-63860000D03*
%TO.P,U2,16,VCC_16*%
%TO.N,+5VD*%
X104800000Y-63860000D03*
%TD*%
%TO.P,R11,1*%
%TO.N,Net-(J4-Pin_4)*%
X177040000Y-36390000D03*
%TO.P,R11,2*%
%TO.N,Net-(J3-Pin_3)*%
X177040000Y-51630000D03*
%TD*%
D14*
%TO.P,C6,1*%
%TO.N,Net-(C6-Pad1)*%
X154340000Y-74830000D03*
%TO.P,C6,2*%
%TO.N,GND*%
X154340000Y-79830000D03*
%TD*%
%TO.P,C4,1*%
%TO.N,+5VD*%
X109340000Y-42240000D03*
%TO.P,C4,2*%
%TO.N,GND*%
X114340000Y-42240000D03*
%TD*%
D15*
%TO.P,R5,1*%
%TO.N,Net-(U2-QC)*%
X105140000Y-79320000D03*
%TO.P,R5,2*%
%TO.N,Net-(J5-Pin_2)*%
X105140000Y-86940000D03*
%TD*%
D16*
%TO.P,J2,1,Pin_1_1*%
%TO.N,GND*%
X185940000Y-73530000D03*
D17*
%TO.P,J2,2,Pin_2_2*%
%TO.N,Net-(J2-Pin_2)*%
X185940000Y-71030000D03*
%TO.P,J2,3,Pin_3_3*%
%TO.N,Net-(J2-Pin_3)*%
X185940000Y-68530000D03*
%TD*%
D15*
%TO.P,JP3,1,A_1*%
%TO.N,/GPIO23*%
X164660000Y-47740000D03*
%TO.P,JP3,2,B_2*%
%TO.N,Net-(J4-Pin_3)*%
X167200000Y-47740000D03*
%TD*%
%TO.P,R3,1*%
%TO.N,Net-(U2-QE)*%
X115140000Y-79320000D03*
%TO.P,R3,2*%
%TO.N,Net-(J5-Pin_4)*%
X115140000Y-86940000D03*
%TD*%
%TO.P,R1,1*%
%TO.N,+5VD*%
X125140000Y-79320000D03*
%TO.P,R1,2*%
%TO.N,Net-(J5-Pin_6)*%
X125140000Y-86940000D03*
%TD*%
%TO.P,JP1,1,A_1*%
%TO.N,Net-(J3-Pin_3)*%
X180090000Y-53800000D03*
%TO.P,JP1,2,B_2*%
%TO.N,Net-(J3-Pin_2)*%
X180090000Y-56340000D03*
%TD*%
D16*
%TO.P,J3,1,Pin_1_1*%
%TO.N,GND*%
X185940000Y-59030000D03*
D17*
%TO.P,J3,2,Pin_2_2*%
%TO.N,Net-(J3-Pin_2)*%
X185940000Y-56530000D03*
%TO.P,J3,3,Pin_3_3*%
%TO.N,Net-(J3-Pin_3)*%
X185940000Y-54030000D03*
%TD*%
D11*
%TO.P,J6,1,Pin_1_1*%
%TO.N,+3V3*%
X108400000Y-31320000D03*
D18*
%TO.P,J6,2,Pin_2_2*%
%TO.N,GND*%
X110940000Y-31320000D03*
%TD*%
D14*
%TO.P,C11,1*%
%TO.N,Net-(J4-Pin_2)*%
X170670000Y-61200000D03*
%TO.P,C11,2*%
%TO.N,Net-(J2-Pin_3)*%
X175670000Y-61200000D03*
%TD*%
D19*
%TO.P,JPWR01,1,Pin_1_1*%
%TO.N,Net-(JPWR01-Pin_1)*%
X162760000Y-87330000D03*
D20*
%TO.P,JPWR01,2,Pin_2_2*%
%TO.N,GND*%
X166720000Y-87330000D03*
%TD*%
D14*
%TO.P,C3,1*%
%TO.N,Net-(Q2-G)*%
X156940000Y-64530000D03*
%TO.P,C3,2*%
%TO.N,GND*%
X156940000Y-69530000D03*
%TD*%
D13*
%TO.P,R9,1*%
%TO.N,/GPIO2{slash}SDA1*%
X144440000Y-59720000D03*
%TO.P,R9,2*%
%TO.N,Net-(C6-Pad1)*%
X144440000Y-67340000D03*
%TD*%
%TO.P,R8,1*%
%TO.N,/GPIO26*%
X149940000Y-62030000D03*
%TO.P,R8,2*%
%TO.N,Net-(J1-Pin_3)*%
X149940000Y-69650000D03*
%TD*%
D15*
%TO.P,R10,1*%
%TO.N,Net-(Q2-G)*%
X156930000Y-61210000D03*
%TO.P,R10,2*%
%TO.N,Net-(J4-Pin_2)*%
X164550000Y-61210000D03*
%TD*%
D21*
%TO.P,J5,1,Pin_1_1*%
%TO.N,GND*%
X108965000Y-93975000D03*
D22*
%TO.P,J5,2,Pin_2_2*%
%TO.N,Net-(J5-Pin_2)*%
X111465000Y-93975000D03*
%TO.P,J5,3,Pin_3_3*%
%TO.N,Net-(J5-Pin_3)*%
X113965000Y-93975000D03*
%TO.P,J5,4,Pin_4_4*%
%TO.N,Net-(J5-Pin_4)*%
X116465000Y-93975000D03*
%TO.P,J5,5,Pin_5_5*%
%TO.N,Net-(J5-Pin_5)*%
X118965000Y-93975000D03*
%TO.P,J5,6,Pin_6_6*%
%TO.N,Net-(J5-Pin_6)*%
X121465000Y-93975000D03*
%TD*%
D23*
%TO.P,C2,1*%
%TO.N,+5VD*%
X133050179Y-74530000D03*
X133722323Y-76530000D03*
D14*
%TO.P,C2,2*%
%TO.N,GND*%
X138722323Y-76530000D03*
X139394467Y-78530000D03*
%TD*%
D13*
%TO.P,R7,1*%
%TO.N,Net-(C6-Pad1)*%
X160130000Y-74730000D03*
%TO.P,R7,2*%
%TO.N,Net-(J1-Pin_2)*%
X167750000Y-74730000D03*
%TD*%
D24*
%TO.P,C5,1*%
%TO.N,+5VD*%
X108120000Y-56500000D03*
D13*
%TO.P,C5,2*%
%TO.N,GND*%
X113120000Y-56500000D03*
%TD*%
D25*
%TO.P,JPWR02,1,Pin_1_1*%
%TO.N,+5VD*%
X135150000Y-65990000D03*
D26*
%TO.P,JPWR02,2,Pin_2_2*%
%TO.N,GND*%
X135150000Y-63490000D03*
%TD*%
D13*
%TO.P,R6,1*%
%TO.N,Net-(Q1-G)*%
X148340000Y-91140000D03*
%TO.P,R6,2*%
%TO.N,GND*%
X148340000Y-83520000D03*
%TD*%
D15*
%TO.P,R4,1*%
%TO.N,Net-(U2-QD)*%
X110140000Y-79320000D03*
%TO.P,R4,2*%
%TO.N,Net-(J5-Pin_3)*%
X110140000Y-86940000D03*
%TD*%
%TO.P,JP2,1,A_1*%
%TO.N,Net-(J2-Pin_3)*%
X179615000Y-68325000D03*
%TO.P,JP2,2,B_2*%
%TO.N,Net-(J2-Pin_2)*%
X179615000Y-70865000D03*
%TD*%
D16*
%TO.P,J4,1,Pin_1_1*%
%TO.N,GND*%
X185940000Y-44030000D03*
D17*
%TO.P,J4,2,Pin_2_2*%
%TO.N,Net-(J4-Pin_2)*%
X185940000Y-41530000D03*
%TO.P,J4,3,Pin_3_3*%
%TO.N,Net-(J4-Pin_3)*%
X185940000Y-39030000D03*
%TO.P,J4,4,Pin_4_4*%
%TO.N,Net-(J4-Pin_4)*%
X185940000Y-36530000D03*
%TD*%
D13*
%TO.P,C1,1*%
%TO.N,GND*%
X128270000Y-71240000D03*
%TO.P,C1,2*%
%TO.N,+5VD*%
X128270000Y-66240000D03*
%TD*%
D16*
%TO.P,J1,1,Pin_1_1*%
%TO.N,GND*%
X185940000Y-91030000D03*
D17*
%TO.P,J1,2,Pin_2_2*%
%TO.N,Net-(J1-Pin_2)*%
X185940000Y-88530000D03*
%TO.P,J1,3,Pin_3_3*%
%TO.N,Net-(J1-Pin_3)*%
X185940000Y-86030000D03*
%TO.P,J1,4,Pin_4_4*%
%TO.N,/GPIO3{slash}SCL1*%
X185940000Y-83530000D03*
%TD*%
D15*
%TO.P,R2,1*%
%TO.N,Net-(U2-QF)*%
X120140000Y-79320000D03*
%TO.P,R2,2*%
%TO.N,Net-(J5-Pin_5)*%
X120140000Y-86940000D03*
%TD*%
D27*
%TO.P,Q2,1,S_1*%
%TO.N,GND*%
X155520000Y-56690000D03*
D28*
%TO.P,Q2,2,G_2*%
%TO.N,Net-(Q2-G)*%
X156790000Y-56690000D03*
%TO.P,Q2,3,D_3*%
%TO.N,/GPIO23*%
X158060000Y-56690000D03*
%TD*%
D29*
%TO.P,Q1,1,G_1*%
%TO.N,Net-(Q1-G)*%
X135200000Y-87480000D03*
D30*
%TO.P,Q1,2,D_2*%
%TO.N,+5VD*%
X137740000Y-87480000D03*
%TO.P,Q1,3,S_3*%
%TO.N,Net-(JPWR01-Pin_1)*%
X140280000Y-87480000D03*
%TD*%
D15*
%TO.P,R12,1*%
%TO.N,GND*%
X180940000Y-44030000D03*
%TO.P,R12,2*%
%TO.N,Net-(J4-Pin_4)*%
X180940000Y-36410000D03*
%TD*%
D31*
%TO.N,GND*%
X167056000Y-40056000D03*
X134544000Y-54788000D03*
X161976000Y-51740000D03*
X147244000Y-58852000D03*
X118288000Y-41072000D03*
X172136000Y-55804000D03*
X105080000Y-44628000D03*
%TO.N,/GPIO23*%
X127940000Y-40030000D03*
X162940000Y-40030000D03*
%TO.N,/GPIO7{slash}SPI0.CE1*%
X140200000Y-43130000D03*
X133840000Y-43130000D03*
%TD*%
%TO.N,GND*%
D32*
X114800000Y-37530000D02*
X114800000Y-37584000D01*
%TO.N,/GPIO23*%
D33*
X162940000Y-40030000D02*
X127940000Y-40030000D01*
%TO.N,/GPIO7{slash}SPI0.CE1*%
D32*
X133840000Y-43130000D02*
X140200000Y-43130000D01*
%TD*%
%TA.AperFunction,Conductor*%
%TO.N,GND*%
G36*
X188436193Y-29780943D02*
G01*
X188453623Y-29782189D01*
X188641230Y-29795607D01*
X188720461Y-29821254D01*
X188765426Y-29861398D01*
X189878613Y-31272605D01*
X189913045Y-31348434D01*
X189916000Y-31380366D01*
X189916000Y-97895926D01*
X189896069Y-97976788D01*
X189865037Y-98018963D01*
X188950963Y-98933037D01*
X188879692Y-98976121D01*
X188827926Y-98984000D01*
X101596074Y-98984000D01*
X101515212Y-98964069D01*
X101473037Y-98933037D01*
X100558963Y-98018963D01*
X100515879Y-97947692D01*
X100508000Y-97895926D01*
X100508000Y-93751459D01*
X110464500Y-93751459D01*
X110464500Y-94198541D01*
X110486756Y-94310427D01*
X110502949Y-94391836D01*
X110578366Y-94573911D01*
X110578368Y-94573915D01*
X110687857Y-94737777D01*
X110687858Y-94737778D01*
X110687861Y-94737782D01*
X110827218Y-94877139D01*
X110827221Y-94877141D01*
X110827222Y-94877142D01*
X110991084Y-94986631D01*
X110991086Y-94986632D01*
X111173165Y-95062051D01*
X111366459Y-95100500D01*
X111366462Y-95100500D01*
X111563537Y-95100500D01*
X111563541Y-95100500D01*
X111756835Y-95062051D01*
X111938914Y-94986632D01*
X112102782Y-94877139D01*
X112242139Y-94737782D01*
X112351632Y-94573914D01*
X112427051Y-94391835D01*
X112465500Y-94198541D01*
X112465500Y-93751459D01*
X112964500Y-93751459D01*
X112964500Y-94198541D01*
X112986756Y-94310427D01*
X113002949Y-94391836D01*
X113078366Y-94573911D01*
X113078368Y-94573915D01*
X113187857Y-94737777D01*
X113187858Y-94737778D01*
X113187861Y-94737782D01*
X113327218Y-94877139D01*
X113327221Y-94877141D01*
X113327222Y-94877142D01*
X113491084Y-94986631D01*
X113491086Y-94986632D01*
X113673165Y-95062051D01*
X113866459Y-95100500D01*
X113866462Y-95100500D01*
X114063537Y-95100500D01*
X114063541Y-95100500D01*
X114256835Y-95062051D01*
X114438914Y-94986632D01*
X114602782Y-94877139D01*
X114742139Y-94737782D01*
X114851632Y-94573914D01*
X114927051Y-94391835D01*
X114965500Y-94198541D01*
X114965500Y-93751459D01*
X115464500Y-93751459D01*
X115464500Y-94198541D01*
X115486756Y-94310427D01*
X115502949Y-94391836D01*
X115578366Y-94573911D01*
X115578368Y-94573915D01*
X115687857Y-94737777D01*
X115687858Y-94737778D01*
X115687861Y-94737782D01*
X115827218Y-94877139D01*
X115827221Y-94877141D01*
X115827222Y-94877142D01*
X115991084Y-94986631D01*
X115991086Y-94986632D01*
X116173165Y-95062051D01*
X116366459Y-95100500D01*
X116366462Y-95100500D01*
X116563537Y-95100500D01*
X116563541Y-95100500D01*
X116756835Y-95062051D01*
X116938914Y-94986632D01*
X117102782Y-94877139D01*
X117242139Y-94737782D01*
X117351632Y-94573914D01*
X117427051Y-94391835D01*
X117465500Y-94198541D01*
X117465500Y-93751459D01*
X117964500Y-93751459D01*
X117964500Y-94198541D01*
X117986756Y-94310427D01*
X118002949Y-94391836D01*
X118078366Y-94573911D01*
X118078368Y-94573915D01*
X118187857Y-94737777D01*
X118187858Y-94737778D01*
X118187861Y-94737782D01*
X118327218Y-94877139D01*
X118327221Y-94877141D01*
X118327222Y-94877142D01*
X118491084Y-94986631D01*
X118491086Y-94986632D01*
X118673165Y-95062051D01*
X118866459Y-95100500D01*
X118866462Y-95100500D01*
X119063537Y-95100500D01*
X119063541Y-95100500D01*
X119256835Y-95062051D01*
X119438914Y-94986632D01*
X119602782Y-94877139D01*
X119742139Y-94737782D01*
X119851632Y-94573914D01*
X119927051Y-94391835D01*
X119965500Y-94198541D01*
X119965500Y-93751459D01*
X120464500Y-93751459D01*
X120464500Y-94198541D01*
X120486756Y-94310427D01*
X120502949Y-94391836D01*
X120578366Y-94573911D01*
X120578368Y-94573915D01*
X120687857Y-94737777D01*
X120687858Y-94737778D01*
X120687861Y-94737782D01*
X120827218Y-94877139D01*
X120827221Y-94877141D01*
X120827222Y-94877142D01*
X120991084Y-94986631D01*
X120991086Y-94986632D01*
X121173165Y-95062051D01*
X121366459Y-95100500D01*
X121366462Y-95100500D01*
X121563537Y-95100500D01*
X121563541Y-95100500D01*
X121756835Y-95062051D01*
X121938914Y-94986632D01*
X122102782Y-94877139D01*
X122242139Y-94737782D01*
X122351632Y-94573914D01*
X122427051Y-94391835D01*
X122427604Y-94389055D01*
X128789500Y-94389055D01*
X128789500Y-94670944D01*
X128789501Y-94670963D01*
X128826293Y-94950427D01*
X128826297Y-94950449D01*
X128899256Y-95222735D01*
X129007139Y-95483187D01*
X129007142Y-95483194D01*
X129148088Y-95727318D01*
X129319694Y-95950958D01*
X129319696Y-95950960D01*
X129319700Y-95950965D01*
X129519035Y-96150300D01*
X129519039Y-96150303D01*
X129519041Y-96150305D01*
X129742681Y-96321911D01*
X129986805Y-96462857D01*
X129986811Y-96462859D01*
X129986817Y-96462863D01*
X130247261Y-96570742D01*
X130247262Y-96570742D01*
X130247264Y-96570743D01*
X130519550Y-96643702D01*
X130519551Y-96643702D01*
X130519558Y-96643704D01*
X130519568Y-96643705D01*
X130519572Y-96643706D01*
X130617996Y-96656663D01*
X130799049Y-96680500D01*
X130799056Y-96680500D01*
X131080944Y-96680500D01*
X131080951Y-96680500D01*
X131360442Y-96643704D01*
X131632739Y-96570742D01*
X131893183Y-96462863D01*
X131893191Y-96462858D01*
X131893194Y-96462857D01*
X132003927Y-96398924D01*
X132137317Y-96321912D01*
X132360965Y-96150300D01*
X132560300Y-95950965D01*
X132731912Y-95727317D01*
X132872863Y-95483183D01*
X132980742Y-95222739D01*
X133053704Y-94950442D01*
X133090500Y-94670951D01*
X133090500Y-94389049D01*
X133053704Y-94109558D01*
X133053702Y-94109550D01*
X132980744Y-93837267D01*
X132980742Y-93837261D01*
X132944206Y-93749055D01*
X173179500Y-93749055D01*
X173179500Y-94030944D01*
X173179501Y-94030963D01*
X173216293Y-94310427D01*
X173216297Y-94310449D01*
X173289256Y-94582735D01*
X173397139Y-94843187D01*
X173397142Y-94843194D01*
X173538088Y-95087318D01*
X173709694Y-95310958D01*
X173709696Y-95310960D01*
X173709700Y-95310965D01*
X173909035Y-95510300D01*
X173909039Y-95510303D01*
X173909041Y-95510305D01*
X174132681Y-95681911D01*
X174376805Y-95822857D01*
X174376811Y-95822859D01*
X174376817Y-95822863D01*
X174637261Y-95930742D01*
X174637262Y-95930742D01*
X174637264Y-95930743D01*
X174909550Y-96003702D01*
X174909551Y-96003702D01*
X174909558Y-96003704D01*
X174909568Y-96003705D01*
X174909572Y-96003706D01*
X175007996Y-96016663D01*
X175189049Y-96040500D01*
X175189056Y-96040500D01*
X175470944Y-96040500D01*
X175470951Y-96040500D01*
X175750442Y-96003704D01*
X176022739Y-95930742D01*
X176283183Y-95822863D01*
X176283191Y-95822858D01*
X176283194Y-95822857D01*
X176393927Y-95758924D01*
X176527317Y-95681912D01*
X176750965Y-95510300D01*
X176950300Y-95310965D01*
X177121912Y-95087317D01*
X177243257Y-94877142D01*
X177262857Y-94843194D01*
X177262858Y-94843191D01*
X177262863Y-94843183D01*
X177370742Y-94582739D01*
X177443704Y-94310442D01*
X177480500Y-94030951D01*
X177480500Y-93749049D01*
X177443704Y-93469558D01*
X177418658Y-93376084D01*
X177370743Y-93197264D01*
X177334200Y-93109041D01*
X177262863Y-92936817D01*
X177262859Y-92936811D01*
X177262857Y-92936805D01*
X177121911Y-92692681D01*
X176950305Y-92469041D01*
X176950303Y-92469039D01*
X176950300Y-92469035D01*
X176750965Y-92269700D01*
X176750960Y-92269696D01*
X176750958Y-92269694D01*
X176527318Y-92098088D01*
X176283194Y-91957142D01*
X176283187Y-91957139D01*
X176283185Y-91957138D01*
X176283183Y-91957137D01*
X176092858Y-91878302D01*
X176022735Y-91849256D01*
X175750449Y-91776297D01*
X175750427Y-91776293D01*
X175470963Y-91739501D01*
X175470955Y-91739500D01*
X175470951Y-91739500D01*
X175189049Y-91739500D01*
X175189044Y-91739500D01*
X175189036Y-91739501D01*
X174909572Y-91776293D01*
X174909550Y-91776297D01*
X174637264Y-91849256D01*
X174376812Y-91957139D01*
X174376805Y-91957142D01*
X174132681Y-92098088D01*
X173909041Y-92269694D01*
X173709694Y-92469041D01*
X173538088Y-92692681D01*
X173397142Y-92936805D01*
X173397139Y-92936812D01*
X173289256Y-93197264D01*
X173216297Y-93469550D01*
X173216293Y-93469572D01*
X173179501Y-93749036D01*
X173179500Y-93749055D01*
X132944206Y-93749055D01*
X132872863Y-93576817D01*
X132872859Y-93576811D01*
X132872857Y-93576805D01*
X132731911Y-93332681D01*
X132560305Y-93109041D01*
X132560303Y-93109039D01*
X132560300Y-93109035D01*
X132360965Y-92909700D01*
X132360960Y-92909696D01*
X132360958Y-92909694D01*
X132137318Y-92738088D01*
X131893194Y-92597142D01*
X131893187Y-92597139D01*
X131893185Y-92597138D01*
X131893183Y-92597137D01*
X131762961Y-92543197D01*
X131632735Y-92489256D01*
X131360449Y-92416297D01*
X131360427Y-92416293D01*
X131080963Y-92379501D01*
X131080955Y-92379500D01*
X131080951Y-92379500D01*
X130799049Y-92379500D01*
X130799044Y-92379500D01*
X130799036Y-92379501D01*
X130519572Y-92416293D01*
X130519550Y-92416297D01*
X130247264Y-92489256D01*
X129986812Y-92597139D01*
X129986805Y-92597142D01*
X129742681Y-92738088D01*
X129519041Y-92909694D01*
X129319694Y-93109041D01*
X129148088Y-93332681D01*
X129007142Y-93576805D01*
X129007139Y-93576812D01*
X128899256Y-93837264D01*
X128826297Y-94109550D01*
X128826293Y-94109572D01*
X128789501Y-94389036D01*
X128789500Y-94389055D01*
X122427604Y-94389055D01*
X122465500Y-94198541D01*
X122465500Y-93751459D01*
X122427051Y-93558165D01*
X122351632Y-93376086D01*
X122242139Y-93212218D01*
X122102782Y-93072861D01*
X122102778Y-93072858D01*
X122102777Y-93072857D01*
X121938915Y-92963368D01*
X121938911Y-92963366D01*
X121756836Y-92887949D01*
X121708511Y-92878336D01*
X121563541Y-92849500D01*
X121366459Y-92849500D01*
X121250482Y-92872569D01*
X121173163Y-92887949D01*
X120991088Y-92963366D01*
X120991084Y-92963368D01*
X120827222Y-93072857D01*
X120687857Y-93212222D01*
X120578368Y-93376084D01*
X120578366Y-93376088D01*
X120502949Y-93558163D01*
X120502949Y-93558165D01*
X120464500Y-93751459D01*
X119965500Y-93751459D01*
X119927051Y-93558165D01*
X119851632Y-93376086D01*
X119742139Y-93212218D01*
X119602782Y-93072861D01*
X119602778Y-93072858D01*
X119602777Y-93072857D01*
X119438915Y-92963368D01*
X119438911Y-92963366D01*
X119256836Y-92887949D01*
X119208511Y-92878336D01*
X119063541Y-92849500D01*
X118866459Y-92849500D01*
X118750482Y-92872569D01*
X118673163Y-92887949D01*
X118491088Y-92963366D01*
X118491084Y-92963368D01*
X118327222Y-93072857D01*
X118187857Y-93212222D01*
X118078368Y-93376084D01*
X118078366Y-93376088D01*
X118002949Y-93558163D01*
X118002949Y-93558165D01*
X117964500Y-93751459D01*
X117465500Y-93751459D01*
X117427051Y-93558165D01*
X117351632Y-93376086D01*
X117242139Y-93212218D01*
X117102782Y-93072861D01*
X117102778Y-93072858D01*
X117102777Y-93072857D01*
X116938915Y-92963368D01*
X116938911Y-92963366D01*
X116756836Y-92887949D01*
X116708511Y-92878336D01*
X116563541Y-92849500D01*
X116366459Y-92849500D01*
X116250482Y-92872569D01*
X116173163Y-92887949D01*
X115991088Y-92963366D01*
X115991084Y-92963368D01*
X115827222Y-93072857D01*
X115687857Y-93212222D01*
X115578368Y-93376084D01*
X115578366Y-93376088D01*
X115502949Y-93558163D01*
X115502949Y-93558165D01*
X115464500Y-93751459D01*
X114965500Y-93751459D01*
X114927051Y-93558165D01*
X114851632Y-93376086D01*
X114742139Y-93212218D01*
X114602782Y-93072861D01*
X114602778Y-93072858D01*
X114602777Y-93072857D01*
X114438915Y-92963368D01*
X114438911Y-92963366D01*
X114256836Y-92887949D01*
X114208511Y-92878336D01*
X114063541Y-92849500D01*
X113866459Y-92849500D01*
X113750482Y-92872569D01*
X113673163Y-92887949D01*
X113491088Y-92963366D01*
X113491084Y-92963368D01*
X113327222Y-93072857D01*
X113187857Y-93212222D01*
X113078368Y-93376084D01*
X113078366Y-93376088D01*
X113002949Y-93558163D01*
X113002949Y-93558165D01*
X112964500Y-93751459D01*
X112465500Y-93751459D01*
X112427051Y-93558165D01*
X112351632Y-93376086D01*
X112242139Y-93212218D01*
X112102782Y-93072861D01*
X112102778Y-93072858D01*
X112102777Y-93072857D01*
X111938915Y-92963368D01*
X111938911Y-92963366D01*
X111756836Y-92887949D01*
X111708511Y-92878336D01*
X111563541Y-92849500D01*
X111366459Y-92849500D01*
X111250482Y-92872569D01*
X111173163Y-92887949D01*
X110991088Y-92963366D01*
X110991084Y-92963368D01*
X110827222Y-93072857D01*
X110687857Y-93212222D01*
X110578368Y-93376084D01*
X110578366Y-93376088D01*
X110502949Y-93558163D01*
X110502949Y-93558165D01*
X110464500Y-93751459D01*
X100508000Y-93751459D01*
X100508000Y-91046385D01*
X147389500Y-91046385D01*
X147389500Y-91233614D01*
X147426027Y-91417250D01*
X147426028Y-91417253D01*
X147497678Y-91590231D01*
X147497678Y-91590232D01*
X147601694Y-91745903D01*
X147601695Y-91745904D01*
X147601698Y-91745908D01*
X147734092Y-91878302D01*
X147889769Y-91982322D01*
X148062749Y-92053973D01*
X148246384Y-92090500D01*
X148246387Y-92090500D01*
X148433613Y-92090500D01*
X148433616Y-92090500D01*
X148617251Y-92053973D01*
X148790231Y-91982322D01*
X148945908Y-91878302D01*
X149078302Y-91745908D01*
X149182322Y-91590231D01*
X149253973Y-91417251D01*
X149290500Y-91233616D01*
X149290500Y-91046384D01*
X149253973Y-90862749D01*
X149182322Y-90689769D01*
X149078302Y-90534092D01*
X148945908Y-90401698D01*
X148945904Y-90401695D01*
X148945903Y-90401694D01*
X148790231Y-90297678D01*
X148617253Y-90226028D01*
X148617255Y-90226028D01*
X148617251Y-90226027D01*
X148433616Y-90189500D01*
X148246384Y-90189500D01*
X148062749Y-90226027D01*
X148062746Y-90226028D01*
X147889768Y-90297678D01*
X147889767Y-90297678D01*
X147734096Y-90401694D01*
X147601694Y-90534096D01*
X147497678Y-90689767D01*
X147497678Y-90689768D01*
X147426028Y-90862746D01*
X147426027Y-90862749D01*
X147389500Y-91046385D01*
X100508000Y-91046385D01*
X100508000Y-86856233D01*
X104289500Y-86856233D01*
X104289500Y-87023767D01*
X104319426Y-87174214D01*
X104322184Y-87188081D01*
X104322185Y-87188084D01*
X104386295Y-87342861D01*
X104386296Y-87342863D01*
X104479370Y-87482157D01*
X104479371Y-87482158D01*
X104479374Y-87482162D01*
X104597838Y-87600626D01*
X104597841Y-87600628D01*
X104597842Y-87600629D01*
X104737136Y-87693703D01*
X104737138Y-87693704D01*
X104791917Y-87716394D01*
X104891918Y-87757816D01*
X105056233Y-87790500D01*
X105056236Y-87790500D01*
X105223764Y-87790500D01*
X105223767Y-87790500D01*
X105388082Y-87757816D01*
X105542863Y-87693703D01*
X105682162Y-87600626D01*
X105800626Y-87482162D01*
X105893703Y-87342863D01*
X105957816Y-87188082D01*
X105990500Y-87023767D01*
X105990500Y-86856233D01*
X109289500Y-86856233D01*
X109289500Y-87023767D01*
X109319426Y-87174214D01*
X109322184Y-87188081D01*
X109322185Y-87188084D01*
X109386295Y-87342861D01*
X109386296Y-87342863D01*
X109479370Y-87482157D01*
X109479371Y-87482158D01*
X109479374Y-87482162D01*
X109597838Y-87600626D01*
X109597841Y-87600628D01*
X109597842Y-87600629D01*
X109737136Y-87693703D01*
X109737138Y-87693704D01*
X109791917Y-87716394D01*
X109891918Y-87757816D01*
X110056233Y-87790500D01*
X110056236Y-87790500D01*
X110223764Y-87790500D01*
X110223767Y-87790500D01*
X110388082Y-87757816D01*
X110542863Y-87693703D01*
X110682162Y-87600626D01*
X110800626Y-87482162D01*
X110893703Y-87342863D01*
X110957816Y-87188082D01*
X110990500Y-87023767D01*
X110990500Y-86856233D01*
X114289500Y-86856233D01*
X114289500Y-87023767D01*
X114319426Y-87174214D01*
X114322184Y-87188081D01*
X114322185Y-87188084D01*
X114386295Y-87342861D01*
X114386296Y-87342863D01*
X114479370Y-87482157D01*
X114479371Y-87482158D01*
X114479374Y-87482162D01*
X114597838Y-87600626D01*
X114597841Y-87600628D01*
X114597842Y-87600629D01*
X114737136Y-87693703D01*
X114737138Y-87693704D01*
X114791917Y-87716394D01*
X114891918Y-87757816D01*
X115056233Y-87790500D01*
X115056236Y-87790500D01*
X115223764Y-87790500D01*
X115223767Y-87790500D01*
X115388082Y-87757816D01*
X115542863Y-87693703D01*
X115682162Y-87600626D01*
X115800626Y-87482162D01*
X115893703Y-87342863D01*
X115957816Y-87188082D01*
X115990500Y-87023767D01*
X115990500Y-86856233D01*
X119289500Y-86856233D01*
X119289500Y-87023767D01*
X119319426Y-87174214D01*
X119322184Y-87188081D01*
X119322185Y-87188084D01*
X119386295Y-87342861D01*
X119386296Y-87342863D01*
X119479370Y-87482157D01*
X119479371Y-87482158D01*
X119479374Y-87482162D01*
X119597838Y-87600626D01*
X119597841Y-87600628D01*
X119597842Y-87600629D01*
X119737136Y-87693703D01*
X119737138Y-87693704D01*
X119791917Y-87716394D01*
X119891918Y-87757816D01*
X120056233Y-87790500D01*
X120056236Y-87790500D01*
X120223764Y-87790500D01*
X120223767Y-87790500D01*
X120388082Y-87757816D01*
X120542863Y-87693703D01*
X120682162Y-87600626D01*
X120800626Y-87482162D01*
X120893703Y-87342863D01*
X120957816Y-87188082D01*
X120990500Y-87023767D01*
X120990500Y-86856233D01*
X124289500Y-86856233D01*
X124289500Y-87023767D01*
X124319426Y-87174214D01*
X124322184Y-87188081D01*
X124322185Y-87188084D01*
X124386295Y-87342861D01*
X124386296Y-87342863D01*
X124479370Y-87482157D01*
X124479371Y-87482158D01*
X124479374Y-87482162D01*
X124597838Y-87600626D01*
X124597841Y-87600628D01*
X124597842Y-87600629D01*
X124737136Y-87693703D01*
X124737138Y-87693704D01*
X124791917Y-87716394D01*
X124891918Y-87757816D01*
X125056233Y-87790500D01*
X125056236Y-87790500D01*
X125223764Y-87790500D01*
X125223767Y-87790500D01*
X125388082Y-87757816D01*
X125542863Y-87693703D01*
X125682162Y-87600626D01*
X125800626Y-87482162D01*
X125893703Y-87342863D01*
X125957816Y-87188082D01*
X125990500Y-87023767D01*
X125990500Y-86856233D01*
X125957816Y-86691918D01*
X125893703Y-86537137D01*
X125845619Y-86465175D01*
X134097000Y-86465175D01*
X134097000Y-88494824D01*
X134105732Y-88538721D01*
X134138547Y-88587832D01*
X134138996Y-88588504D01*
X134188778Y-88621767D01*
X134232680Y-88630500D01*
X134232681Y-88630500D01*
X136167319Y-88630500D01*
X136167320Y-88630500D01*
X136211222Y-88621767D01*
X136261004Y-88588504D01*
X136294267Y-88538722D01*
X136303000Y-88494820D01*
X136303000Y-87716394D01*
X136322931Y-87635532D01*
X136378157Y-87573195D01*
X136456027Y-87543663D01*
X136538701Y-87553701D01*
X136607241Y-87601011D01*
X136645944Y-87674753D01*
X136648855Y-87689163D01*
X136664159Y-87785787D01*
X136717810Y-87950905D01*
X136717811Y-87950908D01*
X136717814Y-87950913D01*
X136796627Y-88105594D01*
X136796628Y-88105597D01*
X136898673Y-88246050D01*
X136898675Y-88246052D01*
X136898678Y-88246056D01*
X137021444Y-88368822D01*
X137021447Y-88368824D01*
X137021449Y-88368826D01*
X137161902Y-88470871D01*
X137161905Y-88470872D01*
X137208914Y-88494824D01*
X137316595Y-88549690D01*
X137481713Y-88603341D01*
X137653192Y-88630500D01*
X137653194Y-88630500D01*
X137826806Y-88630500D01*
X137826808Y-88630500D01*
X137998287Y-88603341D01*
X138163405Y-88549690D01*
X138318094Y-88470871D01*
X138318097Y-88470871D01*
X138458550Y-88368826D01*
X138458556Y-88368822D01*
X138581322Y-88246056D01*
X138683370Y-88105598D01*
X138762190Y-87950905D01*
X138815841Y-87785787D01*
X138838142Y-87644976D01*
X138870477Y-87568229D01*
X138934774Y-87515299D01*
X139016305Y-87498311D01*
X139096392Y-87521159D01*
X139156687Y-87578608D01*
X139181857Y-87644975D01*
X139204159Y-87785787D01*
X139257810Y-87950905D01*
X139257811Y-87950908D01*
X139257814Y-87950913D01*
X139336627Y-88105594D01*
X139336628Y-88105597D01*
X139438673Y-88246050D01*
X139438675Y-88246052D01*
X139438678Y-88246056D01*
X139561444Y-88368822D01*
X139561447Y-88368824D01*
X139561449Y-88368826D01*
X139701902Y-88470871D01*
X139701905Y-88470872D01*
X139748914Y-88494824D01*
X139856595Y-88549690D01*
X140021713Y-88603341D01*
X140193192Y-88630500D01*
X140193194Y-88630500D01*
X140366806Y-88630500D01*
X140366808Y-88630500D01*
X140538287Y-88603341D01*
X140703405Y-88549690D01*
X140858094Y-88470871D01*
X140858097Y-88470871D01*
X140998550Y-88368826D01*
X140998556Y-88368822D01*
X141121322Y-88246056D01*
X141223370Y-88105598D01*
X141302190Y-87950905D01*
X141355841Y-87785787D01*
X141383000Y-87614308D01*
X141383000Y-87345692D01*
X141355841Y-87174213D01*
X141302190Y-87009095D01*
X141255077Y-86916631D01*
X141223372Y-86854405D01*
X141223371Y-86854402D01*
X141121326Y-86713949D01*
X141121324Y-86713947D01*
X141121322Y-86713944D01*
X140998556Y-86591178D01*
X140998552Y-86591175D01*
X140998550Y-86591173D01*
X140858097Y-86489128D01*
X140858094Y-86489127D01*
X140703413Y-86410314D01*
X140703408Y-86410311D01*
X140665033Y-86397842D01*
X140538287Y-86356659D01*
X140366808Y-86329500D01*
X140193192Y-86329500D01*
X140021713Y-86356659D01*
X139976044Y-86371498D01*
X139856591Y-86410311D01*
X139856586Y-86410314D01*
X139701905Y-86489127D01*
X139701902Y-86489128D01*
X139561449Y-86591173D01*
X139438673Y-86713949D01*
X139336628Y-86854402D01*
X139336627Y-86854405D01*
X139257814Y-87009086D01*
X139257811Y-87009091D01*
X139250855Y-87030500D01*
X139204159Y-87174213D01*
X139190841Y-87258305D01*
X139181858Y-87315021D01*
X139149523Y-87391770D01*
X139085225Y-87444700D01*
X139003694Y-87461688D01*
X138923608Y-87438840D01*
X138863313Y-87381391D01*
X138838142Y-87315021D01*
X138831142Y-87270824D01*
X138815841Y-87174213D01*
X138762190Y-87009095D01*
X138715077Y-86916631D01*
X138683372Y-86854405D01*
X138683371Y-86854402D01*
X138581326Y-86713949D01*
X138581324Y-86713947D01*
X138581322Y-86713944D01*
X138458556Y-86591178D01*
X138458552Y-86591175D01*
X138458550Y-86591173D01*
X138318097Y-86489128D01*
X138318094Y-86489127D01*
X138163413Y-86410314D01*
X138163408Y-86410311D01*
X138125033Y-86397842D01*
X137998287Y-86356659D01*
X137826808Y-86329500D01*
X137653192Y-86329500D01*
X137481713Y-86356659D01*
X137436044Y-86371498D01*
X137316591Y-86410311D01*
X137316586Y-86410314D01*
X137161905Y-86489127D01*
X137161902Y-86489128D01*
X137021449Y-86591173D01*
X136898673Y-86713949D01*
X136796628Y-86854402D01*
X136796627Y-86854405D01*
X136717814Y-87009086D01*
X136717811Y-87009091D01*
X136710855Y-87030500D01*
X136664159Y-87174213D01*
X136650841Y-87258305D01*
X136648858Y-87270824D01*
X136616523Y-87347573D01*
X136552225Y-87400503D01*
X136470694Y-87417491D01*
X136390608Y-87394643D01*
X136330313Y-87337194D01*
X136303622Y-87258305D01*
X136303000Y-87243605D01*
X136303000Y-86465181D01*
X136302999Y-86465175D01*
X136294267Y-86421278D01*
X136261005Y-86371498D01*
X136261004Y-86371496D01*
X136211222Y-86338233D01*
X136211221Y-86338232D01*
X136167324Y-86329500D01*
X136167320Y-86329500D01*
X134232680Y-86329500D01*
X134232675Y-86329500D01*
X134188778Y-86338232D01*
X134138998Y-86371494D01*
X134138994Y-86371498D01*
X134105732Y-86421278D01*
X134097000Y-86465175D01*
X125845619Y-86465175D01*
X125800626Y-86397838D01*
X125682162Y-86279374D01*
X125682158Y-86279371D01*
X125682157Y-86279370D01*
X125542863Y-86186296D01*
X125542861Y-86186295D01*
X125388084Y-86122185D01*
X125388086Y-86122185D01*
X125388082Y-86122184D01*
X125223767Y-86089500D01*
X125056233Y-86089500D01*
X124891918Y-86122184D01*
X124891915Y-86122185D01*
X124737138Y-86186295D01*
X124737136Y-86186296D01*
X124597842Y-86279370D01*
X124479370Y-86397842D01*
X124386296Y-86537136D01*
X124386295Y-86537138D01*
X124322185Y-86691915D01*
X124322184Y-86691918D01*
X124289500Y-86856233D01*
X120990500Y-86856233D01*
X120957816Y-86691918D01*
X120893704Y-86537139D01*
X120893704Y-86537138D01*
X120893703Y-86537136D01*
X120800629Y-86397842D01*
X120800628Y-86397841D01*
X120800626Y-86397838D01*
X120682162Y-86279374D01*
X120682158Y-86279371D01*
X120682157Y-86279370D01*
X120542863Y-86186296D01*
X120542861Y-86186295D01*
X120388084Y-86122185D01*
X120388086Y-86122185D01*
X120388082Y-86122184D01*
X120223767Y-86089500D01*
X120056233Y-86089500D01*
X119891918Y-86122184D01*
X119891915Y-86122185D01*
X119737138Y-86186295D01*
X119737136Y-86186296D01*
X119597842Y-86279370D01*
X119479370Y-86397842D01*
X119386296Y-86537136D01*
X119386295Y-86537138D01*
X119322185Y-86691915D01*
X119322184Y-86691918D01*
X119289500Y-86856233D01*
X115990500Y-86856233D01*
X115957816Y-86691918D01*
X115893704Y-86537139D01*
X115893704Y-86537138D01*
X115893703Y-86537136D01*
X115800629Y-86397842D01*
X115800628Y-86397841D01*
X115800626Y-86397838D01*
X115682162Y-86279374D01*
X115682158Y-86279371D01*
X115682157Y-86279370D01*
X115542863Y-86186296D01*
X115542861Y-86186295D01*
X115388084Y-86122185D01*
X115388086Y-86122185D01*
X115388082Y-86122184D01*
X115223767Y-86089500D01*
X115056233Y-86089500D01*
X114891918Y-86122184D01*
X114891915Y-86122185D01*
X114737138Y-86186295D01*
X114737136Y-86186296D01*
X114597842Y-86279370D01*
X114479370Y-86397842D01*
X114386296Y-86537136D01*
X114386295Y-86537138D01*
X114322185Y-86691915D01*
X114322184Y-86691918D01*
X114289500Y-86856233D01*
X110990500Y-86856233D01*
X110957816Y-86691918D01*
X110893704Y-86537139D01*
X110893704Y-86537138D01*
X110893703Y-86537136D01*
X110800629Y-86397842D01*
X110800628Y-86397841D01*
X110800626Y-86397838D01*
X110682162Y-86279374D01*
X110682158Y-86279371D01*
X110682157Y-86279370D01*
X110542863Y-86186296D01*
X110542861Y-86186295D01*
X110388084Y-86122185D01*
X110388086Y-86122185D01*
X110388082Y-86122184D01*
X110223767Y-86089500D01*
X110056233Y-86089500D01*
X109891918Y-86122184D01*
X109891915Y-86122185D01*
X109737138Y-86186295D01*
X109737136Y-86186296D01*
X109597842Y-86279370D01*
X109479370Y-86397842D01*
X109386296Y-86537136D01*
X109386295Y-86537138D01*
X109322185Y-86691915D01*
X109322184Y-86691918D01*
X109289500Y-86856233D01*
X105990500Y-86856233D01*
X105957816Y-86691918D01*
X105893704Y-86537139D01*
X105893704Y-86537138D01*
X105893703Y-86537136D01*
X105800629Y-86397842D01*
X105800628Y-86397841D01*
X105800626Y-86397838D01*
X105682162Y-86279374D01*
X105682158Y-86279371D01*
X105682157Y-86279370D01*
X105542863Y-86186296D01*
X105542861Y-86186295D01*
X105388084Y-86122185D01*
X105388086Y-86122185D01*
X105388082Y-86122184D01*
X105223767Y-86089500D01*
X105056233Y-86089500D01*
X104891918Y-86122184D01*
X104891915Y-86122185D01*
X104737138Y-86186295D01*
X104737136Y-86186296D01*
X104597842Y-86279370D01*
X104479370Y-86397842D01*
X104386296Y-86537136D01*
X104386295Y-86537138D01*
X104322185Y-86691915D01*
X104322184Y-86691918D01*
X104289500Y-86856233D01*
X100508000Y-86856233D01*
X100508000Y-85498482D01*
X161029500Y-85498482D01*
X161029500Y-89161517D01*
X161044353Y-89255299D01*
X161044354Y-89255305D01*
X161070765Y-89307139D01*
X161101950Y-89368342D01*
X161191658Y-89458050D01*
X161304696Y-89515646D01*
X161398481Y-89530500D01*
X164121518Y-89530499D01*
X164215304Y-89515646D01*
X164328342Y-89458050D01*
X164418050Y-89368342D01*
X164475646Y-89255304D01*
X164490500Y-89161519D01*
X164490500Y-88431459D01*
X184814500Y-88431459D01*
X184814500Y-88628541D01*
X184814890Y-88630500D01*
X184852949Y-88821836D01*
X184928366Y-89003911D01*
X184928368Y-89003915D01*
X185037857Y-89167777D01*
X185037858Y-89167778D01*
X185037861Y-89167782D01*
X185177218Y-89307139D01*
X185177221Y-89307141D01*
X185177222Y-89307142D01*
X185341084Y-89416631D01*
X185341086Y-89416632D01*
X185523165Y-89492051D01*
X185716459Y-89530500D01*
X185716462Y-89530500D01*
X186163537Y-89530500D01*
X186163541Y-89530500D01*
X186356835Y-89492051D01*
X186538914Y-89416632D01*
X186702782Y-89307139D01*
X186842139Y-89167782D01*
X186951632Y-89003914D01*
X187027051Y-88821835D01*
X187065500Y-88628541D01*
X187065500Y-88431459D01*
X187027051Y-88238165D01*
X186951632Y-88056086D01*
X186881354Y-87950908D01*
X186842142Y-87892222D01*
X186842141Y-87892221D01*
X186842139Y-87892218D01*
X186702782Y-87752861D01*
X186702778Y-87752858D01*
X186702777Y-87752857D01*
X186538915Y-87643368D01*
X186538911Y-87643366D01*
X186356836Y-87567949D01*
X186285206Y-87553701D01*
X186163541Y-87529500D01*
X185716459Y-87529500D01*
X185600482Y-87552569D01*
X185523163Y-87567949D01*
X185341088Y-87643366D01*
X185341084Y-87643368D01*
X185177222Y-87752857D01*
X185037857Y-87892222D01*
X184928368Y-88056084D01*
X184928366Y-88056088D01*
X184852949Y-88238163D01*
X184851379Y-88246056D01*
X184814500Y-88431459D01*
X164490500Y-88431459D01*
X164490499Y-87315021D01*
X164490499Y-85931459D01*
X184814500Y-85931459D01*
X184814500Y-86128541D01*
X184825989Y-86186297D01*
X184852949Y-86321836D01*
X184928366Y-86503911D01*
X184928368Y-86503915D01*
X185037857Y-86667777D01*
X185037858Y-86667778D01*
X185037861Y-86667782D01*
X185177218Y-86807139D01*
X185177221Y-86807141D01*
X185177222Y-86807142D01*
X185341084Y-86916631D01*
X185341086Y-86916632D01*
X185523165Y-86992051D01*
X185716459Y-87030500D01*
X185716462Y-87030500D01*
X186163537Y-87030500D01*
X186163541Y-87030500D01*
X186356835Y-86992051D01*
X186538914Y-86916632D01*
X186702782Y-86807139D01*
X186842139Y-86667782D01*
X186951632Y-86503914D01*
X187027051Y-86321835D01*
X187065500Y-86128541D01*
X187065500Y-85931459D01*
X187027051Y-85738165D01*
X186951632Y-85556086D01*
X186913142Y-85498482D01*
X186842142Y-85392222D01*
X186842141Y-85392221D01*
X186842139Y-85392218D01*
X186702782Y-85252861D01*
X186702778Y-85252858D01*
X186702777Y-85252857D01*
X186538915Y-85143368D01*
X186538911Y-85143366D01*
X186356836Y-85067949D01*
X186308511Y-85058336D01*
X186163541Y-85029500D01*
X185716459Y-85029500D01*
X185600482Y-85052569D01*
X185523163Y-85067949D01*
X185341088Y-85143366D01*
X185341084Y-85143368D01*
X185177222Y-85252857D01*
X185037857Y-85392222D01*
X184928368Y-85556084D01*
X184928366Y-85556088D01*
X184852949Y-85738163D01*
X184852949Y-85738165D01*
X184814500Y-85931459D01*
X164490499Y-85931459D01*
X164490499Y-85922911D01*
X164490499Y-85498482D01*
X164490499Y-85498481D01*
X164475646Y-85404696D01*
X164418050Y-85291658D01*
X164328342Y-85201950D01*
X164215304Y-85144354D01*
X164215303Y-85144353D01*
X164215302Y-85144353D01*
X164151225Y-85134204D01*
X164121519Y-85129500D01*
X164121517Y-85129500D01*
X161398482Y-85129500D01*
X161304700Y-85144353D01*
X161304694Y-85144354D01*
X161191659Y-85201949D01*
X161101949Y-85291659D01*
X161044353Y-85404697D01*
X161044353Y-85404698D01*
X161029500Y-85498482D01*
X100508000Y-85498482D01*
X100508000Y-83431459D01*
X184814500Y-83431459D01*
X184814500Y-83628541D01*
X184845259Y-83783176D01*
X184852949Y-83821836D01*
X184928366Y-84003911D01*
X184928368Y-84003915D01*
X185037857Y-84167777D01*
X185037858Y-84167778D01*
X185037861Y-84167782D01*
X185177218Y-84307139D01*
X185177221Y-84307141D01*
X185177222Y-84307142D01*
X185341084Y-84416631D01*
X185341086Y-84416632D01*
X185523165Y-84492051D01*
X185716459Y-84530500D01*
X185716462Y-84530500D01*
X186163537Y-84530500D01*
X186163541Y-84530500D01*
X186356835Y-84492051D01*
X186538914Y-84416632D01*
X186702782Y-84307139D01*
X186842139Y-84167782D01*
X186951632Y-84003914D01*
X187027051Y-83821835D01*
X187065500Y-83628541D01*
X187065500Y-83431459D01*
X187027051Y-83238165D01*
X186951632Y-83056086D01*
X186842139Y-82892218D01*
X186702782Y-82752861D01*
X186702778Y-82752858D01*
X186702777Y-82752857D01*
X186538915Y-82643368D01*
X186538911Y-82643366D01*
X186356836Y-82567949D01*
X186308511Y-82558336D01*
X186163541Y-82529500D01*
X185716459Y-82529500D01*
X185600482Y-82552569D01*
X185523163Y-82567949D01*
X185341088Y-82643366D01*
X185341084Y-82643368D01*
X185177222Y-82752857D01*
X185037857Y-82892222D01*
X184928368Y-83056084D01*
X184928366Y-83056088D01*
X184852949Y-83238163D01*
X184852949Y-83238165D01*
X184814500Y-83431459D01*
X100508000Y-83431459D01*
X100508000Y-79236234D01*
X104289500Y-79236234D01*
X104289500Y-79403765D01*
X104322184Y-79568081D01*
X104322185Y-79568084D01*
X104386295Y-79722861D01*
X104386296Y-79722863D01*
X104479370Y-79862157D01*
X104479371Y-79862158D01*
X104479374Y-79862162D01*
X104597838Y-79980626D01*
X104597841Y-79980628D01*
X104597842Y-79980629D01*
X104737136Y-80073703D01*
X104737138Y-80073704D01*
X104804641Y-80101664D01*
X104891918Y-80137816D01*
X105056233Y-80170500D01*
X105056236Y-80170500D01*
X105223764Y-80170500D01*
X105223767Y-80170500D01*
X105388082Y-80137816D01*
X105542863Y-80073703D01*
X105682162Y-79980626D01*
X105800626Y-79862162D01*
X105893703Y-79722863D01*
X105957816Y-79568082D01*
X105990500Y-79403767D01*
X105990500Y-79236234D01*
X109289500Y-79236234D01*
X109289500Y-79403765D01*
X109322184Y-79568081D01*
X109322185Y-79568084D01*
X109386295Y-79722861D01*
X109386296Y-79722863D01*
X109479370Y-79862157D01*
X109479371Y-79862158D01*
X109479374Y-79862162D01*
X109597838Y-79980626D01*
X109597841Y-79980628D01*
X109597842Y-79980629D01*
X109737136Y-80073703D01*
X109737138Y-80073704D01*
X109804641Y-80101664D01*
X109891918Y-80137816D01*
X110056233Y-80170500D01*
X110056236Y-80170500D01*
X110223764Y-80170500D01*
X110223767Y-80170500D01*
X110388082Y-80137816D01*
X110542863Y-80073703D01*
X110682162Y-79980626D01*
X110800626Y-79862162D01*
X110893703Y-79722863D01*
X110957816Y-79568082D01*
X110990500Y-79403767D01*
X110990500Y-79236234D01*
X114289500Y-79236234D01*
X114289500Y-79403765D01*
X114322184Y-79568081D01*
X114322185Y-79568084D01*
X114386295Y-79722861D01*
X114386296Y-79722863D01*
X114479370Y-79862157D01*
X114479371Y-79862158D01*
X114479374Y-79862162D01*
X114597838Y-79980626D01*
X114597841Y-79980628D01*
X114597842Y-79980629D01*
X114737136Y-80073703D01*
X114737138Y-80073704D01*
X114804641Y-80101664D01*
X114891918Y-80137816D01*
X115056233Y-80170500D01*
X115056236Y-80170500D01*
X115223764Y-80170500D01*
X115223767Y-80170500D01*
X115388082Y-80137816D01*
X115542863Y-80073703D01*
X115682162Y-79980626D01*
X115800626Y-79862162D01*
X115893703Y-79722863D01*
X115957816Y-79568082D01*
X115990500Y-79403767D01*
X115990500Y-79236234D01*
X119289500Y-79236234D01*
X119289500Y-79403765D01*
X119322184Y-79568081D01*
X119322185Y-79568084D01*
X119386295Y-79722861D01*
X119386296Y-79722863D01*
X119479370Y-79862157D01*
X119479371Y-79862158D01*
X119479374Y-79862162D01*
X119597838Y-79980626D01*
X119597841Y-79980628D01*
X119597842Y-79980629D01*
X119737136Y-80073703D01*
X119737138Y-80073704D01*
X119804641Y-80101664D01*
X119891918Y-80137816D01*
X120056233Y-80170500D01*
X120056236Y-80170500D01*
X120223764Y-80170500D01*
X120223767Y-80170500D01*
X120388082Y-80137816D01*
X120542863Y-80073703D01*
X120682162Y-79980626D01*
X120800626Y-79862162D01*
X120893703Y-79722863D01*
X120957816Y-79568082D01*
X120990500Y-79403767D01*
X120990500Y-79236234D01*
X124289500Y-79236234D01*
X124289500Y-79403765D01*
X124322184Y-79568081D01*
X124322185Y-79568084D01*
X124386295Y-79722861D01*
X124386296Y-79722863D01*
X124479370Y-79862157D01*
X124479371Y-79862158D01*
X124479374Y-79862162D01*
X124597838Y-79980626D01*
X124597841Y-79980628D01*
X124597842Y-79980629D01*
X124737136Y-80073703D01*
X124737138Y-80073704D01*
X124804641Y-80101664D01*
X124891918Y-80137816D01*
X125056233Y-80170500D01*
X125056236Y-80170500D01*
X125223764Y-80170500D01*
X125223767Y-80170500D01*
X125388082Y-80137816D01*
X125542863Y-80073703D01*
X125682162Y-79980626D01*
X125800626Y-79862162D01*
X125893703Y-79722863D01*
X125957816Y-79568082D01*
X125990500Y-79403767D01*
X125990500Y-79236233D01*
X125957816Y-79071918D01*
X125921664Y-78984641D01*
X125893704Y-78917138D01*
X125893703Y-78917136D01*
X125800629Y-78777842D01*
X125800628Y-78777841D01*
X125800626Y-78777838D01*
X125682162Y-78659374D01*
X125682158Y-78659371D01*
X125682157Y-78659370D01*
X125542863Y-78566296D01*
X125542861Y-78566295D01*
X125388084Y-78502185D01*
X125388086Y-78502185D01*
X125388082Y-78502184D01*
X125223767Y-78469500D01*
X125056233Y-78469500D01*
X124891918Y-78502184D01*
X124891915Y-78502185D01*
X124737138Y-78566295D01*
X124737136Y-78566296D01*
X124597842Y-78659370D01*
X124479370Y-78777842D01*
X124386296Y-78917136D01*
X124386295Y-78917138D01*
X124322185Y-79071915D01*
X124322184Y-79071918D01*
X124289500Y-79236234D01*
X120990500Y-79236234D01*
X120990500Y-79236233D01*
X120957816Y-79071918D01*
X120921664Y-78984641D01*
X120893704Y-78917138D01*
X120893703Y-78917136D01*
X120800629Y-78777842D01*
X120800628Y-78777841D01*
X120800626Y-78777838D01*
X120682162Y-78659374D01*
X120682158Y-78659371D01*
X120682157Y-78659370D01*
X120542863Y-78566296D01*
X120542861Y-78566295D01*
X120388084Y-78502185D01*
X120388086Y-78502185D01*
X120388082Y-78502184D01*
X120223767Y-78469500D01*
X120056233Y-78469500D01*
X119891918Y-78502184D01*
X119891915Y-78502185D01*
X119737138Y-78566295D01*
X119737136Y-78566296D01*
X119597842Y-78659370D01*
X119479370Y-78777842D01*
X119386296Y-78917136D01*
X119386295Y-78917138D01*
X119322185Y-79071915D01*
X119322184Y-79071918D01*
X119289500Y-79236234D01*
X115990500Y-79236234D01*
X115990500Y-79236233D01*
X115957816Y-79071918D01*
X115921664Y-78984641D01*
X115893704Y-78917138D01*
X115893703Y-78917136D01*
X115800629Y-78777842D01*
X115800628Y-78777841D01*
X115800626Y-78777838D01*
X115682162Y-78659374D01*
X115682158Y-78659371D01*
X115682157Y-78659370D01*
X115542863Y-78566296D01*
X115542861Y-78566295D01*
X115388084Y-78502185D01*
X115388086Y-78502185D01*
X115388082Y-78502184D01*
X115223767Y-78469500D01*
X115056233Y-78469500D01*
X114891918Y-78502184D01*
X114891915Y-78502185D01*
X114737138Y-78566295D01*
X114737136Y-78566296D01*
X114597842Y-78659370D01*
X114479370Y-78777842D01*
X114386296Y-78917136D01*
X114386295Y-78917138D01*
X114322185Y-79071915D01*
X114322184Y-79071918D01*
X114289500Y-79236234D01*
X110990500Y-79236234D01*
X110990500Y-79236233D01*
X110957816Y-79071918D01*
X110921664Y-78984641D01*
X110893704Y-78917138D01*
X110893703Y-78917136D01*
X110800629Y-78777842D01*
X110800628Y-78777841D01*
X110800626Y-78777838D01*
X110682162Y-78659374D01*
X110682158Y-78659371D01*
X110682157Y-78659370D01*
X110542863Y-78566296D01*
X110542861Y-78566295D01*
X110388084Y-78502185D01*
X110388086Y-78502185D01*
X110388082Y-78502184D01*
X110223767Y-78469500D01*
X110056233Y-78469500D01*
X109891918Y-78502184D01*
X109891915Y-78502185D01*
X109737138Y-78566295D01*
X109737136Y-78566296D01*
X109597842Y-78659370D01*
X109479370Y-78777842D01*
X109386296Y-78917136D01*
X109386295Y-78917138D01*
X109322185Y-79071915D01*
X109322184Y-79071918D01*
X109289500Y-79236234D01*
X105990500Y-79236234D01*
X105990500Y-79236233D01*
X105957816Y-79071918D01*
X105921664Y-78984641D01*
X105893704Y-78917138D01*
X105893703Y-78917136D01*
X105800629Y-78777842D01*
X105800628Y-78777841D01*
X105800626Y-78777838D01*
X105682162Y-78659374D01*
X105682158Y-78659371D01*
X105682157Y-78659370D01*
X105542863Y-78566296D01*
X105542861Y-78566295D01*
X105388084Y-78502185D01*
X105388086Y-78502185D01*
X105388082Y-78502184D01*
X105223767Y-78469500D01*
X105056233Y-78469500D01*
X104891918Y-78502184D01*
X104891915Y-78502185D01*
X104737138Y-78566295D01*
X104737136Y-78566296D01*
X104597842Y-78659370D01*
X104479370Y-78777842D01*
X104386296Y-78917136D01*
X104386295Y-78917138D01*
X104322185Y-79071915D01*
X104322184Y-79071918D01*
X104289500Y-79236234D01*
X100508000Y-79236234D01*
X100508000Y-73748482D01*
X131899679Y-73748482D01*
X131899679Y-75311517D01*
X131914532Y-75405299D01*
X131914533Y-75405305D01*
X131928644Y-75432999D01*
X131972129Y-75518342D01*
X132061837Y-75608050D01*
X132174875Y-75665646D01*
X132268660Y-75680500D01*
X132397824Y-75680499D01*
X132478684Y-75700429D01*
X132541021Y-75755655D01*
X132570554Y-75833524D01*
X132571823Y-75854499D01*
X132571823Y-77311517D01*
X132586676Y-77405299D01*
X132586677Y-77405305D01*
X132642195Y-77514265D01*
X132644273Y-77518342D01*
X132733981Y-77608050D01*
X132847019Y-77665646D01*
X132940804Y-77680500D01*
X134503841Y-77680499D01*
X134597627Y-77665646D01*
X134710665Y-77608050D01*
X134800373Y-77518342D01*
X134857969Y-77405304D01*
X134872823Y-77311519D01*
X134872822Y-75748482D01*
X134857969Y-75654696D01*
X134800373Y-75541658D01*
X134710665Y-75451950D01*
X134597627Y-75394354D01*
X134597626Y-75394353D01*
X134597625Y-75394353D01*
X134521490Y-75382295D01*
X134503842Y-75379500D01*
X134503841Y-75379500D01*
X134374679Y-75379500D01*
X134293817Y-75359569D01*
X134231480Y-75304343D01*
X134201948Y-75226473D01*
X134200679Y-75205500D01*
X134200679Y-74739454D01*
X153189500Y-74739454D01*
X153189500Y-74920546D01*
X153217829Y-75099409D01*
X153252300Y-75205500D01*
X153273790Y-75271642D01*
X153356004Y-75432994D01*
X153356007Y-75432999D01*
X153462442Y-75579495D01*
X153462444Y-75579497D01*
X153462447Y-75579501D01*
X153590499Y-75707553D01*
X153590502Y-75707555D01*
X153590504Y-75707557D01*
X153646833Y-75748482D01*
X153737006Y-75813996D01*
X153898361Y-75896211D01*
X154070591Y-75952171D01*
X154249454Y-75980500D01*
X154249458Y-75980500D01*
X154430542Y-75980500D01*
X154430546Y-75980500D01*
X154609409Y-75952171D01*
X154781639Y-75896211D01*
X154942994Y-75813996D01*
X155089501Y-75707553D01*
X155217553Y-75579501D01*
X155323996Y-75432994D01*
X155406211Y-75271639D01*
X155462171Y-75099409D01*
X155490500Y-74920546D01*
X155490500Y-74739454D01*
X155474175Y-74636384D01*
X159179500Y-74636384D01*
X159179500Y-74823616D01*
X159216027Y-75007250D01*
X159216028Y-75007253D01*
X159287678Y-75180231D01*
X159287678Y-75180232D01*
X159391694Y-75335903D01*
X159391695Y-75335904D01*
X159391698Y-75335908D01*
X159524092Y-75468302D01*
X159679769Y-75572322D01*
X159852749Y-75643973D01*
X160036384Y-75680500D01*
X160036387Y-75680500D01*
X160223613Y-75680500D01*
X160223616Y-75680500D01*
X160407251Y-75643973D01*
X160580231Y-75572322D01*
X160735908Y-75468302D01*
X160868302Y-75335908D01*
X160972322Y-75180231D01*
X161043973Y-75007251D01*
X161080500Y-74823616D01*
X161080500Y-74636384D01*
X166799500Y-74636384D01*
X166799500Y-74823616D01*
X166836027Y-75007250D01*
X166836028Y-75007253D01*
X166907678Y-75180231D01*
X166907678Y-75180232D01*
X167011694Y-75335903D01*
X167011695Y-75335904D01*
X167011698Y-75335908D01*
X167144092Y-75468302D01*
X167299769Y-75572322D01*
X167472749Y-75643973D01*
X167656384Y-75680500D01*
X167656387Y-75680500D01*
X167843613Y-75680500D01*
X167843616Y-75680500D01*
X168027251Y-75643973D01*
X168200231Y-75572322D01*
X168355908Y-75468302D01*
X168488302Y-75335908D01*
X168592322Y-75180231D01*
X168663973Y-75007251D01*
X168700500Y-74823616D01*
X168700500Y-74636384D01*
X168663973Y-74452749D01*
X168592322Y-74279769D01*
X168557066Y-74227005D01*
X168488305Y-74124096D01*
X168488304Y-74124095D01*
X168488302Y-74124092D01*
X168355908Y-73991698D01*
X168355904Y-73991695D01*
X168355903Y-73991694D01*
X168200231Y-73887678D01*
X168099629Y-73846007D01*
X168027251Y-73816027D01*
X167843616Y-73779500D01*
X167656384Y-73779500D01*
X167472749Y-73816027D01*
X167472746Y-73816028D01*
X167299768Y-73887678D01*
X167299767Y-73887678D01*
X167144096Y-73991694D01*
X167011694Y-74124096D01*
X166907678Y-74279767D01*
X166907678Y-74279768D01*
X166836028Y-74452746D01*
X166836027Y-74452749D01*
X166799500Y-74636384D01*
X161080500Y-74636384D01*
X161043973Y-74452749D01*
X160972322Y-74279769D01*
X160937066Y-74227005D01*
X160868305Y-74124096D01*
X160868304Y-74124095D01*
X160868302Y-74124092D01*
X160735908Y-73991698D01*
X160735904Y-73991695D01*
X160735903Y-73991694D01*
X160580231Y-73887678D01*
X160479629Y-73846007D01*
X160407251Y-73816027D01*
X160223616Y-73779500D01*
X160036384Y-73779500D01*
X159852749Y-73816027D01*
X159852746Y-73816028D01*
X159679768Y-73887678D01*
X159679767Y-73887678D01*
X159524096Y-73991694D01*
X159391694Y-74124096D01*
X159287678Y-74279767D01*
X159287678Y-74279768D01*
X159216028Y-74452746D01*
X159216027Y-74452749D01*
X159179500Y-74636384D01*
X155474175Y-74636384D01*
X155462171Y-74560591D01*
X155406211Y-74388361D01*
X155323996Y-74227006D01*
X155217553Y-74080499D01*
X155089501Y-73952447D01*
X155089497Y-73952444D01*
X155089495Y-73952442D01*
X154942999Y-73846007D01*
X154942994Y-73846004D01*
X154781642Y-73763790D01*
X154609412Y-73707830D01*
X154609409Y-73707829D01*
X154430546Y-73679500D01*
X154249454Y-73679500D01*
X154070591Y-73707829D01*
X154070588Y-73707829D01*
X154070587Y-73707830D01*
X153898357Y-73763790D01*
X153737005Y-73846004D01*
X153737000Y-73846007D01*
X153590504Y-73952442D01*
X153462442Y-74080504D01*
X153356007Y-74227000D01*
X153356004Y-74227005D01*
X153273790Y-74388357D01*
X153273789Y-74388361D01*
X153217829Y-74560591D01*
X153189500Y-74739454D01*
X134200679Y-74739454D01*
X134200679Y-74732618D01*
X134200678Y-73748482D01*
X134194240Y-73707830D01*
X134185825Y-73654696D01*
X134128229Y-73541658D01*
X134038521Y-73451950D01*
X133925483Y-73394354D01*
X133925482Y-73394353D01*
X133925481Y-73394353D01*
X133861404Y-73384204D01*
X133831698Y-73379500D01*
X133831696Y-73379500D01*
X132268661Y-73379500D01*
X132174879Y-73394353D01*
X132174873Y-73394354D01*
X132061838Y-73451949D01*
X131972128Y-73541659D01*
X131914532Y-73654697D01*
X131914532Y-73654698D01*
X131899679Y-73748482D01*
X100508000Y-73748482D01*
X100508000Y-70898482D01*
X103849500Y-70898482D01*
X103849500Y-72061517D01*
X103864353Y-72155299D01*
X103864354Y-72155305D01*
X103896453Y-72218302D01*
X103921950Y-72268342D01*
X104011658Y-72358050D01*
X104124696Y-72415646D01*
X104218481Y-72430500D01*
X105381518Y-72430499D01*
X105475304Y-72415646D01*
X105588342Y-72358050D01*
X105678050Y-72268342D01*
X105735646Y-72155304D01*
X105750500Y-72061519D01*
X105750499Y-71386384D01*
X106389500Y-71386384D01*
X106389500Y-71573616D01*
X106426027Y-71757251D01*
X106497678Y-71930231D01*
X106497678Y-71930232D01*
X106601694Y-72085903D01*
X106601695Y-72085904D01*
X106601698Y-72085908D01*
X106734092Y-72218302D01*
X106889769Y-72322322D01*
X107062749Y-72393973D01*
X107246384Y-72430500D01*
X107246387Y-72430500D01*
X107433613Y-72430500D01*
X107433616Y-72430500D01*
X107617251Y-72393973D01*
X107790231Y-72322322D01*
X107945908Y-72218302D01*
X108078302Y-72085908D01*
X108182322Y-71930231D01*
X108253973Y-71757251D01*
X108290500Y-71573616D01*
X108290500Y-71386384D01*
X108929500Y-71386384D01*
X108929500Y-71573616D01*
X108966027Y-71757251D01*
X109037678Y-71930231D01*
X109037678Y-71930232D01*
X109141694Y-72085903D01*
X109141695Y-72085904D01*
X109141698Y-72085908D01*
X109274092Y-72218302D01*
X109429769Y-72322322D01*
X109602749Y-72393973D01*
X109786384Y-72430500D01*
X109786387Y-72430500D01*
X109973613Y-72430500D01*
X109973616Y-72430500D01*
X110157251Y-72393973D01*
X110330231Y-72322322D01*
X110485908Y-72218302D01*
X110618302Y-72085908D01*
X110722322Y-71930231D01*
X110793973Y-71757251D01*
X110830500Y-71573616D01*
X110830500Y-71386384D01*
X111469500Y-71386384D01*
X111469500Y-71573616D01*
X111506027Y-71757251D01*
X111577678Y-71930231D01*
X111577678Y-71930232D01*
X111681694Y-72085903D01*
X111681695Y-72085904D01*
X111681698Y-72085908D01*
X111814092Y-72218302D01*
X111969769Y-72322322D01*
X112142749Y-72393973D01*
X112326384Y-72430500D01*
X112326387Y-72430500D01*
X112513613Y-72430500D01*
X112513616Y-72430500D01*
X112697251Y-72393973D01*
X112870231Y-72322322D01*
X113025908Y-72218302D01*
X113158302Y-72085908D01*
X113262322Y-71930231D01*
X113333973Y-71757251D01*
X113370500Y-71573616D01*
X113370500Y-71386384D01*
X114009500Y-71386384D01*
X114009500Y-71573616D01*
X114046027Y-71757251D01*
X114117678Y-71930231D01*
X114117678Y-71930232D01*
X114221694Y-72085903D01*
X114221695Y-72085904D01*
X114221698Y-72085908D01*
X114354092Y-72218302D01*
X114509769Y-72322322D01*
X114682749Y-72393973D01*
X114866384Y-72430500D01*
X114866387Y-72430500D01*
X115053613Y-72430500D01*
X115053616Y-72430500D01*
X115237251Y-72393973D01*
X115410231Y-72322322D01*
X115565908Y-72218302D01*
X115698302Y-72085908D01*
X115802322Y-71930231D01*
X115873973Y-71757251D01*
X115910500Y-71573616D01*
X115910500Y-71386384D01*
X116549500Y-71386384D01*
X116549500Y-71573616D01*
X116586027Y-71757251D01*
X116657678Y-71930231D01*
X116657678Y-71930232D01*
X116761694Y-72085903D01*
X116761695Y-72085904D01*
X116761698Y-72085908D01*
X116894092Y-72218302D01*
X117049769Y-72322322D01*
X117222749Y-72393973D01*
X117406384Y-72430500D01*
X117406387Y-72430500D01*
X117593613Y-72430500D01*
X117593616Y-72430500D01*
X117777251Y-72393973D01*
X117950231Y-72322322D01*
X118105908Y-72218302D01*
X118238302Y-72085908D01*
X118342322Y-71930231D01*
X118413973Y-71757251D01*
X118450500Y-71573616D01*
X118450500Y-71386384D01*
X119089500Y-71386384D01*
X119089500Y-71573616D01*
X119126027Y-71757251D01*
X119197678Y-71930231D01*
X119197678Y-71930232D01*
X119301694Y-72085903D01*
X119301695Y-72085904D01*
X119301698Y-72085908D01*
X119434092Y-72218302D01*
X119589769Y-72322322D01*
X119762749Y-72393973D01*
X119946384Y-72430500D01*
X119946387Y-72430500D01*
X120133613Y-72430500D01*
X120133616Y-72430500D01*
X120317251Y-72393973D01*
X120490231Y-72322322D01*
X120645908Y-72218302D01*
X120778302Y-72085908D01*
X120882322Y-71930231D01*
X120953973Y-71757251D01*
X120990500Y-71573616D01*
X120990500Y-71386384D01*
X120953973Y-71202749D01*
X120882322Y-71029769D01*
X120828198Y-70948767D01*
X120778305Y-70874096D01*
X120778304Y-70874095D01*
X120778302Y-70874092D01*
X120685444Y-70781234D01*
X178764500Y-70781234D01*
X178764500Y-70948765D01*
X178797184Y-71113081D01*
X178797185Y-71113084D01*
X178861295Y-71267861D01*
X178861296Y-71267863D01*
X178954370Y-71407157D01*
X178954371Y-71407158D01*
X178954374Y-71407162D01*
X179072838Y-71525626D01*
X179072841Y-71525628D01*
X179072842Y-71525629D01*
X179212136Y-71618703D01*
X179212138Y-71618704D01*
X179279641Y-71646664D01*
X179366918Y-71682816D01*
X179531233Y-71715500D01*
X179531236Y-71715500D01*
X179698764Y-71715500D01*
X179698767Y-71715500D01*
X179863082Y-71682816D01*
X180017863Y-71618703D01*
X180157162Y-71525626D01*
X180275626Y-71407162D01*
X180368703Y-71267863D01*
X180432816Y-71113082D01*
X180465500Y-70948767D01*
X180465500Y-70931459D01*
X184814500Y-70931459D01*
X184814500Y-71128541D01*
X184829261Y-71202749D01*
X184852949Y-71321836D01*
X184928366Y-71503911D01*
X184928368Y-71503915D01*
X185037857Y-71667777D01*
X185037858Y-71667778D01*
X185037861Y-71667782D01*
X185177218Y-71807139D01*
X185177221Y-71807141D01*
X185177222Y-71807142D01*
X185341084Y-71916631D01*
X185341088Y-71916633D01*
X185432125Y-71954341D01*
X185523165Y-71992051D01*
X185716459Y-72030500D01*
X185716462Y-72030500D01*
X186163537Y-72030500D01*
X186163541Y-72030500D01*
X186356835Y-71992051D01*
X186538914Y-71916632D01*
X186702782Y-71807139D01*
X186842139Y-71667782D01*
X186951632Y-71503914D01*
X187027051Y-71321835D01*
X187065500Y-71128541D01*
X187065500Y-70931459D01*
X187027051Y-70738165D01*
X186954899Y-70563973D01*
X186951633Y-70556088D01*
X186951631Y-70556084D01*
X186842142Y-70392222D01*
X186842141Y-70392221D01*
X186842139Y-70392218D01*
X186702782Y-70252861D01*
X186702778Y-70252858D01*
X186702777Y-70252857D01*
X186538915Y-70143368D01*
X186538911Y-70143366D01*
X186356836Y-70067949D01*
X186308511Y-70058336D01*
X186163541Y-70029500D01*
X185716459Y-70029500D01*
X185627557Y-70047184D01*
X185523163Y-70067949D01*
X185341088Y-70143366D01*
X185341084Y-70143368D01*
X185177222Y-70252857D01*
X185037857Y-70392222D01*
X184928368Y-70556084D01*
X184928366Y-70556088D01*
X184852949Y-70738163D01*
X184839715Y-70804694D01*
X184814500Y-70931459D01*
X180465500Y-70931459D01*
X180465500Y-70781233D01*
X180432816Y-70616918D01*
X180381206Y-70492321D01*
X180368704Y-70462138D01*
X180368703Y-70462136D01*
X180275629Y-70322842D01*
X180275628Y-70322841D01*
X180275626Y-70322838D01*
X180157162Y-70204374D01*
X180157158Y-70204371D01*
X180157157Y-70204370D01*
X180017863Y-70111296D01*
X180017861Y-70111295D01*
X179863084Y-70047185D01*
X179863086Y-70047185D01*
X179863082Y-70047184D01*
X179698767Y-70014500D01*
X179531233Y-70014500D01*
X179366918Y-70047184D01*
X179366915Y-70047185D01*
X179212138Y-70111295D01*
X179212136Y-70111296D01*
X179072842Y-70204370D01*
X178954370Y-70322842D01*
X178861296Y-70462136D01*
X178861295Y-70462138D01*
X178803384Y-70601949D01*
X178797184Y-70616918D01*
X178782318Y-70691658D01*
X178764500Y-70781234D01*
X120685444Y-70781234D01*
X120645908Y-70741698D01*
X120645904Y-70741695D01*
X120645903Y-70741694D01*
X120490231Y-70637678D01*
X120317253Y-70566028D01*
X120317255Y-70566028D01*
X120317251Y-70566027D01*
X120133616Y-70529500D01*
X119946384Y-70529500D01*
X119812736Y-70556084D01*
X119762749Y-70566027D01*
X119762746Y-70566028D01*
X119589768Y-70637678D01*
X119589767Y-70637678D01*
X119434096Y-70741694D01*
X119301694Y-70874096D01*
X119197678Y-71029767D01*
X119197678Y-71029768D01*
X119156765Y-71128541D01*
X119126027Y-71202749D01*
X119089500Y-71386384D01*
X118450500Y-71386384D01*
X118413973Y-71202749D01*
X118342322Y-71029769D01*
X118288198Y-70948767D01*
X118238305Y-70874096D01*
X118238304Y-70874095D01*
X118238302Y-70874092D01*
X118105908Y-70741698D01*
X118105904Y-70741695D01*
X118105903Y-70741694D01*
X117950231Y-70637678D01*
X117777253Y-70566028D01*
X117777255Y-70566028D01*
X117777251Y-70566027D01*
X117593616Y-70529500D01*
X117406384Y-70529500D01*
X117272736Y-70556084D01*
X117222749Y-70566027D01*
X117222746Y-70566028D01*
X117049768Y-70637678D01*
X117049767Y-70637678D01*
X116894096Y-70741694D01*
X116761694Y-70874096D01*
X116657678Y-71029767D01*
X116657678Y-71029768D01*
X116616765Y-71128541D01*
X116586027Y-71202749D01*
X116549500Y-71386384D01*
X115910500Y-71386384D01*
X115873973Y-71202749D01*
X115802322Y-71029769D01*
X115748198Y-70948767D01*
X115698305Y-70874096D01*
X115698304Y-70874095D01*
X115698302Y-70874092D01*
X115565908Y-70741698D01*
X115565904Y-70741695D01*
X115565903Y-70741694D01*
X115410231Y-70637678D01*
X115237253Y-70566028D01*
X115237255Y-70566028D01*
X115237251Y-70566027D01*
X115053616Y-70529500D01*
X114866384Y-70529500D01*
X114732736Y-70556084D01*
X114682749Y-70566027D01*
X114682746Y-70566028D01*
X114509768Y-70637678D01*
X114509767Y-70637678D01*
X114354096Y-70741694D01*
X114221694Y-70874096D01*
X114117678Y-71029767D01*
X114117678Y-71029768D01*
X114076765Y-71128541D01*
X114046027Y-71202749D01*
X114009500Y-71386384D01*
X113370500Y-71386384D01*
X113333973Y-71202749D01*
X113262322Y-71029769D01*
X113208198Y-70948767D01*
X113158305Y-70874096D01*
X113158304Y-70874095D01*
X113158302Y-70874092D01*
X113025908Y-70741698D01*
X113025904Y-70741695D01*
X113025903Y-70741694D01*
X112870231Y-70637678D01*
X112697253Y-70566028D01*
X112697255Y-70566028D01*
X112697251Y-70566027D01*
X112513616Y-70529500D01*
X112326384Y-70529500D01*
X112192736Y-70556084D01*
X112142749Y-70566027D01*
X112142746Y-70566028D01*
X111969768Y-70637678D01*
X111969767Y-70637678D01*
X111814096Y-70741694D01*
X111681694Y-70874096D01*
X111577678Y-71029767D01*
X111577678Y-71029768D01*
X111536765Y-71128541D01*
X111506027Y-71202749D01*
X111469500Y-71386384D01*
X110830500Y-71386384D01*
X110793973Y-71202749D01*
X110722322Y-71029769D01*
X110668198Y-70948767D01*
X110618305Y-70874096D01*
X110618304Y-70874095D01*
X110618302Y-70874092D01*
X110485908Y-70741698D01*
X110485904Y-70741695D01*
X110485903Y-70741694D01*
X110330231Y-70637678D01*
X110157253Y-70566028D01*
X110157255Y-70566028D01*
X110157251Y-70566027D01*
X109973616Y-70529500D01*
X109786384Y-70529500D01*
X109652736Y-70556084D01*
X109602749Y-70566027D01*
X109602746Y-70566028D01*
X109429768Y-70637678D01*
X109429767Y-70637678D01*
X109274096Y-70741694D01*
X109141694Y-70874096D01*
X109037678Y-71029767D01*
X109037678Y-71029768D01*
X108996765Y-71128541D01*
X108966027Y-71202749D01*
X108929500Y-71386384D01*
X108290500Y-71386384D01*
X108253973Y-71202749D01*
X108182322Y-71029769D01*
X108128198Y-70948767D01*
X108078305Y-70874096D01*
X108078304Y-70874095D01*
X108078302Y-70874092D01*
X107945908Y-70741698D01*
X107945904Y-70741695D01*
X107945903Y-70741694D01*
X107790231Y-70637678D01*
X107617253Y-70566028D01*
X107617255Y-70566028D01*
X107617251Y-70566027D01*
X107433616Y-70529500D01*
X107246384Y-70529500D01*
X107112736Y-70556084D01*
X107062749Y-70566027D01*
X107062746Y-70566028D01*
X106889768Y-70637678D01*
X106889767Y-70637678D01*
X106734096Y-70741694D01*
X106601694Y-70874096D01*
X106497678Y-71029767D01*
X106497678Y-71029768D01*
X106456765Y-71128541D01*
X106426027Y-71202749D01*
X106389500Y-71386384D01*
X105750499Y-71386384D01*
X105750499Y-70898482D01*
X105735646Y-70804696D01*
X105678050Y-70691658D01*
X105588342Y-70601950D01*
X105475304Y-70544354D01*
X105475303Y-70544353D01*
X105475302Y-70544353D01*
X105411225Y-70534204D01*
X105381519Y-70529500D01*
X105381517Y-70529500D01*
X104218482Y-70529500D01*
X104124700Y-70544353D01*
X104124694Y-70544354D01*
X104011659Y-70601949D01*
X103921949Y-70691659D01*
X103864353Y-70804697D01*
X103864353Y-70804698D01*
X103849500Y-70898482D01*
X100508000Y-70898482D01*
X100508000Y-69556385D01*
X148989500Y-69556385D01*
X148989500Y-69743614D01*
X149026027Y-69927250D01*
X149026028Y-69927253D01*
X149097678Y-70100231D01*
X149097678Y-70100232D01*
X149201694Y-70255903D01*
X149201695Y-70255904D01*
X149201698Y-70255908D01*
X149334092Y-70388302D01*
X149334095Y-70388304D01*
X149334096Y-70388305D01*
X149411396Y-70439955D01*
X149489769Y-70492322D01*
X149662749Y-70563973D01*
X149846384Y-70600500D01*
X149846387Y-70600500D01*
X150033613Y-70600500D01*
X150033616Y-70600500D01*
X150217251Y-70563973D01*
X150390231Y-70492322D01*
X150545908Y-70388302D01*
X150678302Y-70255908D01*
X150782322Y-70100231D01*
X150853973Y-69927251D01*
X150890500Y-69743616D01*
X150890500Y-69556384D01*
X150853973Y-69372749D01*
X150782322Y-69199769D01*
X150766105Y-69175499D01*
X150678305Y-69044096D01*
X150678304Y-69044095D01*
X150678302Y-69044092D01*
X150545908Y-68911698D01*
X150545904Y-68911695D01*
X150545903Y-68911694D01*
X150390231Y-68807678D01*
X150217253Y-68736028D01*
X150217255Y-68736028D01*
X150217251Y-68736027D01*
X150033616Y-68699500D01*
X149846384Y-68699500D01*
X149703803Y-68727861D01*
X149662749Y-68736027D01*
X149662746Y-68736028D01*
X149489768Y-68807678D01*
X149489767Y-68807678D01*
X149334096Y-68911694D01*
X149201694Y-69044096D01*
X149097678Y-69199767D01*
X149097678Y-69199768D01*
X149026028Y-69372746D01*
X149026027Y-69372749D01*
X148989500Y-69556385D01*
X100508000Y-69556385D01*
X100508000Y-67246384D01*
X143489500Y-67246384D01*
X143489500Y-67433616D01*
X143526027Y-67617251D01*
X143545546Y-67664374D01*
X143597678Y-67790231D01*
X143597678Y-67790232D01*
X143701694Y-67945903D01*
X143701695Y-67945904D01*
X143701698Y-67945908D01*
X143834092Y-68078302D01*
X143834095Y-68078304D01*
X143834096Y-68078305D01*
X143911396Y-68129955D01*
X143989769Y-68182322D01*
X144162749Y-68253973D01*
X144346384Y-68290500D01*
X144346387Y-68290500D01*
X144533613Y-68290500D01*
X144533616Y-68290500D01*
X144717251Y-68253973D01*
X144748008Y-68241233D01*
X178764500Y-68241233D01*
X178764500Y-68408767D01*
X178797184Y-68573081D01*
X178797185Y-68573084D01*
X178861295Y-68727861D01*
X178861296Y-68727863D01*
X178954370Y-68867157D01*
X178954371Y-68867158D01*
X178954374Y-68867162D01*
X179072838Y-68985626D01*
X179072841Y-68985628D01*
X179072842Y-68985629D01*
X179212136Y-69078703D01*
X179212138Y-69078704D01*
X179279641Y-69106664D01*
X179366918Y-69142816D01*
X179531233Y-69175500D01*
X179531236Y-69175500D01*
X179698764Y-69175500D01*
X179698767Y-69175500D01*
X179863082Y-69142816D01*
X180017863Y-69078703D01*
X180157162Y-68985626D01*
X180275626Y-68867162D01*
X180368703Y-68727863D01*
X180432816Y-68573082D01*
X180460986Y-68431459D01*
X184814500Y-68431459D01*
X184814500Y-68628541D01*
X184828615Y-68699500D01*
X184852949Y-68821836D01*
X184928366Y-69003911D01*
X184928368Y-69003915D01*
X185037857Y-69167777D01*
X185037858Y-69167778D01*
X185037861Y-69167782D01*
X185177218Y-69307139D01*
X185177221Y-69307141D01*
X185177222Y-69307142D01*
X185341084Y-69416631D01*
X185341086Y-69416632D01*
X185523165Y-69492051D01*
X185716459Y-69530500D01*
X185716462Y-69530500D01*
X186163537Y-69530500D01*
X186163541Y-69530500D01*
X186356835Y-69492051D01*
X186538914Y-69416632D01*
X186702782Y-69307139D01*
X186842139Y-69167782D01*
X186951632Y-69003914D01*
X187027051Y-68821835D01*
X187065500Y-68628541D01*
X187065500Y-68431459D01*
X187027051Y-68238165D01*
X186951632Y-68056086D01*
X186878013Y-67945908D01*
X186842142Y-67892222D01*
X186842141Y-67892221D01*
X186842139Y-67892218D01*
X186702782Y-67752861D01*
X186702778Y-67752858D01*
X186702777Y-67752857D01*
X186538915Y-67643368D01*
X186538911Y-67643366D01*
X186356836Y-67567949D01*
X186308511Y-67558336D01*
X186163541Y-67529500D01*
X185716459Y-67529500D01*
X185600482Y-67552569D01*
X185523163Y-67567949D01*
X185341088Y-67643366D01*
X185341084Y-67643368D01*
X185177222Y-67752857D01*
X185037857Y-67892222D01*
X184928368Y-68056084D01*
X184928366Y-68056088D01*
X184852949Y-68238163D01*
X184842539Y-68290499D01*
X184814500Y-68431459D01*
X180460986Y-68431459D01*
X180465500Y-68408767D01*
X180465500Y-68241233D01*
X180432816Y-68076918D01*
X180396664Y-67989641D01*
X180368704Y-67922138D01*
X180368703Y-67922136D01*
X180275629Y-67782842D01*
X180275628Y-67782841D01*
X180275626Y-67782838D01*
X180157162Y-67664374D01*
X180157158Y-67664371D01*
X180157157Y-67664370D01*
X180017863Y-67571296D01*
X180017861Y-67571295D01*
X179863084Y-67507185D01*
X179863086Y-67507185D01*
X179863082Y-67507184D01*
X179698767Y-67474500D01*
X179531233Y-67474500D01*
X179366918Y-67507184D01*
X179366915Y-67507185D01*
X179212138Y-67571295D01*
X179212136Y-67571296D01*
X179072842Y-67664370D01*
X178954370Y-67782842D01*
X178861296Y-67922136D01*
X178861295Y-67922138D01*
X178805813Y-68056086D01*
X178797184Y-68076918D01*
X178764500Y-68241233D01*
X144748008Y-68241233D01*
X144890231Y-68182322D01*
X144890232Y-68182321D01*
X145031381Y-68088009D01*
X145038970Y-68082937D01*
X145045908Y-68078302D01*
X145178302Y-67945908D01*
X145282322Y-67790231D01*
X145353973Y-67617251D01*
X145390500Y-67433616D01*
X145390500Y-67246384D01*
X145353973Y-67062749D01*
X145282322Y-66889769D01*
X145241276Y-66828340D01*
X145178305Y-66734096D01*
X145178304Y-66734095D01*
X145178302Y-66734092D01*
X145045908Y-66601698D01*
X145045904Y-66601695D01*
X145045903Y-66601694D01*
X144890231Y-66497678D01*
X144717253Y-66426028D01*
X144717255Y-66426028D01*
X144717251Y-66426027D01*
X144533616Y-66389500D01*
X144346384Y-66389500D01*
X144162749Y-66426027D01*
X144162746Y-66426028D01*
X143989768Y-66497678D01*
X143989767Y-66497678D01*
X143834096Y-66601694D01*
X143701694Y-66734096D01*
X143597678Y-66889767D01*
X143597678Y-66889768D01*
X143526028Y-67062746D01*
X143526027Y-67062749D01*
X143489500Y-67246384D01*
X100508000Y-67246384D01*
X100508000Y-66146385D01*
X127319500Y-66146385D01*
X127319500Y-66333614D01*
X127356027Y-66517250D01*
X127356028Y-66517253D01*
X127427678Y-66690231D01*
X127427678Y-66690232D01*
X127531694Y-66845903D01*
X127531695Y-66845904D01*
X127531698Y-66845908D01*
X127664092Y-66978302D01*
X127664095Y-66978304D01*
X127664096Y-66978305D01*
X127741396Y-67029955D01*
X127819769Y-67082322D01*
X127992749Y-67153973D01*
X128176384Y-67190500D01*
X128176387Y-67190500D01*
X128363613Y-67190500D01*
X128363616Y-67190500D01*
X128547251Y-67153973D01*
X128720231Y-67082322D01*
X128875908Y-66978302D01*
X129008302Y-66845908D01*
X129112322Y-66690231D01*
X129183973Y-66517251D01*
X129220500Y-66333616D01*
X129220500Y-66146384D01*
X129183973Y-65962749D01*
X129112322Y-65789769D01*
X129008302Y-65634092D01*
X128875908Y-65501698D01*
X128720231Y-65397678D01*
X128625604Y-65358482D01*
X133999500Y-65358482D01*
X133999500Y-66621517D01*
X134014353Y-66715299D01*
X134014354Y-66715305D01*
X134023927Y-66734092D01*
X134071950Y-66828342D01*
X134161658Y-66918050D01*
X134274696Y-66975646D01*
X134368481Y-66990500D01*
X135931518Y-66990499D01*
X136025304Y-66975646D01*
X136138342Y-66918050D01*
X136228050Y-66828342D01*
X136285646Y-66715304D01*
X136300500Y-66621519D01*
X136300499Y-65358482D01*
X136285646Y-65264696D01*
X136228050Y-65151658D01*
X136138342Y-65061950D01*
X136025304Y-65004354D01*
X136025303Y-65004353D01*
X136025302Y-65004353D01*
X135961225Y-64994204D01*
X135931519Y-64989500D01*
X135931517Y-64989500D01*
X134368482Y-64989500D01*
X134274700Y-65004353D01*
X134274694Y-65004354D01*
X134161659Y-65061949D01*
X134071949Y-65151659D01*
X134014353Y-65264697D01*
X134014353Y-65264698D01*
X133999500Y-65358482D01*
X128625604Y-65358482D01*
X128547251Y-65326027D01*
X128363616Y-65289500D01*
X128176384Y-65289500D01*
X127992749Y-65326027D01*
X127992746Y-65326028D01*
X127819768Y-65397678D01*
X127819767Y-65397678D01*
X127664096Y-65501694D01*
X127531694Y-65634096D01*
X127427678Y-65789767D01*
X127427678Y-65789768D01*
X127356028Y-65962746D01*
X127356027Y-65962749D01*
X127319500Y-66146385D01*
X100508000Y-66146385D01*
X100508000Y-63766384D01*
X103849500Y-63766384D01*
X103849500Y-63953616D01*
X103876302Y-64088361D01*
X103886027Y-64137250D01*
X103886028Y-64137253D01*
X103957678Y-64310231D01*
X103957678Y-64310232D01*
X104061694Y-64465903D01*
X104061695Y-64465904D01*
X104061698Y-64465908D01*
X104194092Y-64598302D01*
X104194095Y-64598304D01*
X104194096Y-64598305D01*
X104271396Y-64649955D01*
X104349769Y-64702322D01*
X104522749Y-64773973D01*
X104706384Y-64810500D01*
X104706387Y-64810500D01*
X104893613Y-64810500D01*
X104893616Y-64810500D01*
X105077251Y-64773973D01*
X105250231Y-64702322D01*
X105405908Y-64598302D01*
X105538302Y-64465908D01*
X105642322Y-64310231D01*
X105713973Y-64137251D01*
X105750500Y-63953616D01*
X105750500Y-63766384D01*
X106389500Y-63766384D01*
X106389500Y-63953616D01*
X106416302Y-64088361D01*
X106426027Y-64137250D01*
X106426028Y-64137253D01*
X106497678Y-64310231D01*
X106497678Y-64310232D01*
X106601694Y-64465903D01*
X106601695Y-64465904D01*
X106601698Y-64465908D01*
X106734092Y-64598302D01*
X106734095Y-64598304D01*
X106734096Y-64598305D01*
X106811396Y-64649955D01*
X106889769Y-64702322D01*
X107062749Y-64773973D01*
X107246384Y-64810500D01*
X107246387Y-64810500D01*
X107433613Y-64810500D01*
X107433616Y-64810500D01*
X107617251Y-64773973D01*
X107790231Y-64702322D01*
X107945908Y-64598302D01*
X108078302Y-64465908D01*
X108182322Y-64310231D01*
X108253973Y-64137251D01*
X108290500Y-63953616D01*
X108290500Y-63766384D01*
X108929500Y-63766384D01*
X108929500Y-63953616D01*
X108956302Y-64088361D01*
X108966027Y-64137250D01*
X108966028Y-64137253D01*
X109037678Y-64310231D01*
X109037678Y-64310232D01*
X109141694Y-64465903D01*
X109141695Y-64465904D01*
X109141698Y-64465908D01*
X109274092Y-64598302D01*
X109274095Y-64598304D01*
X109274096Y-64598305D01*
X109351396Y-64649955D01*
X109429769Y-64702322D01*
X109602749Y-64773973D01*
X109786384Y-64810500D01*
X109786387Y-64810500D01*
X109973613Y-64810500D01*
X109973616Y-64810500D01*
X110157251Y-64773973D01*
X110330231Y-64702322D01*
X110485908Y-64598302D01*
X110618302Y-64465908D01*
X110722322Y-64310231D01*
X110793973Y-64137251D01*
X110830500Y-63953616D01*
X110830500Y-63766384D01*
X114009500Y-63766384D01*
X114009500Y-63953616D01*
X114036302Y-64088361D01*
X114046027Y-64137250D01*
X114046028Y-64137253D01*
X114117678Y-64310231D01*
X114117678Y-64310232D01*
X114221694Y-64465903D01*
X114221695Y-64465904D01*
X114221698Y-64465908D01*
X114354092Y-64598302D01*
X114354095Y-64598304D01*
X114354096Y-64598305D01*
X114431396Y-64649955D01*
X114509769Y-64702322D01*
X114682749Y-64773973D01*
X114866384Y-64810500D01*
X114866387Y-64810500D01*
X115053613Y-64810500D01*
X115053616Y-64810500D01*
X115237251Y-64773973D01*
X115410231Y-64702322D01*
X115565908Y-64598302D01*
X115698302Y-64465908D01*
X115802322Y-64310231D01*
X115873973Y-64137251D01*
X115910500Y-63953616D01*
X115910500Y-63766384D01*
X116549500Y-63766384D01*
X116549500Y-63953616D01*
X116576302Y-64088361D01*
X116586027Y-64137250D01*
X116586028Y-64137253D01*
X116657678Y-64310231D01*
X116657678Y-64310232D01*
X116761694Y-64465903D01*
X116761695Y-64465904D01*
X116761698Y-64465908D01*
X116894092Y-64598302D01*
X116894095Y-64598304D01*
X116894096Y-64598305D01*
X116971396Y-64649955D01*
X117049769Y-64702322D01*
X117222749Y-64773973D01*
X117406384Y-64810500D01*
X117406387Y-64810500D01*
X117593613Y-64810500D01*
X117593616Y-64810500D01*
X117777251Y-64773973D01*
X117950231Y-64702322D01*
X118105908Y-64598302D01*
X118238302Y-64465908D01*
X118342322Y-64310231D01*
X118413973Y-64137251D01*
X118450500Y-63953616D01*
X118450500Y-63766384D01*
X119089500Y-63766384D01*
X119089500Y-63953616D01*
X119116302Y-64088361D01*
X119126027Y-64137250D01*
X119126028Y-64137253D01*
X119197678Y-64310231D01*
X119197678Y-64310232D01*
X119301694Y-64465903D01*
X119301695Y-64465904D01*
X119301698Y-64465908D01*
X119434092Y-64598302D01*
X119434095Y-64598304D01*
X119434096Y-64598305D01*
X119511396Y-64649955D01*
X119589769Y-64702322D01*
X119762749Y-64773973D01*
X119946384Y-64810500D01*
X119946387Y-64810500D01*
X120133613Y-64810500D01*
X120133616Y-64810500D01*
X120317251Y-64773973D01*
X120490231Y-64702322D01*
X120645908Y-64598302D01*
X120778302Y-64465908D01*
X120882322Y-64310231D01*
X120953973Y-64137251D01*
X120990500Y-63953616D01*
X120990500Y-63766384D01*
X121629500Y-63766384D01*
X121629500Y-63953616D01*
X121656302Y-64088361D01*
X121666027Y-64137250D01*
X121666028Y-64137253D01*
X121737678Y-64310231D01*
X121737678Y-64310232D01*
X121841694Y-64465903D01*
X121841695Y-64465904D01*
X121841698Y-64465908D01*
X121974092Y-64598302D01*
X121974095Y-64598304D01*
X121974096Y-64598305D01*
X122051396Y-64649955D01*
X122129769Y-64702322D01*
X122302749Y-64773973D01*
X122486384Y-64810500D01*
X122486387Y-64810500D01*
X122673613Y-64810500D01*
X122673616Y-64810500D01*
X122857251Y-64773973D01*
X123030231Y-64702322D01*
X123185908Y-64598302D01*
X123318302Y-64465908D01*
X123335978Y-64439454D01*
X155789500Y-64439454D01*
X155789500Y-64620546D01*
X155817829Y-64799409D01*
X155817830Y-64799412D01*
X155873790Y-64971642D01*
X155956004Y-65132994D01*
X155956007Y-65132999D01*
X156062442Y-65279495D01*
X156062444Y-65279497D01*
X156062447Y-65279501D01*
X156190499Y-65407553D01*
X156190502Y-65407555D01*
X156190504Y-65407557D01*
X156320076Y-65501696D01*
X156337006Y-65513996D01*
X156498361Y-65596211D01*
X156670591Y-65652171D01*
X156849454Y-65680500D01*
X156849458Y-65680500D01*
X157030542Y-65680500D01*
X157030546Y-65680500D01*
X157209409Y-65652171D01*
X157381639Y-65596211D01*
X157542994Y-65513996D01*
X157689501Y-65407553D01*
X157817553Y-65279501D01*
X157923996Y-65132994D01*
X158006211Y-64971639D01*
X158062171Y-64799409D01*
X158090500Y-64620546D01*
X158090500Y-64439454D01*
X158062171Y-64260591D01*
X158006211Y-64088361D01*
X157923996Y-63927006D01*
X157817553Y-63780499D01*
X157689501Y-63652447D01*
X157689497Y-63652444D01*
X157689495Y-63652442D01*
X157542999Y-63546007D01*
X157542994Y-63546004D01*
X157381642Y-63463790D01*
X157209412Y-63407830D01*
X157209409Y-63407829D01*
X157030546Y-63379500D01*
X156849454Y-63379500D01*
X156670591Y-63407829D01*
X156670588Y-63407829D01*
X156670587Y-63407830D01*
X156498357Y-63463790D01*
X156337005Y-63546004D01*
X156337000Y-63546007D01*
X156190504Y-63652442D01*
X156062442Y-63780504D01*
X155956007Y-63927000D01*
X155956004Y-63927005D01*
X155873790Y-64088357D01*
X155873789Y-64088361D01*
X155817829Y-64260591D01*
X155789500Y-64439454D01*
X123335978Y-64439454D01*
X123422322Y-64310231D01*
X123493973Y-64137251D01*
X123530500Y-63953616D01*
X123530500Y-63766384D01*
X123493973Y-63582749D01*
X123422322Y-63409769D01*
X123421026Y-63407830D01*
X123318305Y-63254096D01*
X123318304Y-63254095D01*
X123318302Y-63254092D01*
X123185908Y-63121698D01*
X123185904Y-63121695D01*
X123185903Y-63121694D01*
X123030231Y-63017678D01*
X122857253Y-62946028D01*
X122857255Y-62946028D01*
X122857251Y-62946027D01*
X122673616Y-62909500D01*
X122486384Y-62909500D01*
X122313085Y-62943971D01*
X122302749Y-62946027D01*
X122302746Y-62946028D01*
X122129768Y-63017678D01*
X122129767Y-63017678D01*
X121974096Y-63121694D01*
X121841694Y-63254096D01*
X121737678Y-63409767D01*
X121737678Y-63409768D01*
X121681247Y-63546004D01*
X121666027Y-63582749D01*
X121629500Y-63766384D01*
X120990500Y-63766384D01*
X120953973Y-63582749D01*
X120882322Y-63409769D01*
X120881026Y-63407830D01*
X120778305Y-63254096D01*
X120778304Y-63254095D01*
X120778302Y-63254092D01*
X120645908Y-63121698D01*
X120645904Y-63121695D01*
X120645903Y-63121694D01*
X120490231Y-63017678D01*
X120317253Y-62946028D01*
X120317255Y-62946028D01*
X120317251Y-62946027D01*
X120133616Y-62909500D01*
X119946384Y-62909500D01*
X119773085Y-62943971D01*
X119762749Y-62946027D01*
X119762746Y-62946028D01*
X119589768Y-63017678D01*
X119589767Y-63017678D01*
X119434096Y-63121694D01*
X119301694Y-63254096D01*
X119197678Y-63409767D01*
X119197678Y-63409768D01*
X119141247Y-63546004D01*
X119126027Y-63582749D01*
X119089500Y-63766384D01*
X118450500Y-63766384D01*
X118413973Y-63582749D01*
X118342322Y-63409769D01*
X118341026Y-63407830D01*
X118238305Y-63254096D01*
X118238304Y-63254095D01*
X118238302Y-63254092D01*
X118105908Y-63121698D01*
X118105904Y-63121695D01*
X118105903Y-63121694D01*
X117950231Y-63017678D01*
X117777253Y-62946028D01*
X117777255Y-62946028D01*
X117777251Y-62946027D01*
X117593616Y-62909500D01*
X117406384Y-62909500D01*
X117233085Y-62943971D01*
X117222749Y-62946027D01*
X117222746Y-62946028D01*
X117049768Y-63017678D01*
X117049767Y-63017678D01*
X116894096Y-63121694D01*
X116761694Y-63254096D01*
X116657678Y-63409767D01*
X116657678Y-63409768D01*
X116601247Y-63546004D01*
X116586027Y-63582749D01*
X116549500Y-63766384D01*
X115910500Y-63766384D01*
X115873973Y-63582749D01*
X115802322Y-63409769D01*
X115801026Y-63407830D01*
X115698305Y-63254096D01*
X115698304Y-63254095D01*
X115698302Y-63254092D01*
X115565908Y-63121698D01*
X115565904Y-63121695D01*
X115565903Y-63121694D01*
X115410231Y-63017678D01*
X115237253Y-62946028D01*
X115237255Y-62946028D01*
X115237251Y-62946027D01*
X115053616Y-62909500D01*
X114866384Y-62909500D01*
X114693085Y-62943971D01*
X114682749Y-62946027D01*
X114682746Y-62946028D01*
X114509768Y-63017678D01*
X114509767Y-63017678D01*
X114354096Y-63121694D01*
X114221694Y-63254096D01*
X114117678Y-63409767D01*
X114117678Y-63409768D01*
X114061247Y-63546004D01*
X114046027Y-63582749D01*
X114009500Y-63766384D01*
X110830500Y-63766384D01*
X110793973Y-63582749D01*
X110722322Y-63409769D01*
X110721026Y-63407830D01*
X110618305Y-63254096D01*
X110618304Y-63254095D01*
X110618302Y-63254092D01*
X110485908Y-63121698D01*
X110485904Y-63121695D01*
X110485903Y-63121694D01*
X110330231Y-63017678D01*
X110157253Y-62946028D01*
X110157255Y-62946028D01*
X110157251Y-62946027D01*
X109973616Y-62909500D01*
X109786384Y-62909500D01*
X109613085Y-62943971D01*
X109602749Y-62946027D01*
X109602746Y-62946028D01*
X109429768Y-63017678D01*
X109429767Y-63017678D01*
X109274096Y-63121694D01*
X109141694Y-63254096D01*
X109037678Y-63409767D01*
X109037678Y-63409768D01*
X108981247Y-63546004D01*
X108966027Y-63582749D01*
X108929500Y-63766384D01*
X108290500Y-63766384D01*
X108253973Y-63582749D01*
X108182322Y-63409769D01*
X108181026Y-63407830D01*
X108078305Y-63254096D01*
X108078304Y-63254095D01*
X108078302Y-63254092D01*
X107945908Y-63121698D01*
X107945904Y-63121695D01*
X107945903Y-63121694D01*
X107790231Y-63017678D01*
X107617253Y-62946028D01*
X107617255Y-62946028D01*
X107617251Y-62946027D01*
X107433616Y-62909500D01*
X107246384Y-62909500D01*
X107073085Y-62943971D01*
X107062749Y-62946027D01*
X107062746Y-62946028D01*
X106889768Y-63017678D01*
X106889767Y-63017678D01*
X106734096Y-63121694D01*
X106601694Y-63254096D01*
X106497678Y-63409767D01*
X106497678Y-63409768D01*
X106441247Y-63546004D01*
X106426027Y-63582749D01*
X106389500Y-63766384D01*
X105750500Y-63766384D01*
X105713973Y-63582749D01*
X105642322Y-63409769D01*
X105641026Y-63407830D01*
X105538305Y-63254096D01*
X105538304Y-63254095D01*
X105538302Y-63254092D01*
X105405908Y-63121698D01*
X105405904Y-63121695D01*
X105405903Y-63121694D01*
X105250231Y-63017678D01*
X105077253Y-62946028D01*
X105077255Y-62946028D01*
X105077251Y-62946027D01*
X104893616Y-62909500D01*
X104706384Y-62909500D01*
X104533085Y-62943971D01*
X104522749Y-62946027D01*
X104522746Y-62946028D01*
X104349768Y-63017678D01*
X104349767Y-63017678D01*
X104194096Y-63121694D01*
X104061694Y-63254096D01*
X103957678Y-63409767D01*
X103957678Y-63409768D01*
X103901247Y-63546004D01*
X103886027Y-63582749D01*
X103849500Y-63766384D01*
X100508000Y-63766384D01*
X100508000Y-61936384D01*
X148989500Y-61936384D01*
X148989500Y-62123616D01*
X149026027Y-62307251D01*
X149097678Y-62480231D01*
X149097678Y-62480232D01*
X149201694Y-62635903D01*
X149201695Y-62635904D01*
X149201698Y-62635908D01*
X149334092Y-62768302D01*
X149489769Y-62872322D01*
X149662749Y-62943973D01*
X149846384Y-62980500D01*
X149846387Y-62980500D01*
X150033613Y-62980500D01*
X150033616Y-62980500D01*
X150217251Y-62943973D01*
X150390231Y-62872322D01*
X150545908Y-62768302D01*
X150678302Y-62635908D01*
X150782322Y-62480231D01*
X150853973Y-62307251D01*
X150890500Y-62123616D01*
X150890500Y-61936384D01*
X150853973Y-61752749D01*
X150782322Y-61579769D01*
X150701013Y-61458082D01*
X150678305Y-61424096D01*
X150678304Y-61424095D01*
X150678302Y-61424092D01*
X150545908Y-61291698D01*
X150545904Y-61291695D01*
X150545902Y-61291693D01*
X150502002Y-61262360D01*
X150390231Y-61187678D01*
X150241893Y-61126234D01*
X156079500Y-61126234D01*
X156079500Y-61293765D01*
X156112184Y-61458081D01*
X156112185Y-61458084D01*
X156176295Y-61612861D01*
X156176296Y-61612863D01*
X156269370Y-61752157D01*
X156269371Y-61752158D01*
X156269374Y-61752162D01*
X156387838Y-61870626D01*
X156387841Y-61870628D01*
X156387842Y-61870629D01*
X156527136Y-61963703D01*
X156527138Y-61963704D01*
X156594641Y-61991664D01*
X156681918Y-62027816D01*
X156846233Y-62060500D01*
X156846236Y-62060500D01*
X157013764Y-62060500D01*
X157013767Y-62060500D01*
X157178082Y-62027816D01*
X157332863Y-61963703D01*
X157472162Y-61870626D01*
X157590626Y-61752162D01*
X157683703Y-61612863D01*
X157747816Y-61458082D01*
X157780500Y-61293767D01*
X157780500Y-61126234D01*
X163699500Y-61126234D01*
X163699500Y-61293765D01*
X163732184Y-61458081D01*
X163732185Y-61458084D01*
X163796295Y-61612861D01*
X163796296Y-61612863D01*
X163889370Y-61752157D01*
X163889371Y-61752158D01*
X163889374Y-61752162D01*
X164007838Y-61870626D01*
X164007841Y-61870628D01*
X164007842Y-61870629D01*
X164147136Y-61963703D01*
X164147138Y-61963704D01*
X164214641Y-61991664D01*
X164301918Y-62027816D01*
X164466233Y-62060500D01*
X164466236Y-62060500D01*
X164633764Y-62060500D01*
X164633767Y-62060500D01*
X164798082Y-62027816D01*
X164952863Y-61963703D01*
X165092162Y-61870626D01*
X165210626Y-61752162D01*
X165303703Y-61612863D01*
X165367816Y-61458082D01*
X165400500Y-61293767D01*
X165400500Y-61126233D01*
X165397162Y-61109454D01*
X169519500Y-61109454D01*
X169519500Y-61290546D01*
X169547829Y-61469409D01*
X169547830Y-61469412D01*
X169603790Y-61641642D01*
X169686004Y-61802994D01*
X169686007Y-61802999D01*
X169792442Y-61949495D01*
X169792444Y-61949497D01*
X169792447Y-61949501D01*
X169920499Y-62077553D01*
X169920502Y-62077555D01*
X169920504Y-62077557D01*
X170067000Y-62183992D01*
X170067006Y-62183996D01*
X170228361Y-62266211D01*
X170400591Y-62322171D01*
X170579454Y-62350500D01*
X170579458Y-62350500D01*
X170760542Y-62350500D01*
X170760546Y-62350500D01*
X170939409Y-62322171D01*
X171111639Y-62266211D01*
X171272994Y-62183996D01*
X171419501Y-62077553D01*
X171547553Y-61949501D01*
X171653996Y-61802994D01*
X171736211Y-61641639D01*
X171792171Y-61469409D01*
X171820500Y-61290546D01*
X171820500Y-61109454D01*
X174519500Y-61109454D01*
X174519500Y-61290546D01*
X174547829Y-61469409D01*
X174547830Y-61469412D01*
X174603790Y-61641642D01*
X174686004Y-61802994D01*
X174686007Y-61802999D01*
X174792442Y-61949495D01*
X174792444Y-61949497D01*
X174792447Y-61949501D01*
X174920499Y-62077553D01*
X174920502Y-62077555D01*
X174920504Y-62077557D01*
X175067000Y-62183992D01*
X175067006Y-62183996D01*
X175228361Y-62266211D01*
X175400591Y-62322171D01*
X175579454Y-62350500D01*
X175579458Y-62350500D01*
X175760542Y-62350500D01*
X175760546Y-62350500D01*
X175939409Y-62322171D01*
X176111639Y-62266211D01*
X176272994Y-62183996D01*
X176419501Y-62077553D01*
X176547553Y-61949501D01*
X176653996Y-61802994D01*
X176736211Y-61641639D01*
X176792171Y-61469409D01*
X176820500Y-61290546D01*
X176820500Y-61109454D01*
X176792171Y-60930591D01*
X176736211Y-60758361D01*
X176653996Y-60597006D01*
X176619387Y-60549370D01*
X176547557Y-60450504D01*
X176547555Y-60450502D01*
X176547553Y-60450499D01*
X176419501Y-60322447D01*
X176419497Y-60322444D01*
X176419495Y-60322442D01*
X176272999Y-60216007D01*
X176272994Y-60216004D01*
X176111642Y-60133790D01*
X175939412Y-60077830D01*
X175939409Y-60077829D01*
X175760546Y-60049500D01*
X175579454Y-60049500D01*
X175400591Y-60077829D01*
X175400588Y-60077829D01*
X175400587Y-60077830D01*
X175228357Y-60133790D01*
X175067005Y-60216004D01*
X175067000Y-60216007D01*
X174920504Y-60322442D01*
X174792442Y-60450504D01*
X174686007Y-60597000D01*
X174686004Y-60597005D01*
X174603790Y-60758357D01*
X174587941Y-60807138D01*
X174547829Y-60930591D01*
X174519500Y-61109454D01*
X171820500Y-61109454D01*
X171792171Y-60930591D01*
X171736211Y-60758361D01*
X171653996Y-60597006D01*
X171619387Y-60549370D01*
X171547557Y-60450504D01*
X171547555Y-60450502D01*
X171547553Y-60450499D01*
X171419501Y-60322447D01*
X171419497Y-60322444D01*
X171419495Y-60322442D01*
X171272999Y-60216007D01*
X171272994Y-60216004D01*
X171111642Y-60133790D01*
X170939412Y-60077830D01*
X170939409Y-60077829D01*
X170760546Y-60049500D01*
X170579454Y-60049500D01*
X170400591Y-60077829D01*
X170400588Y-60077829D01*
X170400587Y-60077830D01*
X170228357Y-60133790D01*
X170067005Y-60216004D01*
X170067000Y-60216007D01*
X169920504Y-60322442D01*
X169792442Y-60450504D01*
X169686007Y-60597000D01*
X169686004Y-60597005D01*
X169603790Y-60758357D01*
X169587941Y-60807138D01*
X169547829Y-60930591D01*
X169519500Y-61109454D01*
X165397162Y-61109454D01*
X165367816Y-60961918D01*
X165331664Y-60874641D01*
X165303704Y-60807138D01*
X165303703Y-60807136D01*
X165210629Y-60667842D01*
X165210628Y-60667841D01*
X165210626Y-60667838D01*
X165092162Y-60549374D01*
X165092158Y-60549371D01*
X165092157Y-60549370D01*
X164952863Y-60456296D01*
X164952861Y-60456295D01*
X164798084Y-60392185D01*
X164798086Y-60392185D01*
X164798082Y-60392184D01*
X164633767Y-60359500D01*
X164466233Y-60359500D01*
X164301918Y-60392184D01*
X164301915Y-60392185D01*
X164147138Y-60456295D01*
X164147136Y-60456296D01*
X164007842Y-60549370D01*
X163889370Y-60667842D01*
X163796296Y-60807136D01*
X163796295Y-60807138D01*
X163732185Y-60961915D01*
X163732184Y-60961918D01*
X163699500Y-61126234D01*
X157780500Y-61126234D01*
X157780500Y-61126233D01*
X157747816Y-60961918D01*
X157711664Y-60874641D01*
X157683704Y-60807138D01*
X157683703Y-60807136D01*
X157590629Y-60667842D01*
X157590628Y-60667841D01*
X157590626Y-60667838D01*
X157472162Y-60549374D01*
X157472158Y-60549371D01*
X157472157Y-60549370D01*
X157332863Y-60456296D01*
X157332861Y-60456295D01*
X157178084Y-60392185D01*
X157178086Y-60392185D01*
X157178082Y-60392184D01*
X157013767Y-60359500D01*
X156846233Y-60359500D01*
X156681918Y-60392184D01*
X156681915Y-60392185D01*
X156527138Y-60456295D01*
X156527136Y-60456296D01*
X156387842Y-60549370D01*
X156269370Y-60667842D01*
X156176296Y-60807136D01*
X156176295Y-60807138D01*
X156112185Y-60961915D01*
X156112184Y-60961918D01*
X156079500Y-61126234D01*
X150241893Y-61126234D01*
X150217251Y-61116027D01*
X150033616Y-61079500D01*
X149846384Y-61079500D01*
X149695794Y-61109454D01*
X149662749Y-61116027D01*
X149662746Y-61116028D01*
X149489768Y-61187678D01*
X149489767Y-61187678D01*
X149334096Y-61291694D01*
X149201694Y-61424096D01*
X149097678Y-61579767D01*
X149097678Y-61579768D01*
X149083970Y-61612863D01*
X149026027Y-61752749D01*
X148989500Y-61936384D01*
X100508000Y-61936384D01*
X100508000Y-59626385D01*
X143489500Y-59626385D01*
X143489500Y-59813614D01*
X143526027Y-59997250D01*
X143526028Y-59997253D01*
X143597678Y-60170231D01*
X143597678Y-60170232D01*
X143701694Y-60325903D01*
X143701695Y-60325904D01*
X143701698Y-60325908D01*
X143834092Y-60458302D01*
X143989769Y-60562322D01*
X144162749Y-60633973D01*
X144346384Y-60670500D01*
X144346387Y-60670500D01*
X144533613Y-60670500D01*
X144533616Y-60670500D01*
X144717251Y-60633973D01*
X144890231Y-60562322D01*
X145045908Y-60458302D01*
X145178302Y-60325908D01*
X145282322Y-60170231D01*
X145353973Y-59997251D01*
X145390500Y-59813616D01*
X145390500Y-59626384D01*
X145353973Y-59442749D01*
X145282322Y-59269769D01*
X145178302Y-59114092D01*
X145045908Y-58981698D01*
X145045904Y-58981695D01*
X145045903Y-58981694D01*
X144890231Y-58877678D01*
X144717253Y-58806028D01*
X144717255Y-58806028D01*
X144717251Y-58806027D01*
X144533616Y-58769500D01*
X144346384Y-58769500D01*
X144162749Y-58806027D01*
X144162746Y-58806028D01*
X143989768Y-58877678D01*
X143989767Y-58877678D01*
X143834096Y-58981694D01*
X143701694Y-59114096D01*
X143597678Y-59269767D01*
X143597678Y-59269768D01*
X143526028Y-59442746D01*
X143526027Y-59442749D01*
X143489500Y-59626385D01*
X100508000Y-59626385D01*
X100508000Y-55918482D01*
X107169500Y-55918482D01*
X107169500Y-57081517D01*
X107184353Y-57175299D01*
X107184354Y-57175305D01*
X107214752Y-57234963D01*
X107241950Y-57288342D01*
X107331658Y-57378050D01*
X107444696Y-57435646D01*
X107538481Y-57450500D01*
X108701518Y-57450499D01*
X108795304Y-57435646D01*
X108908342Y-57378050D01*
X108998050Y-57288342D01*
X109055646Y-57175304D01*
X109070500Y-57081519D01*
X109070499Y-56398464D01*
X156114500Y-56398464D01*
X156114500Y-56981535D01*
X156140458Y-57112029D01*
X156140460Y-57112037D01*
X156191377Y-57234963D01*
X156191382Y-57234973D01*
X156265299Y-57345599D01*
X156265302Y-57345602D01*
X156265305Y-57345606D01*
X156359394Y-57439695D01*
X156359397Y-57439697D01*
X156359400Y-57439700D01*
X156470026Y-57513617D01*
X156470028Y-57513618D01*
X156470031Y-57513620D01*
X156592964Y-57564540D01*
X156723469Y-57590500D01*
X156723470Y-57590500D01*
X156856530Y-57590500D01*
X156856531Y-57590500D01*
X156987036Y-57564540D01*
X157109969Y-57513620D01*
X157220606Y-57439695D01*
X157301965Y-57358335D01*
X157373234Y-57315253D01*
X157456364Y-57310224D01*
X157532309Y-57344404D01*
X157548028Y-57358329D01*
X157629394Y-57439695D01*
X157629397Y-57439697D01*
X157629400Y-57439700D01*
X157740026Y-57513617D01*
X157740028Y-57513618D01*
X157740031Y-57513620D01*
X157862964Y-57564540D01*
X157993469Y-57590500D01*
X157993470Y-57590500D01*
X158126530Y-57590500D01*
X158126531Y-57590500D01*
X158257036Y-57564540D01*
X158379969Y-57513620D01*
X158490606Y-57439695D01*
X158584695Y-57345606D01*
X158608337Y-57310224D01*
X158658617Y-57234973D01*
X158658620Y-57234969D01*
X158709540Y-57112036D01*
X158735500Y-56981531D01*
X158735500Y-56398469D01*
X158709540Y-56267964D01*
X158704681Y-56256234D01*
X179239500Y-56256234D01*
X179239500Y-56423765D01*
X179272184Y-56588081D01*
X179272185Y-56588084D01*
X179336295Y-56742861D01*
X179336296Y-56742863D01*
X179429370Y-56882157D01*
X179429371Y-56882158D01*
X179429374Y-56882162D01*
X179547838Y-57000626D01*
X179547841Y-57000628D01*
X179547842Y-57000629D01*
X179687136Y-57093703D01*
X179687138Y-57093704D01*
X179754641Y-57121664D01*
X179841918Y-57157816D01*
X180006233Y-57190500D01*
X180006236Y-57190500D01*
X180173764Y-57190500D01*
X180173767Y-57190500D01*
X180338082Y-57157816D01*
X180492863Y-57093703D01*
X180632162Y-57000626D01*
X180750626Y-56882162D01*
X180843703Y-56742863D01*
X180907816Y-56588082D01*
X180938970Y-56431459D01*
X184814500Y-56431459D01*
X184814500Y-56628541D01*
X184845259Y-56783176D01*
X184852949Y-56821836D01*
X184928366Y-57003911D01*
X184928368Y-57003915D01*
X185037857Y-57167777D01*
X185037858Y-57167778D01*
X185037861Y-57167782D01*
X185177218Y-57307139D01*
X185177221Y-57307141D01*
X185177222Y-57307142D01*
X185341084Y-57416631D01*
X185341088Y-57416633D01*
X185422849Y-57450499D01*
X185523165Y-57492051D01*
X185716459Y-57530500D01*
X185716462Y-57530500D01*
X186163537Y-57530500D01*
X186163541Y-57530500D01*
X186356835Y-57492051D01*
X186538914Y-57416632D01*
X186702782Y-57307139D01*
X186842139Y-57167782D01*
X186951632Y-57003914D01*
X187027051Y-56821835D01*
X187065500Y-56628541D01*
X187065500Y-56431459D01*
X187027051Y-56238165D01*
X186957303Y-56069776D01*
X186951633Y-56056088D01*
X186951631Y-56056084D01*
X186842142Y-55892222D01*
X186842141Y-55892221D01*
X186842139Y-55892218D01*
X186702782Y-55752861D01*
X186702778Y-55752858D01*
X186702777Y-55752857D01*
X186538915Y-55643368D01*
X186538911Y-55643366D01*
X186356836Y-55567949D01*
X186308511Y-55558336D01*
X186163541Y-55529500D01*
X185716459Y-55529500D01*
X185600482Y-55552569D01*
X185523163Y-55567949D01*
X185341088Y-55643366D01*
X185341084Y-55643368D01*
X185177222Y-55752857D01*
X185037857Y-55892222D01*
X184928368Y-56056084D01*
X184928366Y-56056088D01*
X184852949Y-56238163D01*
X184847021Y-56267965D01*
X184814500Y-56431459D01*
X180938970Y-56431459D01*
X180940500Y-56423767D01*
X180940500Y-56256233D01*
X180907816Y-56091918D01*
X180871664Y-56004641D01*
X180843704Y-55937138D01*
X180843703Y-55937136D01*
X180750629Y-55797842D01*
X180750628Y-55797841D01*
X180750626Y-55797838D01*
X180632162Y-55679374D01*
X180632158Y-55679371D01*
X180632157Y-55679370D01*
X180492863Y-55586296D01*
X180492861Y-55586295D01*
X180338084Y-55522185D01*
X180338086Y-55522185D01*
X180338082Y-55522184D01*
X180173767Y-55489500D01*
X180006233Y-55489500D01*
X179841918Y-55522184D01*
X179841915Y-55522185D01*
X179687138Y-55586295D01*
X179687136Y-55586296D01*
X179547842Y-55679370D01*
X179429370Y-55797842D01*
X179336296Y-55937136D01*
X179336295Y-55937138D01*
X179272185Y-56091915D01*
X179272184Y-56091918D01*
X179239500Y-56256234D01*
X158704681Y-56256234D01*
X158658620Y-56145031D01*
X158658617Y-56145026D01*
X158584700Y-56034400D01*
X158584697Y-56034397D01*
X158584695Y-56034394D01*
X158490606Y-55940305D01*
X158490602Y-55940302D01*
X158490599Y-55940299D01*
X158379973Y-55866382D01*
X158379963Y-55866377D01*
X158257037Y-55815460D01*
X158257029Y-55815458D01*
X158126535Y-55789500D01*
X158126531Y-55789500D01*
X157993469Y-55789500D01*
X157993464Y-55789500D01*
X157862970Y-55815458D01*
X157862962Y-55815460D01*
X157740036Y-55866377D01*
X157740026Y-55866382D01*
X157629400Y-55940299D01*
X157629394Y-55940304D01*
X157629394Y-55940305D01*
X157548034Y-56021664D01*
X157476766Y-56064747D01*
X157393636Y-56069776D01*
X157317691Y-56035596D01*
X157301971Y-56021670D01*
X157220606Y-55940305D01*
X157220602Y-55940302D01*
X157220599Y-55940299D01*
X157109973Y-55866382D01*
X157109963Y-55866377D01*
X156987037Y-55815460D01*
X156987029Y-55815458D01*
X156856535Y-55789500D01*
X156856531Y-55789500D01*
X156723469Y-55789500D01*
X156723464Y-55789500D01*
X156592970Y-55815458D01*
X156592962Y-55815460D01*
X156470036Y-55866377D01*
X156470026Y-55866382D01*
X156359400Y-55940299D01*
X156265299Y-56034400D01*
X156191382Y-56145026D01*
X156191377Y-56145036D01*
X156140460Y-56267962D01*
X156140458Y-56267970D01*
X156114500Y-56398464D01*
X109070499Y-56398464D01*
X109070499Y-55918482D01*
X109055646Y-55824696D01*
X108998050Y-55711658D01*
X108908342Y-55621950D01*
X108795304Y-55564354D01*
X108795303Y-55564353D01*
X108795302Y-55564353D01*
X108731225Y-55554204D01*
X108701519Y-55549500D01*
X108701517Y-55549500D01*
X107538482Y-55549500D01*
X107444700Y-55564353D01*
X107444694Y-55564354D01*
X107331659Y-55621949D01*
X107241949Y-55711659D01*
X107184353Y-55824697D01*
X107184353Y-55824698D01*
X107169500Y-55918482D01*
X100508000Y-55918482D01*
X100508000Y-53716233D01*
X179239500Y-53716233D01*
X179239500Y-53883767D01*
X179248987Y-53931462D01*
X179272184Y-54048081D01*
X179272185Y-54048084D01*
X179336295Y-54202861D01*
X179336296Y-54202863D01*
X179429370Y-54342157D01*
X179429371Y-54342158D01*
X179429374Y-54342162D01*
X179547838Y-54460626D01*
X179547841Y-54460628D01*
X179547842Y-54460629D01*
X179687136Y-54553703D01*
X179687138Y-54553704D01*
X179754641Y-54581664D01*
X179841918Y-54617816D01*
X180006233Y-54650500D01*
X180006236Y-54650500D01*
X180173764Y-54650500D01*
X180173767Y-54650500D01*
X180338082Y-54617816D01*
X180492863Y-54553703D01*
X180632162Y-54460626D01*
X180750626Y-54342162D01*
X180843703Y-54202863D01*
X180907816Y-54048082D01*
X180931014Y-53931459D01*
X184814500Y-53931459D01*
X184814500Y-54128541D01*
X184829284Y-54202863D01*
X184852949Y-54321836D01*
X184928366Y-54503911D01*
X184928368Y-54503915D01*
X185037857Y-54667777D01*
X185037858Y-54667778D01*
X185037861Y-54667782D01*
X185177218Y-54807139D01*
X185177221Y-54807141D01*
X185177222Y-54807142D01*
X185341084Y-54916631D01*
X185341086Y-54916632D01*
X185523165Y-54992051D01*
X185716459Y-55030500D01*
X185716462Y-55030500D01*
X186163537Y-55030500D01*
X186163541Y-55030500D01*
X186356835Y-54992051D01*
X186538914Y-54916632D01*
X186702782Y-54807139D01*
X186842139Y-54667782D01*
X186951632Y-54503914D01*
X187027051Y-54321835D01*
X187065500Y-54128541D01*
X187065500Y-53931459D01*
X187027051Y-53738165D01*
X186951632Y-53556086D01*
X186845426Y-53397138D01*
X186842142Y-53392222D01*
X186842141Y-53392221D01*
X186842139Y-53392218D01*
X186702782Y-53252861D01*
X186702778Y-53252858D01*
X186702777Y-53252857D01*
X186538915Y-53143368D01*
X186538911Y-53143366D01*
X186356836Y-53067949D01*
X186308511Y-53058336D01*
X186163541Y-53029500D01*
X185716459Y-53029500D01*
X185600482Y-53052569D01*
X185523163Y-53067949D01*
X185341088Y-53143366D01*
X185341084Y-53143368D01*
X185177222Y-53252857D01*
X185037857Y-53392222D01*
X184928368Y-53556084D01*
X184928366Y-53556088D01*
X184852949Y-53738163D01*
X184852949Y-53738165D01*
X184814500Y-53931459D01*
X180931014Y-53931459D01*
X180940500Y-53883767D01*
X180940500Y-53716233D01*
X180907816Y-53551918D01*
X180871664Y-53464641D01*
X180843704Y-53397138D01*
X180843703Y-53397136D01*
X180750629Y-53257842D01*
X180750628Y-53257841D01*
X180750626Y-53257838D01*
X180632162Y-53139374D01*
X180632158Y-53139371D01*
X180632157Y-53139370D01*
X180492863Y-53046296D01*
X180492861Y-53046295D01*
X180338084Y-52982185D01*
X180338086Y-52982185D01*
X180338082Y-52982184D01*
X180173767Y-52949500D01*
X180006233Y-52949500D01*
X179841918Y-52982184D01*
X179841915Y-52982185D01*
X179687138Y-53046295D01*
X179687136Y-53046296D01*
X179547842Y-53139370D01*
X179429370Y-53257842D01*
X179336296Y-53397136D01*
X179336295Y-53397138D01*
X179272185Y-53551915D01*
X179272184Y-53551918D01*
X179239500Y-53716233D01*
X100508000Y-53716233D01*
X100508000Y-51536385D01*
X176089500Y-51536385D01*
X176089500Y-51723614D01*
X176126027Y-51907250D01*
X176126028Y-51907253D01*
X176197678Y-52080231D01*
X176197678Y-52080232D01*
X176301694Y-52235903D01*
X176301695Y-52235904D01*
X176301698Y-52235908D01*
X176434092Y-52368302D01*
X176589769Y-52472322D01*
X176762749Y-52543973D01*
X176946384Y-52580500D01*
X176946387Y-52580500D01*
X177133613Y-52580500D01*
X177133616Y-52580500D01*
X177317251Y-52543973D01*
X177490231Y-52472322D01*
X177645908Y-52368302D01*
X177778302Y-52235908D01*
X177882322Y-52080231D01*
X177953973Y-51907251D01*
X177990500Y-51723616D01*
X177990500Y-51536384D01*
X177953973Y-51352749D01*
X177882322Y-51179769D01*
X177778302Y-51024092D01*
X177645908Y-50891698D01*
X177645904Y-50891695D01*
X177645903Y-50891694D01*
X177490231Y-50787678D01*
X177317253Y-50716028D01*
X177317255Y-50716028D01*
X177317251Y-50716027D01*
X177133616Y-50679500D01*
X176946384Y-50679500D01*
X176762749Y-50716027D01*
X176762746Y-50716028D01*
X176589768Y-50787678D01*
X176589767Y-50787678D01*
X176434096Y-50891694D01*
X176301694Y-51024096D01*
X176197678Y-51179767D01*
X176197678Y-51179768D01*
X176126028Y-51352746D01*
X176126027Y-51352749D01*
X176089500Y-51536385D01*
X100508000Y-51536385D01*
X100508000Y-45379055D01*
X119559500Y-45379055D01*
X119559500Y-45660944D01*
X119559501Y-45660963D01*
X119596293Y-45940427D01*
X119596297Y-45940449D01*
X119669256Y-46212735D01*
X119777139Y-46473187D01*
X119777142Y-46473194D01*
X119918088Y-46717318D01*
X120089694Y-46940958D01*
X120089696Y-46940960D01*
X120089700Y-46940965D01*
X120289035Y-47140300D01*
X120289039Y-47140303D01*
X120289041Y-47140305D01*
X120512681Y-47311911D01*
X120756805Y-47452857D01*
X120756811Y-47452859D01*
X120756817Y-47452863D01*
X121017261Y-47560742D01*
X121017262Y-47560742D01*
X121017264Y-47560743D01*
X121289550Y-47633702D01*
X121289551Y-47633702D01*
X121289558Y-47633704D01*
X121289568Y-47633705D01*
X121289572Y-47633706D01*
X121387996Y-47646663D01*
X121569049Y-47670500D01*
X121569056Y-47670500D01*
X121850944Y-47670500D01*
X121850951Y-47670500D01*
X121959311Y-47656234D01*
X163809500Y-47656234D01*
X163809500Y-47823765D01*
X163842184Y-47988081D01*
X163842185Y-47988084D01*
X163906295Y-48142861D01*
X163906296Y-48142863D01*
X163999370Y-48282157D01*
X163999371Y-48282158D01*
X163999374Y-48282162D01*
X164117838Y-48400626D01*
X164117841Y-48400628D01*
X164117842Y-48400629D01*
X164257136Y-48493703D01*
X164257138Y-48493704D01*
X164324641Y-48521664D01*
X164411918Y-48557816D01*
X164576233Y-48590500D01*
X164576236Y-48590500D01*
X164743764Y-48590500D01*
X164743767Y-48590500D01*
X164908082Y-48557816D01*
X165062863Y-48493703D01*
X165202162Y-48400626D01*
X165320626Y-48282162D01*
X165413703Y-48142863D01*
X165477816Y-47988082D01*
X165510500Y-47823767D01*
X165510500Y-47656234D01*
X166349500Y-47656234D01*
X166349500Y-47823765D01*
X166382184Y-47988081D01*
X166382185Y-47988084D01*
X166446295Y-48142861D01*
X166446296Y-48142863D01*
X166539370Y-48282157D01*
X166539371Y-48282158D01*
X166539374Y-48282162D01*
X166657838Y-48400626D01*
X166657841Y-48400628D01*
X166657842Y-48400629D01*
X166797136Y-48493703D01*
X166797138Y-48493704D01*
X166864641Y-48521664D01*
X166951918Y-48557816D01*
X167116233Y-48590500D01*
X167116236Y-48590500D01*
X167283764Y-48590500D01*
X167283767Y-48590500D01*
X167448082Y-48557816D01*
X167602863Y-48493703D01*
X167742162Y-48400626D01*
X167860626Y-48282162D01*
X167953703Y-48142863D01*
X168017816Y-47988082D01*
X168050500Y-47823767D01*
X168050500Y-47656233D01*
X168017816Y-47491918D01*
X167981664Y-47404641D01*
X167953704Y-47337138D01*
X167953703Y-47337136D01*
X167860629Y-47197842D01*
X167860628Y-47197841D01*
X167860626Y-47197838D01*
X167742162Y-47079374D01*
X167742158Y-47079371D01*
X167742157Y-47079370D01*
X167602863Y-46986296D01*
X167602861Y-46986295D01*
X167448084Y-46922185D01*
X167448086Y-46922185D01*
X167448082Y-46922184D01*
X167283767Y-46889500D01*
X167116233Y-46889500D01*
X166951918Y-46922184D01*
X166951915Y-46922185D01*
X166797138Y-46986295D01*
X166797136Y-46986296D01*
X166657842Y-47079370D01*
X166539370Y-47197842D01*
X166446296Y-47337136D01*
X166446295Y-47337138D01*
X166382185Y-47491915D01*
X166382184Y-47491918D01*
X166349500Y-47656234D01*
X165510500Y-47656234D01*
X165510500Y-47656233D01*
X165477816Y-47491918D01*
X165441664Y-47404641D01*
X165413704Y-47337138D01*
X165413703Y-47337136D01*
X165320629Y-47197842D01*
X165320628Y-47197841D01*
X165320626Y-47197838D01*
X165202162Y-47079374D01*
X165202158Y-47079371D01*
X165202157Y-47079370D01*
X165062863Y-46986296D01*
X165062861Y-46986295D01*
X164908084Y-46922185D01*
X164908086Y-46922185D01*
X164908082Y-46922184D01*
X164743767Y-46889500D01*
X164576233Y-46889500D01*
X164411918Y-46922184D01*
X164411915Y-46922185D01*
X164257138Y-46986295D01*
X164257136Y-46986296D01*
X164117842Y-47079370D01*
X163999370Y-47197842D01*
X163906296Y-47337136D01*
X163906295Y-47337138D01*
X163842185Y-47491915D01*
X163842184Y-47491918D01*
X163809500Y-47656234D01*
X121959311Y-47656234D01*
X122130442Y-47633704D01*
X122402739Y-47560742D01*
X122663183Y-47452863D01*
X122663191Y-47452858D01*
X122663194Y-47452857D01*
X122863626Y-47337137D01*
X122907317Y-47311912D01*
X123130965Y-47140300D01*
X123330300Y-46940965D01*
X123501912Y-46717317D01*
X123642863Y-46473183D01*
X123750742Y-46212739D01*
X123823704Y-45940442D01*
X123860500Y-45660951D01*
X123860500Y-45379049D01*
X123823704Y-45099558D01*
X123750742Y-44827261D01*
X123642863Y-44566817D01*
X123642859Y-44566811D01*
X123642857Y-44566805D01*
X123501911Y-44322681D01*
X123330305Y-44099041D01*
X123330303Y-44099039D01*
X123330300Y-44099035D01*
X123130965Y-43899700D01*
X123130960Y-43899696D01*
X123130958Y-43899694D01*
X122907318Y-43728088D01*
X122663194Y-43587142D01*
X122663187Y-43587139D01*
X122663185Y-43587138D01*
X122663183Y-43587137D01*
X122449708Y-43498713D01*
X122402735Y-43479256D01*
X122130449Y-43406297D01*
X122130427Y-43406293D01*
X121850963Y-43369501D01*
X121850955Y-43369500D01*
X121850951Y-43369500D01*
X121569049Y-43369500D01*
X121569044Y-43369500D01*
X121569036Y-43369501D01*
X121289572Y-43406293D01*
X121289550Y-43406297D01*
X121017264Y-43479256D01*
X120756812Y-43587139D01*
X120756805Y-43587142D01*
X120512681Y-43728088D01*
X120289041Y-43899694D01*
X120089694Y-44099041D01*
X119918088Y-44322681D01*
X119777142Y-44566805D01*
X119777139Y-44566812D01*
X119669256Y-44827264D01*
X119596297Y-45099550D01*
X119596293Y-45099572D01*
X119559501Y-45379036D01*
X119559500Y-45379055D01*
X100508000Y-45379055D01*
X100508000Y-42149454D01*
X108189500Y-42149454D01*
X108189500Y-42330546D01*
X108217829Y-42509409D01*
X108217830Y-42509412D01*
X108273790Y-42681642D01*
X108356004Y-42842994D01*
X108356007Y-42842999D01*
X108462442Y-42989495D01*
X108462444Y-42989497D01*
X108462447Y-42989501D01*
X108590499Y-43117553D01*
X108590502Y-43117555D01*
X108590504Y-43117557D01*
X108716444Y-43209057D01*
X108737006Y-43223996D01*
X108898361Y-43306211D01*
X109070591Y-43362171D01*
X109249454Y-43390500D01*
X109249458Y-43390500D01*
X109430542Y-43390500D01*
X109430546Y-43390500D01*
X109609409Y-43362171D01*
X109781639Y-43306211D01*
X109942994Y-43223996D01*
X110089501Y-43117553D01*
X110156111Y-43050943D01*
X133239500Y-43050943D01*
X133239500Y-43209057D01*
X133265532Y-43306211D01*
X133280424Y-43361786D01*
X133280424Y-43361788D01*
X133334620Y-43455657D01*
X133359480Y-43498716D01*
X133471284Y-43610520D01*
X133539750Y-43650048D01*
X133608212Y-43689575D01*
X133608216Y-43689577D01*
X133760943Y-43730500D01*
X133919057Y-43730500D01*
X134071784Y-43689577D01*
X134071787Y-43689575D01*
X134071788Y-43689575D01*
X134107203Y-43669127D01*
X134208716Y-43610520D01*
X134320520Y-43498716D01*
X134338542Y-43467501D01*
X134396233Y-43407438D01*
X134475228Y-43381064D01*
X134489231Y-43380500D01*
X139550769Y-43380500D01*
X139631631Y-43400431D01*
X139693968Y-43455657D01*
X139701458Y-43467501D01*
X139719477Y-43498712D01*
X139719478Y-43498713D01*
X139719480Y-43498716D01*
X139831284Y-43610520D01*
X139899750Y-43650048D01*
X139968212Y-43689575D01*
X139968216Y-43689577D01*
X140120943Y-43730500D01*
X140279057Y-43730500D01*
X140431784Y-43689577D01*
X140431787Y-43689575D01*
X140431788Y-43689575D01*
X140467203Y-43669127D01*
X140568716Y-43610520D01*
X140680520Y-43498716D01*
X140748446Y-43381064D01*
X140759575Y-43361788D01*
X140759575Y-43361787D01*
X140759577Y-43361784D01*
X140800500Y-43209057D01*
X140800500Y-43050943D01*
X140759577Y-42898216D01*
X140759575Y-42898212D01*
X140759575Y-42898211D01*
X140680522Y-42761288D01*
X140680520Y-42761284D01*
X140568716Y-42649480D01*
X140568711Y-42649477D01*
X140431787Y-42570424D01*
X140431784Y-42570423D01*
X140279057Y-42529500D01*
X140120943Y-42529500D01*
X139968216Y-42570423D01*
X139968215Y-42570423D01*
X139968213Y-42570424D01*
X139968211Y-42570424D01*
X139831288Y-42649477D01*
X139831284Y-42649480D01*
X139719480Y-42761284D01*
X139719478Y-42761287D01*
X139719477Y-42761287D01*
X139701458Y-42792499D01*
X139643767Y-42852562D01*
X139564772Y-42878936D01*
X139550769Y-42879500D01*
X134489231Y-42879500D01*
X134408369Y-42859569D01*
X134346032Y-42804343D01*
X134338542Y-42792499D01*
X134320522Y-42761287D01*
X134320521Y-42761286D01*
X134320520Y-42761284D01*
X134208716Y-42649480D01*
X134208711Y-42649477D01*
X134071787Y-42570424D01*
X134071784Y-42570423D01*
X133919057Y-42529500D01*
X133760943Y-42529500D01*
X133608216Y-42570423D01*
X133608215Y-42570423D01*
X133608213Y-42570424D01*
X133608211Y-42570424D01*
X133471288Y-42649477D01*
X133471284Y-42649480D01*
X133359480Y-42761284D01*
X133359477Y-42761288D01*
X133280424Y-42898211D01*
X133280424Y-42898213D01*
X133280423Y-42898215D01*
X133280423Y-42898216D01*
X133239500Y-43050943D01*
X110156111Y-43050943D01*
X110217553Y-42989501D01*
X110323996Y-42842994D01*
X110406211Y-42681639D01*
X110462171Y-42509409D01*
X110490500Y-42330546D01*
X110490500Y-42149454D01*
X110462171Y-41970591D01*
X110406211Y-41798361D01*
X110323996Y-41637006D01*
X110217553Y-41490499D01*
X110158513Y-41431459D01*
X184814500Y-41431459D01*
X184814500Y-41628541D01*
X184845259Y-41783176D01*
X184852949Y-41821836D01*
X184928366Y-42003911D01*
X184928368Y-42003915D01*
X185037857Y-42167777D01*
X185037858Y-42167778D01*
X185037861Y-42167782D01*
X185177218Y-42307139D01*
X185177221Y-42307141D01*
X185177222Y-42307142D01*
X185341084Y-42416631D01*
X185341086Y-42416632D01*
X185523165Y-42492051D01*
X185716459Y-42530500D01*
X185716462Y-42530500D01*
X186163537Y-42530500D01*
X186163541Y-42530500D01*
X186356835Y-42492051D01*
X186538914Y-42416632D01*
X186702782Y-42307139D01*
X186842139Y-42167782D01*
X186951632Y-42003914D01*
X187027051Y-41821835D01*
X187065500Y-41628541D01*
X187065500Y-41431459D01*
X187027051Y-41238165D01*
X186977207Y-41117829D01*
X186951633Y-41056088D01*
X186951631Y-41056084D01*
X186842142Y-40892222D01*
X186842141Y-40892221D01*
X186842139Y-40892218D01*
X186702782Y-40752861D01*
X186702778Y-40752858D01*
X186702777Y-40752857D01*
X186538915Y-40643368D01*
X186538911Y-40643366D01*
X186356836Y-40567949D01*
X186308511Y-40558336D01*
X186163541Y-40529500D01*
X185716459Y-40529500D01*
X185600482Y-40552569D01*
X185523163Y-40567949D01*
X185341088Y-40643366D01*
X185341084Y-40643368D01*
X185177222Y-40752857D01*
X185037857Y-40892222D01*
X184928368Y-41056084D01*
X184928366Y-41056088D01*
X184852949Y-41238163D01*
X184849400Y-41256007D01*
X184814500Y-41431459D01*
X110158513Y-41431459D01*
X110089501Y-41362447D01*
X110089497Y-41362444D01*
X110089495Y-41362442D01*
X109942999Y-41256007D01*
X109942994Y-41256004D01*
X109781642Y-41173790D01*
X109609412Y-41117830D01*
X109609409Y-41117829D01*
X109430546Y-41089500D01*
X109249454Y-41089500D01*
X109070591Y-41117829D01*
X109070588Y-41117829D01*
X109070587Y-41117830D01*
X108898357Y-41173790D01*
X108737005Y-41256004D01*
X108737000Y-41256007D01*
X108590504Y-41362442D01*
X108462442Y-41490504D01*
X108356007Y-41637000D01*
X108356004Y-41637005D01*
X108273790Y-41798357D01*
X108266162Y-41821836D01*
X108217829Y-41970591D01*
X108189500Y-42149454D01*
X100508000Y-42149454D01*
X100508000Y-39950943D01*
X127339500Y-39950943D01*
X127339500Y-40109056D01*
X127380424Y-40261786D01*
X127380424Y-40261788D01*
X127455324Y-40391518D01*
X127459480Y-40398716D01*
X127571284Y-40510520D01*
X127604159Y-40529500D01*
X127708212Y-40589575D01*
X127708216Y-40589577D01*
X127860943Y-40630500D01*
X128019057Y-40630500D01*
X128171784Y-40589577D01*
X128171787Y-40589575D01*
X128171788Y-40589575D01*
X128209245Y-40567949D01*
X128308716Y-40510520D01*
X128420520Y-40398716D01*
X128420524Y-40398708D01*
X128420626Y-40398577D01*
X128420785Y-40398449D01*
X128428584Y-40390651D01*
X128429451Y-40391518D01*
X128485663Y-40346558D01*
X128558671Y-40330500D01*
X162321329Y-40330500D01*
X162402191Y-40350431D01*
X162450750Y-40391316D01*
X162451416Y-40390651D01*
X162459171Y-40398406D01*
X162459374Y-40398577D01*
X162459477Y-40398711D01*
X162459480Y-40398716D01*
X162571284Y-40510520D01*
X162604159Y-40529500D01*
X162708212Y-40589575D01*
X162708216Y-40589577D01*
X162860943Y-40630500D01*
X163019057Y-40630500D01*
X163171784Y-40589577D01*
X163171787Y-40589575D01*
X163171788Y-40589575D01*
X163209245Y-40567949D01*
X163308716Y-40510520D01*
X163420520Y-40398716D01*
X163499577Y-40261784D01*
X163540500Y-40109057D01*
X163540500Y-39950943D01*
X163499577Y-39798216D01*
X163499575Y-39798212D01*
X163499575Y-39798211D01*
X163424675Y-39668481D01*
X163420520Y-39661284D01*
X163308716Y-39549480D01*
X163308711Y-39549477D01*
X163171787Y-39470424D01*
X163171784Y-39470423D01*
X163019057Y-39429500D01*
X162860943Y-39429500D01*
X162708216Y-39470423D01*
X162708215Y-39470423D01*
X162708213Y-39470424D01*
X162708211Y-39470424D01*
X162571288Y-39549477D01*
X162571284Y-39549480D01*
X162459479Y-39661285D01*
X162459374Y-39661423D01*
X162459214Y-39661550D01*
X162451416Y-39669349D01*
X162450548Y-39668481D01*
X162394337Y-39713442D01*
X162321329Y-39729500D01*
X128558671Y-39729500D01*
X128477809Y-39709569D01*
X128429249Y-39668683D01*
X128428584Y-39669349D01*
X128420828Y-39661593D01*
X128420626Y-39661423D01*
X128420522Y-39661288D01*
X128420520Y-39661284D01*
X128308716Y-39549480D01*
X128308711Y-39549477D01*
X128171787Y-39470424D01*
X128171784Y-39470423D01*
X128019057Y-39429500D01*
X127860943Y-39429500D01*
X127708216Y-39470423D01*
X127708215Y-39470423D01*
X127708213Y-39470424D01*
X127708211Y-39470424D01*
X127571288Y-39549477D01*
X127571284Y-39549480D01*
X127459480Y-39661284D01*
X127459477Y-39661288D01*
X127380424Y-39798211D01*
X127380424Y-39798213D01*
X127339500Y-39950943D01*
X100508000Y-39950943D01*
X100508000Y-38931459D01*
X184814500Y-38931459D01*
X184814500Y-39128541D01*
X184845259Y-39283176D01*
X184852949Y-39321836D01*
X184928366Y-39503911D01*
X184928368Y-39503915D01*
X185037857Y-39667777D01*
X185037858Y-39667778D01*
X185037861Y-39667782D01*
X185177218Y-39807139D01*
X185177221Y-39807141D01*
X185177222Y-39807142D01*
X185341084Y-39916631D01*
X185341086Y-39916632D01*
X185523165Y-39992051D01*
X185716459Y-40030500D01*
X185716462Y-40030500D01*
X186163537Y-40030500D01*
X186163541Y-40030500D01*
X186356835Y-39992051D01*
X186538914Y-39916632D01*
X186702782Y-39807139D01*
X186842139Y-39667782D01*
X186951632Y-39503914D01*
X187027051Y-39321835D01*
X187065500Y-39128541D01*
X187065500Y-38931459D01*
X187027051Y-38738165D01*
X186951632Y-38556086D01*
X186908845Y-38492051D01*
X186842142Y-38392222D01*
X186842141Y-38392221D01*
X186842139Y-38392218D01*
X186702782Y-38252861D01*
X186702778Y-38252858D01*
X186702777Y-38252857D01*
X186538915Y-38143368D01*
X186538911Y-38143366D01*
X186356836Y-38067949D01*
X186308511Y-38058336D01*
X186163541Y-38029500D01*
X185716459Y-38029500D01*
X185600482Y-38052569D01*
X185523163Y-38067949D01*
X185341088Y-38143366D01*
X185341084Y-38143368D01*
X185177222Y-38252857D01*
X185037857Y-38392222D01*
X184928368Y-38556084D01*
X184928366Y-38556088D01*
X184852949Y-38738163D01*
X184852949Y-38738165D01*
X184814500Y-38931459D01*
X100508000Y-38931459D01*
X100508000Y-36153713D01*
X103499500Y-36153713D01*
X103499500Y-36366287D01*
X103532754Y-36576243D01*
X103562325Y-36667253D01*
X103598443Y-36778412D01*
X103598446Y-36778420D01*
X103694945Y-36967811D01*
X103694951Y-36967820D01*
X103819891Y-37139786D01*
X103819893Y-37139788D01*
X103819896Y-37139792D01*
X103970208Y-37290104D01*
X103970211Y-37290106D01*
X103970213Y-37290108D01*
X104142179Y-37415048D01*
X104142188Y-37415054D01*
X104331579Y-37511553D01*
X104331583Y-37511554D01*
X104331588Y-37511557D01*
X104533757Y-37577246D01*
X104743713Y-37610500D01*
X104743717Y-37610500D01*
X104956283Y-37610500D01*
X104956287Y-37610500D01*
X105166243Y-37577246D01*
X105368412Y-37511557D01*
X105525608Y-37431462D01*
X105525614Y-37431459D01*
X108719500Y-37431459D01*
X108719500Y-37628541D01*
X108750259Y-37783176D01*
X108757949Y-37821836D01*
X108833366Y-38003911D01*
X108833368Y-38003915D01*
X108942857Y-38167777D01*
X108942858Y-38167778D01*
X108942861Y-38167782D01*
X109082218Y-38307139D01*
X109082221Y-38307141D01*
X109082222Y-38307142D01*
X109246084Y-38416631D01*
X109246086Y-38416632D01*
X109428165Y-38492051D01*
X109621459Y-38530500D01*
X109621462Y-38530500D01*
X109818537Y-38530500D01*
X109818541Y-38530500D01*
X110011835Y-38492051D01*
X110193914Y-38416632D01*
X110357782Y-38307139D01*
X110497139Y-38167782D01*
X110606632Y-38003914D01*
X110682051Y-37821835D01*
X110720500Y-37628541D01*
X110720500Y-37431459D01*
X111259500Y-37431459D01*
X111259500Y-37628541D01*
X111290259Y-37783176D01*
X111297949Y-37821836D01*
X111373366Y-38003911D01*
X111373368Y-38003915D01*
X111482857Y-38167777D01*
X111482858Y-38167778D01*
X111482861Y-38167782D01*
X111622218Y-38307139D01*
X111622221Y-38307141D01*
X111622222Y-38307142D01*
X111786084Y-38416631D01*
X111786086Y-38416632D01*
X111968165Y-38492051D01*
X112161459Y-38530500D01*
X112161462Y-38530500D01*
X112358537Y-38530500D01*
X112358541Y-38530500D01*
X112551835Y-38492051D01*
X112733914Y-38416632D01*
X112897782Y-38307139D01*
X113037139Y-38167782D01*
X113146632Y-38003914D01*
X113222051Y-37821835D01*
X113260500Y-37628541D01*
X113260500Y-37431459D01*
X116339500Y-37431459D01*
X116339500Y-37628541D01*
X116370259Y-37783176D01*
X116377949Y-37821836D01*
X116453366Y-38003911D01*
X116453368Y-38003915D01*
X116562857Y-38167777D01*
X116562858Y-38167778D01*
X116562861Y-38167782D01*
X116702218Y-38307139D01*
X116702221Y-38307141D01*
X116702222Y-38307142D01*
X116866084Y-38416631D01*
X116866086Y-38416632D01*
X117048165Y-38492051D01*
X117241459Y-38530500D01*
X117241462Y-38530500D01*
X117438537Y-38530500D01*
X117438541Y-38530500D01*
X117631835Y-38492051D01*
X117813914Y-38416632D01*
X117977782Y-38307139D01*
X118117139Y-38167782D01*
X118226632Y-38003914D01*
X118302051Y-37821835D01*
X118340500Y-37628541D01*
X118340500Y-37431459D01*
X118879500Y-37431459D01*
X118879500Y-37628541D01*
X118910259Y-37783176D01*
X118917949Y-37821836D01*
X118993366Y-38003911D01*
X118993368Y-38003915D01*
X119102857Y-38167777D01*
X119102858Y-38167778D01*
X119102861Y-38167782D01*
X119242218Y-38307139D01*
X119242221Y-38307141D01*
X119242222Y-38307142D01*
X119406084Y-38416631D01*
X119406086Y-38416632D01*
X119588165Y-38492051D01*
X119781459Y-38530500D01*
X119781462Y-38530500D01*
X119978537Y-38530500D01*
X119978541Y-38530500D01*
X120171835Y-38492051D01*
X120353914Y-38416632D01*
X120517782Y-38307139D01*
X120657139Y-38167782D01*
X120766632Y-38003914D01*
X120842051Y-37821835D01*
X120880500Y-37628541D01*
X120880500Y-37431459D01*
X121419500Y-37431459D01*
X121419500Y-37628541D01*
X121450259Y-37783176D01*
X121457949Y-37821836D01*
X121533366Y-38003911D01*
X121533368Y-38003915D01*
X121642857Y-38167777D01*
X121642858Y-38167778D01*
X121642861Y-38167782D01*
X121782218Y-38307139D01*
X121782221Y-38307141D01*
X121782222Y-38307142D01*
X121946084Y-38416631D01*
X121946086Y-38416632D01*
X122128165Y-38492051D01*
X122321459Y-38530500D01*
X122321462Y-38530500D01*
X122518537Y-38530500D01*
X122518541Y-38530500D01*
X122711835Y-38492051D01*
X122893914Y-38416632D01*
X123057782Y-38307139D01*
X123197139Y-38167782D01*
X123306632Y-38003914D01*
X123382051Y-37821835D01*
X123420500Y-37628541D01*
X123420500Y-37431459D01*
X126499500Y-37431459D01*
X126499500Y-37628541D01*
X126530259Y-37783176D01*
X126537949Y-37821836D01*
X126613366Y-38003911D01*
X126613368Y-38003915D01*
X126722857Y-38167777D01*
X126722858Y-38167778D01*
X126722861Y-38167782D01*
X126862218Y-38307139D01*
X126862221Y-38307141D01*
X126862222Y-38307142D01*
X127026084Y-38416631D01*
X127026086Y-38416632D01*
X127208165Y-38492051D01*
X127401459Y-38530500D01*
X127401462Y-38530500D01*
X127598537Y-38530500D01*
X127598541Y-38530500D01*
X127791835Y-38492051D01*
X127973914Y-38416632D01*
X128137782Y-38307139D01*
X128277139Y-38167782D01*
X128386632Y-38003914D01*
X128462051Y-37821835D01*
X128500500Y-37628541D01*
X128500500Y-37431459D01*
X129039500Y-37431459D01*
X129039500Y-37628541D01*
X129070259Y-37783176D01*
X129077949Y-37821836D01*
X129153366Y-38003911D01*
X129153368Y-38003915D01*
X129262857Y-38167777D01*
X129262858Y-38167778D01*
X129262861Y-38167782D01*
X129402218Y-38307139D01*
X129402221Y-38307141D01*
X129402222Y-38307142D01*
X129566084Y-38416631D01*
X129566086Y-38416632D01*
X129748165Y-38492051D01*
X129941459Y-38530500D01*
X129941462Y-38530500D01*
X130138537Y-38530500D01*
X130138541Y-38530500D01*
X130331835Y-38492051D01*
X130513914Y-38416632D01*
X130677782Y-38307139D01*
X130817139Y-38167782D01*
X130926632Y-38003914D01*
X131002051Y-37821835D01*
X131040500Y-37628541D01*
X131040500Y-37431459D01*
X134119500Y-37431459D01*
X134119500Y-37628541D01*
X134150259Y-37783176D01*
X134157949Y-37821836D01*
X134233366Y-38003911D01*
X134233368Y-38003915D01*
X134342857Y-38167777D01*
X134342858Y-38167778D01*
X134342861Y-38167782D01*
X134482218Y-38307139D01*
X134482221Y-38307141D01*
X134482222Y-38307142D01*
X134646084Y-38416631D01*
X134646086Y-38416632D01*
X134828165Y-38492051D01*
X135021459Y-38530500D01*
X135021462Y-38530500D01*
X135218537Y-38530500D01*
X135218541Y-38530500D01*
X135411835Y-38492051D01*
X135593914Y-38416632D01*
X135757782Y-38307139D01*
X135897139Y-38167782D01*
X136006632Y-38003914D01*
X136082051Y-37821835D01*
X136120500Y-37628541D01*
X136120500Y-37431459D01*
X136659500Y-37431459D01*
X136659500Y-37628541D01*
X136690259Y-37783176D01*
X136697949Y-37821836D01*
X136773366Y-38003911D01*
X136773368Y-38003915D01*
X136882857Y-38167777D01*
X136882858Y-38167778D01*
X136882861Y-38167782D01*
X137022218Y-38307139D01*
X137022221Y-38307141D01*
X137022222Y-38307142D01*
X137186084Y-38416631D01*
X137186086Y-38416632D01*
X137368165Y-38492051D01*
X137561459Y-38530500D01*
X137561462Y-38530500D01*
X137758537Y-38530500D01*
X137758541Y-38530500D01*
X137951835Y-38492051D01*
X138133914Y-38416632D01*
X138297782Y-38307139D01*
X138437139Y-38167782D01*
X138546632Y-38003914D01*
X138622051Y-37821835D01*
X138660500Y-37628541D01*
X138660500Y-37431459D01*
X139199500Y-37431459D01*
X139199500Y-37628541D01*
X139230259Y-37783176D01*
X139237949Y-37821836D01*
X139313366Y-38003911D01*
X139313368Y-38003915D01*
X139422857Y-38167777D01*
X139422858Y-38167778D01*
X139422861Y-38167782D01*
X139562218Y-38307139D01*
X139562221Y-38307141D01*
X139562222Y-38307142D01*
X139726084Y-38416631D01*
X139726086Y-38416632D01*
X139908165Y-38492051D01*
X140101459Y-38530500D01*
X140101462Y-38530500D01*
X140298537Y-38530500D01*
X140298541Y-38530500D01*
X140491835Y-38492051D01*
X140673914Y-38416632D01*
X140837782Y-38307139D01*
X140977139Y-38167782D01*
X141086632Y-38003914D01*
X141162051Y-37821835D01*
X141200500Y-37628541D01*
X141200500Y-37431459D01*
X141739500Y-37431459D01*
X141739500Y-37628541D01*
X141770259Y-37783176D01*
X141777949Y-37821836D01*
X141853366Y-38003911D01*
X141853368Y-38003915D01*
X141962857Y-38167777D01*
X141962858Y-38167778D01*
X141962861Y-38167782D01*
X142102218Y-38307139D01*
X142102221Y-38307141D01*
X142102222Y-38307142D01*
X142266084Y-38416631D01*
X142266086Y-38416632D01*
X142448165Y-38492051D01*
X142641459Y-38530500D01*
X142641462Y-38530500D01*
X142838537Y-38530500D01*
X142838541Y-38530500D01*
X143031835Y-38492051D01*
X143213914Y-38416632D01*
X143377782Y-38307139D01*
X143517139Y-38167782D01*
X143626632Y-38003914D01*
X143702051Y-37821835D01*
X143740500Y-37628541D01*
X143740500Y-37431459D01*
X146819500Y-37431459D01*
X146819500Y-37628541D01*
X146850259Y-37783176D01*
X146857949Y-37821836D01*
X146933366Y-38003911D01*
X146933368Y-38003915D01*
X147042857Y-38167777D01*
X147042858Y-38167778D01*
X147042861Y-38167782D01*
X147182218Y-38307139D01*
X147182221Y-38307141D01*
X147182222Y-38307142D01*
X147346084Y-38416631D01*
X147346086Y-38416632D01*
X147528165Y-38492051D01*
X147721459Y-38530500D01*
X147721462Y-38530500D01*
X147918537Y-38530500D01*
X147918541Y-38530500D01*
X148111835Y-38492051D01*
X148293914Y-38416632D01*
X148457782Y-38307139D01*
X148597139Y-38167782D01*
X148706632Y-38003914D01*
X148782051Y-37821835D01*
X148820500Y-37628541D01*
X148820500Y-37431459D01*
X151899500Y-37431459D01*
X151899500Y-37628541D01*
X151930259Y-37783176D01*
X151937949Y-37821836D01*
X152013366Y-38003911D01*
X152013368Y-38003915D01*
X152122857Y-38167777D01*
X152122858Y-38167778D01*
X152122861Y-38167782D01*
X152262218Y-38307139D01*
X152262221Y-38307141D01*
X152262222Y-38307142D01*
X152426084Y-38416631D01*
X152426086Y-38416632D01*
X152608165Y-38492051D01*
X152801459Y-38530500D01*
X152801462Y-38530500D01*
X152998537Y-38530500D01*
X152998541Y-38530500D01*
X153191835Y-38492051D01*
X153373914Y-38416632D01*
X153537782Y-38307139D01*
X153677139Y-38167782D01*
X153786632Y-38003914D01*
X153862051Y-37821835D01*
X153900500Y-37628541D01*
X153900500Y-37431459D01*
X154439500Y-37431459D01*
X154439500Y-37628541D01*
X154470259Y-37783176D01*
X154477949Y-37821836D01*
X154553366Y-38003911D01*
X154553368Y-38003915D01*
X154662857Y-38167777D01*
X154662858Y-38167778D01*
X154662861Y-38167782D01*
X154802218Y-38307139D01*
X154802221Y-38307141D01*
X154802222Y-38307142D01*
X154966084Y-38416631D01*
X154966086Y-38416632D01*
X155148165Y-38492051D01*
X155341459Y-38530500D01*
X155341462Y-38530500D01*
X155538537Y-38530500D01*
X155538541Y-38530500D01*
X155731835Y-38492051D01*
X155913914Y-38416632D01*
X156077782Y-38307139D01*
X156217139Y-38167782D01*
X156326632Y-38003914D01*
X156402051Y-37821835D01*
X156440500Y-37628541D01*
X156440500Y-37431459D01*
X156979500Y-37431459D01*
X156979500Y-37628541D01*
X157010259Y-37783176D01*
X157017949Y-37821836D01*
X157093366Y-38003911D01*
X157093368Y-38003915D01*
X157202857Y-38167777D01*
X157202858Y-38167778D01*
X157202861Y-38167782D01*
X157342218Y-38307139D01*
X157342221Y-38307141D01*
X157342222Y-38307142D01*
X157506084Y-38416631D01*
X157506086Y-38416632D01*
X157688165Y-38492051D01*
X157881459Y-38530500D01*
X157881462Y-38530500D01*
X158078537Y-38530500D01*
X158078541Y-38530500D01*
X158271835Y-38492051D01*
X158453914Y-38416632D01*
X158617782Y-38307139D01*
X158757139Y-38167782D01*
X158866632Y-38003914D01*
X158942051Y-37821835D01*
X158980500Y-37628541D01*
X158980500Y-37431459D01*
X158942051Y-37238165D01*
X158866632Y-37056086D01*
X158831772Y-37003915D01*
X158757142Y-36892222D01*
X158757141Y-36892221D01*
X158757139Y-36892218D01*
X158617782Y-36752861D01*
X158617778Y-36752858D01*
X158617777Y-36752857D01*
X158453915Y-36643368D01*
X158453911Y-36643366D01*
X158271836Y-36567949D01*
X158223511Y-36558336D01*
X158078541Y-36529500D01*
X157881459Y-36529500D01*
X157765482Y-36552569D01*
X157688163Y-36567949D01*
X157506088Y-36643366D01*
X157506084Y-36643368D01*
X157342222Y-36752857D01*
X157202857Y-36892222D01*
X157093368Y-37056084D01*
X157093366Y-37056088D01*
X157017949Y-37238163D01*
X157007617Y-37290105D01*
X156979500Y-37431459D01*
X156440500Y-37431459D01*
X156402051Y-37238165D01*
X156326632Y-37056086D01*
X156291772Y-37003915D01*
X156217142Y-36892222D01*
X156217141Y-36892221D01*
X156217139Y-36892218D01*
X156077782Y-36752861D01*
X156077778Y-36752858D01*
X156077777Y-36752857D01*
X155913915Y-36643368D01*
X155913911Y-36643366D01*
X155731836Y-36567949D01*
X155683511Y-36558336D01*
X155538541Y-36529500D01*
X155341459Y-36529500D01*
X155225482Y-36552569D01*
X155148163Y-36567949D01*
X154966088Y-36643366D01*
X154966084Y-36643368D01*
X154802222Y-36752857D01*
X154662857Y-36892222D01*
X154553368Y-37056084D01*
X154553366Y-37056088D01*
X154477949Y-37238163D01*
X154467617Y-37290105D01*
X154439500Y-37431459D01*
X153900500Y-37431459D01*
X153862051Y-37238165D01*
X153786632Y-37056086D01*
X153751772Y-37003915D01*
X153677142Y-36892222D01*
X153677141Y-36892221D01*
X153677139Y-36892218D01*
X153537782Y-36752861D01*
X153537778Y-36752858D01*
X153537777Y-36752857D01*
X153373915Y-36643368D01*
X153373911Y-36643366D01*
X153191836Y-36567949D01*
X153143511Y-36558336D01*
X152998541Y-36529500D01*
X152801459Y-36529500D01*
X152685482Y-36552569D01*
X152608163Y-36567949D01*
X152426088Y-36643366D01*
X152426084Y-36643368D01*
X152262222Y-36752857D01*
X152122857Y-36892222D01*
X152013368Y-37056084D01*
X152013366Y-37056088D01*
X151937949Y-37238163D01*
X151927617Y-37290105D01*
X151899500Y-37431459D01*
X148820500Y-37431459D01*
X148782051Y-37238165D01*
X148706632Y-37056086D01*
X148671772Y-37003915D01*
X148597142Y-36892222D01*
X148597141Y-36892221D01*
X148597139Y-36892218D01*
X148457782Y-36752861D01*
X148457778Y-36752858D01*
X148457777Y-36752857D01*
X148293915Y-36643368D01*
X148293911Y-36643366D01*
X148111836Y-36567949D01*
X148063511Y-36558336D01*
X147918541Y-36529500D01*
X147721459Y-36529500D01*
X147605482Y-36552569D01*
X147528163Y-36567949D01*
X147346088Y-36643366D01*
X147346084Y-36643368D01*
X147182222Y-36752857D01*
X147042857Y-36892222D01*
X146933368Y-37056084D01*
X146933366Y-37056088D01*
X146857949Y-37238163D01*
X146847617Y-37290105D01*
X146819500Y-37431459D01*
X143740500Y-37431459D01*
X143702051Y-37238165D01*
X143626632Y-37056086D01*
X143591772Y-37003915D01*
X143517142Y-36892222D01*
X143517141Y-36892221D01*
X143517139Y-36892218D01*
X143377782Y-36752861D01*
X143377778Y-36752858D01*
X143377777Y-36752857D01*
X143213915Y-36643368D01*
X143213911Y-36643366D01*
X143031836Y-36567949D01*
X142983511Y-36558336D01*
X142838541Y-36529500D01*
X142641459Y-36529500D01*
X142525482Y-36552569D01*
X142448163Y-36567949D01*
X142266088Y-36643366D01*
X142266084Y-36643368D01*
X142102222Y-36752857D01*
X141962857Y-36892222D01*
X141853368Y-37056084D01*
X141853366Y-37056088D01*
X141777949Y-37238163D01*
X141767617Y-37290105D01*
X141739500Y-37431459D01*
X141200500Y-37431459D01*
X141162051Y-37238165D01*
X141086632Y-37056086D01*
X141051772Y-37003915D01*
X140977142Y-36892222D01*
X140977141Y-36892221D01*
X140977139Y-36892218D01*
X140837782Y-36752861D01*
X140837778Y-36752858D01*
X140837777Y-36752857D01*
X140673915Y-36643368D01*
X140673911Y-36643366D01*
X140491836Y-36567949D01*
X140443511Y-36558336D01*
X140298541Y-36529500D01*
X140101459Y-36529500D01*
X139985482Y-36552569D01*
X139908163Y-36567949D01*
X139726088Y-36643366D01*
X139726084Y-36643368D01*
X139562222Y-36752857D01*
X139422857Y-36892222D01*
X139313368Y-37056084D01*
X139313366Y-37056088D01*
X139237949Y-37238163D01*
X139227617Y-37290105D01*
X139199500Y-37431459D01*
X138660500Y-37431459D01*
X138622051Y-37238165D01*
X138546632Y-37056086D01*
X138511772Y-37003915D01*
X138437142Y-36892222D01*
X138437141Y-36892221D01*
X138437139Y-36892218D01*
X138297782Y-36752861D01*
X138297778Y-36752858D01*
X138297777Y-36752857D01*
X138133915Y-36643368D01*
X138133911Y-36643366D01*
X137951836Y-36567949D01*
X137903511Y-36558336D01*
X137758541Y-36529500D01*
X137561459Y-36529500D01*
X137445482Y-36552569D01*
X137368163Y-36567949D01*
X137186088Y-36643366D01*
X137186084Y-36643368D01*
X137022222Y-36752857D01*
X136882857Y-36892222D01*
X136773368Y-37056084D01*
X136773366Y-37056088D01*
X136697949Y-37238163D01*
X136687617Y-37290105D01*
X136659500Y-37431459D01*
X136120500Y-37431459D01*
X136082051Y-37238165D01*
X136006632Y-37056086D01*
X135971772Y-37003915D01*
X135897142Y-36892222D01*
X135897141Y-36892221D01*
X135897139Y-36892218D01*
X135757782Y-36752861D01*
X135757778Y-36752858D01*
X135757777Y-36752857D01*
X135593915Y-36643368D01*
X135593911Y-36643366D01*
X135411836Y-36567949D01*
X135363511Y-36558336D01*
X135218541Y-36529500D01*
X135021459Y-36529500D01*
X134905482Y-36552569D01*
X134828163Y-36567949D01*
X134646088Y-36643366D01*
X134646084Y-36643368D01*
X134482222Y-36752857D01*
X134342857Y-36892222D01*
X134233368Y-37056084D01*
X134233366Y-37056088D01*
X134157949Y-37238163D01*
X134147617Y-37290105D01*
X134119500Y-37431459D01*
X131040500Y-37431459D01*
X131002051Y-37238165D01*
X130926632Y-37056086D01*
X130891772Y-37003915D01*
X130817142Y-36892222D01*
X130817141Y-36892221D01*
X130817139Y-36892218D01*
X130677782Y-36752861D01*
X130677778Y-36752858D01*
X130677777Y-36752857D01*
X130513915Y-36643368D01*
X130513911Y-36643366D01*
X130331836Y-36567949D01*
X130283511Y-36558336D01*
X130138541Y-36529500D01*
X129941459Y-36529500D01*
X129825482Y-36552569D01*
X129748163Y-36567949D01*
X129566088Y-36643366D01*
X129566084Y-36643368D01*
X129402222Y-36752857D01*
X129262857Y-36892222D01*
X129153368Y-37056084D01*
X129153366Y-37056088D01*
X129077949Y-37238163D01*
X129067617Y-37290105D01*
X129039500Y-37431459D01*
X128500500Y-37431459D01*
X128462051Y-37238165D01*
X128386632Y-37056086D01*
X128351772Y-37003915D01*
X128277142Y-36892222D01*
X128277141Y-36892221D01*
X128277139Y-36892218D01*
X128137782Y-36752861D01*
X128137778Y-36752858D01*
X128137777Y-36752857D01*
X127973915Y-36643368D01*
X127973911Y-36643366D01*
X127791836Y-36567949D01*
X127743511Y-36558336D01*
X127598541Y-36529500D01*
X127401459Y-36529500D01*
X127285482Y-36552569D01*
X127208163Y-36567949D01*
X127026088Y-36643366D01*
X127026084Y-36643368D01*
X126862222Y-36752857D01*
X126722857Y-36892222D01*
X126613368Y-37056084D01*
X126613366Y-37056088D01*
X126537949Y-37238163D01*
X126527617Y-37290105D01*
X126499500Y-37431459D01*
X123420500Y-37431459D01*
X123382051Y-37238165D01*
X123306632Y-37056086D01*
X123271772Y-37003915D01*
X123197142Y-36892222D01*
X123197141Y-36892221D01*
X123197139Y-36892218D01*
X123057782Y-36752861D01*
X123057778Y-36752858D01*
X123057777Y-36752857D01*
X122893915Y-36643368D01*
X122893911Y-36643366D01*
X122711836Y-36567949D01*
X122663511Y-36558336D01*
X122518541Y-36529500D01*
X122321459Y-36529500D01*
X122205482Y-36552569D01*
X122128163Y-36567949D01*
X121946088Y-36643366D01*
X121946084Y-36643368D01*
X121782222Y-36752857D01*
X121642857Y-36892222D01*
X121533368Y-37056084D01*
X121533366Y-37056088D01*
X121457949Y-37238163D01*
X121447617Y-37290105D01*
X121419500Y-37431459D01*
X120880500Y-37431459D01*
X120842051Y-37238165D01*
X120766632Y-37056086D01*
X120731772Y-37003915D01*
X120657142Y-36892222D01*
X120657141Y-36892221D01*
X120657139Y-36892218D01*
X120517782Y-36752861D01*
X120517778Y-36752858D01*
X120517777Y-36752857D01*
X120353915Y-36643368D01*
X120353911Y-36643366D01*
X120171836Y-36567949D01*
X120123511Y-36558336D01*
X119978541Y-36529500D01*
X119781459Y-36529500D01*
X119665482Y-36552569D01*
X119588163Y-36567949D01*
X119406088Y-36643366D01*
X119406084Y-36643368D01*
X119242222Y-36752857D01*
X119102857Y-36892222D01*
X118993368Y-37056084D01*
X118993366Y-37056088D01*
X118917949Y-37238163D01*
X118907617Y-37290105D01*
X118879500Y-37431459D01*
X118340500Y-37431459D01*
X118302051Y-37238165D01*
X118226632Y-37056086D01*
X118191772Y-37003915D01*
X118117142Y-36892222D01*
X118117141Y-36892221D01*
X118117139Y-36892218D01*
X117977782Y-36752861D01*
X117977778Y-36752858D01*
X117977777Y-36752857D01*
X117813915Y-36643368D01*
X117813911Y-36643366D01*
X117631836Y-36567949D01*
X117583511Y-36558336D01*
X117438541Y-36529500D01*
X117241459Y-36529500D01*
X117125482Y-36552569D01*
X117048163Y-36567949D01*
X116866088Y-36643366D01*
X116866084Y-36643368D01*
X116702222Y-36752857D01*
X116562857Y-36892222D01*
X116453368Y-37056084D01*
X116453366Y-37056088D01*
X116377949Y-37238163D01*
X116367617Y-37290105D01*
X116339500Y-37431459D01*
X113260500Y-37431459D01*
X113222051Y-37238165D01*
X113146632Y-37056086D01*
X113111772Y-37003915D01*
X113037142Y-36892222D01*
X113037141Y-36892221D01*
X113037139Y-36892218D01*
X112897782Y-36752861D01*
X112897778Y-36752858D01*
X112897777Y-36752857D01*
X112733915Y-36643368D01*
X112733911Y-36643366D01*
X112551836Y-36567949D01*
X112503511Y-36558336D01*
X112358541Y-36529500D01*
X112161459Y-36529500D01*
X112045482Y-36552569D01*
X111968163Y-36567949D01*
X111786088Y-36643366D01*
X111786084Y-36643368D01*
X111622222Y-36752857D01*
X111482857Y-36892222D01*
X111373368Y-37056084D01*
X111373366Y-37056088D01*
X111297949Y-37238163D01*
X111287617Y-37290105D01*
X111259500Y-37431459D01*
X110720500Y-37431459D01*
X110682051Y-37238165D01*
X110606632Y-37056086D01*
X110571772Y-37003915D01*
X110497142Y-36892222D01*
X110497141Y-36892221D01*
X110497139Y-36892218D01*
X110357782Y-36752861D01*
X110357778Y-36752858D01*
X110357777Y-36752857D01*
X110193915Y-36643368D01*
X110193911Y-36643366D01*
X110011836Y-36567949D01*
X109963511Y-36558336D01*
X109818541Y-36529500D01*
X109621459Y-36529500D01*
X109505482Y-36552569D01*
X109428163Y-36567949D01*
X109246088Y-36643366D01*
X109246084Y-36643368D01*
X109082222Y-36752857D01*
X108942857Y-36892222D01*
X108833368Y-37056084D01*
X108833366Y-37056088D01*
X108757949Y-37238163D01*
X108747617Y-37290105D01*
X108719500Y-37431459D01*
X105525614Y-37431459D01*
X105557811Y-37415054D01*
X105557813Y-37415052D01*
X105557816Y-37415051D01*
X105729792Y-37290104D01*
X105880104Y-37139792D01*
X106005051Y-36967816D01*
X106013028Y-36952162D01*
X106101553Y-36778420D01*
X106101553Y-36778419D01*
X106101557Y-36778412D01*
X106167246Y-36576243D01*
X106200500Y-36366287D01*
X106200500Y-36153713D01*
X161499500Y-36153713D01*
X161499500Y-36366287D01*
X161532754Y-36576243D01*
X161562325Y-36667253D01*
X161598443Y-36778412D01*
X161598446Y-36778420D01*
X161694945Y-36967811D01*
X161694951Y-36967820D01*
X161819891Y-37139786D01*
X161819893Y-37139788D01*
X161819896Y-37139792D01*
X161970208Y-37290104D01*
X161970211Y-37290106D01*
X161970213Y-37290108D01*
X162142179Y-37415048D01*
X162142188Y-37415054D01*
X162331579Y-37511553D01*
X162331583Y-37511554D01*
X162331588Y-37511557D01*
X162533757Y-37577246D01*
X162743713Y-37610500D01*
X162743717Y-37610500D01*
X162956283Y-37610500D01*
X162956287Y-37610500D01*
X163166243Y-37577246D01*
X163368412Y-37511557D01*
X163525608Y-37431462D01*
X163557811Y-37415054D01*
X163557813Y-37415052D01*
X163557816Y-37415051D01*
X163729792Y-37290104D01*
X163880104Y-37139792D01*
X164005051Y-36967816D01*
X164013028Y-36952162D01*
X164101553Y-36778420D01*
X164101553Y-36778419D01*
X164101557Y-36778412D01*
X164167246Y-36576243D01*
X164200500Y-36366287D01*
X164200500Y-36153713D01*
X164167246Y-35943757D01*
X164101557Y-35741588D01*
X164101554Y-35741583D01*
X164101553Y-35741579D01*
X164005054Y-35552188D01*
X164005048Y-35552179D01*
X163880108Y-35380213D01*
X163880106Y-35380211D01*
X163880104Y-35380208D01*
X163729792Y-35229896D01*
X163729788Y-35229893D01*
X163729786Y-35229891D01*
X163557820Y-35104951D01*
X163557811Y-35104945D01*
X163368420Y-35008446D01*
X163368412Y-35008443D01*
X163166243Y-34942754D01*
X162956287Y-34909500D01*
X162743713Y-34909500D01*
X162533757Y-34942754D01*
X162331587Y-35008443D01*
X162331579Y-35008446D01*
X162142188Y-35104945D01*
X162142179Y-35104951D01*
X161970213Y-35229891D01*
X161819891Y-35380213D01*
X161694951Y-35552179D01*
X161694945Y-35552188D01*
X161598446Y-35741579D01*
X161598443Y-35741587D01*
X161561650Y-35854824D01*
X161532754Y-35943757D01*
X161499500Y-36153713D01*
X106200500Y-36153713D01*
X106167246Y-35943757D01*
X106101557Y-35741588D01*
X106101554Y-35741583D01*
X106101553Y-35741579D01*
X106005054Y-35552188D01*
X106005048Y-35552179D01*
X105880108Y-35380213D01*
X105880106Y-35380211D01*
X105880104Y-35380208D01*
X105729792Y-35229896D01*
X105729788Y-35229893D01*
X105729786Y-35229891D01*
X105557820Y-35104951D01*
X105557811Y-35104945D01*
X105368420Y-35008446D01*
X105368412Y-35008443D01*
X105166243Y-34942754D01*
X104956287Y-34909500D01*
X104743713Y-34909500D01*
X104533757Y-34942754D01*
X104331587Y-35008443D01*
X104331579Y-35008446D01*
X104142188Y-35104945D01*
X104142179Y-35104951D01*
X103970213Y-35229891D01*
X103819891Y-35380213D01*
X103694951Y-35552179D01*
X103694945Y-35552188D01*
X103598446Y-35741579D01*
X103598443Y-35741587D01*
X103561650Y-35854824D01*
X103532754Y-35943757D01*
X103499500Y-36153713D01*
X100508000Y-36153713D01*
X100508000Y-34125175D01*
X108719500Y-34125175D01*
X108719500Y-35854824D01*
X108728232Y-35898721D01*
X108758324Y-35943757D01*
X108761496Y-35948504D01*
X108811278Y-35981767D01*
X108855180Y-35990500D01*
X108855181Y-35990500D01*
X110584819Y-35990500D01*
X110584820Y-35990500D01*
X110628722Y-35981767D01*
X110678504Y-35948504D01*
X110711767Y-35898722D01*
X110720500Y-35854820D01*
X110720500Y-34891459D01*
X111259500Y-34891459D01*
X111259500Y-35088541D01*
X111287617Y-35229891D01*
X111297949Y-35281836D01*
X111373366Y-35463911D01*
X111373368Y-35463915D01*
X111482857Y-35627777D01*
X111482858Y-35627778D01*
X111482861Y-35627782D01*
X111622218Y-35767139D01*
X111622221Y-35767141D01*
X111622222Y-35767142D01*
X111786084Y-35876631D01*
X111786086Y-35876632D01*
X111968165Y-35952051D01*
X112161459Y-35990500D01*
X112161462Y-35990500D01*
X112358537Y-35990500D01*
X112358541Y-35990500D01*
X112551835Y-35952051D01*
X112733914Y-35876632D01*
X112897782Y-35767139D01*
X113037139Y-35627782D01*
X113146632Y-35463914D01*
X113222051Y-35281835D01*
X113260500Y-35088541D01*
X113260500Y-34891459D01*
X113799500Y-34891459D01*
X113799500Y-35088541D01*
X113827617Y-35229891D01*
X113837949Y-35281836D01*
X113913366Y-35463911D01*
X113913368Y-35463915D01*
X114022857Y-35627777D01*
X114022858Y-35627778D01*
X114022861Y-35627782D01*
X114162218Y-35767139D01*
X114162221Y-35767141D01*
X114162222Y-35767142D01*
X114326084Y-35876631D01*
X114326086Y-35876632D01*
X114508165Y-35952051D01*
X114701459Y-35990500D01*
X114701462Y-35990500D01*
X114898537Y-35990500D01*
X114898541Y-35990500D01*
X115091835Y-35952051D01*
X115273914Y-35876632D01*
X115437782Y-35767139D01*
X115577139Y-35627782D01*
X115686632Y-35463914D01*
X115762051Y-35281835D01*
X115800500Y-35088541D01*
X115800500Y-34891459D01*
X116339500Y-34891459D01*
X116339500Y-35088541D01*
X116367617Y-35229891D01*
X116377949Y-35281836D01*
X116453366Y-35463911D01*
X116453368Y-35463915D01*
X116562857Y-35627777D01*
X116562858Y-35627778D01*
X116562861Y-35627782D01*
X116702218Y-35767139D01*
X116702221Y-35767141D01*
X116702222Y-35767142D01*
X116866084Y-35876631D01*
X116866086Y-35876632D01*
X117048165Y-35952051D01*
X117241459Y-35990500D01*
X117241462Y-35990500D01*
X117438537Y-35990500D01*
X117438541Y-35990500D01*
X117631835Y-35952051D01*
X117813914Y-35876632D01*
X117977782Y-35767139D01*
X118117139Y-35627782D01*
X118226632Y-35463914D01*
X118302051Y-35281835D01*
X118340500Y-35088541D01*
X118340500Y-34891459D01*
X121419500Y-34891459D01*
X121419500Y-35088541D01*
X121447617Y-35229891D01*
X121457949Y-35281836D01*
X121533366Y-35463911D01*
X121533368Y-35463915D01*
X121642857Y-35627777D01*
X121642858Y-35627778D01*
X121642861Y-35627782D01*
X121782218Y-35767139D01*
X121782221Y-35767141D01*
X121782222Y-35767142D01*
X121946084Y-35876631D01*
X121946086Y-35876632D01*
X122128165Y-35952051D01*
X122321459Y-35990500D01*
X122321462Y-35990500D01*
X122518537Y-35990500D01*
X122518541Y-35990500D01*
X122711835Y-35952051D01*
X122893914Y-35876632D01*
X123057782Y-35767139D01*
X123197139Y-35627782D01*
X123306632Y-35463914D01*
X123382051Y-35281835D01*
X123420500Y-35088541D01*
X123420500Y-34891459D01*
X123959500Y-34891459D01*
X123959500Y-35088541D01*
X123987617Y-35229891D01*
X123997949Y-35281836D01*
X124073366Y-35463911D01*
X124073368Y-35463915D01*
X124182857Y-35627777D01*
X124182858Y-35627778D01*
X124182861Y-35627782D01*
X124322218Y-35767139D01*
X124322221Y-35767141D01*
X124322222Y-35767142D01*
X124486084Y-35876631D01*
X124486086Y-35876632D01*
X124668165Y-35952051D01*
X124861459Y-35990500D01*
X124861462Y-35990500D01*
X125058537Y-35990500D01*
X125058541Y-35990500D01*
X125251835Y-35952051D01*
X125433914Y-35876632D01*
X125597782Y-35767139D01*
X125737139Y-35627782D01*
X125846632Y-35463914D01*
X125922051Y-35281835D01*
X125960500Y-35088541D01*
X125960500Y-34891459D01*
X126499500Y-34891459D01*
X126499500Y-35088541D01*
X126527617Y-35229891D01*
X126537949Y-35281836D01*
X126613366Y-35463911D01*
X126613368Y-35463915D01*
X126722857Y-35627777D01*
X126722858Y-35627778D01*
X126722861Y-35627782D01*
X126862218Y-35767139D01*
X126862221Y-35767141D01*
X126862222Y-35767142D01*
X127026084Y-35876631D01*
X127026086Y-35876632D01*
X127208165Y-35952051D01*
X127401459Y-35990500D01*
X127401462Y-35990500D01*
X127598537Y-35990500D01*
X127598541Y-35990500D01*
X127791835Y-35952051D01*
X127973914Y-35876632D01*
X128137782Y-35767139D01*
X128277139Y-35627782D01*
X128386632Y-35463914D01*
X128462051Y-35281835D01*
X128500500Y-35088541D01*
X128500500Y-34891459D01*
X129039500Y-34891459D01*
X129039500Y-35088541D01*
X129067617Y-35229891D01*
X129077949Y-35281836D01*
X129153366Y-35463911D01*
X129153368Y-35463915D01*
X129262857Y-35627777D01*
X129262858Y-35627778D01*
X129262861Y-35627782D01*
X129402218Y-35767139D01*
X129402221Y-35767141D01*
X129402222Y-35767142D01*
X129566084Y-35876631D01*
X129566086Y-35876632D01*
X129748165Y-35952051D01*
X129941459Y-35990500D01*
X129941462Y-35990500D01*
X130138537Y-35990500D01*
X130138541Y-35990500D01*
X130331835Y-35952051D01*
X130513914Y-35876632D01*
X130677782Y-35767139D01*
X130817139Y-35627782D01*
X130926632Y-35463914D01*
X131002051Y-35281835D01*
X131040500Y-35088541D01*
X131040500Y-34891459D01*
X131579500Y-34891459D01*
X131579500Y-35088541D01*
X131607617Y-35229891D01*
X131617949Y-35281836D01*
X131693366Y-35463911D01*
X131693368Y-35463915D01*
X131802857Y-35627777D01*
X131802858Y-35627778D01*
X131802861Y-35627782D01*
X131942218Y-35767139D01*
X131942221Y-35767141D01*
X131942222Y-35767142D01*
X132106084Y-35876631D01*
X132106086Y-35876632D01*
X132288165Y-35952051D01*
X132481459Y-35990500D01*
X132481462Y-35990500D01*
X132678537Y-35990500D01*
X132678541Y-35990500D01*
X132871835Y-35952051D01*
X133053914Y-35876632D01*
X133217782Y-35767139D01*
X133357139Y-35627782D01*
X133466632Y-35463914D01*
X133542051Y-35281835D01*
X133580500Y-35088541D01*
X133580500Y-34891459D01*
X134119500Y-34891459D01*
X134119500Y-35088541D01*
X134147617Y-35229891D01*
X134157949Y-35281836D01*
X134233366Y-35463911D01*
X134233368Y-35463915D01*
X134342857Y-35627777D01*
X134342858Y-35627778D01*
X134342861Y-35627782D01*
X134482218Y-35767139D01*
X134482221Y-35767141D01*
X134482222Y-35767142D01*
X134646084Y-35876631D01*
X134646086Y-35876632D01*
X134828165Y-35952051D01*
X135021459Y-35990500D01*
X135021462Y-35990500D01*
X135218537Y-35990500D01*
X135218541Y-35990500D01*
X135411835Y-35952051D01*
X135593914Y-35876632D01*
X135757782Y-35767139D01*
X135897139Y-35627782D01*
X136006632Y-35463914D01*
X136082051Y-35281835D01*
X136120500Y-35088541D01*
X136120500Y-34891459D01*
X136659500Y-34891459D01*
X136659500Y-35088541D01*
X136687617Y-35229891D01*
X136697949Y-35281836D01*
X136773366Y-35463911D01*
X136773368Y-35463915D01*
X136882857Y-35627777D01*
X136882858Y-35627778D01*
X136882861Y-35627782D01*
X137022218Y-35767139D01*
X137022221Y-35767141D01*
X137022222Y-35767142D01*
X137186084Y-35876631D01*
X137186086Y-35876632D01*
X137368165Y-35952051D01*
X137561459Y-35990500D01*
X137561462Y-35990500D01*
X137758537Y-35990500D01*
X137758541Y-35990500D01*
X137951835Y-35952051D01*
X138133914Y-35876632D01*
X138297782Y-35767139D01*
X138437139Y-35627782D01*
X138546632Y-35463914D01*
X138622051Y-35281835D01*
X138660500Y-35088541D01*
X138660500Y-34891459D01*
X141739500Y-34891459D01*
X141739500Y-35088541D01*
X141767617Y-35229891D01*
X141777949Y-35281836D01*
X141853366Y-35463911D01*
X141853368Y-35463915D01*
X141962857Y-35627777D01*
X141962858Y-35627778D01*
X141962861Y-35627782D01*
X142102218Y-35767139D01*
X142102221Y-35767141D01*
X142102222Y-35767142D01*
X142266084Y-35876631D01*
X142266086Y-35876632D01*
X142448165Y-35952051D01*
X142641459Y-35990500D01*
X142641462Y-35990500D01*
X142838537Y-35990500D01*
X142838541Y-35990500D01*
X143031835Y-35952051D01*
X143213914Y-35876632D01*
X143377782Y-35767139D01*
X143517139Y-35627782D01*
X143626632Y-35463914D01*
X143702051Y-35281835D01*
X143740500Y-35088541D01*
X143740500Y-34891459D01*
X144279500Y-34891459D01*
X144279500Y-35088541D01*
X144307617Y-35229891D01*
X144317949Y-35281836D01*
X144393366Y-35463911D01*
X144393368Y-35463915D01*
X144502857Y-35627777D01*
X144502858Y-35627778D01*
X144502861Y-35627782D01*
X144642218Y-35767139D01*
X144642221Y-35767141D01*
X144642222Y-35767142D01*
X144806084Y-35876631D01*
X144806086Y-35876632D01*
X144988165Y-35952051D01*
X145181459Y-35990500D01*
X145181462Y-35990500D01*
X145378537Y-35990500D01*
X145378541Y-35990500D01*
X145571835Y-35952051D01*
X145753914Y-35876632D01*
X145917782Y-35767139D01*
X146057139Y-35627782D01*
X146166632Y-35463914D01*
X146242051Y-35281835D01*
X146280500Y-35088541D01*
X146280500Y-34891459D01*
X146819500Y-34891459D01*
X146819500Y-35088541D01*
X146847617Y-35229891D01*
X146857949Y-35281836D01*
X146933366Y-35463911D01*
X146933368Y-35463915D01*
X147042857Y-35627777D01*
X147042858Y-35627778D01*
X147042861Y-35627782D01*
X147182218Y-35767139D01*
X147182221Y-35767141D01*
X147182222Y-35767142D01*
X147346084Y-35876631D01*
X147346086Y-35876632D01*
X147528165Y-35952051D01*
X147721459Y-35990500D01*
X147721462Y-35990500D01*
X147918537Y-35990500D01*
X147918541Y-35990500D01*
X148111835Y-35952051D01*
X148293914Y-35876632D01*
X148457782Y-35767139D01*
X148597139Y-35627782D01*
X148706632Y-35463914D01*
X148782051Y-35281835D01*
X148820500Y-35088541D01*
X148820500Y-34891459D01*
X149359500Y-34891459D01*
X149359500Y-35088541D01*
X149387617Y-35229891D01*
X149397949Y-35281836D01*
X149473366Y-35463911D01*
X149473368Y-35463915D01*
X149582857Y-35627777D01*
X149582858Y-35627778D01*
X149582861Y-35627782D01*
X149722218Y-35767139D01*
X149722221Y-35767141D01*
X149722222Y-35767142D01*
X149886084Y-35876631D01*
X149886086Y-35876632D01*
X150068165Y-35952051D01*
X150261459Y-35990500D01*
X150261462Y-35990500D01*
X150458537Y-35990500D01*
X150458541Y-35990500D01*
X150651835Y-35952051D01*
X150833914Y-35876632D01*
X150997782Y-35767139D01*
X151137139Y-35627782D01*
X151246632Y-35463914D01*
X151322051Y-35281835D01*
X151360500Y-35088541D01*
X151360500Y-34891459D01*
X151899500Y-34891459D01*
X151899500Y-35088541D01*
X151927617Y-35229891D01*
X151937949Y-35281836D01*
X152013366Y-35463911D01*
X152013368Y-35463915D01*
X152122857Y-35627777D01*
X152122858Y-35627778D01*
X152122861Y-35627782D01*
X152262218Y-35767139D01*
X152262221Y-35767141D01*
X152262222Y-35767142D01*
X152426084Y-35876631D01*
X152426086Y-35876632D01*
X152608165Y-35952051D01*
X152801459Y-35990500D01*
X152801462Y-35990500D01*
X152998537Y-35990500D01*
X152998541Y-35990500D01*
X153191835Y-35952051D01*
X153373914Y-35876632D01*
X153537782Y-35767139D01*
X153677139Y-35627782D01*
X153786632Y-35463914D01*
X153862051Y-35281835D01*
X153900500Y-35088541D01*
X153900500Y-34891459D01*
X154439500Y-34891459D01*
X154439500Y-35088541D01*
X154467617Y-35229891D01*
X154477949Y-35281836D01*
X154553366Y-35463911D01*
X154553368Y-35463915D01*
X154662857Y-35627777D01*
X154662858Y-35627778D01*
X154662861Y-35627782D01*
X154802218Y-35767139D01*
X154802221Y-35767141D01*
X154802222Y-35767142D01*
X154966084Y-35876631D01*
X154966086Y-35876632D01*
X155148165Y-35952051D01*
X155341459Y-35990500D01*
X155341462Y-35990500D01*
X155538537Y-35990500D01*
X155538541Y-35990500D01*
X155731835Y-35952051D01*
X155913914Y-35876632D01*
X156077782Y-35767139D01*
X156217139Y-35627782D01*
X156326632Y-35463914D01*
X156402051Y-35281835D01*
X156440500Y-35088541D01*
X156440500Y-34891459D01*
X156402051Y-34698165D01*
X156390471Y-34670208D01*
X156340655Y-34549939D01*
X156332835Y-34531063D01*
X156326632Y-34516086D01*
X156308570Y-34489055D01*
X169379500Y-34489055D01*
X169379500Y-34770944D01*
X169379501Y-34770963D01*
X169416293Y-35050427D01*
X169416297Y-35050449D01*
X169489256Y-35322735D01*
X169489258Y-35322739D01*
X169587327Y-35559500D01*
X169597139Y-35583187D01*
X169597142Y-35583194D01*
X169738088Y-35827318D01*
X169909694Y-36050958D01*
X169909696Y-36050960D01*
X169909700Y-36050965D01*
X170109035Y-36250300D01*
X170109039Y-36250303D01*
X170109041Y-36250305D01*
X170332681Y-36421911D01*
X170576805Y-36562857D01*
X170576811Y-36562859D01*
X170576817Y-36562863D01*
X170837261Y-36670742D01*
X170837262Y-36670742D01*
X170837264Y-36670743D01*
X171109550Y-36743702D01*
X171109551Y-36743702D01*
X171109558Y-36743704D01*
X171109568Y-36743705D01*
X171109572Y-36743706D01*
X171207996Y-36756663D01*
X171389049Y-36780500D01*
X171389056Y-36780500D01*
X171670944Y-36780500D01*
X171670951Y-36780500D01*
X171950442Y-36743704D01*
X172222739Y-36670742D01*
X172483183Y-36562863D01*
X172483191Y-36562858D01*
X172483194Y-36562857D01*
X172620448Y-36483613D01*
X172727317Y-36421912D01*
X172890907Y-36296384D01*
X176089500Y-36296384D01*
X176089500Y-36483616D01*
X176126027Y-36667251D01*
X176186341Y-36812861D01*
X176197678Y-36840231D01*
X176197678Y-36840232D01*
X176301694Y-36995903D01*
X176301695Y-36995904D01*
X176301698Y-36995908D01*
X176434092Y-37128302D01*
X176434095Y-37128304D01*
X176434096Y-37128305D01*
X176493178Y-37167782D01*
X176589769Y-37232322D01*
X176762749Y-37303973D01*
X176946384Y-37340500D01*
X176946387Y-37340500D01*
X177133613Y-37340500D01*
X177133616Y-37340500D01*
X177317251Y-37303973D01*
X177490231Y-37232322D01*
X177645908Y-37128302D01*
X177778302Y-36995908D01*
X177882322Y-36840231D01*
X177953973Y-36667251D01*
X177990500Y-36483616D01*
X177990500Y-36326233D01*
X180089500Y-36326233D01*
X180089500Y-36493767D01*
X180116307Y-36628537D01*
X180122184Y-36658081D01*
X180122185Y-36658084D01*
X180186295Y-36812861D01*
X180186296Y-36812863D01*
X180279370Y-36952157D01*
X180279371Y-36952158D01*
X180279374Y-36952162D01*
X180397838Y-37070626D01*
X180397841Y-37070628D01*
X180397842Y-37070629D01*
X180537136Y-37163703D01*
X180537138Y-37163704D01*
X180604641Y-37191664D01*
X180691918Y-37227816D01*
X180856233Y-37260500D01*
X180856236Y-37260500D01*
X181023764Y-37260500D01*
X181023767Y-37260500D01*
X181188082Y-37227816D01*
X181342863Y-37163703D01*
X181482162Y-37070626D01*
X181600626Y-36952162D01*
X181693703Y-36812863D01*
X181757816Y-36658082D01*
X181790500Y-36493767D01*
X181790500Y-36431459D01*
X184814500Y-36431459D01*
X184814500Y-36628541D01*
X184822895Y-36670743D01*
X184852949Y-36821836D01*
X184928366Y-37003911D01*
X184928368Y-37003915D01*
X185037857Y-37167777D01*
X185037858Y-37167778D01*
X185037861Y-37167782D01*
X185177218Y-37307139D01*
X185177221Y-37307141D01*
X185177222Y-37307142D01*
X185341084Y-37416631D01*
X185341086Y-37416632D01*
X185523165Y-37492051D01*
X185716459Y-37530500D01*
X185716462Y-37530500D01*
X186163537Y-37530500D01*
X186163541Y-37530500D01*
X186356835Y-37492051D01*
X186538914Y-37416632D01*
X186702782Y-37307139D01*
X186842139Y-37167782D01*
X186951632Y-37003914D01*
X187027051Y-36821835D01*
X187065500Y-36628541D01*
X187065500Y-36431459D01*
X187027051Y-36238165D01*
X186951632Y-36056086D01*
X186948210Y-36050965D01*
X186842142Y-35892222D01*
X186842141Y-35892221D01*
X186842139Y-35892218D01*
X186702782Y-35752861D01*
X186702778Y-35752858D01*
X186702777Y-35752857D01*
X186538915Y-35643368D01*
X186538911Y-35643366D01*
X186356836Y-35567949D01*
X186308511Y-35558336D01*
X186163541Y-35529500D01*
X185716459Y-35529500D01*
X185602445Y-35552179D01*
X185523163Y-35567949D01*
X185341088Y-35643366D01*
X185341084Y-35643368D01*
X185177222Y-35752857D01*
X185037857Y-35892222D01*
X184928368Y-36056084D01*
X184928366Y-36056088D01*
X184852949Y-36238163D01*
X184852949Y-36238165D01*
X184814500Y-36431459D01*
X181790500Y-36431459D01*
X181790500Y-36326233D01*
X181757816Y-36161918D01*
X181721664Y-36074641D01*
X181693704Y-36007138D01*
X181693703Y-36007136D01*
X181600629Y-35867842D01*
X181600628Y-35867841D01*
X181600626Y-35867838D01*
X181482162Y-35749374D01*
X181482158Y-35749371D01*
X181482157Y-35749370D01*
X181342863Y-35656296D01*
X181342861Y-35656295D01*
X181188084Y-35592185D01*
X181188086Y-35592185D01*
X181188082Y-35592184D01*
X181023767Y-35559500D01*
X180856233Y-35559500D01*
X180737114Y-35583194D01*
X180691918Y-35592184D01*
X180691915Y-35592185D01*
X180537138Y-35656295D01*
X180537136Y-35656296D01*
X180397842Y-35749370D01*
X180279370Y-35867842D01*
X180186296Y-36007136D01*
X180186295Y-36007138D01*
X180125581Y-36153716D01*
X180122184Y-36161918D01*
X180089500Y-36326233D01*
X177990500Y-36326233D01*
X177990500Y-36296384D01*
X177953973Y-36112749D01*
X177882322Y-35939769D01*
X177854895Y-35898722D01*
X177778305Y-35784096D01*
X177778304Y-35784095D01*
X177778302Y-35784092D01*
X177645908Y-35651698D01*
X177645904Y-35651695D01*
X177645903Y-35651694D01*
X177490231Y-35547678D01*
X177317253Y-35476028D01*
X177317255Y-35476028D01*
X177317251Y-35476027D01*
X177133616Y-35439500D01*
X176946384Y-35439500D01*
X176823661Y-35463911D01*
X176762749Y-35476027D01*
X176762746Y-35476028D01*
X176589768Y-35547678D01*
X176589767Y-35547678D01*
X176434096Y-35651694D01*
X176301694Y-35784096D01*
X176197678Y-35939767D01*
X176197678Y-35939768D01*
X176149497Y-36056088D01*
X176126027Y-36112749D01*
X176089500Y-36296384D01*
X172890907Y-36296384D01*
X172950965Y-36250300D01*
X173150300Y-36050965D01*
X173321912Y-35827317D01*
X173457666Y-35592185D01*
X173462857Y-35583194D01*
X173462858Y-35583191D01*
X173462863Y-35583183D01*
X173570742Y-35322739D01*
X173643704Y-35050442D01*
X173680500Y-34770951D01*
X173680500Y-34489049D01*
X173643704Y-34209558D01*
X173621094Y-34125175D01*
X173570743Y-33937264D01*
X173570742Y-33937261D01*
X173462863Y-33676817D01*
X173462859Y-33676811D01*
X173462857Y-33676805D01*
X173321911Y-33432681D01*
X173150305Y-33209041D01*
X173150303Y-33209039D01*
X173150300Y-33209035D01*
X172950965Y-33009700D01*
X172950960Y-33009696D01*
X172950958Y-33009694D01*
X172727318Y-32838088D01*
X172483194Y-32697142D01*
X172483187Y-32697139D01*
X172483185Y-32697138D01*
X172483183Y-32697137D01*
X172352961Y-32643197D01*
X172222735Y-32589256D01*
X171950449Y-32516297D01*
X171950427Y-32516293D01*
X171670963Y-32479501D01*
X171670955Y-32479500D01*
X171670951Y-32479500D01*
X171389049Y-32479500D01*
X171389044Y-32479500D01*
X171389036Y-32479501D01*
X171109572Y-32516293D01*
X171109550Y-32516297D01*
X170837264Y-32589256D01*
X170576812Y-32697139D01*
X170576805Y-32697142D01*
X170332681Y-32838088D01*
X170109041Y-33009694D01*
X169909694Y-33209041D01*
X169738088Y-33432681D01*
X169597142Y-33676805D01*
X169597139Y-33676812D01*
X169489256Y-33937264D01*
X169416297Y-34209550D01*
X169416293Y-34209572D01*
X169379501Y-34489036D01*
X169379500Y-34489055D01*
X156308570Y-34489055D01*
X156217142Y-34352222D01*
X156217141Y-34352221D01*
X156217139Y-34352218D01*
X156077782Y-34212861D01*
X156077778Y-34212858D01*
X156077777Y-34212857D01*
X155913915Y-34103368D01*
X155913911Y-34103366D01*
X155731836Y-34027949D01*
X155683511Y-34018336D01*
X155538541Y-33989500D01*
X155341459Y-33989500D01*
X155225482Y-34012569D01*
X155148163Y-34027949D01*
X154966088Y-34103366D01*
X154966084Y-34103368D01*
X154802222Y-34212857D01*
X154662857Y-34352222D01*
X154553368Y-34516084D01*
X154553366Y-34516088D01*
X154477949Y-34698163D01*
X154477949Y-34698165D01*
X154439500Y-34891459D01*
X153900500Y-34891459D01*
X153862051Y-34698165D01*
X153786632Y-34516086D01*
X153768570Y-34489055D01*
X153677142Y-34352222D01*
X153677141Y-34352221D01*
X153677139Y-34352218D01*
X153537782Y-34212861D01*
X153537778Y-34212858D01*
X153537777Y-34212857D01*
X153373915Y-34103368D01*
X153373911Y-34103366D01*
X153191836Y-34027949D01*
X153143511Y-34018336D01*
X152998541Y-33989500D01*
X152801459Y-33989500D01*
X152685482Y-34012569D01*
X152608163Y-34027949D01*
X152426088Y-34103366D01*
X152426084Y-34103368D01*
X152262222Y-34212857D01*
X152122857Y-34352222D01*
X152013368Y-34516084D01*
X152013366Y-34516088D01*
X151937949Y-34698163D01*
X151937949Y-34698165D01*
X151899500Y-34891459D01*
X151360500Y-34891459D01*
X151322051Y-34698165D01*
X151246632Y-34516086D01*
X151228570Y-34489055D01*
X151137142Y-34352222D01*
X151137141Y-34352221D01*
X151137139Y-34352218D01*
X150997782Y-34212861D01*
X150997778Y-34212858D01*
X150997777Y-34212857D01*
X150833915Y-34103368D01*
X150833911Y-34103366D01*
X150651836Y-34027949D01*
X150603511Y-34018336D01*
X150458541Y-33989500D01*
X150261459Y-33989500D01*
X150145482Y-34012569D01*
X150068163Y-34027949D01*
X149886088Y-34103366D01*
X149886084Y-34103368D01*
X149722222Y-34212857D01*
X149582857Y-34352222D01*
X149473368Y-34516084D01*
X149473366Y-34516088D01*
X149397949Y-34698163D01*
X149397949Y-34698165D01*
X149359500Y-34891459D01*
X148820500Y-34891459D01*
X148782051Y-34698165D01*
X148706632Y-34516086D01*
X148688570Y-34489055D01*
X148597142Y-34352222D01*
X148597141Y-34352221D01*
X148597139Y-34352218D01*
X148457782Y-34212861D01*
X148457778Y-34212858D01*
X148457777Y-34212857D01*
X148293915Y-34103368D01*
X148293911Y-34103366D01*
X148111836Y-34027949D01*
X148063511Y-34018336D01*
X147918541Y-33989500D01*
X147721459Y-33989500D01*
X147605482Y-34012569D01*
X147528163Y-34027949D01*
X147346088Y-34103366D01*
X147346084Y-34103368D01*
X147182222Y-34212857D01*
X147042857Y-34352222D01*
X146933368Y-34516084D01*
X146933366Y-34516088D01*
X146857949Y-34698163D01*
X146857949Y-34698165D01*
X146819500Y-34891459D01*
X146280500Y-34891459D01*
X146242051Y-34698165D01*
X146166632Y-34516086D01*
X146148570Y-34489055D01*
X146057142Y-34352222D01*
X146057141Y-34352221D01*
X146057139Y-34352218D01*
X145917782Y-34212861D01*
X145917778Y-34212858D01*
X145917777Y-34212857D01*
X145753915Y-34103368D01*
X145753911Y-34103366D01*
X145571836Y-34027949D01*
X145523511Y-34018336D01*
X145378541Y-33989500D01*
X145181459Y-33989500D01*
X145065482Y-34012569D01*
X144988163Y-34027949D01*
X144806088Y-34103366D01*
X144806084Y-34103368D01*
X144642222Y-34212857D01*
X144502857Y-34352222D01*
X144393368Y-34516084D01*
X144393366Y-34516088D01*
X144317949Y-34698163D01*
X144317949Y-34698165D01*
X144279500Y-34891459D01*
X143740500Y-34891459D01*
X143702051Y-34698165D01*
X143626632Y-34516086D01*
X143608570Y-34489055D01*
X143517142Y-34352222D01*
X143517141Y-34352221D01*
X143517139Y-34352218D01*
X143377782Y-34212861D01*
X143377778Y-34212858D01*
X143377777Y-34212857D01*
X143213915Y-34103368D01*
X143213911Y-34103366D01*
X143031836Y-34027949D01*
X142983511Y-34018336D01*
X142838541Y-33989500D01*
X142641459Y-33989500D01*
X142525482Y-34012569D01*
X142448163Y-34027949D01*
X142266088Y-34103366D01*
X142266084Y-34103368D01*
X142102222Y-34212857D01*
X141962857Y-34352222D01*
X141853368Y-34516084D01*
X141853366Y-34516088D01*
X141777949Y-34698163D01*
X141777949Y-34698165D01*
X141739500Y-34891459D01*
X138660500Y-34891459D01*
X138622051Y-34698165D01*
X138546632Y-34516086D01*
X138528570Y-34489055D01*
X138437142Y-34352222D01*
X138437141Y-34352221D01*
X138437139Y-34352218D01*
X138297782Y-34212861D01*
X138297778Y-34212858D01*
X138297777Y-34212857D01*
X138133915Y-34103368D01*
X138133911Y-34103366D01*
X137951836Y-34027949D01*
X137903511Y-34018336D01*
X137758541Y-33989500D01*
X137561459Y-33989500D01*
X137445482Y-34012569D01*
X137368163Y-34027949D01*
X137186088Y-34103366D01*
X137186084Y-34103368D01*
X137022222Y-34212857D01*
X136882857Y-34352222D01*
X136773368Y-34516084D01*
X136773366Y-34516088D01*
X136697949Y-34698163D01*
X136697949Y-34698165D01*
X136659500Y-34891459D01*
X136120500Y-34891459D01*
X136082051Y-34698165D01*
X136006632Y-34516086D01*
X135988570Y-34489055D01*
X135897142Y-34352222D01*
X135897141Y-34352221D01*
X135897139Y-34352218D01*
X135757782Y-34212861D01*
X135757778Y-34212858D01*
X135757777Y-34212857D01*
X135593915Y-34103368D01*
X135593911Y-34103366D01*
X135411836Y-34027949D01*
X135363511Y-34018336D01*
X135218541Y-33989500D01*
X135021459Y-33989500D01*
X134905482Y-34012569D01*
X134828163Y-34027949D01*
X134646088Y-34103366D01*
X134646084Y-34103368D01*
X134482222Y-34212857D01*
X134342857Y-34352222D01*
X134233368Y-34516084D01*
X134233366Y-34516088D01*
X134157949Y-34698163D01*
X134157949Y-34698165D01*
X134119500Y-34891459D01*
X133580500Y-34891459D01*
X133542051Y-34698165D01*
X133466632Y-34516086D01*
X133448570Y-34489055D01*
X133357142Y-34352222D01*
X133357141Y-34352221D01*
X133357139Y-34352218D01*
X133217782Y-34212861D01*
X133217778Y-34212858D01*
X133217777Y-34212857D01*
X133053915Y-34103368D01*
X133053911Y-34103366D01*
X132871836Y-34027949D01*
X132823511Y-34018336D01*
X132678541Y-33989500D01*
X132481459Y-33989500D01*
X132365482Y-34012569D01*
X132288163Y-34027949D01*
X132106088Y-34103366D01*
X132106084Y-34103368D01*
X131942222Y-34212857D01*
X131802857Y-34352222D01*
X131693368Y-34516084D01*
X131693366Y-34516088D01*
X131617949Y-34698163D01*
X131617949Y-34698165D01*
X131579500Y-34891459D01*
X131040500Y-34891459D01*
X131002051Y-34698165D01*
X130926632Y-34516086D01*
X130908570Y-34489055D01*
X130817142Y-34352222D01*
X130817141Y-34352221D01*
X130817139Y-34352218D01*
X130677782Y-34212861D01*
X130677778Y-34212858D01*
X130677777Y-34212857D01*
X130513915Y-34103368D01*
X130513911Y-34103366D01*
X130331836Y-34027949D01*
X130283511Y-34018336D01*
X130138541Y-33989500D01*
X129941459Y-33989500D01*
X129825482Y-34012569D01*
X129748163Y-34027949D01*
X129566088Y-34103366D01*
X129566084Y-34103368D01*
X129402222Y-34212857D01*
X129262857Y-34352222D01*
X129153368Y-34516084D01*
X129153366Y-34516088D01*
X129077949Y-34698163D01*
X129077949Y-34698165D01*
X129039500Y-34891459D01*
X128500500Y-34891459D01*
X128462051Y-34698165D01*
X128386632Y-34516086D01*
X128368570Y-34489055D01*
X128277142Y-34352222D01*
X128277141Y-34352221D01*
X128277139Y-34352218D01*
X128137782Y-34212861D01*
X128137778Y-34212858D01*
X128137777Y-34212857D01*
X127973915Y-34103368D01*
X127973911Y-34103366D01*
X127791836Y-34027949D01*
X127743511Y-34018336D01*
X127598541Y-33989500D01*
X127401459Y-33989500D01*
X127285482Y-34012569D01*
X127208163Y-34027949D01*
X127026088Y-34103366D01*
X127026084Y-34103368D01*
X126862222Y-34212857D01*
X126722857Y-34352222D01*
X126613368Y-34516084D01*
X126613366Y-34516088D01*
X126537949Y-34698163D01*
X126537949Y-34698165D01*
X126499500Y-34891459D01*
X125960500Y-34891459D01*
X125922051Y-34698165D01*
X125846632Y-34516086D01*
X125828570Y-34489055D01*
X125737142Y-34352222D01*
X125737141Y-34352221D01*
X125737139Y-34352218D01*
X125597782Y-34212861D01*
X125597778Y-34212858D01*
X125597777Y-34212857D01*
X125433915Y-34103368D01*
X125433911Y-34103366D01*
X125251836Y-34027949D01*
X125203511Y-34018336D01*
X125058541Y-33989500D01*
X124861459Y-33989500D01*
X124745482Y-34012569D01*
X124668163Y-34027949D01*
X124486088Y-34103366D01*
X124486084Y-34103368D01*
X124322222Y-34212857D01*
X124182857Y-34352222D01*
X124073368Y-34516084D01*
X124073366Y-34516088D01*
X123997949Y-34698163D01*
X123997949Y-34698165D01*
X123959500Y-34891459D01*
X123420500Y-34891459D01*
X123382051Y-34698165D01*
X123306632Y-34516086D01*
X123288570Y-34489055D01*
X123197142Y-34352222D01*
X123197141Y-34352221D01*
X123197139Y-34352218D01*
X123057782Y-34212861D01*
X123057778Y-34212858D01*
X123057777Y-34212857D01*
X122893915Y-34103368D01*
X122893911Y-34103366D01*
X122711836Y-34027949D01*
X122663511Y-34018336D01*
X122518541Y-33989500D01*
X122321459Y-33989500D01*
X122205482Y-34012569D01*
X122128163Y-34027949D01*
X121946088Y-34103366D01*
X121946084Y-34103368D01*
X121782222Y-34212857D01*
X121642857Y-34352222D01*
X121533368Y-34516084D01*
X121533366Y-34516088D01*
X121457949Y-34698163D01*
X121457949Y-34698165D01*
X121419500Y-34891459D01*
X118340500Y-34891459D01*
X118302051Y-34698165D01*
X118226632Y-34516086D01*
X118208570Y-34489055D01*
X118117142Y-34352222D01*
X118117141Y-34352221D01*
X118117139Y-34352218D01*
X117977782Y-34212861D01*
X117977778Y-34212858D01*
X117977777Y-34212857D01*
X117813915Y-34103368D01*
X117813911Y-34103366D01*
X117631836Y-34027949D01*
X117583511Y-34018336D01*
X117438541Y-33989500D01*
X117241459Y-33989500D01*
X117125482Y-34012569D01*
X117048163Y-34027949D01*
X116866088Y-34103366D01*
X116866084Y-34103368D01*
X116702222Y-34212857D01*
X116562857Y-34352222D01*
X116453368Y-34516084D01*
X116453366Y-34516088D01*
X116377949Y-34698163D01*
X116377949Y-34698165D01*
X116339500Y-34891459D01*
X115800500Y-34891459D01*
X115762051Y-34698165D01*
X115686632Y-34516086D01*
X115668570Y-34489055D01*
X115577142Y-34352222D01*
X115577141Y-34352221D01*
X115577139Y-34352218D01*
X115437782Y-34212861D01*
X115437778Y-34212858D01*
X115437777Y-34212857D01*
X115273915Y-34103368D01*
X115273911Y-34103366D01*
X115091836Y-34027949D01*
X115043511Y-34018336D01*
X114898541Y-33989500D01*
X114701459Y-33989500D01*
X114585482Y-34012569D01*
X114508163Y-34027949D01*
X114326088Y-34103366D01*
X114326084Y-34103368D01*
X114162222Y-34212857D01*
X114022857Y-34352222D01*
X113913368Y-34516084D01*
X113913366Y-34516088D01*
X113837949Y-34698163D01*
X113837949Y-34698165D01*
X113799500Y-34891459D01*
X113260500Y-34891459D01*
X113222051Y-34698165D01*
X113146632Y-34516086D01*
X113128570Y-34489055D01*
X113037142Y-34352222D01*
X113037141Y-34352221D01*
X113037139Y-34352218D01*
X112897782Y-34212861D01*
X112897778Y-34212858D01*
X112897777Y-34212857D01*
X112733915Y-34103368D01*
X112733911Y-34103366D01*
X112551836Y-34027949D01*
X112503511Y-34018336D01*
X112358541Y-33989500D01*
X112161459Y-33989500D01*
X112045482Y-34012569D01*
X111968163Y-34027949D01*
X111786088Y-34103366D01*
X111786084Y-34103368D01*
X111622222Y-34212857D01*
X111482857Y-34352222D01*
X111373368Y-34516084D01*
X111373366Y-34516088D01*
X111297949Y-34698163D01*
X111297949Y-34698165D01*
X111259500Y-34891459D01*
X110720500Y-34891459D01*
X110720500Y-34125180D01*
X110711767Y-34081278D01*
X110678504Y-34031496D01*
X110677832Y-34031047D01*
X110628721Y-33998232D01*
X110584824Y-33989500D01*
X110584820Y-33989500D01*
X108855180Y-33989500D01*
X108855175Y-33989500D01*
X108811278Y-33998232D01*
X108761498Y-34031494D01*
X108761494Y-34031498D01*
X108728232Y-34081278D01*
X108719500Y-34125175D01*
X100508000Y-34125175D01*
X100508000Y-31380366D01*
X100527931Y-31299504D01*
X100545383Y-31272608D01*
X101190191Y-30455175D01*
X107399500Y-30455175D01*
X107399500Y-32184824D01*
X107408232Y-32228721D01*
X107408233Y-32228722D01*
X107441496Y-32278504D01*
X107491278Y-32311767D01*
X107535180Y-32320500D01*
X107535181Y-32320500D01*
X109264819Y-32320500D01*
X109264820Y-32320500D01*
X109308722Y-32311767D01*
X109358504Y-32278504D01*
X109391767Y-32228722D01*
X109400500Y-32184820D01*
X109400500Y-30455180D01*
X109391767Y-30411278D01*
X109358504Y-30361496D01*
X109308722Y-30328233D01*
X109308721Y-30328232D01*
X109264824Y-30319500D01*
X109264820Y-30319500D01*
X107535180Y-30319500D01*
X107535175Y-30319500D01*
X107491278Y-30328232D01*
X107441498Y-30361494D01*
X107441494Y-30361498D01*
X107408232Y-30411278D01*
X107399500Y-30455175D01*
X101190191Y-30455175D01*
X101662402Y-29856545D01*
X101669841Y-29850756D01*
X101674632Y-29842633D01*
X101702369Y-29825446D01*
X101728126Y-29805405D01*
X101739187Y-29802633D01*
X101745425Y-29798769D01*
X101786592Y-29790756D01*
X101904103Y-29782352D01*
X101923808Y-29780943D01*
X101936219Y-29780500D01*
X101977594Y-29780500D01*
X188382406Y-29780500D01*
X188423781Y-29780500D01*
X188436193Y-29780943D01*
G37*
%TD.AperFunction*%
%TD*%
M02*
