M48
; DRILL file KiCad 10.0.4 date 2026-09-18T18:19:46
; FORMAT={-:-/ absolute / metric / decimal}
; #@! TF.CreationDate,2026-09-18T18:19:46+02:00
; #@! TF.GenerationSoftware,Kicad,Pcbnew,10.0.4
; #@! TF.FileFunction,MixedPlating,1,2
FMAT,2
METRIC
; #@! TA.AperFunction,Plated,PTH,ViaDrill
T1C0.600
; #@! TA.AperFunction,Plated,PTH,ComponentDrill
T2C0.700
; #@! TA.AperFunction,Plated,PTH,ComponentDrill
T3C0.750
; #@! TA.AperFunction,Plated,PTH,ComponentDrill
T4C0.800
; #@! TA.AperFunction,Plated,PTH,ComponentDrill
T5C0.950
; #@! TA.AperFunction,Plated,PTH,ComponentDrill
T6C1.000
; #@! TA.AperFunction,Plated,PTH,ComponentDrill
T7C1.100
; #@! TA.AperFunction,Plated,PTH,ComponentDrill
T8C1.700
; #@! TA.AperFunction,NonPlated,NPTH,ComponentDrill
T9C2.700
; #@! TA.AperFunction,NonPlated,NPTH,ComponentDrill
T10C4.300
%
G90
G05
T1
X105.08Y-44.628
X118.288Y-41.072
X127.94Y-40.03
X133.84Y-43.13
X134.544Y-54.788
X140.2Y-43.13
X147.244Y-58.852
X161.976Y-51.74
X162.94Y-40.03
X167.056Y-40.056
X172.136Y-55.804
T2
X105.14Y-79.32
X105.14Y-86.94
X110.14Y-79.32
X110.14Y-86.94
X115.14Y-79.32
X115.14Y-86.94
X120.14Y-79.32
X120.14Y-86.94
X125.14Y-79.32
X125.14Y-86.94
X156.93Y-61.21
X164.55Y-61.21
X180.94Y-36.41
X180.94Y-44.03
T3
X155.52Y-56.69
X156.79Y-56.69
X158.06Y-56.69
T4
X104.8Y-63.86
X104.8Y-71.48
X107.34Y-63.86
X107.34Y-71.48
X108.12Y-56.5
X109.88Y-63.86
X109.88Y-71.48
X112.42Y-63.86
X112.42Y-71.48
X113.12Y-56.5
X114.96Y-63.86
X114.96Y-71.48
X117.5Y-63.86
X117.5Y-71.48
X120.04Y-63.86
X120.04Y-71.48
X122.58Y-63.86
X122.58Y-71.48
X128.27Y-66.24
X128.27Y-71.24
X144.44Y-59.72
X144.44Y-67.34
X148.34Y-83.52
X148.34Y-91.14
X149.94Y-62.03
X149.94Y-69.65
X160.13Y-74.73
X164.66Y-47.74
X167.2Y-47.74
X167.75Y-74.73
X177.04Y-36.39
X177.04Y-51.63
X179.615Y-68.325
X179.615Y-70.865
X180.09Y-53.8
X180.09Y-56.34
T5
X108.965Y-93.975
X111.465Y-93.975
X113.965Y-93.975
X116.465Y-93.975
X118.965Y-93.975
X121.465Y-93.975
X185.94Y-36.53
X185.94Y-39.03
X185.94Y-41.53
X185.94Y-44.03
X185.94Y-54.03
X185.94Y-56.53
X185.94Y-59.03
X185.94Y-68.53
X185.94Y-71.03
X185.94Y-73.53
X185.94Y-83.53
X185.94Y-86.03
X185.94Y-88.53
X185.94Y-91.03
T6
X108.4Y-31.32
X109.34Y-42.24
X109.72Y-34.99
X109.72Y-37.53
X110.94Y-31.32
X112.26Y-34.99
X112.26Y-37.53
X114.34Y-42.24
X114.8Y-34.99
X114.8Y-37.53
X117.34Y-34.99
X117.34Y-37.53
X119.88Y-34.99
X119.88Y-37.53
X122.42Y-34.99
X122.42Y-37.53
X124.96Y-34.99
X124.96Y-37.53
X127.5Y-34.99
X127.5Y-37.53
X130.04Y-34.99
X130.04Y-37.53
X132.58Y-34.99
X132.58Y-37.53
X133.05Y-74.53
X133.722Y-76.53
X135.12Y-34.99
X135.12Y-37.53
X135.15Y-63.49
X135.15Y-65.99
X137.66Y-34.99
X137.66Y-37.53
X138.722Y-76.53
X139.394Y-78.53
X140.2Y-34.99
X140.2Y-37.53
X142.74Y-34.99
X142.74Y-37.53
X145.28Y-34.99
X145.28Y-37.53
X147.82Y-34.99
X147.82Y-37.53
X150.36Y-34.99
X150.36Y-37.53
X152.9Y-34.99
X152.9Y-37.53
X154.34Y-74.83
X154.34Y-79.83
X155.44Y-34.99
X155.44Y-37.53
X156.94Y-64.53
X156.94Y-69.53
X157.98Y-34.99
X157.98Y-37.53
X170.67Y-61.2
X175.67Y-61.2
T7
X135.2Y-87.48
X137.74Y-87.48
X140.28Y-87.48
T8
X162.76Y-87.33
X166.72Y-87.33
T9
X104.85Y-36.26
X162.85Y-36.26
T10
X121.71Y-45.52
X130.94Y-94.53
X171.53Y-34.63
X175.33Y-93.89
M30
