%TF.GenerationSoftware,KiCad,Pcbnew,10.0.4*%
%TF.CreationDate,2026-09-18T18:19:43+02:00*%
%TF.ProjectId,hams-telex,68616d73-2d74-4656-9c65-782e6b696361,rev?*%
%TF.SameCoordinates,Original*%
%TF.FileFunction,Soldermask,Top*%
%TF.FilePolarity,Negative*%
%FSLAX46Y46*%
G04 Gerber Fmt 4.6, Leading zero omitted, Abs format (unit mm)*
G04 Created by KiCad (PCBNEW 10.0.4) date 2026-09-18 18:19:43*
%MOMM*%
%LPD*%
G01*
G04 APERTURE LIST*
G04 Aperture macros list*
%AMRoundRect*
0 Rectangle with rounded corners*
0 $1 Rounding radius*
0 $2 $3 $4 $5 $6 $7 $8 $9 X,Y pos of 4 corners*
0 Add a 4 corners polygon primitive as box body*
4,1,4,$2,$3,$4,$5,$6,$7,$8,$9,$2,$3,0*
0 Add four circle primitives for the rounded corners*
1,1,$1+$1,$2,$3*
1,1,$1+$1,$4,$5*
1,1,$1+$1,$6,$7*
1,1,$1+$1,$8,$9*
0 Add four rect primitives between the rounded corners*
20,1,$1+$1,$2,$3,$4,$5,0*
20,1,$1+$1,$4,$5,$6,$7,0*
20,1,$1+$1,$6,$7,$8,$9,0*
20,1,$1+$1,$8,$9,$2,$3,0*%
G04 Aperture macros list end*
%ADD10O,1.700000X1.700000*%
%ADD11R,1.700000X1.700000*%
%ADD12RoundRect,0.250000X0.550000X-0.550000X0.550000X0.550000X-0.550000X0.550000X-0.550000X-0.550000X0*%
%ADD13C,1.600000*%
%ADD14C,4.300000*%
%ADD15C,2.000000*%
%ADD16C,1.400000*%
%ADD17RoundRect,0.250000X0.725000X-0.600000X0.725000X0.600000X-0.725000X0.600000X-0.725000X-0.600000X0*%
%ADD18O,1.950000X1.700000*%
%ADD19C,2.700000*%
%ADD20C,1.700000*%
%ADD21RoundRect,0.250000X-1.330000X-1.800000X1.330000X-1.800000X1.330000X1.800000X-1.330000X1.800000X0*%
%ADD22O,3.160000X4.100000*%
%ADD23RoundRect,0.250000X-0.600000X-0.725000X0.600000X-0.725000X0.600000X0.725000X-0.600000X0.725000X0*%
%ADD24O,1.700000X1.950000*%
%ADD25RoundRect,0.250000X-0.750000X-0.750000X0.750000X-0.750000X0.750000X0.750000X-0.750000X0.750000X0*%
%ADD26RoundRect,0.250000X-0.550000X-0.550000X0.550000X-0.550000X0.550000X0.550000X-0.550000X0.550000X0*%
%ADD27RoundRect,0.250000X0.750000X-0.600000X0.750000X0.600000X-0.750000X0.600000X-0.750000X-0.600000X0*%
%ADD28O,2.000000X1.700000*%
%ADD29R,1.050000X1.500000*%
%ADD30O,1.050000X1.500000*%
%ADD31R,1.905000X2.000000*%
%ADD32O,1.905000X2.000000*%
G04 APERTURE END LIST*
D10*
%TO.C,J40*%
X124960000Y-37530000D03*
X119880000Y-34990000D03*
X140200000Y-34990000D03*
D11*
X109720000Y-34990000D03*
D10*
X109720000Y-37530000D03*
X112260000Y-34990000D03*
X112260000Y-37530000D03*
X114800000Y-34990000D03*
X114800000Y-37530000D03*
X117340000Y-34990000D03*
X117340000Y-37530000D03*
X119880000Y-37530000D03*
X122420000Y-34990000D03*
X122420000Y-37530000D03*
X124960000Y-34990000D03*
X127500000Y-34990000D03*
X127500000Y-37530000D03*
X130040000Y-34990000D03*
X130040000Y-37530000D03*
X132580000Y-34990000D03*
X132580000Y-37530000D03*
X135120000Y-34990000D03*
X135120000Y-37530000D03*
X137660000Y-34990000D03*
X137660000Y-37530000D03*
X140200000Y-37530000D03*
X142740000Y-34990000D03*
X142740000Y-37530000D03*
X145280000Y-34990000D03*
X145280000Y-37530000D03*
X147820000Y-34990000D03*
X147820000Y-37530000D03*
X150360000Y-34990000D03*
X150360000Y-37530000D03*
X152900000Y-34990000D03*
X152900000Y-37530000D03*
X155440000Y-34990000D03*
X155440000Y-37530000D03*
X157980000Y-34990000D03*
X157980000Y-37530000D03*
%TD*%
D12*
%TO.C,U2*%
X104800000Y-71480000D03*
D13*
X107340000Y-71480000D03*
X109880000Y-71480000D03*
X112420000Y-71480000D03*
X114960000Y-71480000D03*
X117500000Y-71480000D03*
X120040000Y-71480000D03*
X122580000Y-71480000D03*
X122580000Y-63860000D03*
X120040000Y-63860000D03*
X117500000Y-63860000D03*
X114960000Y-63860000D03*
X112420000Y-63860000D03*
X109880000Y-63860000D03*
X107340000Y-63860000D03*
X104800000Y-63860000D03*
%TD*%
D14*
%TO.C,REF\u002A\u002A*%
X130940000Y-94530000D03*
%TD*%
D13*
%TO.C,R11*%
X177040000Y-36390000D03*
X177040000Y-51630000D03*
%TD*%
D15*
%TO.C,C6*%
X154340000Y-74830000D03*
X154340000Y-79830000D03*
%TD*%
%TO.C,C4*%
X109340000Y-42240000D03*
X114340000Y-42240000D03*
%TD*%
D16*
%TO.C,R5*%
X105140000Y-79320000D03*
X105140000Y-86940000D03*
%TD*%
D14*
%TO.C,REF\u002A\u002A*%
X171530000Y-34630000D03*
%TD*%
D17*
%TO.C,J2*%
X185940000Y-73530000D03*
D18*
X185940000Y-71030000D03*
X185940000Y-68530000D03*
%TD*%
D16*
%TO.C,JP3*%
X164660000Y-47740000D03*
X167200000Y-47740000D03*
%TD*%
%TO.C,R3*%
X115140000Y-79320000D03*
X115140000Y-86940000D03*
%TD*%
D14*
%TO.C,REF\u002A\u002A*%
X121710000Y-45520000D03*
%TD*%
D19*
%TO.C,MH1*%
X104850000Y-36260000D03*
%TD*%
D16*
%TO.C,R1*%
X125140000Y-79320000D03*
X125140000Y-86940000D03*
%TD*%
%TO.C,JP1*%
X180090000Y-53800000D03*
X180090000Y-56340000D03*
%TD*%
D17*
%TO.C,J3*%
X185940000Y-59030000D03*
D18*
X185940000Y-56530000D03*
X185940000Y-54030000D03*
%TD*%
D11*
%TO.C,J6*%
X108400000Y-31320000D03*
D20*
X110940000Y-31320000D03*
%TD*%
D15*
%TO.C,C11*%
X170670000Y-61200000D03*
X175670000Y-61200000D03*
%TD*%
D21*
%TO.C,JPWR01*%
X162760000Y-87330000D03*
D22*
X166720000Y-87330000D03*
%TD*%
D15*
%TO.C,C3*%
X156940000Y-64530000D03*
X156940000Y-69530000D03*
%TD*%
D13*
%TO.C,R9*%
X144440000Y-59720000D03*
X144440000Y-67340000D03*
%TD*%
%TO.C,R8*%
X149940000Y-62030000D03*
X149940000Y-69650000D03*
%TD*%
D16*
%TO.C,R10*%
X156930000Y-61210000D03*
X164550000Y-61210000D03*
%TD*%
D23*
%TO.C,J5*%
X108965000Y-93975000D03*
D24*
X111465000Y-93975000D03*
X113965000Y-93975000D03*
X116465000Y-93975000D03*
X118965000Y-93975000D03*
X121465000Y-93975000D03*
%TD*%
D25*
%TO.C,C2*%
X133050179Y-74530000D03*
X133722323Y-76530000D03*
D15*
X138722323Y-76530000D03*
X139394467Y-78530000D03*
%TD*%
D13*
%TO.C,R7*%
X160130000Y-74730000D03*
X167750000Y-74730000D03*
%TD*%
D26*
%TO.C,C5*%
X108120000Y-56500000D03*
D13*
X113120000Y-56500000D03*
%TD*%
D27*
%TO.C,JPWR02*%
X135150000Y-65990000D03*
D28*
X135150000Y-63490000D03*
%TD*%
D13*
%TO.C,R6*%
X148340000Y-91140000D03*
X148340000Y-83520000D03*
%TD*%
D16*
%TO.C,R4*%
X110140000Y-79320000D03*
X110140000Y-86940000D03*
%TD*%
%TO.C,JP2*%
X179615000Y-68325000D03*
X179615000Y-70865000D03*
%TD*%
D19*
%TO.C,MH2*%
X162850000Y-36260000D03*
%TD*%
D17*
%TO.C,J4*%
X185940000Y-44030000D03*
D18*
X185940000Y-41530000D03*
X185940000Y-39030000D03*
X185940000Y-36530000D03*
%TD*%
D14*
%TO.C,REF\u002A\u002A*%
X175330000Y-93890000D03*
%TD*%
D13*
%TO.C,C1*%
X128270000Y-71240000D03*
X128270000Y-66240000D03*
%TD*%
D17*
%TO.C,J1*%
X185940000Y-91030000D03*
D18*
X185940000Y-88530000D03*
X185940000Y-86030000D03*
X185940000Y-83530000D03*
%TD*%
D16*
%TO.C,R2*%
X120140000Y-79320000D03*
X120140000Y-86940000D03*
%TD*%
D29*
%TO.C,Q2*%
X155520000Y-56690000D03*
D30*
X156790000Y-56690000D03*
X158060000Y-56690000D03*
%TD*%
D31*
%TO.C,Q1*%
X135200000Y-87480000D03*
D32*
X137740000Y-87480000D03*
X140280000Y-87480000D03*
%TD*%
D16*
%TO.C,R12*%
X180940000Y-44030000D03*
X180940000Y-36410000D03*
%TD*%
M02*
