%TF.GenerationSoftware,KiCad,Pcbnew,10.0.4*%
%TF.CreationDate,2026-09-18T18:19:43+02:00*%
%TF.ProjectId,hams-telex,68616d73-2d74-4656-9c65-782e6b696361,rev?*%
%TF.SameCoordinates,Original*%
%TF.FileFunction,Legend,Top*%
%TF.FilePolarity,Positive*%
%FSLAX46Y46*%
G04 Gerber Fmt 4.6, Leading zero omitted, Abs format (unit mm)*
G04 Created by KiCad (PCBNEW 10.0.4) date 2026-09-18 18:19:43*
%MOMM*%
%LPD*%
G01*
G04 APERTURE LIST*
%ADD10C,0.200000*%
%ADD11C,0.300000*%
%ADD12C,0.150000*%
%ADD13C,0.120000*%
%ADD14C,0.000000*%
G04 APERTURE END LIST*
D10*
X135834435Y-93279219D02*
X136072530Y-94279219D01*
X136072530Y-94279219D02*
X136263006Y-93564933D01*
X136263006Y-93564933D02*
X136453482Y-94279219D01*
X136453482Y-94279219D02*
X136691578Y-93279219D01*
X137501101Y-94279219D02*
X137501101Y-93755409D01*
X137501101Y-93755409D02*
X137453482Y-93660171D01*
X137453482Y-93660171D02*
X137358244Y-93612552D01*
X137358244Y-93612552D02*
X137167768Y-93612552D01*
X137167768Y-93612552D02*
X137072530Y-93660171D01*
X137501101Y-94231600D02*
X137405863Y-94279219D01*
X137405863Y-94279219D02*
X137167768Y-94279219D01*
X137167768Y-94279219D02*
X137072530Y-94231600D01*
X137072530Y-94231600D02*
X137024911Y-94136361D01*
X137024911Y-94136361D02*
X137024911Y-94041123D01*
X137024911Y-94041123D02*
X137072530Y-93945885D01*
X137072530Y-93945885D02*
X137167768Y-93898266D01*
X137167768Y-93898266D02*
X137405863Y-93898266D01*
X137405863Y-93898266D02*
X137501101Y-93850647D01*
X137882054Y-93612552D02*
X138120149Y-94279219D01*
X138358244Y-93612552D02*
X138120149Y-94279219D01*
X138120149Y-94279219D02*
X138024911Y-94517314D01*
X138024911Y-94517314D02*
X137977292Y-94564933D01*
X137977292Y-94564933D02*
X137882054Y-94612552D01*
X138643959Y-93279219D02*
X138882054Y-94279219D01*
X138882054Y-94279219D02*
X139072530Y-93564933D01*
X139072530Y-93564933D02*
X139263006Y-94279219D01*
X139263006Y-94279219D02*
X139501102Y-93279219D01*
X140310625Y-94279219D02*
X140310625Y-93755409D01*
X140310625Y-93755409D02*
X140263006Y-93660171D01*
X140263006Y-93660171D02*
X140167768Y-93612552D01*
X140167768Y-93612552D02*
X139977292Y-93612552D01*
X139977292Y-93612552D02*
X139882054Y-93660171D01*
X140310625Y-94231600D02*
X140215387Y-94279219D01*
X140215387Y-94279219D02*
X139977292Y-94279219D01*
X139977292Y-94279219D02*
X139882054Y-94231600D01*
X139882054Y-94231600D02*
X139834435Y-94136361D01*
X139834435Y-94136361D02*
X139834435Y-94041123D01*
X139834435Y-94041123D02*
X139882054Y-93945885D01*
X139882054Y-93945885D02*
X139977292Y-93898266D01*
X139977292Y-93898266D02*
X140215387Y-93898266D01*
X140215387Y-93898266D02*
X140310625Y-93850647D01*
X140691578Y-93612552D02*
X140929673Y-94279219D01*
X141167768Y-93612552D02*
X140929673Y-94279219D01*
X140929673Y-94279219D02*
X140834435Y-94517314D01*
X140834435Y-94517314D02*
X140786816Y-94564933D01*
X140786816Y-94564933D02*
X140691578Y-94612552D01*
X141453483Y-93279219D02*
X141691578Y-94279219D01*
X141691578Y-94279219D02*
X141882054Y-93564933D01*
X141882054Y-93564933D02*
X142072530Y-94279219D01*
X142072530Y-94279219D02*
X142310626Y-93279219D01*
X143120149Y-94279219D02*
X143120149Y-93755409D01*
X143120149Y-93755409D02*
X143072530Y-93660171D01*
X143072530Y-93660171D02*
X142977292Y-93612552D01*
X142977292Y-93612552D02*
X142786816Y-93612552D01*
X142786816Y-93612552D02*
X142691578Y-93660171D01*
X143120149Y-94231600D02*
X143024911Y-94279219D01*
X143024911Y-94279219D02*
X142786816Y-94279219D01*
X142786816Y-94279219D02*
X142691578Y-94231600D01*
X142691578Y-94231600D02*
X142643959Y-94136361D01*
X142643959Y-94136361D02*
X142643959Y-94041123D01*
X142643959Y-94041123D02*
X142691578Y-93945885D01*
X142691578Y-93945885D02*
X142786816Y-93898266D01*
X142786816Y-93898266D02*
X143024911Y-93898266D01*
X143024911Y-93898266D02*
X143120149Y-93850647D01*
X143501102Y-93612552D02*
X143739197Y-94279219D01*
X143977292Y-93612552D02*
X143739197Y-94279219D01*
X143739197Y-94279219D02*
X143643959Y-94517314D01*
X143643959Y-94517314D02*
X143596340Y-94564933D01*
X143596340Y-94564933D02*
X143501102Y-94612552D01*
D11*
X136757368Y-96260828D02*
X136757368Y-97475114D01*
X136757368Y-97475114D02*
X136685939Y-97617971D01*
X136685939Y-97617971D02*
X136614510Y-97689400D01*
X136614510Y-97689400D02*
X136471653Y-97760828D01*
X136471653Y-97760828D02*
X136257368Y-97760828D01*
X136257368Y-97760828D02*
X136114510Y-97689400D01*
X136757368Y-97189400D02*
X136614510Y-97260828D01*
X136614510Y-97260828D02*
X136328796Y-97260828D01*
X136328796Y-97260828D02*
X136185939Y-97189400D01*
X136185939Y-97189400D02*
X136114510Y-97117971D01*
X136114510Y-97117971D02*
X136043082Y-96975114D01*
X136043082Y-96975114D02*
X136043082Y-96546542D01*
X136043082Y-96546542D02*
X136114510Y-96403685D01*
X136114510Y-96403685D02*
X136185939Y-96332257D01*
X136185939Y-96332257D02*
X136328796Y-96260828D01*
X136328796Y-96260828D02*
X136614510Y-96260828D01*
X136614510Y-96260828D02*
X136757368Y-96332257D01*
X137471653Y-97260828D02*
X137471653Y-96260828D01*
X137471653Y-95760828D02*
X137400225Y-95832257D01*
X137400225Y-95832257D02*
X137471653Y-95903685D01*
X137471653Y-95903685D02*
X137543082Y-95832257D01*
X137543082Y-95832257D02*
X137471653Y-95760828D01*
X137471653Y-95760828D02*
X137471653Y-95903685D01*
X137971654Y-96260828D02*
X138543082Y-96260828D01*
X138185939Y-95760828D02*
X138185939Y-97046542D01*
X138185939Y-97046542D02*
X138257368Y-97189400D01*
X138257368Y-97189400D02*
X138400225Y-97260828D01*
X138400225Y-97260828D02*
X138543082Y-97260828D01*
X139043082Y-97260828D02*
X139043082Y-95760828D01*
X139685940Y-97260828D02*
X139685940Y-96475114D01*
X139685940Y-96475114D02*
X139614511Y-96332257D01*
X139614511Y-96332257D02*
X139471654Y-96260828D01*
X139471654Y-96260828D02*
X139257368Y-96260828D01*
X139257368Y-96260828D02*
X139114511Y-96332257D01*
X139114511Y-96332257D02*
X139043082Y-96403685D01*
X141043083Y-96260828D02*
X141043083Y-97260828D01*
X140400225Y-96260828D02*
X140400225Y-97046542D01*
X140400225Y-97046542D02*
X140471654Y-97189400D01*
X140471654Y-97189400D02*
X140614511Y-97260828D01*
X140614511Y-97260828D02*
X140828797Y-97260828D01*
X140828797Y-97260828D02*
X140971654Y-97189400D01*
X140971654Y-97189400D02*
X141043083Y-97117971D01*
X141757368Y-97260828D02*
X141757368Y-95760828D01*
X141757368Y-96332257D02*
X141900226Y-96260828D01*
X141900226Y-96260828D02*
X142185940Y-96260828D01*
X142185940Y-96260828D02*
X142328797Y-96332257D01*
X142328797Y-96332257D02*
X142400226Y-96403685D01*
X142400226Y-96403685D02*
X142471654Y-96546542D01*
X142471654Y-96546542D02*
X142471654Y-96975114D01*
X142471654Y-96975114D02*
X142400226Y-97117971D01*
X142400226Y-97117971D02*
X142328797Y-97189400D01*
X142328797Y-97189400D02*
X142185940Y-97260828D01*
X142185940Y-97260828D02*
X141900226Y-97260828D01*
X141900226Y-97260828D02*
X141757368Y-97189400D01*
X143114511Y-97117971D02*
X143185940Y-97189400D01*
X143185940Y-97189400D02*
X143114511Y-97260828D01*
X143114511Y-97260828D02*
X143043083Y-97189400D01*
X143043083Y-97189400D02*
X143114511Y-97117971D01*
X143114511Y-97117971D02*
X143114511Y-97260828D01*
X144471655Y-97189400D02*
X144328797Y-97260828D01*
X144328797Y-97260828D02*
X144043083Y-97260828D01*
X144043083Y-97260828D02*
X143900226Y-97189400D01*
X143900226Y-97189400D02*
X143828797Y-97117971D01*
X143828797Y-97117971D02*
X143757369Y-96975114D01*
X143757369Y-96975114D02*
X143757369Y-96546542D01*
X143757369Y-96546542D02*
X143828797Y-96403685D01*
X143828797Y-96403685D02*
X143900226Y-96332257D01*
X143900226Y-96332257D02*
X144043083Y-96260828D01*
X144043083Y-96260828D02*
X144328797Y-96260828D01*
X144328797Y-96260828D02*
X144471655Y-96332257D01*
X145328797Y-97260828D02*
X145185940Y-97189400D01*
X145185940Y-97189400D02*
X145114511Y-97117971D01*
X145114511Y-97117971D02*
X145043083Y-96975114D01*
X145043083Y-96975114D02*
X145043083Y-96546542D01*
X145043083Y-96546542D02*
X145114511Y-96403685D01*
X145114511Y-96403685D02*
X145185940Y-96332257D01*
X145185940Y-96332257D02*
X145328797Y-96260828D01*
X145328797Y-96260828D02*
X145543083Y-96260828D01*
X145543083Y-96260828D02*
X145685940Y-96332257D01*
X145685940Y-96332257D02*
X145757369Y-96403685D01*
X145757369Y-96403685D02*
X145828797Y-96546542D01*
X145828797Y-96546542D02*
X145828797Y-96975114D01*
X145828797Y-96975114D02*
X145757369Y-97117971D01*
X145757369Y-97117971D02*
X145685940Y-97189400D01*
X145685940Y-97189400D02*
X145543083Y-97260828D01*
X145543083Y-97260828D02*
X145328797Y-97260828D01*
X146471654Y-97260828D02*
X146471654Y-96260828D01*
X146471654Y-96403685D02*
X146543083Y-96332257D01*
X146543083Y-96332257D02*
X146685940Y-96260828D01*
X146685940Y-96260828D02*
X146900226Y-96260828D01*
X146900226Y-96260828D02*
X147043083Y-96332257D01*
X147043083Y-96332257D02*
X147114512Y-96475114D01*
X147114512Y-96475114D02*
X147114512Y-97260828D01*
X147114512Y-96475114D02*
X147185940Y-96332257D01*
X147185940Y-96332257D02*
X147328797Y-96260828D01*
X147328797Y-96260828D02*
X147543083Y-96260828D01*
X147543083Y-96260828D02*
X147685940Y-96332257D01*
X147685940Y-96332257D02*
X147757369Y-96475114D01*
X147757369Y-96475114D02*
X147757369Y-97260828D01*
X149543083Y-95689400D02*
X148257369Y-97617971D01*
X150685941Y-96260828D02*
X150685941Y-97475114D01*
X150685941Y-97475114D02*
X150614512Y-97617971D01*
X150614512Y-97617971D02*
X150543083Y-97689400D01*
X150543083Y-97689400D02*
X150400226Y-97760828D01*
X150400226Y-97760828D02*
X150185941Y-97760828D01*
X150185941Y-97760828D02*
X150043083Y-97689400D01*
X150685941Y-97189400D02*
X150543083Y-97260828D01*
X150543083Y-97260828D02*
X150257369Y-97260828D01*
X150257369Y-97260828D02*
X150114512Y-97189400D01*
X150114512Y-97189400D02*
X150043083Y-97117971D01*
X150043083Y-97117971D02*
X149971655Y-96975114D01*
X149971655Y-96975114D02*
X149971655Y-96546542D01*
X149971655Y-96546542D02*
X150043083Y-96403685D01*
X150043083Y-96403685D02*
X150114512Y-96332257D01*
X150114512Y-96332257D02*
X150257369Y-96260828D01*
X150257369Y-96260828D02*
X150543083Y-96260828D01*
X150543083Y-96260828D02*
X150685941Y-96332257D01*
X151400226Y-97260828D02*
X151400226Y-95760828D01*
X151400226Y-96332257D02*
X151543084Y-96260828D01*
X151543084Y-96260828D02*
X151828798Y-96260828D01*
X151828798Y-96260828D02*
X151971655Y-96332257D01*
X151971655Y-96332257D02*
X152043084Y-96403685D01*
X152043084Y-96403685D02*
X152114512Y-96546542D01*
X152114512Y-96546542D02*
X152114512Y-96975114D01*
X152114512Y-96975114D02*
X152043084Y-97117971D01*
X152043084Y-97117971D02*
X151971655Y-97189400D01*
X151971655Y-97189400D02*
X151828798Y-97260828D01*
X151828798Y-97260828D02*
X151543084Y-97260828D01*
X151543084Y-97260828D02*
X151400226Y-97189400D01*
X152614512Y-96260828D02*
X152900227Y-97260828D01*
X152900227Y-97260828D02*
X153185941Y-96546542D01*
X153185941Y-96546542D02*
X153471655Y-97260828D01*
X153471655Y-97260828D02*
X153757369Y-96260828D01*
X154900227Y-97189400D02*
X154757370Y-97260828D01*
X154757370Y-97260828D02*
X154471656Y-97260828D01*
X154471656Y-97260828D02*
X154328798Y-97189400D01*
X154328798Y-97189400D02*
X154257370Y-97046542D01*
X154257370Y-97046542D02*
X154257370Y-96475114D01*
X154257370Y-96475114D02*
X154328798Y-96332257D01*
X154328798Y-96332257D02*
X154471656Y-96260828D01*
X154471656Y-96260828D02*
X154757370Y-96260828D01*
X154757370Y-96260828D02*
X154900227Y-96332257D01*
X154900227Y-96332257D02*
X154971656Y-96475114D01*
X154971656Y-96475114D02*
X154971656Y-96617971D01*
X154971656Y-96617971D02*
X154257370Y-96760828D01*
X155614512Y-97260828D02*
X155614512Y-95760828D01*
X155614512Y-96332257D02*
X155757370Y-96260828D01*
X155757370Y-96260828D02*
X156043084Y-96260828D01*
X156043084Y-96260828D02*
X156185941Y-96332257D01*
X156185941Y-96332257D02*
X156257370Y-96403685D01*
X156257370Y-96403685D02*
X156328798Y-96546542D01*
X156328798Y-96546542D02*
X156328798Y-96975114D01*
X156328798Y-96975114D02*
X156257370Y-97117971D01*
X156257370Y-97117971D02*
X156185941Y-97189400D01*
X156185941Y-97189400D02*
X156043084Y-97260828D01*
X156043084Y-97260828D02*
X155757370Y-97260828D01*
X155757370Y-97260828D02*
X155614512Y-97189400D01*
X157614513Y-97260828D02*
X157614513Y-95760828D01*
X157614513Y-97189400D02*
X157471655Y-97260828D01*
X157471655Y-97260828D02*
X157185941Y-97260828D01*
X157185941Y-97260828D02*
X157043084Y-97189400D01*
X157043084Y-97189400D02*
X156971655Y-97117971D01*
X156971655Y-97117971D02*
X156900227Y-96975114D01*
X156900227Y-96975114D02*
X156900227Y-96546542D01*
X156900227Y-96546542D02*
X156971655Y-96403685D01*
X156971655Y-96403685D02*
X157043084Y-96332257D01*
X157043084Y-96332257D02*
X157185941Y-96260828D01*
X157185941Y-96260828D02*
X157471655Y-96260828D01*
X157471655Y-96260828D02*
X157614513Y-96332257D01*
X158900227Y-97189400D02*
X158757370Y-97260828D01*
X158757370Y-97260828D02*
X158471656Y-97260828D01*
X158471656Y-97260828D02*
X158328798Y-97189400D01*
X158328798Y-97189400D02*
X158257370Y-97046542D01*
X158257370Y-97046542D02*
X158257370Y-96475114D01*
X158257370Y-96475114D02*
X158328798Y-96332257D01*
X158328798Y-96332257D02*
X158471656Y-96260828D01*
X158471656Y-96260828D02*
X158757370Y-96260828D01*
X158757370Y-96260828D02*
X158900227Y-96332257D01*
X158900227Y-96332257D02*
X158971656Y-96475114D01*
X158971656Y-96475114D02*
X158971656Y-96617971D01*
X158971656Y-96617971D02*
X158257370Y-96760828D01*
X159471655Y-96260828D02*
X159828798Y-97260828D01*
X159828798Y-97260828D02*
X160185941Y-96260828D01*
X161828798Y-95689400D02*
X160543084Y-97617971D01*
X162328798Y-97260828D02*
X162328798Y-95760828D01*
X162328798Y-96332257D02*
X162471656Y-96260828D01*
X162471656Y-96260828D02*
X162757370Y-96260828D01*
X162757370Y-96260828D02*
X162900227Y-96332257D01*
X162900227Y-96332257D02*
X162971656Y-96403685D01*
X162971656Y-96403685D02*
X163043084Y-96546542D01*
X163043084Y-96546542D02*
X163043084Y-96975114D01*
X163043084Y-96975114D02*
X162971656Y-97117971D01*
X162971656Y-97117971D02*
X162900227Y-97189400D01*
X162900227Y-97189400D02*
X162757370Y-97260828D01*
X162757370Y-97260828D02*
X162471656Y-97260828D01*
X162471656Y-97260828D02*
X162328798Y-97189400D01*
X163685941Y-97260828D02*
X163685941Y-96260828D01*
X163685941Y-95760828D02*
X163614513Y-95832257D01*
X163614513Y-95832257D02*
X163685941Y-95903685D01*
X163685941Y-95903685D02*
X163757370Y-95832257D01*
X163757370Y-95832257D02*
X163685941Y-95760828D01*
X163685941Y-95760828D02*
X163685941Y-95903685D01*
X164400227Y-96260828D02*
X164400227Y-97760828D01*
X164400227Y-96332257D02*
X164543085Y-96260828D01*
X164543085Y-96260828D02*
X164828799Y-96260828D01*
X164828799Y-96260828D02*
X164971656Y-96332257D01*
X164971656Y-96332257D02*
X165043085Y-96403685D01*
X165043085Y-96403685D02*
X165114513Y-96546542D01*
X165114513Y-96546542D02*
X165114513Y-96975114D01*
X165114513Y-96975114D02*
X165043085Y-97117971D01*
X165043085Y-97117971D02*
X164971656Y-97189400D01*
X164971656Y-97189400D02*
X164828799Y-97260828D01*
X164828799Y-97260828D02*
X164543085Y-97260828D01*
X164543085Y-97260828D02*
X164400227Y-97189400D01*
X165757370Y-97260828D02*
X165757370Y-95760828D01*
X165757370Y-96332257D02*
X165900228Y-96260828D01*
X165900228Y-96260828D02*
X166185942Y-96260828D01*
X166185942Y-96260828D02*
X166328799Y-96332257D01*
X166328799Y-96332257D02*
X166400228Y-96403685D01*
X166400228Y-96403685D02*
X166471656Y-96546542D01*
X166471656Y-96546542D02*
X166471656Y-96975114D01*
X166471656Y-96975114D02*
X166400228Y-97117971D01*
X166400228Y-97117971D02*
X166328799Y-97189400D01*
X166328799Y-97189400D02*
X166185942Y-97260828D01*
X166185942Y-97260828D02*
X165900228Y-97260828D01*
X165900228Y-97260828D02*
X165757370Y-97189400D01*
X167328799Y-97260828D02*
X167185942Y-97189400D01*
X167185942Y-97189400D02*
X167114513Y-97117971D01*
X167114513Y-97117971D02*
X167043085Y-96975114D01*
X167043085Y-96975114D02*
X167043085Y-96546542D01*
X167043085Y-96546542D02*
X167114513Y-96403685D01*
X167114513Y-96403685D02*
X167185942Y-96332257D01*
X167185942Y-96332257D02*
X167328799Y-96260828D01*
X167328799Y-96260828D02*
X167543085Y-96260828D01*
X167543085Y-96260828D02*
X167685942Y-96332257D01*
X167685942Y-96332257D02*
X167757371Y-96403685D01*
X167757371Y-96403685D02*
X167828799Y-96546542D01*
X167828799Y-96546542D02*
X167828799Y-96975114D01*
X167828799Y-96975114D02*
X167757371Y-97117971D01*
X167757371Y-97117971D02*
X167685942Y-97189400D01*
X167685942Y-97189400D02*
X167543085Y-97260828D01*
X167543085Y-97260828D02*
X167328799Y-97260828D01*
X168328799Y-97260828D02*
X169114514Y-96260828D01*
X168328799Y-96260828D02*
X169114514Y-97260828D01*
X147568225Y-46681341D02*
X147425368Y-46609912D01*
X147425368Y-46609912D02*
X147211082Y-46609912D01*
X147211082Y-46609912D02*
X146996796Y-46681341D01*
X146996796Y-46681341D02*
X146853939Y-46824198D01*
X146853939Y-46824198D02*
X146782510Y-46967055D01*
X146782510Y-46967055D02*
X146711082Y-47252769D01*
X146711082Y-47252769D02*
X146711082Y-47467055D01*
X146711082Y-47467055D02*
X146782510Y-47752769D01*
X146782510Y-47752769D02*
X146853939Y-47895626D01*
X146853939Y-47895626D02*
X146996796Y-48038484D01*
X146996796Y-48038484D02*
X147211082Y-48109912D01*
X147211082Y-48109912D02*
X147353939Y-48109912D01*
X147353939Y-48109912D02*
X147568225Y-48038484D01*
X147568225Y-48038484D02*
X147639653Y-47967055D01*
X147639653Y-47967055D02*
X147639653Y-47467055D01*
X147639653Y-47467055D02*
X147353939Y-47467055D01*
X148782510Y-47324198D02*
X148996796Y-47395626D01*
X148996796Y-47395626D02*
X149068225Y-47467055D01*
X149068225Y-47467055D02*
X149139653Y-47609912D01*
X149139653Y-47609912D02*
X149139653Y-47824198D01*
X149139653Y-47824198D02*
X149068225Y-47967055D01*
X149068225Y-47967055D02*
X148996796Y-48038484D01*
X148996796Y-48038484D02*
X148853939Y-48109912D01*
X148853939Y-48109912D02*
X148282510Y-48109912D01*
X148282510Y-48109912D02*
X148282510Y-46609912D01*
X148282510Y-46609912D02*
X148782510Y-46609912D01*
X148782510Y-46609912D02*
X148925368Y-46681341D01*
X148925368Y-46681341D02*
X148996796Y-46752769D01*
X148996796Y-46752769D02*
X149068225Y-46895626D01*
X149068225Y-46895626D02*
X149068225Y-47038484D01*
X149068225Y-47038484D02*
X148996796Y-47181341D01*
X148996796Y-47181341D02*
X148925368Y-47252769D01*
X148925368Y-47252769D02*
X148782510Y-47324198D01*
X148782510Y-47324198D02*
X148282510Y-47324198D01*
X149639653Y-47109912D02*
X149925368Y-48109912D01*
X149925368Y-48109912D02*
X150211082Y-47395626D01*
X150211082Y-47395626D02*
X150496796Y-48109912D01*
X150496796Y-48109912D02*
X150782510Y-47109912D01*
X151925368Y-48038484D02*
X151782511Y-48109912D01*
X151782511Y-48109912D02*
X151496797Y-48109912D01*
X151496797Y-48109912D02*
X151353939Y-48038484D01*
X151353939Y-48038484D02*
X151282511Y-47895626D01*
X151282511Y-47895626D02*
X151282511Y-47324198D01*
X151282511Y-47324198D02*
X151353939Y-47181341D01*
X151353939Y-47181341D02*
X151496797Y-47109912D01*
X151496797Y-47109912D02*
X151782511Y-47109912D01*
X151782511Y-47109912D02*
X151925368Y-47181341D01*
X151925368Y-47181341D02*
X151996797Y-47324198D01*
X151996797Y-47324198D02*
X151996797Y-47467055D01*
X151996797Y-47467055D02*
X151282511Y-47609912D01*
X152639653Y-48109912D02*
X152639653Y-46609912D01*
X152639653Y-47181341D02*
X152782511Y-47109912D01*
X152782511Y-47109912D02*
X153068225Y-47109912D01*
X153068225Y-47109912D02*
X153211082Y-47181341D01*
X153211082Y-47181341D02*
X153282511Y-47252769D01*
X153282511Y-47252769D02*
X153353939Y-47395626D01*
X153353939Y-47395626D02*
X153353939Y-47824198D01*
X153353939Y-47824198D02*
X153282511Y-47967055D01*
X153282511Y-47967055D02*
X153211082Y-48038484D01*
X153211082Y-48038484D02*
X153068225Y-48109912D01*
X153068225Y-48109912D02*
X152782511Y-48109912D01*
X152782511Y-48109912D02*
X152639653Y-48038484D01*
X153996796Y-47967055D02*
X154068225Y-48038484D01*
X154068225Y-48038484D02*
X153996796Y-48109912D01*
X153996796Y-48109912D02*
X153925368Y-48038484D01*
X153925368Y-48038484D02*
X153996796Y-47967055D01*
X153996796Y-47967055D02*
X153996796Y-48109912D01*
X154496797Y-47109912D02*
X155068225Y-47109912D01*
X154711082Y-48109912D02*
X154711082Y-46824198D01*
X154711082Y-46824198D02*
X154782511Y-46681341D01*
X154782511Y-46681341D02*
X154925368Y-46609912D01*
X154925368Y-46609912D02*
X155068225Y-46609912D01*
X155568225Y-48109912D02*
X155568225Y-47109912D01*
X155568225Y-47395626D02*
X155639654Y-47252769D01*
X155639654Y-47252769D02*
X155711083Y-47181341D01*
X155711083Y-47181341D02*
X155853940Y-47109912D01*
X155853940Y-47109912D02*
X155996797Y-47109912D01*
X146996796Y-50524828D02*
X146853939Y-50453400D01*
X146853939Y-50453400D02*
X146782510Y-50310542D01*
X146782510Y-50310542D02*
X146782510Y-49024828D01*
X148139653Y-50453400D02*
X147996796Y-50524828D01*
X147996796Y-50524828D02*
X147711082Y-50524828D01*
X147711082Y-50524828D02*
X147568224Y-50453400D01*
X147568224Y-50453400D02*
X147496796Y-50310542D01*
X147496796Y-50310542D02*
X147496796Y-49739114D01*
X147496796Y-49739114D02*
X147568224Y-49596257D01*
X147568224Y-49596257D02*
X147711082Y-49524828D01*
X147711082Y-49524828D02*
X147996796Y-49524828D01*
X147996796Y-49524828D02*
X148139653Y-49596257D01*
X148139653Y-49596257D02*
X148211082Y-49739114D01*
X148211082Y-49739114D02*
X148211082Y-49881971D01*
X148211082Y-49881971D02*
X147496796Y-50024828D01*
X148853938Y-49524828D02*
X148853938Y-51024828D01*
X148853938Y-49596257D02*
X148996796Y-49524828D01*
X148996796Y-49524828D02*
X149282510Y-49524828D01*
X149282510Y-49524828D02*
X149425367Y-49596257D01*
X149425367Y-49596257D02*
X149496796Y-49667685D01*
X149496796Y-49667685D02*
X149568224Y-49810542D01*
X149568224Y-49810542D02*
X149568224Y-50239114D01*
X149568224Y-50239114D02*
X149496796Y-50381971D01*
X149496796Y-50381971D02*
X149425367Y-50453400D01*
X149425367Y-50453400D02*
X149282510Y-50524828D01*
X149282510Y-50524828D02*
X148996796Y-50524828D01*
X148996796Y-50524828D02*
X148853938Y-50453400D01*
X150211081Y-50524828D02*
X150211081Y-49524828D01*
X150211081Y-49024828D02*
X150139653Y-49096257D01*
X150139653Y-49096257D02*
X150211081Y-49167685D01*
X150211081Y-49167685D02*
X150282510Y-49096257D01*
X150282510Y-49096257D02*
X150211081Y-49024828D01*
X150211081Y-49024828D02*
X150211081Y-49167685D01*
X150853939Y-50453400D02*
X150996796Y-50524828D01*
X150996796Y-50524828D02*
X151282510Y-50524828D01*
X151282510Y-50524828D02*
X151425367Y-50453400D01*
X151425367Y-50453400D02*
X151496796Y-50310542D01*
X151496796Y-50310542D02*
X151496796Y-50239114D01*
X151496796Y-50239114D02*
X151425367Y-50096257D01*
X151425367Y-50096257D02*
X151282510Y-50024828D01*
X151282510Y-50024828D02*
X151068225Y-50024828D01*
X151068225Y-50024828D02*
X150925367Y-49953400D01*
X150925367Y-49953400D02*
X150853939Y-49810542D01*
X150853939Y-49810542D02*
X150853939Y-49739114D01*
X150853939Y-49739114D02*
X150925367Y-49596257D01*
X150925367Y-49596257D02*
X151068225Y-49524828D01*
X151068225Y-49524828D02*
X151282510Y-49524828D01*
X151282510Y-49524828D02*
X151425367Y-49596257D01*
X152068225Y-50453400D02*
X152211082Y-50524828D01*
X152211082Y-50524828D02*
X152496796Y-50524828D01*
X152496796Y-50524828D02*
X152639653Y-50453400D01*
X152639653Y-50453400D02*
X152711082Y-50310542D01*
X152711082Y-50310542D02*
X152711082Y-50239114D01*
X152711082Y-50239114D02*
X152639653Y-50096257D01*
X152639653Y-50096257D02*
X152496796Y-50024828D01*
X152496796Y-50024828D02*
X152282511Y-50024828D01*
X152282511Y-50024828D02*
X152139653Y-49953400D01*
X152139653Y-49953400D02*
X152068225Y-49810542D01*
X152068225Y-49810542D02*
X152068225Y-49739114D01*
X152068225Y-49739114D02*
X152139653Y-49596257D01*
X152139653Y-49596257D02*
X152282511Y-49524828D01*
X152282511Y-49524828D02*
X152496796Y-49524828D01*
X152496796Y-49524828D02*
X152639653Y-49596257D01*
X153996797Y-49524828D02*
X153996797Y-50524828D01*
X153353939Y-49524828D02*
X153353939Y-50310542D01*
X153353939Y-50310542D02*
X153425368Y-50453400D01*
X153425368Y-50453400D02*
X153568225Y-50524828D01*
X153568225Y-50524828D02*
X153782511Y-50524828D01*
X153782511Y-50524828D02*
X153925368Y-50453400D01*
X153925368Y-50453400D02*
X153996797Y-50381971D01*
X154711082Y-50524828D02*
X154711082Y-49524828D01*
X154711082Y-49810542D02*
X154782511Y-49667685D01*
X154782511Y-49667685D02*
X154853940Y-49596257D01*
X154853940Y-49596257D02*
X154996797Y-49524828D01*
X154996797Y-49524828D02*
X155139654Y-49524828D01*
X156211082Y-50453400D02*
X156068225Y-50524828D01*
X156068225Y-50524828D02*
X155782511Y-50524828D01*
X155782511Y-50524828D02*
X155639653Y-50453400D01*
X155639653Y-50453400D02*
X155568225Y-50310542D01*
X155568225Y-50310542D02*
X155568225Y-49739114D01*
X155568225Y-49739114D02*
X155639653Y-49596257D01*
X155639653Y-49596257D02*
X155782511Y-49524828D01*
X155782511Y-49524828D02*
X156068225Y-49524828D01*
X156068225Y-49524828D02*
X156211082Y-49596257D01*
X156211082Y-49596257D02*
X156282511Y-49739114D01*
X156282511Y-49739114D02*
X156282511Y-49881971D01*
X156282511Y-49881971D02*
X155568225Y-50024828D01*
X156925367Y-50381971D02*
X156996796Y-50453400D01*
X156996796Y-50453400D02*
X156925367Y-50524828D01*
X156925367Y-50524828D02*
X156853939Y-50453400D01*
X156853939Y-50453400D02*
X156925367Y-50381971D01*
X156925367Y-50381971D02*
X156925367Y-50524828D01*
X157425368Y-49524828D02*
X157996796Y-49524828D01*
X157639653Y-50524828D02*
X157639653Y-49239114D01*
X157639653Y-49239114D02*
X157711082Y-49096257D01*
X157711082Y-49096257D02*
X157853939Y-49024828D01*
X157853939Y-49024828D02*
X157996796Y-49024828D01*
X158496796Y-50524828D02*
X158496796Y-49524828D01*
X158496796Y-49810542D02*
X158568225Y-49667685D01*
X158568225Y-49667685D02*
X158639654Y-49596257D01*
X158639654Y-49596257D02*
X158782511Y-49524828D01*
X158782511Y-49524828D02*
X158925368Y-49524828D01*
D12*
X157480476Y-31804819D02*
X157480476Y-32519104D01*
X157480476Y-32519104D02*
X157432857Y-32661961D01*
X157432857Y-32661961D02*
X157337619Y-32757200D01*
X157337619Y-32757200D02*
X157194762Y-32804819D01*
X157194762Y-32804819D02*
X157099524Y-32804819D01*
X158385238Y-32138152D02*
X158385238Y-32804819D01*
X158147143Y-31757200D02*
X157909048Y-32471485D01*
X157909048Y-32471485D02*
X158528095Y-32471485D01*
X159099524Y-31804819D02*
X159194762Y-31804819D01*
X159194762Y-31804819D02*
X159290000Y-31852438D01*
X159290000Y-31852438D02*
X159337619Y-31900057D01*
X159337619Y-31900057D02*
X159385238Y-31995295D01*
X159385238Y-31995295D02*
X159432857Y-32185771D01*
X159432857Y-32185771D02*
X159432857Y-32423866D01*
X159432857Y-32423866D02*
X159385238Y-32614342D01*
X159385238Y-32614342D02*
X159337619Y-32709580D01*
X159337619Y-32709580D02*
X159290000Y-32757200D01*
X159290000Y-32757200D02*
X159194762Y-32804819D01*
X159194762Y-32804819D02*
X159099524Y-32804819D01*
X159099524Y-32804819D02*
X159004286Y-32757200D01*
X159004286Y-32757200D02*
X158956667Y-32709580D01*
X158956667Y-32709580D02*
X158909048Y-32614342D01*
X158909048Y-32614342D02*
X158861429Y-32423866D01*
X158861429Y-32423866D02*
X158861429Y-32185771D01*
X158861429Y-32185771D02*
X158909048Y-31995295D01*
X158909048Y-31995295D02*
X158956667Y-31900057D01*
X158956667Y-31900057D02*
X159004286Y-31852438D01*
X159004286Y-31852438D02*
X159099524Y-31804819D01*
X101924819Y-68431904D02*
X102734342Y-68431904D01*
X102734342Y-68431904D02*
X102829580Y-68384285D01*
X102829580Y-68384285D02*
X102877200Y-68336666D01*
X102877200Y-68336666D02*
X102924819Y-68241428D01*
X102924819Y-68241428D02*
X102924819Y-68050952D01*
X102924819Y-68050952D02*
X102877200Y-67955714D01*
X102877200Y-67955714D02*
X102829580Y-67908095D01*
X102829580Y-67908095D02*
X102734342Y-67860476D01*
X102734342Y-67860476D02*
X101924819Y-67860476D01*
X102020057Y-67431904D02*
X101972438Y-67384285D01*
X101972438Y-67384285D02*
X101924819Y-67289047D01*
X101924819Y-67289047D02*
X101924819Y-67050952D01*
X101924819Y-67050952D02*
X101972438Y-66955714D01*
X101972438Y-66955714D02*
X102020057Y-66908095D01*
X102020057Y-66908095D02*
X102115295Y-66860476D01*
X102115295Y-66860476D02*
X102210533Y-66860476D01*
X102210533Y-66860476D02*
X102353390Y-66908095D01*
X102353390Y-66908095D02*
X102924819Y-67479523D01*
X102924819Y-67479523D02*
X102924819Y-66860476D01*
X175044819Y-48602857D02*
X174568628Y-48936190D01*
X175044819Y-49174285D02*
X174044819Y-49174285D01*
X174044819Y-49174285D02*
X174044819Y-48793333D01*
X174044819Y-48793333D02*
X174092438Y-48698095D01*
X174092438Y-48698095D02*
X174140057Y-48650476D01*
X174140057Y-48650476D02*
X174235295Y-48602857D01*
X174235295Y-48602857D02*
X174378152Y-48602857D01*
X174378152Y-48602857D02*
X174473390Y-48650476D01*
X174473390Y-48650476D02*
X174521009Y-48698095D01*
X174521009Y-48698095D02*
X174568628Y-48793333D01*
X174568628Y-48793333D02*
X174568628Y-49174285D01*
X175044819Y-47650476D02*
X175044819Y-48221904D01*
X175044819Y-47936190D02*
X174044819Y-47936190D01*
X174044819Y-47936190D02*
X174187676Y-48031428D01*
X174187676Y-48031428D02*
X174282914Y-48126666D01*
X174282914Y-48126666D02*
X174330533Y-48221904D01*
X175044819Y-46698095D02*
X175044819Y-47269523D01*
X175044819Y-46983809D02*
X174044819Y-46983809D01*
X174044819Y-46983809D02*
X174187676Y-47079047D01*
X174187676Y-47079047D02*
X174282914Y-47174285D01*
X174282914Y-47174285D02*
X174330533Y-47269523D01*
X152316104Y-77143332D02*
X152354200Y-77181428D01*
X152354200Y-77181428D02*
X152392295Y-77295713D01*
X152392295Y-77295713D02*
X152392295Y-77371904D01*
X152392295Y-77371904D02*
X152354200Y-77486190D01*
X152354200Y-77486190D02*
X152278009Y-77562380D01*
X152278009Y-77562380D02*
X152201819Y-77600475D01*
X152201819Y-77600475D02*
X152049438Y-77638571D01*
X152049438Y-77638571D02*
X151935152Y-77638571D01*
X151935152Y-77638571D02*
X151782771Y-77600475D01*
X151782771Y-77600475D02*
X151706580Y-77562380D01*
X151706580Y-77562380D02*
X151630390Y-77486190D01*
X151630390Y-77486190D02*
X151592295Y-77371904D01*
X151592295Y-77371904D02*
X151592295Y-77295713D01*
X151592295Y-77295713D02*
X151630390Y-77181428D01*
X151630390Y-77181428D02*
X151668485Y-77143332D01*
X151592295Y-76457618D02*
X151592295Y-76609999D01*
X151592295Y-76609999D02*
X151630390Y-76686190D01*
X151630390Y-76686190D02*
X151668485Y-76724285D01*
X151668485Y-76724285D02*
X151782771Y-76800475D01*
X151782771Y-76800475D02*
X151935152Y-76838571D01*
X151935152Y-76838571D02*
X152239914Y-76838571D01*
X152239914Y-76838571D02*
X152316104Y-76800475D01*
X152316104Y-76800475D02*
X152354200Y-76762380D01*
X152354200Y-76762380D02*
X152392295Y-76686190D01*
X152392295Y-76686190D02*
X152392295Y-76533809D01*
X152392295Y-76533809D02*
X152354200Y-76457618D01*
X152354200Y-76457618D02*
X152316104Y-76419523D01*
X152316104Y-76419523D02*
X152239914Y-76381428D01*
X152239914Y-76381428D02*
X152049438Y-76381428D01*
X152049438Y-76381428D02*
X151973247Y-76419523D01*
X151973247Y-76419523D02*
X151935152Y-76457618D01*
X151935152Y-76457618D02*
X151897057Y-76533809D01*
X151897057Y-76533809D02*
X151897057Y-76686190D01*
X151897057Y-76686190D02*
X151935152Y-76762380D01*
X151935152Y-76762380D02*
X151973247Y-76800475D01*
X151973247Y-76800475D02*
X152049438Y-76838571D01*
X107199580Y-42406666D02*
X107247200Y-42454285D01*
X107247200Y-42454285D02*
X107294819Y-42597142D01*
X107294819Y-42597142D02*
X107294819Y-42692380D01*
X107294819Y-42692380D02*
X107247200Y-42835237D01*
X107247200Y-42835237D02*
X107151961Y-42930475D01*
X107151961Y-42930475D02*
X107056723Y-42978094D01*
X107056723Y-42978094D02*
X106866247Y-43025713D01*
X106866247Y-43025713D02*
X106723390Y-43025713D01*
X106723390Y-43025713D02*
X106532914Y-42978094D01*
X106532914Y-42978094D02*
X106437676Y-42930475D01*
X106437676Y-42930475D02*
X106342438Y-42835237D01*
X106342438Y-42835237D02*
X106294819Y-42692380D01*
X106294819Y-42692380D02*
X106294819Y-42597142D01*
X106294819Y-42597142D02*
X106342438Y-42454285D01*
X106342438Y-42454285D02*
X106390057Y-42406666D01*
X106628152Y-41549523D02*
X107294819Y-41549523D01*
X106247200Y-41787618D02*
X106961485Y-42025713D01*
X106961485Y-42025713D02*
X106961485Y-41406666D01*
X103644819Y-83466666D02*
X103168628Y-83799999D01*
X103644819Y-84038094D02*
X102644819Y-84038094D01*
X102644819Y-84038094D02*
X102644819Y-83657142D01*
X102644819Y-83657142D02*
X102692438Y-83561904D01*
X102692438Y-83561904D02*
X102740057Y-83514285D01*
X102740057Y-83514285D02*
X102835295Y-83466666D01*
X102835295Y-83466666D02*
X102978152Y-83466666D01*
X102978152Y-83466666D02*
X103073390Y-83514285D01*
X103073390Y-83514285D02*
X103121009Y-83561904D01*
X103121009Y-83561904D02*
X103168628Y-83657142D01*
X103168628Y-83657142D02*
X103168628Y-84038094D01*
X102644819Y-82561904D02*
X102644819Y-83038094D01*
X102644819Y-83038094D02*
X103121009Y-83085713D01*
X103121009Y-83085713D02*
X103073390Y-83038094D01*
X103073390Y-83038094D02*
X103025771Y-82942856D01*
X103025771Y-82942856D02*
X103025771Y-82704761D01*
X103025771Y-82704761D02*
X103073390Y-82609523D01*
X103073390Y-82609523D02*
X103121009Y-82561904D01*
X103121009Y-82561904D02*
X103216247Y-82514285D01*
X103216247Y-82514285D02*
X103454342Y-82514285D01*
X103454342Y-82514285D02*
X103549580Y-82561904D01*
X103549580Y-82561904D02*
X103597200Y-82609523D01*
X103597200Y-82609523D02*
X103644819Y-82704761D01*
X103644819Y-82704761D02*
X103644819Y-82942856D01*
X103644819Y-82942856D02*
X103597200Y-83038094D01*
X103597200Y-83038094D02*
X103549580Y-83085713D01*
X186416666Y-64134819D02*
X186416666Y-64849104D01*
X186416666Y-64849104D02*
X186369047Y-64991961D01*
X186369047Y-64991961D02*
X186273809Y-65087200D01*
X186273809Y-65087200D02*
X186130952Y-65134819D01*
X186130952Y-65134819D02*
X186035714Y-65134819D01*
X186845238Y-64230057D02*
X186892857Y-64182438D01*
X186892857Y-64182438D02*
X186988095Y-64134819D01*
X186988095Y-64134819D02*
X187226190Y-64134819D01*
X187226190Y-64134819D02*
X187321428Y-64182438D01*
X187321428Y-64182438D02*
X187369047Y-64230057D01*
X187369047Y-64230057D02*
X187416666Y-64325295D01*
X187416666Y-64325295D02*
X187416666Y-64420533D01*
X187416666Y-64420533D02*
X187369047Y-64563390D01*
X187369047Y-64563390D02*
X186797619Y-65134819D01*
X186797619Y-65134819D02*
X187416666Y-65134819D01*
X165076666Y-44694819D02*
X165076666Y-45409104D01*
X165076666Y-45409104D02*
X165029047Y-45551961D01*
X165029047Y-45551961D02*
X164933809Y-45647200D01*
X164933809Y-45647200D02*
X164790952Y-45694819D01*
X164790952Y-45694819D02*
X164695714Y-45694819D01*
X165552857Y-45694819D02*
X165552857Y-44694819D01*
X165552857Y-44694819D02*
X165933809Y-44694819D01*
X165933809Y-44694819D02*
X166029047Y-44742438D01*
X166029047Y-44742438D02*
X166076666Y-44790057D01*
X166076666Y-44790057D02*
X166124285Y-44885295D01*
X166124285Y-44885295D02*
X166124285Y-45028152D01*
X166124285Y-45028152D02*
X166076666Y-45123390D01*
X166076666Y-45123390D02*
X166029047Y-45171009D01*
X166029047Y-45171009D02*
X165933809Y-45218628D01*
X165933809Y-45218628D02*
X165552857Y-45218628D01*
X166457619Y-44694819D02*
X167076666Y-44694819D01*
X167076666Y-44694819D02*
X166743333Y-45075771D01*
X166743333Y-45075771D02*
X166886190Y-45075771D01*
X166886190Y-45075771D02*
X166981428Y-45123390D01*
X166981428Y-45123390D02*
X167029047Y-45171009D01*
X167029047Y-45171009D02*
X167076666Y-45266247D01*
X167076666Y-45266247D02*
X167076666Y-45504342D01*
X167076666Y-45504342D02*
X167029047Y-45599580D01*
X167029047Y-45599580D02*
X166981428Y-45647200D01*
X166981428Y-45647200D02*
X166886190Y-45694819D01*
X166886190Y-45694819D02*
X166600476Y-45694819D01*
X166600476Y-45694819D02*
X166505238Y-45647200D01*
X166505238Y-45647200D02*
X166457619Y-45599580D01*
X113754819Y-83096666D02*
X113278628Y-83429999D01*
X113754819Y-83668094D02*
X112754819Y-83668094D01*
X112754819Y-83668094D02*
X112754819Y-83287142D01*
X112754819Y-83287142D02*
X112802438Y-83191904D01*
X112802438Y-83191904D02*
X112850057Y-83144285D01*
X112850057Y-83144285D02*
X112945295Y-83096666D01*
X112945295Y-83096666D02*
X113088152Y-83096666D01*
X113088152Y-83096666D02*
X113183390Y-83144285D01*
X113183390Y-83144285D02*
X113231009Y-83191904D01*
X113231009Y-83191904D02*
X113278628Y-83287142D01*
X113278628Y-83287142D02*
X113278628Y-83668094D01*
X112754819Y-82763332D02*
X112754819Y-82144285D01*
X112754819Y-82144285D02*
X113135771Y-82477618D01*
X113135771Y-82477618D02*
X113135771Y-82334761D01*
X113135771Y-82334761D02*
X113183390Y-82239523D01*
X113183390Y-82239523D02*
X113231009Y-82191904D01*
X113231009Y-82191904D02*
X113326247Y-82144285D01*
X113326247Y-82144285D02*
X113564342Y-82144285D01*
X113564342Y-82144285D02*
X113659580Y-82191904D01*
X113659580Y-82191904D02*
X113707200Y-82239523D01*
X113707200Y-82239523D02*
X113754819Y-82334761D01*
X113754819Y-82334761D02*
X113754819Y-82620475D01*
X113754819Y-82620475D02*
X113707200Y-82715713D01*
X113707200Y-82715713D02*
X113659580Y-82763332D01*
X127514819Y-83296666D02*
X127038628Y-83629999D01*
X127514819Y-83868094D02*
X126514819Y-83868094D01*
X126514819Y-83868094D02*
X126514819Y-83487142D01*
X126514819Y-83487142D02*
X126562438Y-83391904D01*
X126562438Y-83391904D02*
X126610057Y-83344285D01*
X126610057Y-83344285D02*
X126705295Y-83296666D01*
X126705295Y-83296666D02*
X126848152Y-83296666D01*
X126848152Y-83296666D02*
X126943390Y-83344285D01*
X126943390Y-83344285D02*
X126991009Y-83391904D01*
X126991009Y-83391904D02*
X127038628Y-83487142D01*
X127038628Y-83487142D02*
X127038628Y-83868094D01*
X127514819Y-82344285D02*
X127514819Y-82915713D01*
X127514819Y-82629999D02*
X126514819Y-82629999D01*
X126514819Y-82629999D02*
X126657676Y-82725237D01*
X126657676Y-82725237D02*
X126752914Y-82820475D01*
X126752914Y-82820475D02*
X126800533Y-82915713D01*
X177604819Y-56023333D02*
X178319104Y-56023333D01*
X178319104Y-56023333D02*
X178461961Y-56070952D01*
X178461961Y-56070952D02*
X178557200Y-56166190D01*
X178557200Y-56166190D02*
X178604819Y-56309047D01*
X178604819Y-56309047D02*
X178604819Y-56404285D01*
X178604819Y-55547142D02*
X177604819Y-55547142D01*
X177604819Y-55547142D02*
X177604819Y-55166190D01*
X177604819Y-55166190D02*
X177652438Y-55070952D01*
X177652438Y-55070952D02*
X177700057Y-55023333D01*
X177700057Y-55023333D02*
X177795295Y-54975714D01*
X177795295Y-54975714D02*
X177938152Y-54975714D01*
X177938152Y-54975714D02*
X178033390Y-55023333D01*
X178033390Y-55023333D02*
X178081009Y-55070952D01*
X178081009Y-55070952D02*
X178128628Y-55166190D01*
X178128628Y-55166190D02*
X178128628Y-55547142D01*
X178604819Y-54023333D02*
X178604819Y-54594761D01*
X178604819Y-54309047D02*
X177604819Y-54309047D01*
X177604819Y-54309047D02*
X177747676Y-54404285D01*
X177747676Y-54404285D02*
X177842914Y-54499523D01*
X177842914Y-54499523D02*
X177890533Y-54594761D01*
X186326666Y-49634819D02*
X186326666Y-50349104D01*
X186326666Y-50349104D02*
X186279047Y-50491961D01*
X186279047Y-50491961D02*
X186183809Y-50587200D01*
X186183809Y-50587200D02*
X186040952Y-50634819D01*
X186040952Y-50634819D02*
X185945714Y-50634819D01*
X186707619Y-49634819D02*
X187326666Y-49634819D01*
X187326666Y-49634819D02*
X186993333Y-50015771D01*
X186993333Y-50015771D02*
X187136190Y-50015771D01*
X187136190Y-50015771D02*
X187231428Y-50063390D01*
X187231428Y-50063390D02*
X187279047Y-50111009D01*
X187279047Y-50111009D02*
X187326666Y-50206247D01*
X187326666Y-50206247D02*
X187326666Y-50444342D01*
X187326666Y-50444342D02*
X187279047Y-50539580D01*
X187279047Y-50539580D02*
X187231428Y-50587200D01*
X187231428Y-50587200D02*
X187136190Y-50634819D01*
X187136190Y-50634819D02*
X186850476Y-50634819D01*
X186850476Y-50634819D02*
X186755238Y-50587200D01*
X186755238Y-50587200D02*
X186707619Y-50539580D01*
X105474819Y-31653333D02*
X106189104Y-31653333D01*
X106189104Y-31653333D02*
X106331961Y-31700952D01*
X106331961Y-31700952D02*
X106427200Y-31796190D01*
X106427200Y-31796190D02*
X106474819Y-31939047D01*
X106474819Y-31939047D02*
X106474819Y-32034285D01*
X105474819Y-30748571D02*
X105474819Y-30939047D01*
X105474819Y-30939047D02*
X105522438Y-31034285D01*
X105522438Y-31034285D02*
X105570057Y-31081904D01*
X105570057Y-31081904D02*
X105712914Y-31177142D01*
X105712914Y-31177142D02*
X105903390Y-31224761D01*
X105903390Y-31224761D02*
X106284342Y-31224761D01*
X106284342Y-31224761D02*
X106379580Y-31177142D01*
X106379580Y-31177142D02*
X106427200Y-31129523D01*
X106427200Y-31129523D02*
X106474819Y-31034285D01*
X106474819Y-31034285D02*
X106474819Y-30843809D01*
X106474819Y-30843809D02*
X106427200Y-30748571D01*
X106427200Y-30748571D02*
X106379580Y-30700952D01*
X106379580Y-30700952D02*
X106284342Y-30653333D01*
X106284342Y-30653333D02*
X106046247Y-30653333D01*
X106046247Y-30653333D02*
X105951009Y-30700952D01*
X105951009Y-30700952D02*
X105903390Y-30748571D01*
X105903390Y-30748571D02*
X105855771Y-30843809D01*
X105855771Y-30843809D02*
X105855771Y-31034285D01*
X105855771Y-31034285D02*
X105903390Y-31129523D01*
X105903390Y-31129523D02*
X105951009Y-31177142D01*
X105951009Y-31177142D02*
X106046247Y-31224761D01*
X172467142Y-63899580D02*
X172419523Y-63947200D01*
X172419523Y-63947200D02*
X172276666Y-63994819D01*
X172276666Y-63994819D02*
X172181428Y-63994819D01*
X172181428Y-63994819D02*
X172038571Y-63947200D01*
X172038571Y-63947200D02*
X171943333Y-63851961D01*
X171943333Y-63851961D02*
X171895714Y-63756723D01*
X171895714Y-63756723D02*
X171848095Y-63566247D01*
X171848095Y-63566247D02*
X171848095Y-63423390D01*
X171848095Y-63423390D02*
X171895714Y-63232914D01*
X171895714Y-63232914D02*
X171943333Y-63137676D01*
X171943333Y-63137676D02*
X172038571Y-63042438D01*
X172038571Y-63042438D02*
X172181428Y-62994819D01*
X172181428Y-62994819D02*
X172276666Y-62994819D01*
X172276666Y-62994819D02*
X172419523Y-63042438D01*
X172419523Y-63042438D02*
X172467142Y-63090057D01*
X173419523Y-63994819D02*
X172848095Y-63994819D01*
X173133809Y-63994819D02*
X173133809Y-62994819D01*
X173133809Y-62994819D02*
X173038571Y-63137676D01*
X173038571Y-63137676D02*
X172943333Y-63232914D01*
X172943333Y-63232914D02*
X172848095Y-63280533D01*
X174371904Y-63994819D02*
X173800476Y-63994819D01*
X174086190Y-63994819D02*
X174086190Y-62994819D01*
X174086190Y-62994819D02*
X173990952Y-63137676D01*
X173990952Y-63137676D02*
X173895714Y-63232914D01*
X173895714Y-63232914D02*
X173800476Y-63280533D01*
X162135047Y-80150819D02*
X162135047Y-80865104D01*
X162135047Y-80865104D02*
X162087428Y-81007961D01*
X162087428Y-81007961D02*
X161992190Y-81103200D01*
X161992190Y-81103200D02*
X161849333Y-81150819D01*
X161849333Y-81150819D02*
X161754095Y-81150819D01*
X162611238Y-81150819D02*
X162611238Y-80150819D01*
X162611238Y-80150819D02*
X162992190Y-80150819D01*
X162992190Y-80150819D02*
X163087428Y-80198438D01*
X163087428Y-80198438D02*
X163135047Y-80246057D01*
X163135047Y-80246057D02*
X163182666Y-80341295D01*
X163182666Y-80341295D02*
X163182666Y-80484152D01*
X163182666Y-80484152D02*
X163135047Y-80579390D01*
X163135047Y-80579390D02*
X163087428Y-80627009D01*
X163087428Y-80627009D02*
X162992190Y-80674628D01*
X162992190Y-80674628D02*
X162611238Y-80674628D01*
X163516000Y-80150819D02*
X163754095Y-81150819D01*
X163754095Y-81150819D02*
X163944571Y-80436533D01*
X163944571Y-80436533D02*
X164135047Y-81150819D01*
X164135047Y-81150819D02*
X164373143Y-80150819D01*
X165325523Y-81150819D02*
X164992190Y-80674628D01*
X164754095Y-81150819D02*
X164754095Y-80150819D01*
X164754095Y-80150819D02*
X165135047Y-80150819D01*
X165135047Y-80150819D02*
X165230285Y-80198438D01*
X165230285Y-80198438D02*
X165277904Y-80246057D01*
X165277904Y-80246057D02*
X165325523Y-80341295D01*
X165325523Y-80341295D02*
X165325523Y-80484152D01*
X165325523Y-80484152D02*
X165277904Y-80579390D01*
X165277904Y-80579390D02*
X165230285Y-80627009D01*
X165230285Y-80627009D02*
X165135047Y-80674628D01*
X165135047Y-80674628D02*
X164754095Y-80674628D01*
X165944571Y-80150819D02*
X166039809Y-80150819D01*
X166039809Y-80150819D02*
X166135047Y-80198438D01*
X166135047Y-80198438D02*
X166182666Y-80246057D01*
X166182666Y-80246057D02*
X166230285Y-80341295D01*
X166230285Y-80341295D02*
X166277904Y-80531771D01*
X166277904Y-80531771D02*
X166277904Y-80769866D01*
X166277904Y-80769866D02*
X166230285Y-80960342D01*
X166230285Y-80960342D02*
X166182666Y-81055580D01*
X166182666Y-81055580D02*
X166135047Y-81103200D01*
X166135047Y-81103200D02*
X166039809Y-81150819D01*
X166039809Y-81150819D02*
X165944571Y-81150819D01*
X165944571Y-81150819D02*
X165849333Y-81103200D01*
X165849333Y-81103200D02*
X165801714Y-81055580D01*
X165801714Y-81055580D02*
X165754095Y-80960342D01*
X165754095Y-80960342D02*
X165706476Y-80769866D01*
X165706476Y-80769866D02*
X165706476Y-80531771D01*
X165706476Y-80531771D02*
X165754095Y-80341295D01*
X165754095Y-80341295D02*
X165801714Y-80246057D01*
X165801714Y-80246057D02*
X165849333Y-80198438D01*
X165849333Y-80198438D02*
X165944571Y-80150819D01*
X167230285Y-81150819D02*
X166658857Y-81150819D01*
X166944571Y-81150819D02*
X166944571Y-80150819D01*
X166944571Y-80150819D02*
X166849333Y-80293676D01*
X166849333Y-80293676D02*
X166754095Y-80388914D01*
X166754095Y-80388914D02*
X166658857Y-80436533D01*
X159649580Y-67146666D02*
X159697200Y-67194285D01*
X159697200Y-67194285D02*
X159744819Y-67337142D01*
X159744819Y-67337142D02*
X159744819Y-67432380D01*
X159744819Y-67432380D02*
X159697200Y-67575237D01*
X159697200Y-67575237D02*
X159601961Y-67670475D01*
X159601961Y-67670475D02*
X159506723Y-67718094D01*
X159506723Y-67718094D02*
X159316247Y-67765713D01*
X159316247Y-67765713D02*
X159173390Y-67765713D01*
X159173390Y-67765713D02*
X158982914Y-67718094D01*
X158982914Y-67718094D02*
X158887676Y-67670475D01*
X158887676Y-67670475D02*
X158792438Y-67575237D01*
X158792438Y-67575237D02*
X158744819Y-67432380D01*
X158744819Y-67432380D02*
X158744819Y-67337142D01*
X158744819Y-67337142D02*
X158792438Y-67194285D01*
X158792438Y-67194285D02*
X158840057Y-67146666D01*
X158744819Y-66813332D02*
X158744819Y-66194285D01*
X158744819Y-66194285D02*
X159125771Y-66527618D01*
X159125771Y-66527618D02*
X159125771Y-66384761D01*
X159125771Y-66384761D02*
X159173390Y-66289523D01*
X159173390Y-66289523D02*
X159221009Y-66241904D01*
X159221009Y-66241904D02*
X159316247Y-66194285D01*
X159316247Y-66194285D02*
X159554342Y-66194285D01*
X159554342Y-66194285D02*
X159649580Y-66241904D01*
X159649580Y-66241904D02*
X159697200Y-66289523D01*
X159697200Y-66289523D02*
X159744819Y-66384761D01*
X159744819Y-66384761D02*
X159744819Y-66670475D01*
X159744819Y-66670475D02*
X159697200Y-66765713D01*
X159697200Y-66765713D02*
X159649580Y-66813332D01*
X142604819Y-64396666D02*
X142128628Y-64729999D01*
X142604819Y-64968094D02*
X141604819Y-64968094D01*
X141604819Y-64968094D02*
X141604819Y-64587142D01*
X141604819Y-64587142D02*
X141652438Y-64491904D01*
X141652438Y-64491904D02*
X141700057Y-64444285D01*
X141700057Y-64444285D02*
X141795295Y-64396666D01*
X141795295Y-64396666D02*
X141938152Y-64396666D01*
X141938152Y-64396666D02*
X142033390Y-64444285D01*
X142033390Y-64444285D02*
X142081009Y-64491904D01*
X142081009Y-64491904D02*
X142128628Y-64587142D01*
X142128628Y-64587142D02*
X142128628Y-64968094D01*
X142604819Y-63920475D02*
X142604819Y-63729999D01*
X142604819Y-63729999D02*
X142557200Y-63634761D01*
X142557200Y-63634761D02*
X142509580Y-63587142D01*
X142509580Y-63587142D02*
X142366723Y-63491904D01*
X142366723Y-63491904D02*
X142176247Y-63444285D01*
X142176247Y-63444285D02*
X141795295Y-63444285D01*
X141795295Y-63444285D02*
X141700057Y-63491904D01*
X141700057Y-63491904D02*
X141652438Y-63539523D01*
X141652438Y-63539523D02*
X141604819Y-63634761D01*
X141604819Y-63634761D02*
X141604819Y-63825237D01*
X141604819Y-63825237D02*
X141652438Y-63920475D01*
X141652438Y-63920475D02*
X141700057Y-63968094D01*
X141700057Y-63968094D02*
X141795295Y-64015713D01*
X141795295Y-64015713D02*
X142033390Y-64015713D01*
X142033390Y-64015713D02*
X142128628Y-63968094D01*
X142128628Y-63968094D02*
X142176247Y-63920475D01*
X142176247Y-63920475D02*
X142223866Y-63825237D01*
X142223866Y-63825237D02*
X142223866Y-63634761D01*
X142223866Y-63634761D02*
X142176247Y-63539523D01*
X142176247Y-63539523D02*
X142128628Y-63491904D01*
X142128628Y-63491904D02*
X142033390Y-63444285D01*
X148024819Y-65622666D02*
X147548628Y-65955999D01*
X148024819Y-66194094D02*
X147024819Y-66194094D01*
X147024819Y-66194094D02*
X147024819Y-65813142D01*
X147024819Y-65813142D02*
X147072438Y-65717904D01*
X147072438Y-65717904D02*
X147120057Y-65670285D01*
X147120057Y-65670285D02*
X147215295Y-65622666D01*
X147215295Y-65622666D02*
X147358152Y-65622666D01*
X147358152Y-65622666D02*
X147453390Y-65670285D01*
X147453390Y-65670285D02*
X147501009Y-65717904D01*
X147501009Y-65717904D02*
X147548628Y-65813142D01*
X147548628Y-65813142D02*
X147548628Y-66194094D01*
X147453390Y-65051237D02*
X147405771Y-65146475D01*
X147405771Y-65146475D02*
X147358152Y-65194094D01*
X147358152Y-65194094D02*
X147262914Y-65241713D01*
X147262914Y-65241713D02*
X147215295Y-65241713D01*
X147215295Y-65241713D02*
X147120057Y-65194094D01*
X147120057Y-65194094D02*
X147072438Y-65146475D01*
X147072438Y-65146475D02*
X147024819Y-65051237D01*
X147024819Y-65051237D02*
X147024819Y-64860761D01*
X147024819Y-64860761D02*
X147072438Y-64765523D01*
X147072438Y-64765523D02*
X147120057Y-64717904D01*
X147120057Y-64717904D02*
X147215295Y-64670285D01*
X147215295Y-64670285D02*
X147262914Y-64670285D01*
X147262914Y-64670285D02*
X147358152Y-64717904D01*
X147358152Y-64717904D02*
X147405771Y-64765523D01*
X147405771Y-64765523D02*
X147453390Y-64860761D01*
X147453390Y-64860761D02*
X147453390Y-65051237D01*
X147453390Y-65051237D02*
X147501009Y-65146475D01*
X147501009Y-65146475D02*
X147548628Y-65194094D01*
X147548628Y-65194094D02*
X147643866Y-65241713D01*
X147643866Y-65241713D02*
X147834342Y-65241713D01*
X147834342Y-65241713D02*
X147929580Y-65194094D01*
X147929580Y-65194094D02*
X147977200Y-65146475D01*
X147977200Y-65146475D02*
X148024819Y-65051237D01*
X148024819Y-65051237D02*
X148024819Y-64860761D01*
X148024819Y-64860761D02*
X147977200Y-64765523D01*
X147977200Y-64765523D02*
X147929580Y-64717904D01*
X147929580Y-64717904D02*
X147834342Y-64670285D01*
X147834342Y-64670285D02*
X147643866Y-64670285D01*
X147643866Y-64670285D02*
X147548628Y-64717904D01*
X147548628Y-64717904D02*
X147501009Y-64765523D01*
X147501009Y-64765523D02*
X147453390Y-64860761D01*
X160317142Y-63644819D02*
X159983809Y-63168628D01*
X159745714Y-63644819D02*
X159745714Y-62644819D01*
X159745714Y-62644819D02*
X160126666Y-62644819D01*
X160126666Y-62644819D02*
X160221904Y-62692438D01*
X160221904Y-62692438D02*
X160269523Y-62740057D01*
X160269523Y-62740057D02*
X160317142Y-62835295D01*
X160317142Y-62835295D02*
X160317142Y-62978152D01*
X160317142Y-62978152D02*
X160269523Y-63073390D01*
X160269523Y-63073390D02*
X160221904Y-63121009D01*
X160221904Y-63121009D02*
X160126666Y-63168628D01*
X160126666Y-63168628D02*
X159745714Y-63168628D01*
X161269523Y-63644819D02*
X160698095Y-63644819D01*
X160983809Y-63644819D02*
X160983809Y-62644819D01*
X160983809Y-62644819D02*
X160888571Y-62787676D01*
X160888571Y-62787676D02*
X160793333Y-62882914D01*
X160793333Y-62882914D02*
X160698095Y-62930533D01*
X161888571Y-62644819D02*
X161983809Y-62644819D01*
X161983809Y-62644819D02*
X162079047Y-62692438D01*
X162079047Y-62692438D02*
X162126666Y-62740057D01*
X162126666Y-62740057D02*
X162174285Y-62835295D01*
X162174285Y-62835295D02*
X162221904Y-63025771D01*
X162221904Y-63025771D02*
X162221904Y-63263866D01*
X162221904Y-63263866D02*
X162174285Y-63454342D01*
X162174285Y-63454342D02*
X162126666Y-63549580D01*
X162126666Y-63549580D02*
X162079047Y-63597200D01*
X162079047Y-63597200D02*
X161983809Y-63644819D01*
X161983809Y-63644819D02*
X161888571Y-63644819D01*
X161888571Y-63644819D02*
X161793333Y-63597200D01*
X161793333Y-63597200D02*
X161745714Y-63549580D01*
X161745714Y-63549580D02*
X161698095Y-63454342D01*
X161698095Y-63454342D02*
X161650476Y-63263866D01*
X161650476Y-63263866D02*
X161650476Y-63025771D01*
X161650476Y-63025771D02*
X161698095Y-62835295D01*
X161698095Y-62835295D02*
X161745714Y-62740057D01*
X161745714Y-62740057D02*
X161793333Y-62692438D01*
X161793333Y-62692438D02*
X161888571Y-62644819D01*
X104334819Y-94893333D02*
X105049104Y-94893333D01*
X105049104Y-94893333D02*
X105191961Y-94940952D01*
X105191961Y-94940952D02*
X105287200Y-95036190D01*
X105287200Y-95036190D02*
X105334819Y-95179047D01*
X105334819Y-95179047D02*
X105334819Y-95274285D01*
X104334819Y-93940952D02*
X104334819Y-94417142D01*
X104334819Y-94417142D02*
X104811009Y-94464761D01*
X104811009Y-94464761D02*
X104763390Y-94417142D01*
X104763390Y-94417142D02*
X104715771Y-94321904D01*
X104715771Y-94321904D02*
X104715771Y-94083809D01*
X104715771Y-94083809D02*
X104763390Y-93988571D01*
X104763390Y-93988571D02*
X104811009Y-93940952D01*
X104811009Y-93940952D02*
X104906247Y-93893333D01*
X104906247Y-93893333D02*
X105144342Y-93893333D01*
X105144342Y-93893333D02*
X105239580Y-93940952D01*
X105239580Y-93940952D02*
X105287200Y-93988571D01*
X105287200Y-93988571D02*
X105334819Y-94083809D01*
X105334819Y-94083809D02*
X105334819Y-94321904D01*
X105334819Y-94321904D02*
X105287200Y-94417142D01*
X105287200Y-94417142D02*
X105239580Y-94464761D01*
X129533333Y-75699580D02*
X129485714Y-75747200D01*
X129485714Y-75747200D02*
X129342857Y-75794819D01*
X129342857Y-75794819D02*
X129247619Y-75794819D01*
X129247619Y-75794819D02*
X129104762Y-75747200D01*
X129104762Y-75747200D02*
X129009524Y-75651961D01*
X129009524Y-75651961D02*
X128961905Y-75556723D01*
X128961905Y-75556723D02*
X128914286Y-75366247D01*
X128914286Y-75366247D02*
X128914286Y-75223390D01*
X128914286Y-75223390D02*
X128961905Y-75032914D01*
X128961905Y-75032914D02*
X129009524Y-74937676D01*
X129009524Y-74937676D02*
X129104762Y-74842438D01*
X129104762Y-74842438D02*
X129247619Y-74794819D01*
X129247619Y-74794819D02*
X129342857Y-74794819D01*
X129342857Y-74794819D02*
X129485714Y-74842438D01*
X129485714Y-74842438D02*
X129533333Y-74890057D01*
X129914286Y-74890057D02*
X129961905Y-74842438D01*
X129961905Y-74842438D02*
X130057143Y-74794819D01*
X130057143Y-74794819D02*
X130295238Y-74794819D01*
X130295238Y-74794819D02*
X130390476Y-74842438D01*
X130390476Y-74842438D02*
X130438095Y-74890057D01*
X130438095Y-74890057D02*
X130485714Y-74985295D01*
X130485714Y-74985295D02*
X130485714Y-75080533D01*
X130485714Y-75080533D02*
X130438095Y-75223390D01*
X130438095Y-75223390D02*
X129866667Y-75794819D01*
X129866667Y-75794819D02*
X130485714Y-75794819D01*
X163893333Y-77564819D02*
X163560000Y-77088628D01*
X163321905Y-77564819D02*
X163321905Y-76564819D01*
X163321905Y-76564819D02*
X163702857Y-76564819D01*
X163702857Y-76564819D02*
X163798095Y-76612438D01*
X163798095Y-76612438D02*
X163845714Y-76660057D01*
X163845714Y-76660057D02*
X163893333Y-76755295D01*
X163893333Y-76755295D02*
X163893333Y-76898152D01*
X163893333Y-76898152D02*
X163845714Y-76993390D01*
X163845714Y-76993390D02*
X163798095Y-77041009D01*
X163798095Y-77041009D02*
X163702857Y-77088628D01*
X163702857Y-77088628D02*
X163321905Y-77088628D01*
X164226667Y-76564819D02*
X164893333Y-76564819D01*
X164893333Y-76564819D02*
X164464762Y-77564819D01*
X105677257Y-56646666D02*
X105724877Y-56694285D01*
X105724877Y-56694285D02*
X105772496Y-56837142D01*
X105772496Y-56837142D02*
X105772496Y-56932380D01*
X105772496Y-56932380D02*
X105724877Y-57075237D01*
X105724877Y-57075237D02*
X105629638Y-57170475D01*
X105629638Y-57170475D02*
X105534400Y-57218094D01*
X105534400Y-57218094D02*
X105343924Y-57265713D01*
X105343924Y-57265713D02*
X105201067Y-57265713D01*
X105201067Y-57265713D02*
X105010591Y-57218094D01*
X105010591Y-57218094D02*
X104915353Y-57170475D01*
X104915353Y-57170475D02*
X104820115Y-57075237D01*
X104820115Y-57075237D02*
X104772496Y-56932380D01*
X104772496Y-56932380D02*
X104772496Y-56837142D01*
X104772496Y-56837142D02*
X104820115Y-56694285D01*
X104820115Y-56694285D02*
X104867734Y-56646666D01*
X104772496Y-55741904D02*
X104772496Y-56218094D01*
X104772496Y-56218094D02*
X105248686Y-56265713D01*
X105248686Y-56265713D02*
X105201067Y-56218094D01*
X105201067Y-56218094D02*
X105153448Y-56122856D01*
X105153448Y-56122856D02*
X105153448Y-55884761D01*
X105153448Y-55884761D02*
X105201067Y-55789523D01*
X105201067Y-55789523D02*
X105248686Y-55741904D01*
X105248686Y-55741904D02*
X105343924Y-55694285D01*
X105343924Y-55694285D02*
X105582019Y-55694285D01*
X105582019Y-55694285D02*
X105677257Y-55741904D01*
X105677257Y-55741904D02*
X105724877Y-55789523D01*
X105724877Y-55789523D02*
X105772496Y-55884761D01*
X105772496Y-55884761D02*
X105772496Y-56122856D01*
X105772496Y-56122856D02*
X105724877Y-56218094D01*
X105724877Y-56218094D02*
X105677257Y-56265713D01*
X130950819Y-65804952D02*
X131665104Y-65804952D01*
X131665104Y-65804952D02*
X131807961Y-65852571D01*
X131807961Y-65852571D02*
X131903200Y-65947809D01*
X131903200Y-65947809D02*
X131950819Y-66090666D01*
X131950819Y-66090666D02*
X131950819Y-66185904D01*
X131950819Y-65328761D02*
X130950819Y-65328761D01*
X130950819Y-65328761D02*
X130950819Y-64947809D01*
X130950819Y-64947809D02*
X130998438Y-64852571D01*
X130998438Y-64852571D02*
X131046057Y-64804952D01*
X131046057Y-64804952D02*
X131141295Y-64757333D01*
X131141295Y-64757333D02*
X131284152Y-64757333D01*
X131284152Y-64757333D02*
X131379390Y-64804952D01*
X131379390Y-64804952D02*
X131427009Y-64852571D01*
X131427009Y-64852571D02*
X131474628Y-64947809D01*
X131474628Y-64947809D02*
X131474628Y-65328761D01*
X130950819Y-64423999D02*
X131950819Y-64185904D01*
X131950819Y-64185904D02*
X131236533Y-63995428D01*
X131236533Y-63995428D02*
X131950819Y-63804952D01*
X131950819Y-63804952D02*
X130950819Y-63566857D01*
X131950819Y-62614476D02*
X131474628Y-62947809D01*
X131950819Y-63185904D02*
X130950819Y-63185904D01*
X130950819Y-63185904D02*
X130950819Y-62804952D01*
X130950819Y-62804952D02*
X130998438Y-62709714D01*
X130998438Y-62709714D02*
X131046057Y-62662095D01*
X131046057Y-62662095D02*
X131141295Y-62614476D01*
X131141295Y-62614476D02*
X131284152Y-62614476D01*
X131284152Y-62614476D02*
X131379390Y-62662095D01*
X131379390Y-62662095D02*
X131427009Y-62709714D01*
X131427009Y-62709714D02*
X131474628Y-62804952D01*
X131474628Y-62804952D02*
X131474628Y-63185904D01*
X130950819Y-61995428D02*
X130950819Y-61900190D01*
X130950819Y-61900190D02*
X130998438Y-61804952D01*
X130998438Y-61804952D02*
X131046057Y-61757333D01*
X131046057Y-61757333D02*
X131141295Y-61709714D01*
X131141295Y-61709714D02*
X131331771Y-61662095D01*
X131331771Y-61662095D02*
X131569866Y-61662095D01*
X131569866Y-61662095D02*
X131760342Y-61709714D01*
X131760342Y-61709714D02*
X131855580Y-61757333D01*
X131855580Y-61757333D02*
X131903200Y-61804952D01*
X131903200Y-61804952D02*
X131950819Y-61900190D01*
X131950819Y-61900190D02*
X131950819Y-61995428D01*
X131950819Y-61995428D02*
X131903200Y-62090666D01*
X131903200Y-62090666D02*
X131855580Y-62138285D01*
X131855580Y-62138285D02*
X131760342Y-62185904D01*
X131760342Y-62185904D02*
X131569866Y-62233523D01*
X131569866Y-62233523D02*
X131331771Y-62233523D01*
X131331771Y-62233523D02*
X131141295Y-62185904D01*
X131141295Y-62185904D02*
X131046057Y-62138285D01*
X131046057Y-62138285D02*
X130998438Y-62090666D01*
X130998438Y-62090666D02*
X130950819Y-61995428D01*
X131046057Y-61281142D02*
X130998438Y-61233523D01*
X130998438Y-61233523D02*
X130950819Y-61138285D01*
X130950819Y-61138285D02*
X130950819Y-60900190D01*
X130950819Y-60900190D02*
X130998438Y-60804952D01*
X130998438Y-60804952D02*
X131046057Y-60757333D01*
X131046057Y-60757333D02*
X131141295Y-60709714D01*
X131141295Y-60709714D02*
X131236533Y-60709714D01*
X131236533Y-60709714D02*
X131379390Y-60757333D01*
X131379390Y-60757333D02*
X131950819Y-61328761D01*
X131950819Y-61328761D02*
X131950819Y-60709714D01*
X146494819Y-85516666D02*
X146018628Y-85849999D01*
X146494819Y-86088094D02*
X145494819Y-86088094D01*
X145494819Y-86088094D02*
X145494819Y-85707142D01*
X145494819Y-85707142D02*
X145542438Y-85611904D01*
X145542438Y-85611904D02*
X145590057Y-85564285D01*
X145590057Y-85564285D02*
X145685295Y-85516666D01*
X145685295Y-85516666D02*
X145828152Y-85516666D01*
X145828152Y-85516666D02*
X145923390Y-85564285D01*
X145923390Y-85564285D02*
X145971009Y-85611904D01*
X145971009Y-85611904D02*
X146018628Y-85707142D01*
X146018628Y-85707142D02*
X146018628Y-86088094D01*
X145494819Y-84659523D02*
X145494819Y-84849999D01*
X145494819Y-84849999D02*
X145542438Y-84945237D01*
X145542438Y-84945237D02*
X145590057Y-84992856D01*
X145590057Y-84992856D02*
X145732914Y-85088094D01*
X145732914Y-85088094D02*
X145923390Y-85135713D01*
X145923390Y-85135713D02*
X146304342Y-85135713D01*
X146304342Y-85135713D02*
X146399580Y-85088094D01*
X146399580Y-85088094D02*
X146447200Y-85040475D01*
X146447200Y-85040475D02*
X146494819Y-84945237D01*
X146494819Y-84945237D02*
X146494819Y-84754761D01*
X146494819Y-84754761D02*
X146447200Y-84659523D01*
X146447200Y-84659523D02*
X146399580Y-84611904D01*
X146399580Y-84611904D02*
X146304342Y-84564285D01*
X146304342Y-84564285D02*
X146066247Y-84564285D01*
X146066247Y-84564285D02*
X145971009Y-84611904D01*
X145971009Y-84611904D02*
X145923390Y-84659523D01*
X145923390Y-84659523D02*
X145875771Y-84754761D01*
X145875771Y-84754761D02*
X145875771Y-84945237D01*
X145875771Y-84945237D02*
X145923390Y-85040475D01*
X145923390Y-85040475D02*
X145971009Y-85088094D01*
X145971009Y-85088094D02*
X146066247Y-85135713D01*
X108824819Y-83256666D02*
X108348628Y-83589999D01*
X108824819Y-83828094D02*
X107824819Y-83828094D01*
X107824819Y-83828094D02*
X107824819Y-83447142D01*
X107824819Y-83447142D02*
X107872438Y-83351904D01*
X107872438Y-83351904D02*
X107920057Y-83304285D01*
X107920057Y-83304285D02*
X108015295Y-83256666D01*
X108015295Y-83256666D02*
X108158152Y-83256666D01*
X108158152Y-83256666D02*
X108253390Y-83304285D01*
X108253390Y-83304285D02*
X108301009Y-83351904D01*
X108301009Y-83351904D02*
X108348628Y-83447142D01*
X108348628Y-83447142D02*
X108348628Y-83828094D01*
X108158152Y-82399523D02*
X108824819Y-82399523D01*
X107777200Y-82637618D02*
X108491485Y-82875713D01*
X108491485Y-82875713D02*
X108491485Y-82256666D01*
X177114819Y-70253333D02*
X177829104Y-70253333D01*
X177829104Y-70253333D02*
X177971961Y-70300952D01*
X177971961Y-70300952D02*
X178067200Y-70396190D01*
X178067200Y-70396190D02*
X178114819Y-70539047D01*
X178114819Y-70539047D02*
X178114819Y-70634285D01*
X178114819Y-69777142D02*
X177114819Y-69777142D01*
X177114819Y-69777142D02*
X177114819Y-69396190D01*
X177114819Y-69396190D02*
X177162438Y-69300952D01*
X177162438Y-69300952D02*
X177210057Y-69253333D01*
X177210057Y-69253333D02*
X177305295Y-69205714D01*
X177305295Y-69205714D02*
X177448152Y-69205714D01*
X177448152Y-69205714D02*
X177543390Y-69253333D01*
X177543390Y-69253333D02*
X177591009Y-69300952D01*
X177591009Y-69300952D02*
X177638628Y-69396190D01*
X177638628Y-69396190D02*
X177638628Y-69777142D01*
X177210057Y-68824761D02*
X177162438Y-68777142D01*
X177162438Y-68777142D02*
X177114819Y-68681904D01*
X177114819Y-68681904D02*
X177114819Y-68443809D01*
X177114819Y-68443809D02*
X177162438Y-68348571D01*
X177162438Y-68348571D02*
X177210057Y-68300952D01*
X177210057Y-68300952D02*
X177305295Y-68253333D01*
X177305295Y-68253333D02*
X177400533Y-68253333D01*
X177400533Y-68253333D02*
X177543390Y-68300952D01*
X177543390Y-68300952D02*
X178114819Y-68872380D01*
X178114819Y-68872380D02*
X178114819Y-68253333D01*
X186126666Y-32294819D02*
X186126666Y-33009104D01*
X186126666Y-33009104D02*
X186079047Y-33151961D01*
X186079047Y-33151961D02*
X185983809Y-33247200D01*
X185983809Y-33247200D02*
X185840952Y-33294819D01*
X185840952Y-33294819D02*
X185745714Y-33294819D01*
X187031428Y-32628152D02*
X187031428Y-33294819D01*
X186793333Y-32247200D02*
X186555238Y-32961485D01*
X186555238Y-32961485D02*
X187174285Y-32961485D01*
X127963333Y-63889580D02*
X127915714Y-63937200D01*
X127915714Y-63937200D02*
X127772857Y-63984819D01*
X127772857Y-63984819D02*
X127677619Y-63984819D01*
X127677619Y-63984819D02*
X127534762Y-63937200D01*
X127534762Y-63937200D02*
X127439524Y-63841961D01*
X127439524Y-63841961D02*
X127391905Y-63746723D01*
X127391905Y-63746723D02*
X127344286Y-63556247D01*
X127344286Y-63556247D02*
X127344286Y-63413390D01*
X127344286Y-63413390D02*
X127391905Y-63222914D01*
X127391905Y-63222914D02*
X127439524Y-63127676D01*
X127439524Y-63127676D02*
X127534762Y-63032438D01*
X127534762Y-63032438D02*
X127677619Y-62984819D01*
X127677619Y-62984819D02*
X127772857Y-62984819D01*
X127772857Y-62984819D02*
X127915714Y-63032438D01*
X127915714Y-63032438D02*
X127963333Y-63080057D01*
X128915714Y-63984819D02*
X128344286Y-63984819D01*
X128630000Y-63984819D02*
X128630000Y-62984819D01*
X128630000Y-62984819D02*
X128534762Y-63127676D01*
X128534762Y-63127676D02*
X128439524Y-63222914D01*
X128439524Y-63222914D02*
X128344286Y-63270533D01*
X186216666Y-79144819D02*
X186216666Y-79859104D01*
X186216666Y-79859104D02*
X186169047Y-80001961D01*
X186169047Y-80001961D02*
X186073809Y-80097200D01*
X186073809Y-80097200D02*
X185930952Y-80144819D01*
X185930952Y-80144819D02*
X185835714Y-80144819D01*
X187216666Y-80144819D02*
X186645238Y-80144819D01*
X186930952Y-80144819D02*
X186930952Y-79144819D01*
X186930952Y-79144819D02*
X186835714Y-79287676D01*
X186835714Y-79287676D02*
X186740476Y-79382914D01*
X186740476Y-79382914D02*
X186645238Y-79430533D01*
X118864819Y-83316666D02*
X118388628Y-83649999D01*
X118864819Y-83888094D02*
X117864819Y-83888094D01*
X117864819Y-83888094D02*
X117864819Y-83507142D01*
X117864819Y-83507142D02*
X117912438Y-83411904D01*
X117912438Y-83411904D02*
X117960057Y-83364285D01*
X117960057Y-83364285D02*
X118055295Y-83316666D01*
X118055295Y-83316666D02*
X118198152Y-83316666D01*
X118198152Y-83316666D02*
X118293390Y-83364285D01*
X118293390Y-83364285D02*
X118341009Y-83411904D01*
X118341009Y-83411904D02*
X118388628Y-83507142D01*
X118388628Y-83507142D02*
X118388628Y-83888094D01*
X117960057Y-82935713D02*
X117912438Y-82888094D01*
X117912438Y-82888094D02*
X117864819Y-82792856D01*
X117864819Y-82792856D02*
X117864819Y-82554761D01*
X117864819Y-82554761D02*
X117912438Y-82459523D01*
X117912438Y-82459523D02*
X117960057Y-82411904D01*
X117960057Y-82411904D02*
X118055295Y-82364285D01*
X118055295Y-82364285D02*
X118150533Y-82364285D01*
X118150533Y-82364285D02*
X118293390Y-82411904D01*
X118293390Y-82411904D02*
X118864819Y-82983332D01*
X118864819Y-82983332D02*
X118864819Y-82364285D01*
X156694761Y-53680057D02*
X156599523Y-53632438D01*
X156599523Y-53632438D02*
X156504285Y-53537200D01*
X156504285Y-53537200D02*
X156361428Y-53394342D01*
X156361428Y-53394342D02*
X156266190Y-53346723D01*
X156266190Y-53346723D02*
X156170952Y-53346723D01*
X156218571Y-53584819D02*
X156123333Y-53537200D01*
X156123333Y-53537200D02*
X156028095Y-53441961D01*
X156028095Y-53441961D02*
X155980476Y-53251485D01*
X155980476Y-53251485D02*
X155980476Y-52918152D01*
X155980476Y-52918152D02*
X156028095Y-52727676D01*
X156028095Y-52727676D02*
X156123333Y-52632438D01*
X156123333Y-52632438D02*
X156218571Y-52584819D01*
X156218571Y-52584819D02*
X156409047Y-52584819D01*
X156409047Y-52584819D02*
X156504285Y-52632438D01*
X156504285Y-52632438D02*
X156599523Y-52727676D01*
X156599523Y-52727676D02*
X156647142Y-52918152D01*
X156647142Y-52918152D02*
X156647142Y-53251485D01*
X156647142Y-53251485D02*
X156599523Y-53441961D01*
X156599523Y-53441961D02*
X156504285Y-53537200D01*
X156504285Y-53537200D02*
X156409047Y-53584819D01*
X156409047Y-53584819D02*
X156218571Y-53584819D01*
X157028095Y-52680057D02*
X157075714Y-52632438D01*
X157075714Y-52632438D02*
X157170952Y-52584819D01*
X157170952Y-52584819D02*
X157409047Y-52584819D01*
X157409047Y-52584819D02*
X157504285Y-52632438D01*
X157504285Y-52632438D02*
X157551904Y-52680057D01*
X157551904Y-52680057D02*
X157599523Y-52775295D01*
X157599523Y-52775295D02*
X157599523Y-52870533D01*
X157599523Y-52870533D02*
X157551904Y-53013390D01*
X157551904Y-53013390D02*
X156980476Y-53584819D01*
X156980476Y-53584819D02*
X157599523Y-53584819D01*
X132140057Y-86265238D02*
X132092438Y-86360476D01*
X132092438Y-86360476D02*
X131997200Y-86455714D01*
X131997200Y-86455714D02*
X131854342Y-86598571D01*
X131854342Y-86598571D02*
X131806723Y-86693809D01*
X131806723Y-86693809D02*
X131806723Y-86789047D01*
X132044819Y-86741428D02*
X131997200Y-86836666D01*
X131997200Y-86836666D02*
X131901961Y-86931904D01*
X131901961Y-86931904D02*
X131711485Y-86979523D01*
X131711485Y-86979523D02*
X131378152Y-86979523D01*
X131378152Y-86979523D02*
X131187676Y-86931904D01*
X131187676Y-86931904D02*
X131092438Y-86836666D01*
X131092438Y-86836666D02*
X131044819Y-86741428D01*
X131044819Y-86741428D02*
X131044819Y-86550952D01*
X131044819Y-86550952D02*
X131092438Y-86455714D01*
X131092438Y-86455714D02*
X131187676Y-86360476D01*
X131187676Y-86360476D02*
X131378152Y-86312857D01*
X131378152Y-86312857D02*
X131711485Y-86312857D01*
X131711485Y-86312857D02*
X131901961Y-86360476D01*
X131901961Y-86360476D02*
X131997200Y-86455714D01*
X131997200Y-86455714D02*
X132044819Y-86550952D01*
X132044819Y-86550952D02*
X132044819Y-86741428D01*
X132044819Y-85360476D02*
X132044819Y-85931904D01*
X132044819Y-85646190D02*
X131044819Y-85646190D01*
X131044819Y-85646190D02*
X131187676Y-85741428D01*
X131187676Y-85741428D02*
X131282914Y-85836666D01*
X131282914Y-85836666D02*
X131330533Y-85931904D01*
X180297142Y-34484819D02*
X179963809Y-34008628D01*
X179725714Y-34484819D02*
X179725714Y-33484819D01*
X179725714Y-33484819D02*
X180106666Y-33484819D01*
X180106666Y-33484819D02*
X180201904Y-33532438D01*
X180201904Y-33532438D02*
X180249523Y-33580057D01*
X180249523Y-33580057D02*
X180297142Y-33675295D01*
X180297142Y-33675295D02*
X180297142Y-33818152D01*
X180297142Y-33818152D02*
X180249523Y-33913390D01*
X180249523Y-33913390D02*
X180201904Y-33961009D01*
X180201904Y-33961009D02*
X180106666Y-34008628D01*
X180106666Y-34008628D02*
X179725714Y-34008628D01*
X181249523Y-34484819D02*
X180678095Y-34484819D01*
X180963809Y-34484819D02*
X180963809Y-33484819D01*
X180963809Y-33484819D02*
X180868571Y-33627676D01*
X180868571Y-33627676D02*
X180773333Y-33722914D01*
X180773333Y-33722914D02*
X180678095Y-33770533D01*
X181630476Y-33580057D02*
X181678095Y-33532438D01*
X181678095Y-33532438D02*
X181773333Y-33484819D01*
X181773333Y-33484819D02*
X182011428Y-33484819D01*
X182011428Y-33484819D02*
X182106666Y-33532438D01*
X182106666Y-33532438D02*
X182154285Y-33580057D01*
X182154285Y-33580057D02*
X182201904Y-33675295D01*
X182201904Y-33675295D02*
X182201904Y-33770533D01*
X182201904Y-33770533D02*
X182154285Y-33913390D01*
X182154285Y-33913390D02*
X181582857Y-34484819D01*
X181582857Y-34484819D02*
X182201904Y-34484819D01*
%TO.C,J40*%
D13*
X108390000Y-33660000D02*
X109720000Y-33660000D01*
X108390000Y-34990000D02*
X108390000Y-33660000D01*
X108390000Y-36260000D02*
X110990000Y-36260000D01*
X108390000Y-38860000D02*
X108390000Y-36260000D01*
X108390000Y-38860000D02*
X159310000Y-38860000D01*
X110990000Y-33660000D02*
X159310000Y-33660000D01*
X110990000Y-36260000D02*
X110990000Y-33660000D01*
X159310000Y-38860000D02*
X159310000Y-33660000D01*
D14*
%TO.C,G\u002A\u002A\u002A*%
G36*
X136049990Y-44357287D02*
G01*
X136134828Y-44369362D01*
X136188184Y-44386037D01*
X136216844Y-44414240D01*
X136227594Y-44460904D01*
X136227221Y-44532960D01*
X136227001Y-44538072D01*
X136221358Y-44666339D01*
X136154264Y-44669042D01*
X136085130Y-44667194D01*
X136020075Y-44659457D01*
X135952981Y-44647169D01*
X135947333Y-44495863D01*
X135941684Y-44344557D01*
X136049990Y-44357287D01*
G37*
G36*
X135530103Y-44248354D02*
G01*
X135588754Y-44260602D01*
X135703773Y-44284513D01*
X135703773Y-44427501D01*
X135703773Y-44570490D01*
X135646264Y-44573444D01*
X135591747Y-44571153D01*
X135523073Y-44561887D01*
X135497698Y-44556993D01*
X135406641Y-44537588D01*
X135406641Y-44386303D01*
X135406904Y-44310881D01*
X135412368Y-44264216D01*
X135430047Y-44241468D01*
X135466954Y-44237794D01*
X135530103Y-44248354D01*
G37*
G36*
X136015760Y-48874193D02*
G01*
X136076228Y-48929534D01*
X136106464Y-48997818D01*
X136105283Y-49069963D01*
X136071498Y-49136886D01*
X136052628Y-49156606D01*
X135985904Y-49198418D01*
X135915714Y-49203181D01*
X135870675Y-49189356D01*
X135809313Y-49145691D01*
X135769462Y-49081846D01*
X135753662Y-49008648D01*
X135764453Y-48936923D01*
X135798751Y-48882826D01*
X135861900Y-48843483D01*
X135935042Y-48840759D01*
X136015760Y-48874193D01*
G37*
G36*
X134761423Y-48640438D02*
G01*
X134819382Y-48688956D01*
X134855842Y-48755694D01*
X134863254Y-48833952D01*
X134861285Y-48846856D01*
X134831213Y-48915904D01*
X134777005Y-48963576D01*
X134708468Y-48986331D01*
X134635406Y-48980626D01*
X134576000Y-48949920D01*
X134525251Y-48890175D01*
X134501914Y-48819283D01*
X134504948Y-48746841D01*
X134533313Y-48682449D01*
X134585972Y-48635704D01*
X134611203Y-48624869D01*
X134689514Y-48616843D01*
X134761423Y-48640438D01*
G37*
G36*
X135353464Y-48737753D02*
G01*
X135398104Y-48763438D01*
X135427773Y-48793379D01*
X135473824Y-48868039D01*
X135481957Y-48944689D01*
X135452106Y-49020535D01*
X135433692Y-49045170D01*
X135372363Y-49092247D01*
X135299550Y-49103399D01*
X135218156Y-49078237D01*
X135211704Y-49074830D01*
X135165093Y-49030229D01*
X135134098Y-48963275D01*
X135124330Y-48888623D01*
X135128257Y-48856864D01*
X135160338Y-48787013D01*
X135218590Y-48744565D01*
X135295115Y-48731211D01*
X135353464Y-48737753D01*
G37*
G36*
X137270288Y-49813698D02*
G01*
X137329420Y-49854256D01*
X137373496Y-49920591D01*
X137374144Y-49922126D01*
X137393987Y-50006772D01*
X137379903Y-50076798D01*
X137334863Y-50127722D01*
X137261836Y-50155061D01*
X137217509Y-50158490D01*
X137155045Y-50150985D01*
X137106288Y-50122356D01*
X137083229Y-50100177D01*
X137042489Y-50045152D01*
X137027942Y-49984271D01*
X137027362Y-49963953D01*
X137042385Y-49890029D01*
X137082148Y-49837081D01*
X137138693Y-49806070D01*
X137204059Y-49797956D01*
X137270288Y-49813698D01*
G37*
G36*
X136591337Y-44454944D02*
G01*
X136653561Y-44466975D01*
X136702784Y-44482575D01*
X136717842Y-44490613D01*
X136739067Y-44524908D01*
X136754740Y-44583017D01*
X136763226Y-44650617D01*
X136762893Y-44713384D01*
X136752107Y-44756994D01*
X136748784Y-44761880D01*
X136733517Y-44778224D01*
X136715788Y-44786077D01*
X136686326Y-44785580D01*
X136635858Y-44776872D01*
X136576000Y-44764481D01*
X136470566Y-44742322D01*
X136465622Y-44618066D01*
X136464657Y-44534348D01*
X136473034Y-44482510D01*
X136495520Y-44456368D01*
X136536881Y-44449737D01*
X136591337Y-44454944D01*
G37*
G36*
X135985984Y-47549293D02*
G01*
X136070236Y-47586200D01*
X136141430Y-47645423D01*
X136195942Y-47721642D01*
X136230149Y-47809534D01*
X136240426Y-47903781D01*
X136223149Y-47999061D01*
X136174695Y-48090054D01*
X136162112Y-48105888D01*
X136090802Y-48162857D01*
X136000560Y-48194530D01*
X135903223Y-48198488D01*
X135818792Y-48176108D01*
X135733894Y-48120597D01*
X135672149Y-48044525D01*
X135633861Y-47955081D01*
X135619336Y-47859458D01*
X135628879Y-47764847D01*
X135662795Y-47678438D01*
X135721389Y-47607424D01*
X135792806Y-47563707D01*
X135892300Y-47540021D01*
X135985984Y-47549293D01*
G37*
G36*
X135790946Y-53588618D02*
G01*
X135838436Y-53643562D01*
X135876031Y-53721259D01*
X135899345Y-53816561D01*
X135900029Y-53821483D01*
X135903635Y-53898622D01*
X135887644Y-53963042D01*
X135847321Y-54028786D01*
X135818007Y-54064853D01*
X135766550Y-54118733D01*
X135727337Y-54141898D01*
X135693269Y-54136734D01*
X135666803Y-54115687D01*
X135644344Y-54088205D01*
X135639420Y-54059935D01*
X135652708Y-54019136D01*
X135675019Y-53973283D01*
X135707764Y-53882982D01*
X135706365Y-53801894D01*
X135674947Y-53728404D01*
X135642474Y-53658309D01*
X135642615Y-53606707D01*
X135675470Y-53571773D01*
X135683818Y-53567586D01*
X135737945Y-53561576D01*
X135790946Y-53588618D01*
G37*
G36*
X134634563Y-49358985D02*
G01*
X134722826Y-49370139D01*
X134840458Y-49389800D01*
X134990568Y-49418318D01*
X135080754Y-49436408D01*
X135473735Y-49516301D01*
X135479334Y-49664867D01*
X135484933Y-49813434D01*
X135402655Y-49811628D01*
X135346845Y-49807229D01*
X135267050Y-49796986D01*
X135176843Y-49782741D01*
X135136017Y-49775431D01*
X134985947Y-49746728D01*
X134848795Y-49719130D01*
X134729373Y-49693702D01*
X134632494Y-49671511D01*
X134562969Y-49653621D01*
X134525611Y-49641100D01*
X134522892Y-49639636D01*
X134510031Y-49613412D01*
X134501807Y-49562093D01*
X134498609Y-49498687D01*
X134500827Y-49436204D01*
X134508853Y-49387652D01*
X134514895Y-49373093D01*
X134533706Y-49360810D01*
X134572559Y-49355992D01*
X134634563Y-49358985D01*
G37*
G36*
X135986986Y-53384935D02*
G01*
X136039600Y-53429661D01*
X136089911Y-53495545D01*
X136132619Y-53577690D01*
X136144303Y-53607990D01*
X136163738Y-53694451D01*
X136172236Y-53802305D01*
X136169870Y-53916223D01*
X136156714Y-54020873D01*
X136142060Y-54077698D01*
X136113520Y-54138099D01*
X136070599Y-54202815D01*
X136020790Y-54263108D01*
X135971585Y-54310238D01*
X135930477Y-54335469D01*
X135919296Y-54337509D01*
X135881253Y-54324746D01*
X135859315Y-54308200D01*
X135842549Y-54283678D01*
X135842117Y-54253598D01*
X135860290Y-54210658D01*
X135899342Y-54147556D01*
X135917870Y-54120079D01*
X135983941Y-54000142D01*
X136013059Y-53885043D01*
X136005365Y-53769927D01*
X135960999Y-53649940D01*
X135932979Y-53599431D01*
X135887154Y-53512305D01*
X135868969Y-53447142D01*
X135877770Y-53400032D01*
X135896039Y-53378547D01*
X135937366Y-53366265D01*
X135986986Y-53384935D01*
G37*
G36*
X131457660Y-56695202D02*
G01*
X131457660Y-56906264D01*
X131150943Y-56906264D01*
X130844226Y-56906264D01*
X130844226Y-57605962D01*
X130844226Y-58305660D01*
X131150943Y-58305660D01*
X131457660Y-58305660D01*
X131457660Y-58506943D01*
X131457660Y-58708226D01*
X130588629Y-58708226D01*
X130409676Y-58707953D01*
X130242592Y-58707170D01*
X130091263Y-58705934D01*
X129959578Y-58704302D01*
X129851422Y-58702329D01*
X129770682Y-58700072D01*
X129721246Y-58697587D01*
X129706817Y-58695446D01*
X129701374Y-58671937D01*
X129697084Y-58619032D01*
X129694516Y-58545669D01*
X129694037Y-58494163D01*
X129694037Y-58305660D01*
X130010339Y-58305660D01*
X130326641Y-58305660D01*
X130326641Y-57606437D01*
X130326641Y-56907213D01*
X130015132Y-56901946D01*
X129703622Y-56896679D01*
X129703622Y-56695396D01*
X129703622Y-56494113D01*
X130580641Y-56489127D01*
X131457660Y-56484141D01*
X131457660Y-56695202D01*
G37*
G36*
X136509685Y-48957997D02*
G01*
X136567607Y-48966352D01*
X136653485Y-48980671D01*
X136758556Y-48999300D01*
X136874059Y-49020586D01*
X136991230Y-49042875D01*
X137101308Y-49064511D01*
X137195530Y-49083842D01*
X137265135Y-49099213D01*
X137288104Y-49104934D01*
X137333372Y-49121058D01*
X137361119Y-49145363D01*
X137375505Y-49186457D01*
X137380690Y-49252946D01*
X137381132Y-49297416D01*
X137381132Y-49410867D01*
X137280490Y-49409302D01*
X137222433Y-49405107D01*
X137137965Y-49394820D01*
X137038250Y-49379970D01*
X136934451Y-49362087D01*
X136930641Y-49361380D01*
X136776058Y-49332377D01*
X136655021Y-49308863D01*
X136563319Y-49289675D01*
X136496742Y-49273647D01*
X136451079Y-49259614D01*
X136422117Y-49246411D01*
X136405647Y-49232874D01*
X136397457Y-49217836D01*
X136396159Y-49213517D01*
X136386318Y-49143056D01*
X136386816Y-49060218D01*
X136396987Y-48991618D01*
X136407059Y-48965490D01*
X136425999Y-48953777D01*
X136464520Y-48953283D01*
X136509685Y-48957997D01*
G37*
G36*
X135506009Y-53345156D02*
G01*
X135518476Y-53361475D01*
X135527522Y-53393964D01*
X135533620Y-53446953D01*
X135537243Y-53524771D01*
X135538864Y-53631746D01*
X135538956Y-53772209D01*
X135538889Y-53791169D01*
X135537387Y-53959675D01*
X135534118Y-54093192D01*
X135528754Y-54195042D01*
X135520964Y-54268550D01*
X135510419Y-54317039D01*
X135496791Y-54343833D01*
X135483320Y-54351903D01*
X135456702Y-54342370D01*
X135410202Y-54312422D01*
X135352108Y-54267652D01*
X135326886Y-54246330D01*
X135222509Y-54165823D01*
X135133626Y-54119129D01*
X135111226Y-54111980D01*
X135023245Y-54088449D01*
X135025156Y-53891884D01*
X135027218Y-53781803D01*
X135032320Y-53703525D01*
X135042572Y-53650525D01*
X135060083Y-53616279D01*
X135086964Y-53594261D01*
X135125323Y-53577946D01*
X135126835Y-53577421D01*
X135176539Y-53553195D01*
X135242806Y-53511618D01*
X135313334Y-53460575D01*
X135331442Y-53446250D01*
X135393428Y-53398581D01*
X135446541Y-53362107D01*
X135482260Y-53342516D01*
X135489647Y-53340679D01*
X135506009Y-53345156D01*
G37*
G36*
X135883448Y-49588637D02*
G01*
X135959555Y-49599548D01*
X136064102Y-49618008D01*
X136186026Y-49640883D01*
X136349254Y-49672046D01*
X136478691Y-49697993D01*
X136578253Y-49720434D01*
X136651856Y-49741082D01*
X136703418Y-49761647D01*
X136736854Y-49783841D01*
X136756082Y-49809376D01*
X136765019Y-49839962D01*
X136767581Y-49877311D01*
X136767698Y-49895037D01*
X136760689Y-49972545D01*
X136737057Y-50019060D01*
X136692896Y-50039758D01*
X136656797Y-50041983D01*
X136616717Y-50037784D01*
X136545967Y-50026923D01*
X136451401Y-50010594D01*
X136339876Y-49989992D01*
X136218245Y-49966311D01*
X136189345Y-49960512D01*
X136070921Y-49936171D01*
X135965482Y-49913668D01*
X135878737Y-49894291D01*
X135816396Y-49879325D01*
X135784168Y-49870058D01*
X135781167Y-49868526D01*
X135766894Y-49835526D01*
X135757554Y-49778971D01*
X135754586Y-49713483D01*
X135759430Y-49653686D01*
X135759817Y-49651561D01*
X135766449Y-49622907D01*
X135777280Y-49602409D01*
X135797158Y-49589946D01*
X135830931Y-49585395D01*
X135883448Y-49588637D01*
G37*
G36*
X132745222Y-56485296D02*
G01*
X132902233Y-56487516D01*
X133035578Y-56491060D01*
X133141237Y-56495802D01*
X133215191Y-56501614D01*
X133244301Y-56505894D01*
X133410166Y-56557330D01*
X133551169Y-56635005D01*
X133665198Y-56736027D01*
X133750140Y-56857503D01*
X133803882Y-56996541D01*
X133824312Y-57150249D01*
X133814521Y-57286494D01*
X133773436Y-57441828D01*
X133703076Y-57573437D01*
X133602483Y-57682398D01*
X133470698Y-57769790D01*
X133333018Y-57828063D01*
X133282141Y-57843556D01*
X133228028Y-57855281D01*
X133163505Y-57864006D01*
X133081399Y-57870497D01*
X132974537Y-57875518D01*
X132852264Y-57879387D01*
X132492830Y-57889299D01*
X132492830Y-58298762D01*
X132492830Y-58708226D01*
X132243622Y-58708226D01*
X131994415Y-58708226D01*
X131994415Y-57596377D01*
X131994415Y-57465487D01*
X132492830Y-57465487D01*
X132804339Y-57458889D01*
X132927830Y-57455554D01*
X133019437Y-57451074D01*
X133085616Y-57444746D01*
X133132819Y-57435864D01*
X133167502Y-57423724D01*
X133178998Y-57417970D01*
X133256094Y-57357531D01*
X133300525Y-57277375D01*
X133312716Y-57176678D01*
X133311817Y-57160116D01*
X133298319Y-57079421D01*
X133268934Y-57021952D01*
X133258033Y-57009080D01*
X133219786Y-56972536D01*
X133177928Y-56945656D01*
X133126014Y-56927022D01*
X133057599Y-56915218D01*
X132966236Y-56908824D01*
X132845482Y-56906424D01*
X132790578Y-56906264D01*
X132492830Y-56906264D01*
X132492830Y-57185875D01*
X132492830Y-57465487D01*
X131994415Y-57465487D01*
X131994415Y-57185875D01*
X131994415Y-56484528D01*
X132568566Y-56484528D01*
X132745222Y-56485296D01*
G37*
G36*
X140486965Y-57020636D02*
G01*
X140420633Y-57154432D01*
X140360254Y-57278525D01*
X140307918Y-57388434D01*
X140265717Y-57479678D01*
X140235741Y-57547778D01*
X140220083Y-57588251D01*
X140218264Y-57596377D01*
X140226602Y-57622576D01*
X140250224Y-57678471D01*
X140287038Y-57759581D01*
X140334952Y-57861425D01*
X140391876Y-57979523D01*
X140455718Y-58109393D01*
X140486965Y-58172118D01*
X140755665Y-58709255D01*
X140477385Y-58703948D01*
X140199105Y-58698641D01*
X139983439Y-58253055D01*
X139916613Y-58115726D01*
X139863797Y-58009335D01*
X139822779Y-57930081D01*
X139791344Y-57874164D01*
X139767281Y-57837785D01*
X139748378Y-57817142D01*
X139732420Y-57808436D01*
X139723930Y-57807357D01*
X139708749Y-57810915D01*
X139691873Y-57824185D01*
X139671103Y-57850945D01*
X139644237Y-57894975D01*
X139609076Y-57960054D01*
X139563419Y-58049959D01*
X139505065Y-58168470D01*
X139461658Y-58257735D01*
X139243228Y-58708226D01*
X138973538Y-58708226D01*
X138876832Y-58707591D01*
X138795488Y-58705847D01*
X138736348Y-58703235D01*
X138706254Y-58699995D01*
X138703849Y-58698729D01*
X138712103Y-58679893D01*
X138735505Y-58630945D01*
X138772012Y-58556040D01*
X138819585Y-58459336D01*
X138876180Y-58344990D01*
X138939756Y-58217159D01*
X138976862Y-58142804D01*
X139249875Y-57596377D01*
X138976862Y-57049950D01*
X138910323Y-56916487D01*
X138849645Y-56794228D01*
X138796871Y-56687331D01*
X138754040Y-56599953D01*
X138723196Y-56536250D01*
X138706379Y-56500380D01*
X138703849Y-56494025D01*
X138721878Y-56490620D01*
X138771405Y-56487756D01*
X138845591Y-56485674D01*
X138937594Y-56484613D01*
X138973691Y-56484528D01*
X139243533Y-56484528D01*
X139462863Y-56935018D01*
X139530526Y-57073249D01*
X139584083Y-57180521D01*
X139625719Y-57260581D01*
X139657618Y-57317175D01*
X139681965Y-57354052D01*
X139700946Y-57374957D01*
X139716744Y-57383638D01*
X139724983Y-57384558D01*
X139740273Y-57380081D01*
X139757867Y-57364811D01*
X139779948Y-57334994D01*
X139808700Y-57286881D01*
X139846304Y-57216719D01*
X139894945Y-57120756D01*
X139956804Y-56995240D01*
X139984306Y-56938860D01*
X140200839Y-56494113D01*
X140478252Y-56488806D01*
X140755665Y-56483499D01*
X140486965Y-57020636D01*
G37*
G36*
X128020810Y-56489045D02*
G01*
X128204801Y-56490983D01*
X128354735Y-56492912D01*
X128474895Y-56495092D01*
X128569562Y-56497783D01*
X128643018Y-56501244D01*
X128699545Y-56505737D01*
X128743425Y-56511520D01*
X128778940Y-56518854D01*
X128810373Y-56527998D01*
X128840981Y-56538833D01*
X128987447Y-56609574D01*
X129103012Y-56700793D01*
X129186513Y-56810971D01*
X129236787Y-56938589D01*
X129252711Y-57077061D01*
X129243152Y-57191256D01*
X129216975Y-57281145D01*
X129162647Y-57363945D01*
X129081319Y-57442413D01*
X128983987Y-57507102D01*
X128919924Y-57536334D01*
X128864779Y-57559835D01*
X128826902Y-57581486D01*
X128816978Y-57591705D01*
X128829768Y-57608182D01*
X128869540Y-57630366D01*
X128909932Y-57646831D01*
X129008342Y-57695612D01*
X129101061Y-57765292D01*
X129176646Y-57845998D01*
X129217122Y-57911937D01*
X129249653Y-58026651D01*
X129252380Y-58153852D01*
X129225858Y-58282607D01*
X129194478Y-58359403D01*
X129128639Y-58464221D01*
X129044007Y-58547087D01*
X128933180Y-58614280D01*
X128853567Y-58648707D01*
X128725962Y-58698148D01*
X128021471Y-58704268D01*
X127316981Y-58710389D01*
X127316981Y-58508024D01*
X127316981Y-58311487D01*
X128083773Y-58311487D01*
X128320916Y-58300282D01*
X128427346Y-58293181D01*
X128520258Y-58283060D01*
X128590598Y-58271078D01*
X128622841Y-58261674D01*
X128699986Y-58217422D01*
X128744941Y-58159536D01*
X128763199Y-58079677D01*
X128764302Y-58046867D01*
X128757058Y-57967888D01*
X128732790Y-57907332D01*
X128687689Y-57863128D01*
X128617950Y-57833203D01*
X128519765Y-57815486D01*
X128389328Y-57807905D01*
X128324012Y-57807245D01*
X128083773Y-57807245D01*
X128083773Y-58059366D01*
X128083773Y-58311487D01*
X127316981Y-58311487D01*
X127316981Y-58305660D01*
X127441585Y-58305660D01*
X127566188Y-58305660D01*
X127566188Y-58059366D01*
X127566188Y-57606877D01*
X127566188Y-57385509D01*
X128083773Y-57385509D01*
X128295737Y-57385509D01*
X128392053Y-57383570D01*
X128483256Y-57378338D01*
X128557003Y-57370692D01*
X128591293Y-57364460D01*
X128678633Y-57330124D01*
X128733935Y-57276877D01*
X128760604Y-57200426D01*
X128764302Y-57146355D01*
X128757090Y-57067241D01*
X128732912Y-57006585D01*
X128687954Y-56962307D01*
X128618402Y-56932327D01*
X128520441Y-56914566D01*
X128390258Y-56906943D01*
X128324012Y-56906264D01*
X128083773Y-56906264D01*
X128083773Y-57145886D01*
X128083773Y-57385509D01*
X127566188Y-57385509D01*
X127566188Y-57145886D01*
X127566188Y-56908093D01*
X127446377Y-56902386D01*
X127326566Y-56896679D01*
X127321112Y-56689328D01*
X127315658Y-56481977D01*
X128020810Y-56489045D01*
G37*
G36*
X137578173Y-56452459D02*
G01*
X137746330Y-56473884D01*
X137891943Y-56517414D01*
X138020588Y-56584961D01*
X138137842Y-56678436D01*
X138185800Y-56726706D01*
X138256174Y-56811368D01*
X138312032Y-56901864D01*
X138354501Y-57003134D01*
X138384710Y-57120119D01*
X138403788Y-57257758D01*
X138412863Y-57420990D01*
X138413063Y-57614757D01*
X138410630Y-57710974D01*
X138404254Y-57865016D01*
X138395122Y-57988090D01*
X138381936Y-58087539D01*
X138363397Y-58170707D01*
X138338206Y-58244937D01*
X138305064Y-58317573D01*
X138302460Y-58322696D01*
X138223974Y-58437903D01*
X138115280Y-58541999D01*
X137984083Y-58629563D01*
X137838090Y-58695173D01*
X137730037Y-58725381D01*
X137646415Y-58736778D01*
X137538545Y-58742980D01*
X137418980Y-58744119D01*
X137300277Y-58740324D01*
X137194991Y-58731726D01*
X137117971Y-58719021D01*
X136941860Y-58659470D01*
X136792948Y-58572943D01*
X136671550Y-58459802D01*
X136577984Y-58320407D01*
X136512565Y-58155121D01*
X136478638Y-57989358D01*
X136468284Y-57877903D01*
X136462860Y-57746875D01*
X136462323Y-57651742D01*
X136976944Y-57651742D01*
X136979411Y-57781735D01*
X136984670Y-57900825D01*
X136992716Y-58000824D01*
X137003540Y-58073543D01*
X137007721Y-58090162D01*
X137056662Y-58192341D01*
X137133763Y-58271891D01*
X137235041Y-58327080D01*
X137356510Y-58356177D01*
X137494189Y-58357448D01*
X137588928Y-58342867D01*
X137698066Y-58301557D01*
X137787570Y-58231614D01*
X137850956Y-58138878D01*
X137869561Y-58090162D01*
X137881498Y-58027379D01*
X137890558Y-57934598D01*
X137896739Y-57820050D01*
X137900042Y-57691965D01*
X137900467Y-57558574D01*
X137898012Y-57428107D01*
X137892677Y-57308795D01*
X137884462Y-57208867D01*
X137873366Y-57136555D01*
X137869611Y-57121932D01*
X137821297Y-57019089D01*
X137748289Y-56939041D01*
X137656703Y-56881768D01*
X137552658Y-56847247D01*
X137442270Y-56835459D01*
X137331657Y-56846381D01*
X137226936Y-56879995D01*
X137134225Y-56936277D01*
X137059640Y-57015209D01*
X137009300Y-57116767D01*
X137006795Y-57124881D01*
X136995175Y-57186542D01*
X136986387Y-57278248D01*
X136980425Y-57391810D01*
X136977280Y-57519038D01*
X136976944Y-57651742D01*
X136462323Y-57651742D01*
X136462057Y-57604668D01*
X136465562Y-57459676D01*
X136473066Y-57320294D01*
X136484257Y-57194916D01*
X136498824Y-57091937D01*
X136514317Y-57026111D01*
X136584624Y-56862762D01*
X136681790Y-56725899D01*
X136790183Y-56627374D01*
X136892088Y-56560767D01*
X136995596Y-56512537D01*
X137110054Y-56479899D01*
X137244807Y-56460072D01*
X137381893Y-56451230D01*
X137578173Y-56452459D01*
G37*
G36*
X134826754Y-56484811D02*
G01*
X135025584Y-56485347D01*
X135190505Y-56487059D01*
X135325942Y-56490389D01*
X135436319Y-56495778D01*
X135526060Y-56503668D01*
X135599590Y-56514501D01*
X135661332Y-56528718D01*
X135715711Y-56546762D01*
X135767150Y-56569073D01*
X135791505Y-56581125D01*
X135902483Y-56653880D01*
X135996386Y-56746790D01*
X136060122Y-56844524D01*
X136092972Y-56944970D01*
X136106226Y-57060298D01*
X136099835Y-57176076D01*
X136073748Y-57277877D01*
X136061733Y-57304190D01*
X136005431Y-57381006D01*
X135923792Y-57453747D01*
X135829388Y-57512612D01*
X135756490Y-57542144D01*
X135702113Y-57565353D01*
X135676936Y-57591138D01*
X135683783Y-57614524D01*
X135708566Y-57626635D01*
X135793849Y-57660684D01*
X135883893Y-57710788D01*
X135963720Y-57767742D01*
X136009922Y-57811777D01*
X136071841Y-57912322D01*
X136105300Y-58031161D01*
X136109382Y-58159919D01*
X136083170Y-58290219D01*
X136067052Y-58333727D01*
X136014121Y-58423509D01*
X135936090Y-58510439D01*
X135844971Y-58582057D01*
X135805998Y-58604418D01*
X135751173Y-58630621D01*
X135697194Y-58652028D01*
X135639545Y-58669116D01*
X135573707Y-58682363D01*
X135495160Y-58692248D01*
X135399388Y-58699247D01*
X135281872Y-58703838D01*
X135138093Y-58706499D01*
X134963532Y-58707707D01*
X134826754Y-58707943D01*
X134179773Y-58708226D01*
X134179773Y-58506943D01*
X134179773Y-58311449D01*
X134927396Y-58311449D01*
X135173553Y-58300501D01*
X135291381Y-58293043D01*
X135389610Y-58282410D01*
X135460989Y-58269508D01*
X135487350Y-58261292D01*
X135559661Y-58216836D01*
X135601787Y-58153679D01*
X135617266Y-58066100D01*
X135617509Y-58050927D01*
X135610889Y-57971751D01*
X135588408Y-57910976D01*
X135546141Y-57866457D01*
X135480160Y-57836052D01*
X135386535Y-57817615D01*
X135261342Y-57809004D01*
X135171811Y-57807666D01*
X134927396Y-57807245D01*
X134927396Y-58059347D01*
X134927396Y-58311449D01*
X134179773Y-58311449D01*
X134179773Y-58305660D01*
X134304377Y-58305660D01*
X134428981Y-58305660D01*
X134428981Y-58059347D01*
X134428981Y-57605962D01*
X134428981Y-57385509D01*
X134927396Y-57385509D01*
X135152641Y-57385402D01*
X135249937Y-57383592D01*
X135340533Y-57378768D01*
X135413269Y-57371705D01*
X135452222Y-57364655D01*
X135537393Y-57328706D01*
X135590348Y-57274588D01*
X135614802Y-57197494D01*
X135617509Y-57151023D01*
X135611593Y-57071097D01*
X135591116Y-57009962D01*
X135551986Y-56965343D01*
X135490109Y-56934964D01*
X135401392Y-56916549D01*
X135281742Y-56907824D01*
X135177219Y-56906264D01*
X134927396Y-56906264D01*
X134927396Y-57145886D01*
X134927396Y-57385509D01*
X134428981Y-57385509D01*
X134428981Y-57145886D01*
X134428981Y-56906264D01*
X134304377Y-56906264D01*
X134179773Y-56906264D01*
X134179773Y-56695396D01*
X134179773Y-56484528D01*
X134826754Y-56484811D01*
G37*
G36*
X134040039Y-40673203D02*
G01*
X134226114Y-40675768D01*
X134410421Y-40680450D01*
X134585336Y-40687110D01*
X134743233Y-40695608D01*
X134876488Y-40705804D01*
X134959588Y-40715003D01*
X135496347Y-40805200D01*
X136014456Y-40928745D01*
X136514830Y-41086057D01*
X136998385Y-41277554D01*
X137466034Y-41503656D01*
X137918692Y-41764782D01*
X138357274Y-42061350D01*
X138782696Y-42393780D01*
X138963085Y-42548985D01*
X139348835Y-42915699D01*
X139707422Y-43308383D01*
X140037748Y-43724890D01*
X140338713Y-44163071D01*
X140609219Y-44620779D01*
X140848168Y-45095867D01*
X141054459Y-45586186D01*
X141226996Y-46089591D01*
X141364679Y-46603931D01*
X141466409Y-47127062D01*
X141520986Y-47548634D01*
X141528236Y-47645789D01*
X141533890Y-47772998D01*
X141537981Y-47923924D01*
X141540543Y-48092230D01*
X141541608Y-48271576D01*
X141541210Y-48455625D01*
X141539382Y-48638040D01*
X141536158Y-48812481D01*
X141531570Y-48972611D01*
X141525652Y-49112092D01*
X141518437Y-49224587D01*
X141511859Y-49290074D01*
X141421565Y-49852888D01*
X141298010Y-50398254D01*
X141141565Y-50925469D01*
X140952601Y-51433824D01*
X140731489Y-51922615D01*
X140478599Y-52391136D01*
X140194301Y-52838681D01*
X139878966Y-53264543D01*
X139532964Y-53668017D01*
X139156667Y-54048397D01*
X138887669Y-54290078D01*
X138563250Y-54557353D01*
X138248063Y-54794326D01*
X137935297Y-55005514D01*
X137618139Y-55195436D01*
X137289778Y-55368611D01*
X137185218Y-55419330D01*
X136785395Y-55594547D01*
X136370261Y-55748042D01*
X135946649Y-55878015D01*
X135521391Y-55982670D01*
X135101319Y-56060208D01*
X134693266Y-56108834D01*
X134519479Y-56120597D01*
X134390291Y-56126087D01*
X134246431Y-56130367D01*
X134095044Y-56133396D01*
X133943277Y-56135138D01*
X133798274Y-56135551D01*
X133667181Y-56134598D01*
X133557143Y-56132240D01*
X133475306Y-56128436D01*
X133451320Y-56126425D01*
X132904280Y-56051568D01*
X132370588Y-55941228D01*
X131851118Y-55795758D01*
X131346742Y-55615514D01*
X130858331Y-55400849D01*
X130386759Y-55152117D01*
X129932898Y-54869673D01*
X129497620Y-54553870D01*
X129413998Y-54487643D01*
X129096907Y-54217425D01*
X128786167Y-53922571D01*
X128488621Y-53610450D01*
X128211114Y-53288432D01*
X127960490Y-52963887D01*
X127841552Y-52794339D01*
X127559253Y-52346629D01*
X127312210Y-51890074D01*
X127099596Y-51422330D01*
X126920582Y-50941057D01*
X126774342Y-50443914D01*
X126660048Y-49928558D01*
X126576874Y-49392648D01*
X126548378Y-49133845D01*
X126541527Y-49034116D01*
X126536761Y-48903689D01*
X126533974Y-48748983D01*
X126533061Y-48576417D01*
X126533860Y-48404452D01*
X127020822Y-48404452D01*
X127020960Y-48591294D01*
X127021648Y-48745252D01*
X127023133Y-48871780D01*
X127025660Y-48976331D01*
X127029475Y-49064361D01*
X127034823Y-49141323D01*
X127041951Y-49212671D01*
X127051104Y-49283859D01*
X127062527Y-49360342D01*
X127064439Y-49372528D01*
X127166492Y-49919221D01*
X127296723Y-50440414D01*
X127455938Y-50937456D01*
X127644947Y-51411696D01*
X127864557Y-51864482D01*
X128115575Y-52297162D01*
X128398809Y-52711086D01*
X128715068Y-53107600D01*
X129065158Y-53488055D01*
X129449888Y-53853798D01*
X129870065Y-54206179D01*
X130037006Y-54335206D01*
X130170713Y-54430564D01*
X130330900Y-54535421D01*
X130508650Y-54644548D01*
X130695044Y-54752717D01*
X130881165Y-54854699D01*
X131058095Y-54945264D01*
X131160528Y-54993967D01*
X131616316Y-55183114D01*
X132091462Y-55342265D01*
X132579186Y-55469475D01*
X133072713Y-55562801D01*
X133214353Y-55583038D01*
X133365956Y-55598680D01*
X133548256Y-55610095D01*
X133753836Y-55617178D01*
X133975274Y-55619821D01*
X134205153Y-55617920D01*
X134436052Y-55611367D01*
X134611094Y-55603016D01*
X134976883Y-55567504D01*
X135358859Y-55502636D01*
X135750747Y-55410126D01*
X136146271Y-55291688D01*
X136539158Y-55149037D01*
X136923132Y-54983887D01*
X136986114Y-54954155D01*
X137420525Y-54725849D01*
X137843129Y-54463035D01*
X138250540Y-54168609D01*
X138639371Y-53845464D01*
X139006235Y-53496498D01*
X139347746Y-53124604D01*
X139660517Y-52732678D01*
X139781448Y-52564301D01*
X140015871Y-52198764D01*
X140232151Y-51804414D01*
X140428066Y-51387319D01*
X140601393Y-50953544D01*
X140749910Y-50509155D01*
X140871395Y-50060218D01*
X140963625Y-49612800D01*
X141024377Y-49172966D01*
X141024553Y-49171245D01*
X141031487Y-49078924D01*
X141037064Y-48956157D01*
X141041282Y-48809723D01*
X141044141Y-48646403D01*
X141045639Y-48472977D01*
X141045774Y-48296224D01*
X141044545Y-48122925D01*
X141041950Y-47959860D01*
X141037988Y-47813809D01*
X141032657Y-47691551D01*
X141025957Y-47599868D01*
X141024896Y-47589735D01*
X140990404Y-47329785D01*
X140943239Y-47053380D01*
X140885902Y-46772131D01*
X140820896Y-46497648D01*
X140750723Y-46241540D01*
X140698498Y-46075320D01*
X140519659Y-45599659D01*
X140306110Y-45134581D01*
X140060045Y-44683234D01*
X139783658Y-44248765D01*
X139479142Y-43834321D01*
X139148689Y-43443049D01*
X138794494Y-43078097D01*
X138418750Y-42742611D01*
X138319846Y-42662231D01*
X137904049Y-42354735D01*
X137471658Y-42081382D01*
X137023848Y-41842640D01*
X136561794Y-41638981D01*
X136086669Y-41470872D01*
X135599648Y-41338783D01*
X135101906Y-41243184D01*
X134630264Y-41187424D01*
X134505584Y-41179432D01*
X134355672Y-41173656D01*
X134189274Y-41170093D01*
X134015137Y-41168741D01*
X133842009Y-41169599D01*
X133678636Y-41172664D01*
X133533766Y-41177935D01*
X133416145Y-41185408D01*
X133391050Y-41187717D01*
X132878212Y-41258135D01*
X132374375Y-41365472D01*
X131881321Y-41509006D01*
X131400834Y-41688017D01*
X130934695Y-41901782D01*
X130484689Y-42149579D01*
X130052597Y-42430686D01*
X129735206Y-42667807D01*
X129599558Y-42780993D01*
X129447552Y-42917699D01*
X129286106Y-43070981D01*
X129122141Y-43233894D01*
X128962575Y-43399495D01*
X128814327Y-43560838D01*
X128684318Y-43710979D01*
X128632085Y-43774943D01*
X128447625Y-44016766D01*
X128265703Y-44275419D01*
X128092788Y-44540913D01*
X127935349Y-44803256D01*
X127799853Y-45052458D01*
X127781828Y-45088075D01*
X127638658Y-45397082D01*
X127503522Y-45733856D01*
X127379795Y-46088108D01*
X127270854Y-46449548D01*
X127180073Y-46807887D01*
X127118249Y-47110490D01*
X127093222Y-47252083D01*
X127072892Y-47373536D01*
X127056769Y-47481320D01*
X127044368Y-47581906D01*
X127035202Y-47681764D01*
X127028782Y-47787367D01*
X127024621Y-47905186D01*
X127022233Y-48041691D01*
X127021130Y-48203354D01*
X127020824Y-48396646D01*
X127020822Y-48404452D01*
X126533860Y-48404452D01*
X126533916Y-48392409D01*
X126536433Y-48203379D01*
X126540507Y-48015746D01*
X126546031Y-47835928D01*
X126552901Y-47670344D01*
X126561010Y-47525414D01*
X126570253Y-47407557D01*
X126577902Y-47340528D01*
X126663434Y-46833165D01*
X126775477Y-46348746D01*
X126916070Y-45880702D01*
X127087255Y-45422462D01*
X127291070Y-44967455D01*
X127354704Y-44838867D01*
X127620149Y-44352811D01*
X127911271Y-43895209D01*
X128228240Y-43465892D01*
X128571226Y-43064690D01*
X128940400Y-42691433D01*
X129335932Y-42345952D01*
X129757990Y-42028078D01*
X130206746Y-41737641D01*
X130682369Y-41474471D01*
X130777132Y-41426873D01*
X131228644Y-41220211D01*
X131678414Y-41048392D01*
X132132670Y-40909682D01*
X132597641Y-40802342D01*
X133079555Y-40724636D01*
X133430550Y-40686923D01*
X133547451Y-40679616D01*
X133693083Y-40674987D01*
X133859820Y-40672896D01*
X134040039Y-40673203D01*
G37*
G36*
X135655091Y-43040738D02*
G01*
X135747639Y-43050147D01*
X135859489Y-43065335D01*
X135993610Y-43086613D01*
X136152969Y-43114293D01*
X136340535Y-43148685D01*
X136559278Y-43190100D01*
X136812165Y-43238849D01*
X136853392Y-43246845D01*
X137108392Y-43296681D01*
X137327287Y-43340233D01*
X137511728Y-43377861D01*
X137663371Y-43409924D01*
X137783868Y-43436785D01*
X137874873Y-43458801D01*
X137938038Y-43476334D01*
X137975019Y-43489745D01*
X137979949Y-43492258D01*
X138060920Y-43554784D01*
X138135654Y-43643127D01*
X138194688Y-43744899D01*
X138217354Y-43803108D01*
X138248404Y-43901609D01*
X138725334Y-43993556D01*
X139202264Y-44085502D01*
X139202036Y-44212977D01*
X139186588Y-44378293D01*
X139143047Y-44535287D01*
X139074717Y-44677888D01*
X138984905Y-44800028D01*
X138876918Y-44895639D01*
X138808120Y-44936125D01*
X138754616Y-44960703D01*
X138709504Y-44975143D01*
X138660425Y-44981240D01*
X138595017Y-44980789D01*
X138525859Y-44977116D01*
X138466728Y-44971115D01*
X138376924Y-44958925D01*
X138263392Y-44941738D01*
X138133080Y-44920748D01*
X137992937Y-44897149D01*
X137849909Y-44872135D01*
X137710943Y-44846897D01*
X137582988Y-44822632D01*
X137472991Y-44800530D01*
X137387898Y-44781788D01*
X137385364Y-44781185D01*
X137341672Y-44770762D01*
X137347025Y-45024700D01*
X137352377Y-45278638D01*
X138020456Y-45407389D01*
X138205185Y-45443292D01*
X138356586Y-45473518D01*
X138479072Y-45499131D01*
X138577057Y-45521195D01*
X138654955Y-45540775D01*
X138717180Y-45558932D01*
X138768145Y-45576733D01*
X138812264Y-45595240D01*
X138825588Y-45601452D01*
X138960875Y-45679205D01*
X139075810Y-45776226D01*
X139177959Y-45899722D01*
X139240668Y-45996908D01*
X139336452Y-46158119D01*
X139336452Y-48361697D01*
X139336452Y-50565274D01*
X139276830Y-50677137D01*
X139233365Y-50750674D01*
X139178000Y-50828963D01*
X139107635Y-50915501D01*
X139019166Y-51013786D01*
X138909494Y-51127317D01*
X138775515Y-51259590D01*
X138672443Y-51358689D01*
X138496584Y-51525945D01*
X138345375Y-51668522D01*
X138216132Y-51788631D01*
X138106175Y-51888480D01*
X138012820Y-51970278D01*
X137933386Y-52036235D01*
X137865189Y-52088558D01*
X137805549Y-52129458D01*
X137751783Y-52161144D01*
X137701208Y-52185824D01*
X137651142Y-52205707D01*
X137638683Y-52210087D01*
X137549180Y-52233686D01*
X137449045Y-52245117D01*
X137332497Y-52244217D01*
X137193756Y-52230821D01*
X137027042Y-52204765D01*
X136949811Y-52190490D01*
X136844272Y-52170795D01*
X136749513Y-52154051D01*
X136673043Y-52141513D01*
X136622374Y-52134437D01*
X136607877Y-52133330D01*
X136568645Y-52143974D01*
X136514306Y-52170761D01*
X136482058Y-52190839D01*
X136438946Y-52217307D01*
X136396473Y-52235038D01*
X136348573Y-52243919D01*
X136289181Y-52243839D01*
X136212233Y-52234687D01*
X136111662Y-52216349D01*
X135981405Y-52188715D01*
X135946268Y-52180957D01*
X135798748Y-52147961D01*
X135683478Y-52121013D01*
X135595218Y-52098128D01*
X135528728Y-52077318D01*
X135478770Y-52056598D01*
X135440104Y-52033982D01*
X135407491Y-52007484D01*
X135375692Y-51975119D01*
X135361219Y-51959187D01*
X135274433Y-51862660D01*
X134473427Y-51698093D01*
X135585579Y-51698093D01*
X135596185Y-51732783D01*
X135625221Y-51762076D01*
X135677096Y-51788663D01*
X135756220Y-51815234D01*
X135867005Y-51844480D01*
X135920015Y-51857256D01*
X136054332Y-51887998D01*
X136156283Y-51908332D01*
X136230334Y-51918492D01*
X136280955Y-51918713D01*
X136312610Y-51909230D01*
X136329767Y-51890277D01*
X136333879Y-51878981D01*
X136339587Y-51839009D01*
X136343799Y-51774112D01*
X136345675Y-51697696D01*
X136345700Y-51690787D01*
X136345962Y-51545726D01*
X136058328Y-51483081D01*
X135770694Y-51420436D01*
X135708479Y-51472708D01*
X135648881Y-51527906D01*
X135613500Y-51577040D01*
X135593543Y-51633549D01*
X135588991Y-51655316D01*
X135585579Y-51698093D01*
X134473427Y-51698093D01*
X134156801Y-51633042D01*
X133627967Y-51524306D01*
X133133580Y-51422474D01*
X132673871Y-51327595D01*
X132284340Y-51247013D01*
X134007245Y-51247013D01*
X134050377Y-51257604D01*
X134138173Y-51274209D01*
X134231571Y-51284038D01*
X134314900Y-51285876D01*
X134359751Y-51281589D01*
X134403813Y-51265832D01*
X134469195Y-51233363D01*
X134545819Y-51189474D01*
X134599427Y-51155663D01*
X134698786Y-51090688D01*
X134774008Y-51043838D01*
X134833155Y-51012424D01*
X134884289Y-50993761D01*
X134935473Y-50985162D01*
X134994769Y-50983940D01*
X135070239Y-50987409D01*
X135099307Y-50989081D01*
X135167522Y-50995160D01*
X135257625Y-51007014D01*
X135372015Y-51025070D01*
X135513089Y-51049755D01*
X135683247Y-51081495D01*
X135884886Y-51120718D01*
X136120403Y-51167851D01*
X136240528Y-51192255D01*
X136475510Y-51239930D01*
X136676275Y-51279914D01*
X136846088Y-51312561D01*
X136988219Y-51338222D01*
X137105936Y-51357251D01*
X137202506Y-51370000D01*
X137281197Y-51376823D01*
X137345277Y-51378071D01*
X137398015Y-51374098D01*
X137442678Y-51365256D01*
X137482534Y-51351898D01*
X137520851Y-51334377D01*
X137527192Y-51331141D01*
X137625242Y-51263017D01*
X137714064Y-51168848D01*
X137782331Y-51060870D01*
X137787544Y-51049886D01*
X137831622Y-50954037D01*
X137837294Y-49382113D01*
X137838030Y-49111743D01*
X137838259Y-48854970D01*
X137838000Y-48614568D01*
X137837275Y-48393310D01*
X137836103Y-48193970D01*
X137834504Y-48019323D01*
X137832499Y-47872143D01*
X137830107Y-47755203D01*
X137827350Y-47671279D01*
X137824510Y-47625643D01*
X137806662Y-47498248D01*
X137778538Y-47396812D01*
X137734959Y-47309295D01*
X137670739Y-47223658D01*
X137633825Y-47182632D01*
X137612778Y-47159354D01*
X137594517Y-47138648D01*
X137576938Y-47119991D01*
X137557940Y-47102857D01*
X137535417Y-47086720D01*
X137507266Y-47071055D01*
X137471385Y-47055337D01*
X137425669Y-47039040D01*
X137368015Y-47021640D01*
X137296320Y-47002611D01*
X137208481Y-46981428D01*
X137102393Y-46957565D01*
X136975954Y-46930498D01*
X136827060Y-46899700D01*
X136653608Y-46864647D01*
X136453493Y-46824813D01*
X136224614Y-46779674D01*
X135964865Y-46728703D01*
X135672145Y-46671376D01*
X135344349Y-46607167D01*
X135274906Y-46593553D01*
X135067226Y-46552933D01*
X134870195Y-46514592D01*
X134687117Y-46479161D01*
X134521296Y-46447269D01*
X134376037Y-46419548D01*
X134254643Y-46396626D01*
X134160420Y-46379135D01*
X134096672Y-46367704D01*
X134066702Y-46362963D01*
X134065257Y-46362867D01*
X134048192Y-46368682D01*
X134036396Y-46390870D01*
X134027824Y-46436545D01*
X134020432Y-46512820D01*
X134019786Y-46521018D01*
X134018196Y-46560495D01*
X134016664Y-46635739D01*
X134015203Y-46744175D01*
X134013826Y-46883231D01*
X134012546Y-47050334D01*
X134011377Y-47242910D01*
X134010330Y-47458386D01*
X134009420Y-47694188D01*
X134008659Y-47947745D01*
X134008061Y-48216481D01*
X134007638Y-48497825D01*
X134007404Y-48789202D01*
X134007360Y-48963091D01*
X134007245Y-51247013D01*
X132284340Y-51247013D01*
X132249071Y-51239717D01*
X131859412Y-51158888D01*
X131505127Y-51085158D01*
X131186446Y-51018574D01*
X130903602Y-50959186D01*
X130656825Y-50907042D01*
X130446348Y-50862191D01*
X130272403Y-50824681D01*
X130135221Y-50794560D01*
X130035033Y-50771878D01*
X129972072Y-50756683D01*
X129953300Y-50751506D01*
X129810691Y-50688990D01*
X129676174Y-50595381D01*
X129556939Y-50477912D01*
X129460174Y-50343819D01*
X129393070Y-50200336D01*
X129386976Y-50181616D01*
X129358240Y-50063924D01*
X129335115Y-49919795D01*
X129319026Y-49760906D01*
X129311395Y-49598931D01*
X129310973Y-49558350D01*
X129310641Y-49408700D01*
X129250476Y-49443331D01*
X129198336Y-49480041D01*
X129128636Y-49538319D01*
X129049031Y-49610851D01*
X128967177Y-49690323D01*
X128890730Y-49769421D01*
X128827344Y-49840833D01*
X128804331Y-49869545D01*
X128652895Y-50096489D01*
X128538599Y-50332581D01*
X128461088Y-50578970D01*
X128420006Y-50836807D01*
X128414996Y-51107243D01*
X128415898Y-51125065D01*
X128428545Y-51278241D01*
X128450481Y-51410370D01*
X128485475Y-51538346D01*
X128537294Y-51679062D01*
X128542177Y-51691123D01*
X128652633Y-51918028D01*
X128788585Y-52117490D01*
X128906488Y-52248843D01*
X129068722Y-52387920D01*
X129241858Y-52491547D01*
X129430558Y-52561899D01*
X129639487Y-52601152D01*
X129667605Y-52604013D01*
X129804116Y-52616693D01*
X129812347Y-52335739D01*
X130116680Y-52335739D01*
X130117616Y-52415278D01*
X130123865Y-52465671D01*
X130135912Y-52491390D01*
X130150225Y-52497207D01*
X130174172Y-52487355D01*
X130218486Y-52461969D01*
X130256167Y-52437953D01*
X130363125Y-52353111D01*
X130452611Y-52254586D01*
X130523108Y-52147483D01*
X130573102Y-52036909D01*
X130601078Y-51927969D01*
X130605520Y-51825769D01*
X130584914Y-51735415D01*
X130537745Y-51662012D01*
X130496382Y-51628433D01*
X130444350Y-51616567D01*
X130383303Y-51635353D01*
X130318993Y-51680062D01*
X130257176Y-51745963D01*
X130203605Y-51828328D01*
X130174051Y-51893358D01*
X130149658Y-51972709D01*
X130133166Y-52064882D01*
X130122792Y-52180870D01*
X130120576Y-52222581D01*
X130116680Y-52335739D01*
X129812347Y-52335739D01*
X129813869Y-52283780D01*
X129819142Y-52142162D01*
X129826877Y-52030071D01*
X129838956Y-51938699D01*
X129857259Y-51859238D01*
X129883665Y-51782881D01*
X129920056Y-51700818D01*
X129952180Y-51635848D01*
X130033258Y-51509370D01*
X130132215Y-51409825D01*
X130244333Y-51339265D01*
X130364899Y-51299744D01*
X130489198Y-51293315D01*
X130612514Y-51322029D01*
X130642943Y-51335084D01*
X130725094Y-51380994D01*
X130786408Y-51435433D01*
X130837035Y-51509203D01*
X130871838Y-51578759D01*
X130920705Y-51724791D01*
X130934527Y-51874970D01*
X130913077Y-52031965D01*
X130856125Y-52198438D01*
X130810589Y-52293100D01*
X130742991Y-52399555D01*
X130652281Y-52511391D01*
X130548503Y-52618149D01*
X130441702Y-52709371D01*
X130355062Y-52767439D01*
X130300396Y-52800894D01*
X130262388Y-52829128D01*
X130249962Y-52844475D01*
X130264811Y-52889359D01*
X130305288Y-52949735D01*
X130365290Y-53019575D01*
X130438715Y-53092852D01*
X130519457Y-53163539D01*
X130601414Y-53225610D01*
X130678483Y-53273038D01*
X130689795Y-53278787D01*
X130744724Y-53303343D01*
X130797096Y-53319505D01*
X130858287Y-53329414D01*
X130939670Y-53335208D01*
X131002328Y-53337581D01*
X131104881Y-53339492D01*
X131173215Y-53335044D01*
X131211369Y-53320396D01*
X131223381Y-53291708D01*
X131213289Y-53245141D01*
X131185133Y-53176853D01*
X131181017Y-53167651D01*
X131135412Y-53051227D01*
X131103897Y-52932597D01*
X131085099Y-52802697D01*
X131077643Y-52652466D01*
X131077965Y-52623049D01*
X131386266Y-52623049D01*
X131403012Y-52780146D01*
X131405908Y-52794339D01*
X131426156Y-52873758D01*
X131452525Y-52956044D01*
X131481662Y-53032922D01*
X131510211Y-53096117D01*
X131534818Y-53137355D01*
X131549673Y-53148981D01*
X131570438Y-53135964D01*
X131609126Y-53101611D01*
X131657882Y-53052966D01*
X131664725Y-53045775D01*
X131805725Y-52873281D01*
X131909602Y-52692772D01*
X131976988Y-52502900D01*
X132007592Y-52315094D01*
X132006815Y-52176092D01*
X131981930Y-52060955D01*
X131934148Y-51972064D01*
X131864679Y-51911799D01*
X131788878Y-51884748D01*
X131702555Y-51882699D01*
X131628315Y-51912696D01*
X131561039Y-51977348D01*
X131534205Y-52014593D01*
X131468580Y-52141847D01*
X131420849Y-52292965D01*
X131392811Y-52457010D01*
X131386266Y-52623049D01*
X131077965Y-52623049D01*
X131079342Y-52497207D01*
X131083865Y-52379567D01*
X131089943Y-52290910D01*
X131098883Y-52221880D01*
X131111991Y-52163120D01*
X131130572Y-52105276D01*
X131136169Y-52090011D01*
X131208412Y-51926886D01*
X131292139Y-51791646D01*
X131384407Y-51688873D01*
X131404669Y-51671783D01*
X131501421Y-51606021D01*
X131598204Y-51567459D01*
X131709424Y-51551238D01*
X131766097Y-51549926D01*
X131907036Y-51567162D01*
X132029988Y-51615732D01*
X132133844Y-51692547D01*
X132217497Y-51794515D01*
X132279838Y-51918547D01*
X132319758Y-52061552D01*
X132336149Y-52220440D01*
X132327903Y-52392122D01*
X132293910Y-52573507D01*
X132233064Y-52761504D01*
X132215836Y-52803745D01*
X132160471Y-52924862D01*
X132103326Y-53025993D01*
X132035996Y-53119618D01*
X131950074Y-53218213D01*
X131904070Y-53266533D01*
X131762125Y-53412840D01*
X131825553Y-53451493D01*
X131938794Y-53503613D01*
X132072285Y-53538487D01*
X132213316Y-53554660D01*
X132349178Y-53550677D01*
X132467164Y-53525084D01*
X132467459Y-53524980D01*
X132537768Y-53497618D01*
X132610616Y-53465148D01*
X132677380Y-53431959D01*
X132729439Y-53402442D01*
X132758171Y-53380985D01*
X132761207Y-53375429D01*
X132753101Y-53351549D01*
X132731604Y-53303049D01*
X132700951Y-53239356D01*
X132692768Y-53222989D01*
X132620746Y-53054272D01*
X132575138Y-52882277D01*
X132553347Y-52695353D01*
X132550567Y-52585197D01*
X132550606Y-52584441D01*
X132860158Y-52584441D01*
X132865378Y-52699130D01*
X132875369Y-52769002D01*
X132894762Y-52850518D01*
X132920098Y-52933519D01*
X132948252Y-53010192D01*
X132976096Y-53072724D01*
X133000506Y-53113298D01*
X133017570Y-53124422D01*
X133037749Y-53105484D01*
X133070023Y-53062504D01*
X133107461Y-53004725D01*
X133108021Y-53003801D01*
X133202871Y-52824390D01*
X133263745Y-52653787D01*
X133292401Y-52486906D01*
X133293805Y-52466058D01*
X133294243Y-52339574D01*
X133278675Y-52243602D01*
X133245839Y-52173260D01*
X133207725Y-52133280D01*
X133138045Y-52098440D01*
X133067847Y-52099813D01*
X133001087Y-52135536D01*
X132941722Y-52203744D01*
X132903880Y-52276415D01*
X132880190Y-52359595D01*
X132865356Y-52466767D01*
X132860158Y-52584441D01*
X132550606Y-52584441D01*
X132560538Y-52392309D01*
X132590934Y-52228525D01*
X132643148Y-52089664D01*
X132718575Y-51971548D01*
X132776399Y-51908073D01*
X132879474Y-51832206D01*
X132993945Y-51788929D01*
X133113760Y-51776694D01*
X133232865Y-51793953D01*
X133345209Y-51839157D01*
X133444737Y-51910757D01*
X133525398Y-52007205D01*
X133576430Y-52112737D01*
X133602418Y-52220233D01*
X133616423Y-52350103D01*
X133617905Y-52488129D01*
X133606324Y-52620093D01*
X133597552Y-52669735D01*
X133571026Y-52763595D01*
X133528761Y-52875916D01*
X133475778Y-52996170D01*
X133417096Y-53113828D01*
X133357733Y-53218360D01*
X133302710Y-53299239D01*
X133290115Y-53314651D01*
X133221832Y-53394057D01*
X133283859Y-53441281D01*
X133418653Y-53524215D01*
X133579847Y-53590555D01*
X133757905Y-53637074D01*
X133929274Y-53659653D01*
X134009325Y-53664564D01*
X134060934Y-53664628D01*
X134093878Y-53658044D01*
X134117932Y-53643012D01*
X134139983Y-53620856D01*
X134161527Y-53599471D01*
X134184235Y-53585233D01*
X134215969Y-53576690D01*
X134264589Y-53572391D01*
X134337954Y-53570886D01*
X134411567Y-53570717D01*
X134636678Y-53570717D01*
X134670609Y-53481868D01*
X134745567Y-53328753D01*
X134846933Y-53185563D01*
X134967438Y-53060477D01*
X135099808Y-52961675D01*
X135164275Y-52926538D01*
X135300649Y-52870480D01*
X135433334Y-52837567D01*
X135576880Y-52824999D01*
X135684169Y-52826467D01*
X135777541Y-52832528D01*
X135848884Y-52843696D01*
X135914489Y-52863856D01*
X135990650Y-52896893D01*
X136002027Y-52902266D01*
X136166648Y-53000490D01*
X136308259Y-53125358D01*
X136424750Y-53272083D01*
X136514011Y-53435880D01*
X136573932Y-53611964D01*
X136602402Y-53795550D01*
X136597312Y-53981851D01*
X136557727Y-54162457D01*
X136488725Y-54320487D01*
X136388920Y-54471209D01*
X136265233Y-54607214D01*
X136124590Y-54721100D01*
X135973912Y-54805459D01*
X135945613Y-54817189D01*
X135817398Y-54852255D01*
X135669351Y-54868134D01*
X135515074Y-54864402D01*
X135368174Y-54840629D01*
X135349738Y-54835886D01*
X135261593Y-54807199D01*
X135171451Y-54770128D01*
X135103115Y-54735085D01*
X134989474Y-54650772D01*
X134878522Y-54539199D01*
X134779496Y-54410886D01*
X134703251Y-54279718D01*
X134668314Y-54209808D01*
X134637762Y-54161953D01*
X134603454Y-54131973D01*
X134557251Y-54115688D01*
X134491013Y-54108919D01*
X134396600Y-54107486D01*
X134367796Y-54107471D01*
X134287194Y-54105964D01*
X134232922Y-54099635D01*
X134193025Y-54085775D01*
X134155552Y-54061675D01*
X134151175Y-54058366D01*
X134110226Y-54032884D01*
X134058101Y-54013250D01*
X133985631Y-53996777D01*
X133888869Y-53981510D01*
X133643129Y-53937060D01*
X133430998Y-53877092D01*
X133370339Y-53851482D01*
X134889071Y-53851482D01*
X134889990Y-53947628D01*
X134894004Y-54016715D01*
X134903022Y-54070010D01*
X134918954Y-54118774D01*
X134943709Y-54174271D01*
X134943849Y-54174566D01*
X135020385Y-54296921D01*
X135124439Y-54408208D01*
X135246656Y-54500664D01*
X135377681Y-54566528D01*
X135439891Y-54586152D01*
X135552528Y-54600846D01*
X135679812Y-54596032D01*
X135804425Y-54573370D01*
X135892077Y-54542812D01*
X135986751Y-54486685D01*
X136083741Y-54407764D01*
X136171282Y-54317185D01*
X136237607Y-54226084D01*
X136249490Y-54204541D01*
X136275704Y-54141355D01*
X136301709Y-54059693D01*
X136319030Y-53989884D01*
X136334861Y-53825541D01*
X136312984Y-53666980D01*
X136253730Y-53515228D01*
X136157435Y-53371311D01*
X136095503Y-53302614D01*
X135997280Y-53213525D01*
X135902087Y-53153468D01*
X135797676Y-53116930D01*
X135671799Y-53098393D01*
X135636671Y-53095990D01*
X135552151Y-53092227D01*
X135491962Y-53094032D01*
X135442231Y-53103719D01*
X135389089Y-53123598D01*
X135341681Y-53145168D01*
X135189967Y-53236860D01*
X135062405Y-53357595D01*
X134962210Y-53504301D01*
X134958110Y-53512009D01*
X134927528Y-53571983D01*
X134907637Y-53619778D01*
X134896141Y-53666680D01*
X134890746Y-53723971D01*
X134889156Y-53802937D01*
X134889071Y-53851482D01*
X133370339Y-53851482D01*
X133250761Y-53800997D01*
X133100707Y-53708169D01*
X133086385Y-53697234D01*
X132999411Y-53629459D01*
X132789253Y-53734599D01*
X132693383Y-53779847D01*
X132595709Y-53821359D01*
X132508840Y-53854015D01*
X132454490Y-53870596D01*
X132287603Y-53893422D01*
X132109971Y-53884373D01*
X131929089Y-53845293D01*
X131752453Y-53778030D01*
X131587558Y-53684430D01*
X131530344Y-53642966D01*
X131459254Y-53587928D01*
X131357816Y-53619051D01*
X131266612Y-53639529D01*
X131153174Y-53654065D01*
X131030569Y-53662021D01*
X130911862Y-53662756D01*
X130810118Y-53655631D01*
X130765645Y-53648022D01*
X130696561Y-53627491D01*
X130610996Y-53595526D01*
X130526329Y-53558673D01*
X130518339Y-53554854D01*
X130407792Y-53489331D01*
X130291952Y-53399917D01*
X130180055Y-53295527D01*
X130081338Y-53185075D01*
X130005036Y-53077475D01*
X129983620Y-53038754D01*
X129923523Y-52918943D01*
X129725583Y-52918943D01*
X129489652Y-52900736D01*
X129265956Y-52846294D01*
X129055009Y-52755885D01*
X128857323Y-52629779D01*
X128673411Y-52468244D01*
X128513573Y-52284363D01*
X128396654Y-52108807D01*
X128293442Y-51907162D01*
X128208725Y-51690630D01*
X128147286Y-51470410D01*
X128131365Y-51389962D01*
X128115368Y-51263164D01*
X128106262Y-51114310D01*
X128104038Y-50956178D01*
X128108689Y-50801542D01*
X128120203Y-50663179D01*
X128131928Y-50585025D01*
X128189589Y-50356413D01*
X128273908Y-50127696D01*
X128379592Y-49911367D01*
X128494548Y-49729279D01*
X128581889Y-49620962D01*
X128691874Y-49504128D01*
X128803308Y-49398383D01*
X131095550Y-49398383D01*
X131102168Y-49451128D01*
X131133446Y-49502403D01*
X131189814Y-49544160D01*
X131206574Y-49551653D01*
X131250868Y-49565828D01*
X131329180Y-49586444D01*
X131442193Y-49613658D01*
X131590589Y-49647630D01*
X131775053Y-49688518D01*
X131996267Y-49736481D01*
X132071094Y-49752529D01*
X132172511Y-49769696D01*
X132245638Y-49770524D01*
X132297060Y-49754595D01*
X132320302Y-49736754D01*
X132348895Y-49696724D01*
X132358641Y-49664340D01*
X132342347Y-49610134D01*
X132301065Y-49558210D01*
X132246480Y-49523041D01*
X132210302Y-49512571D01*
X132143052Y-49496300D01*
X132051322Y-49475584D01*
X131941705Y-49451778D01*
X131820794Y-49426239D01*
X131695182Y-49400323D01*
X131571463Y-49375385D01*
X131456229Y-49352782D01*
X131356073Y-49333870D01*
X131277588Y-49320004D01*
X131227368Y-49312541D01*
X131219369Y-49311791D01*
X131154580Y-49320667D01*
X131113164Y-49352213D01*
X131095550Y-49398383D01*
X128803308Y-49398383D01*
X128816017Y-49386323D01*
X128945829Y-49275095D01*
X129072824Y-49177990D01*
X129188516Y-49102554D01*
X129217371Y-49086532D01*
X129304917Y-49040159D01*
X129307428Y-48665230D01*
X130540907Y-48665230D01*
X130551067Y-48728201D01*
X130556993Y-48740511D01*
X130568602Y-48755272D01*
X130589285Y-48770052D01*
X130621912Y-48785602D01*
X130669351Y-48802675D01*
X130734473Y-48822022D01*
X130820147Y-48844395D01*
X130929242Y-48870545D01*
X131064629Y-48901224D01*
X131229176Y-48937184D01*
X131425753Y-48979177D01*
X131642608Y-49024885D01*
X131818024Y-49061707D01*
X131984590Y-49096688D01*
X132137961Y-49128913D01*
X132273792Y-49157469D01*
X132387736Y-49181442D01*
X132475448Y-49199919D01*
X132532581Y-49211984D01*
X132550339Y-49215758D01*
X132649825Y-49231627D01*
X132740642Y-49236173D01*
X132813894Y-49229611D01*
X132860686Y-49212153D01*
X132865272Y-49208215D01*
X132894107Y-49156097D01*
X132890755Y-49098406D01*
X132857757Y-49045806D01*
X132820032Y-49018566D01*
X132784290Y-49005683D01*
X132718522Y-48987153D01*
X132630284Y-48964911D01*
X132527132Y-48940890D01*
X132453336Y-48924741D01*
X132113264Y-48852440D01*
X131810246Y-48788396D01*
X131543914Y-48732536D01*
X131313898Y-48684783D01*
X131119830Y-48645064D01*
X130961341Y-48613301D01*
X130838063Y-48589422D01*
X130749626Y-48573349D01*
X130695662Y-48565008D01*
X130681698Y-48563722D01*
X130611501Y-48575509D01*
X130562811Y-48611840D01*
X130540907Y-48665230D01*
X129307428Y-48665230D01*
X129312009Y-47981172D01*
X130239092Y-47981172D01*
X130265203Y-48044526D01*
X130315011Y-48094123D01*
X130331516Y-48103355D01*
X130360609Y-48112297D01*
X130423289Y-48128012D01*
X130515578Y-48149614D01*
X130633496Y-48176216D01*
X130773064Y-48206931D01*
X130930303Y-48240871D01*
X131101234Y-48277150D01*
X131261077Y-48310567D01*
X131456776Y-48351232D01*
X131655659Y-48392632D01*
X131851496Y-48433467D01*
X132038056Y-48472434D01*
X132209108Y-48508231D01*
X132358422Y-48539556D01*
X132479766Y-48565107D01*
X132531169Y-48575982D01*
X132711767Y-48612720D01*
X132858215Y-48638886D01*
X132973142Y-48654730D01*
X133059179Y-48660500D01*
X133118958Y-48656445D01*
X133155107Y-48642814D01*
X133162734Y-48635742D01*
X133180830Y-48587296D01*
X133174885Y-48527569D01*
X133148082Y-48472274D01*
X133124885Y-48448906D01*
X133095800Y-48435808D01*
X133036529Y-48417738D01*
X132945814Y-48394399D01*
X132822395Y-48365497D01*
X132665014Y-48330738D01*
X132472410Y-48289826D01*
X132243325Y-48242466D01*
X132243074Y-48242415D01*
X132044845Y-48201764D01*
X131837362Y-48159036D01*
X131628182Y-48115798D01*
X131424862Y-48073619D01*
X131234960Y-48034067D01*
X131066033Y-47998711D01*
X130925639Y-47969120D01*
X130902126Y-47964132D01*
X130764311Y-47935587D01*
X130635664Y-47910307D01*
X130521880Y-47889303D01*
X130428658Y-47873589D01*
X130361696Y-47864176D01*
X130327381Y-47862010D01*
X130276350Y-47873467D01*
X130249058Y-47902357D01*
X130242941Y-47917220D01*
X130239092Y-47981172D01*
X129312009Y-47981172D01*
X129315326Y-47485853D01*
X129315716Y-47428273D01*
X130546057Y-47428273D01*
X130575897Y-47480351D01*
X130641598Y-47523679D01*
X130738904Y-47557840D01*
X130801564Y-47573548D01*
X130893383Y-47594910D01*
X131009898Y-47621003D01*
X131146647Y-47650905D01*
X131299167Y-47683695D01*
X131462997Y-47718452D01*
X131633672Y-47754252D01*
X131806732Y-47790174D01*
X131977713Y-47825296D01*
X132142153Y-47858697D01*
X132295590Y-47889455D01*
X132433560Y-47916648D01*
X132551602Y-47939353D01*
X132645253Y-47956650D01*
X132710051Y-47967616D01*
X132740528Y-47971325D01*
X132815592Y-47963541D01*
X132860339Y-47941406D01*
X132890699Y-47892013D01*
X132889677Y-47835239D01*
X132860463Y-47780281D01*
X132806244Y-47736336D01*
X132785933Y-47726817D01*
X132755848Y-47718424D01*
X132691363Y-47703223D01*
X132595682Y-47681884D01*
X132472008Y-47655079D01*
X132323544Y-47623478D01*
X132153495Y-47587753D01*
X131965062Y-47548574D01*
X131761450Y-47506614D01*
X131545861Y-47462543D01*
X131321500Y-47417033D01*
X131091569Y-47370754D01*
X130978851Y-47348202D01*
X130878917Y-47330049D01*
X130784291Y-47316058D01*
X130705728Y-47307623D01*
X130654463Y-47306108D01*
X130599463Y-47312973D01*
X130569852Y-47329022D01*
X130552712Y-47361802D01*
X130551125Y-47366477D01*
X130546057Y-47428273D01*
X129315716Y-47428273D01*
X129317224Y-47205364D01*
X129318964Y-46960559D01*
X129319518Y-46890037D01*
X131093434Y-46890037D01*
X131111660Y-46949787D01*
X131164063Y-46998845D01*
X131247229Y-47034062D01*
X131250573Y-47034983D01*
X131330178Y-47055005D01*
X131432378Y-47078383D01*
X131550213Y-47103761D01*
X131676719Y-47129782D01*
X131804936Y-47155089D01*
X131927900Y-47178327D01*
X132038650Y-47198138D01*
X132130224Y-47213166D01*
X132195660Y-47222054D01*
X132220071Y-47223887D01*
X132280981Y-47222702D01*
X132315488Y-47213757D01*
X132335374Y-47192727D01*
X132342315Y-47178998D01*
X132356715Y-47110622D01*
X132334546Y-47051956D01*
X132276842Y-47005227D01*
X132257284Y-46995802D01*
X132219281Y-46983410D01*
X132150550Y-46965042D01*
X132057589Y-46942128D01*
X131946899Y-46916092D01*
X131824979Y-46888364D01*
X131698327Y-46860370D01*
X131573444Y-46833538D01*
X131456829Y-46809295D01*
X131354980Y-46789068D01*
X131274397Y-46774285D01*
X131221580Y-46766373D01*
X131208324Y-46765434D01*
X131158992Y-46782214D01*
X131116960Y-46823656D01*
X131094534Y-46876411D01*
X131093434Y-46890037D01*
X129319518Y-46890037D01*
X129320628Y-46748781D01*
X129322300Y-46567373D01*
X129324060Y-46413680D01*
X129325991Y-46285047D01*
X129328176Y-46178816D01*
X129330696Y-46092332D01*
X129333633Y-46022938D01*
X129337071Y-45967980D01*
X129341090Y-45924801D01*
X129345773Y-45890745D01*
X129351203Y-45863155D01*
X129357461Y-45839376D01*
X129364629Y-45816753D01*
X129367198Y-45809117D01*
X129438055Y-45647296D01*
X129531289Y-45511052D01*
X129640092Y-45407763D01*
X129688234Y-45373532D01*
X129763417Y-45322455D01*
X129788935Y-45305473D01*
X130422490Y-45305473D01*
X130440161Y-45313986D01*
X130488042Y-45326453D01*
X130558439Y-45341076D01*
X130628566Y-45353583D01*
X130688585Y-45364208D01*
X130781584Y-45381501D01*
X130902957Y-45404569D01*
X131048096Y-45432521D01*
X131212395Y-45464464D01*
X131391246Y-45499505D01*
X131580044Y-45536754D01*
X131774180Y-45575317D01*
X131793132Y-45579097D01*
X131946566Y-45609586D01*
X132133600Y-45646557D01*
X132350188Y-45689217D01*
X132592286Y-45736776D01*
X132855850Y-45788443D01*
X133136836Y-45843427D01*
X133431198Y-45900936D01*
X133734892Y-45960180D01*
X134043874Y-46020368D01*
X134354099Y-46080709D01*
X134661522Y-46140412D01*
X134869916Y-46180826D01*
X135234740Y-46251561D01*
X135563900Y-46315471D01*
X135859382Y-46372977D01*
X136123170Y-46424503D01*
X136357250Y-46470471D01*
X136563606Y-46511303D01*
X136744222Y-46547422D01*
X136901085Y-46579250D01*
X137036179Y-46607210D01*
X137151488Y-46631724D01*
X137248998Y-46653215D01*
X137330693Y-46672105D01*
X137398559Y-46688818D01*
X137454580Y-46703775D01*
X137500741Y-46717398D01*
X137539027Y-46730112D01*
X137571423Y-46742337D01*
X137599914Y-46754496D01*
X137626485Y-46767013D01*
X137628612Y-46768054D01*
X137745208Y-46839959D01*
X137858332Y-46935989D01*
X137957585Y-47045746D01*
X138032565Y-47158832D01*
X138045631Y-47184963D01*
X138074473Y-47243829D01*
X138097831Y-47285870D01*
X138110650Y-47301989D01*
X138110653Y-47301989D01*
X138131335Y-47291750D01*
X138170197Y-47265896D01*
X138185378Y-47254917D01*
X138222331Y-47225140D01*
X138280925Y-47174926D01*
X138356326Y-47108673D01*
X138443700Y-47030782D01*
X138538214Y-46945652D01*
X138635033Y-46857683D01*
X138729323Y-46771276D01*
X138816250Y-46690829D01*
X138890981Y-46620742D01*
X138948682Y-46565417D01*
X138984518Y-46529251D01*
X138991864Y-46520861D01*
X139022946Y-46452137D01*
X139027286Y-46366128D01*
X139007643Y-46270039D01*
X138966778Y-46171071D01*
X138907450Y-46076426D01*
X138832420Y-45993307D01*
X138771339Y-45945377D01*
X138728965Y-45920384D01*
X138677732Y-45896687D01*
X138613801Y-45873268D01*
X138533332Y-45849108D01*
X138432488Y-45823187D01*
X138307429Y-45794489D01*
X138154316Y-45761993D01*
X137969312Y-45724682D01*
X137854775Y-45702169D01*
X137341173Y-45601899D01*
X137346775Y-45727635D01*
X137352377Y-45853371D01*
X137505735Y-45884270D01*
X137638484Y-45914275D01*
X137734406Y-45944425D01*
X137794975Y-45976591D01*
X137821665Y-46012641D01*
X137815952Y-46054445D01*
X137779308Y-46103872D01*
X137720641Y-46156794D01*
X137626858Y-46232476D01*
X137556214Y-46286978D01*
X137502474Y-46323758D01*
X137459400Y-46346273D01*
X137420756Y-46357980D01*
X137380307Y-46362338D01*
X137348964Y-46362867D01*
X137315544Y-46359227D01*
X137248257Y-46348782D01*
X137150830Y-46332248D01*
X137026992Y-46310339D01*
X136880469Y-46283770D01*
X136714991Y-46253255D01*
X136534283Y-46219509D01*
X136342075Y-46183247D01*
X136142093Y-46145184D01*
X135938066Y-46106034D01*
X135733721Y-46066511D01*
X135532787Y-46027332D01*
X135338990Y-45989209D01*
X135156059Y-45952859D01*
X134987721Y-45918995D01*
X134837704Y-45888333D01*
X134709736Y-45861586D01*
X134607544Y-45839471D01*
X134547981Y-45825860D01*
X134453963Y-45801869D01*
X134391611Y-45780636D01*
X134354784Y-45758548D01*
X134337341Y-45731988D01*
X134333132Y-45699392D01*
X134342670Y-45668579D01*
X134374045Y-45629286D01*
X134378406Y-45625305D01*
X135119094Y-45625305D01*
X136024868Y-45810321D01*
X136207489Y-45847439D01*
X136379967Y-45882139D01*
X136538397Y-45913660D01*
X136678873Y-45941243D01*
X136797491Y-45964128D01*
X136890348Y-45981552D01*
X136953537Y-45992757D01*
X136983155Y-45996982D01*
X136983358Y-45996989D01*
X137036075Y-45998641D01*
X137036416Y-45150377D01*
X137036891Y-44966483D01*
X137038111Y-44788509D01*
X137039986Y-44621399D01*
X137042430Y-44470097D01*
X137045356Y-44339547D01*
X137048675Y-44234694D01*
X137048851Y-44231086D01*
X138258909Y-44231086D01*
X138272417Y-44314524D01*
X138303864Y-44435432D01*
X138354045Y-44538092D01*
X138418776Y-44615703D01*
X138483396Y-44657440D01*
X138550398Y-44673659D01*
X138620873Y-44662348D01*
X138640299Y-44655535D01*
X138702487Y-44621754D01*
X138759110Y-44573017D01*
X138806204Y-44516088D01*
X138839806Y-44457731D01*
X138855950Y-44404709D01*
X138850673Y-44363786D01*
X138823660Y-44342688D01*
X138791837Y-44335254D01*
X138731537Y-44322786D01*
X138651995Y-44307148D01*
X138579245Y-44293335D01*
X138488003Y-44276174D01*
X138405655Y-44260497D01*
X138342590Y-44248293D01*
X138313643Y-44242501D01*
X138258909Y-44231086D01*
X137048851Y-44231086D01*
X137052299Y-44160481D01*
X137054419Y-44134251D01*
X137078584Y-43995068D01*
X137123215Y-43865113D01*
X137193375Y-43730421D01*
X137211816Y-43700243D01*
X137227151Y-43667298D01*
X137227048Y-43652828D01*
X137205768Y-43646248D01*
X137151213Y-43633441D01*
X137067781Y-43615298D01*
X136959871Y-43592711D01*
X136831879Y-43566570D01*
X136688205Y-43537766D01*
X136533247Y-43507190D01*
X136371402Y-43475734D01*
X136207068Y-43444288D01*
X136073451Y-43419117D01*
X135911286Y-43389808D01*
X135781505Y-43369031D01*
X135679162Y-43356573D01*
X135599313Y-43352226D01*
X135537012Y-43355778D01*
X135487313Y-43367018D01*
X135445272Y-43385735D01*
X135434815Y-43391905D01*
X135365419Y-43448784D01*
X135293450Y-43531636D01*
X135227503Y-43629761D01*
X135194696Y-43690903D01*
X135177862Y-43738491D01*
X135163436Y-43807970D01*
X135151301Y-43901450D01*
X135141337Y-44021038D01*
X135133426Y-44168844D01*
X135127450Y-44346976D01*
X135123292Y-44557542D01*
X135120831Y-44802652D01*
X135120011Y-45021219D01*
X135119094Y-45625305D01*
X134378406Y-45625305D01*
X134431399Y-45576928D01*
X134478152Y-45538803D01*
X134561859Y-45473289D01*
X134623071Y-45428961D01*
X134668633Y-45402330D01*
X134705393Y-45389904D01*
X134740196Y-45388193D01*
X134767082Y-45391505D01*
X134831547Y-45401966D01*
X134831547Y-45277966D01*
X134827717Y-45197480D01*
X134816218Y-45154492D01*
X134807585Y-45147036D01*
X134783490Y-45141864D01*
X134723978Y-45129899D01*
X134631281Y-45111577D01*
X134507636Y-45087330D01*
X134355275Y-45057592D01*
X134176433Y-45022798D01*
X133973346Y-44983381D01*
X133748246Y-44939775D01*
X133503368Y-44892414D01*
X133240947Y-44841732D01*
X132963218Y-44788163D01*
X132672413Y-44732140D01*
X132512000Y-44701265D01*
X132307818Y-44662471D01*
X132136866Y-44631504D01*
X131994875Y-44608207D01*
X131877576Y-44592425D01*
X131780699Y-44584002D01*
X131699974Y-44582784D01*
X131631134Y-44588613D01*
X131569907Y-44601337D01*
X131512025Y-44620798D01*
X131453218Y-44646841D01*
X131423410Y-44661634D01*
X131364271Y-44693783D01*
X131284948Y-44739970D01*
X131190174Y-44797151D01*
X131084683Y-44862279D01*
X130973209Y-44932311D01*
X130860485Y-45004201D01*
X130751245Y-45074904D01*
X130650223Y-45141375D01*
X130562152Y-45200570D01*
X130491767Y-45249443D01*
X130443801Y-45284950D01*
X130422988Y-45304045D01*
X130422490Y-45305473D01*
X129788935Y-45305473D01*
X129861356Y-45257277D01*
X129977769Y-45180745D01*
X130108370Y-45095604D01*
X130248877Y-45004602D01*
X130395006Y-44910484D01*
X130542472Y-44815996D01*
X130686992Y-44723886D01*
X130824283Y-44636899D01*
X130950060Y-44557780D01*
X131060040Y-44489278D01*
X131149938Y-44434137D01*
X131215472Y-44395104D01*
X131247330Y-44377397D01*
X131376578Y-44319339D01*
X131503903Y-44280440D01*
X131637435Y-44259778D01*
X131785306Y-44256427D01*
X131955646Y-44269465D01*
X132067879Y-44284163D01*
X132121991Y-44293070D01*
X132209956Y-44308804D01*
X132328038Y-44330650D01*
X132472501Y-44357894D01*
X132639606Y-44389819D01*
X132825619Y-44425710D01*
X133026802Y-44464851D01*
X133239419Y-44506527D01*
X133459732Y-44550023D01*
X133552234Y-44568379D01*
X134831547Y-44822619D01*
X134832041Y-44456932D01*
X134834579Y-44234585D01*
X134841746Y-44046868D01*
X134853856Y-43890318D01*
X134871220Y-43761468D01*
X134894148Y-43656855D01*
X134907988Y-43612000D01*
X134976593Y-43459953D01*
X135070960Y-43319150D01*
X135184224Y-43197935D01*
X135309520Y-43104654D01*
X135338895Y-43088249D01*
X135377974Y-43069508D01*
X135418542Y-43054682D01*
X135463570Y-43044081D01*
X135516025Y-43038016D01*
X135578876Y-43036798D01*
X135655091Y-43040738D01*
G37*
%TO.C,U2*%
D13*
X103470000Y-65020000D02*
X103470000Y-66670000D01*
X103470000Y-68670000D02*
X103470000Y-70320000D01*
X103470000Y-70320000D02*
X123910000Y-70320000D01*
X123910000Y-65020000D02*
X103470000Y-65020000D01*
X123910000Y-70320000D02*
X123910000Y-65020000D01*
X103470000Y-66670000D02*
G75*
G02*
X103470000Y-68670000I0J-1000000D01*
G01*
%TO.C,R11*%
X177040000Y-37430000D02*
X177040000Y-40740000D01*
X177040000Y-50590000D02*
X177040000Y-47280000D01*
X175670000Y-40740000D02*
X178410000Y-40740000D01*
X178410000Y-47280000D01*
X175670000Y-47280000D01*
X175670000Y-40740000D01*
%TO.C,C6*%
X152970000Y-73460000D02*
X155710000Y-73460000D01*
X152970000Y-81200000D02*
X152970000Y-73460000D01*
X155710000Y-73460000D02*
X155710000Y-81200000D01*
X155710000Y-81200000D02*
X152970000Y-81200000D01*
%TO.C,C4*%
X107970000Y-40870000D02*
X115710000Y-40870000D01*
X107970000Y-43610000D02*
X107970000Y-40870000D01*
X115710000Y-40870000D02*
X115710000Y-43610000D01*
X115710000Y-43610000D02*
X107970000Y-43610000D01*
%TO.C,R5*%
X105140000Y-80260000D02*
X105140000Y-81210000D01*
X105140000Y-86000000D02*
X105140000Y-85050000D01*
X104220000Y-81210000D02*
X106060000Y-81210000D01*
X106060000Y-85050000D01*
X104220000Y-85050000D01*
X104220000Y-81210000D01*
%TO.C,J2*%
X183190000Y-75130000D02*
X183190000Y-76380000D01*
X183190000Y-76380000D02*
X184440000Y-76380000D01*
X185740000Y-65980000D02*
X185740000Y-66730000D01*
X185740000Y-66730000D02*
X188690000Y-66730000D01*
X185740000Y-75330000D02*
X188690000Y-75330000D01*
X185740000Y-76080000D02*
X185740000Y-75330000D01*
X188690000Y-66730000D02*
X188690000Y-71030000D01*
X188690000Y-75330000D02*
X188690000Y-71030000D01*
X183480000Y-65970000D02*
X189450000Y-65970000D01*
X189450000Y-76090000D01*
X183480000Y-76090000D01*
X183480000Y-65970000D01*
X183490000Y-65980000D02*
X184240000Y-65980000D01*
X184240000Y-67780000D01*
X183490000Y-67780000D01*
X183490000Y-65980000D01*
X183490000Y-69280000D02*
X184240000Y-69280000D01*
X184240000Y-72780000D01*
X183490000Y-72780000D01*
X183490000Y-69280000D01*
X183490000Y-74280000D02*
X184240000Y-74280000D01*
X184240000Y-76080000D01*
X183490000Y-76080000D01*
X183490000Y-74280000D01*
%TO.C,JP3*%
D12*
X163630000Y-47340000D02*
X164130000Y-46840000D01*
X163630000Y-48140000D02*
X163630000Y-47340000D01*
X164130000Y-46840000D02*
X167730000Y-46840000D01*
X164130000Y-48640000D02*
X163630000Y-48140000D01*
X167730000Y-46840000D02*
X168230000Y-47340000D01*
X167730000Y-48640000D02*
X164130000Y-48640000D01*
X168230000Y-47340000D02*
X168230000Y-48140000D01*
X168230000Y-48140000D02*
X167730000Y-48640000D01*
%TO.C,R3*%
D13*
X115140000Y-80260000D02*
X115140000Y-81210000D01*
X115140000Y-86000000D02*
X115140000Y-85050000D01*
X114220000Y-81210000D02*
X116060000Y-81210000D01*
X116060000Y-85050000D01*
X114220000Y-85050000D01*
X114220000Y-81210000D01*
%TO.C,R1*%
X125140000Y-80260000D02*
X125140000Y-81210000D01*
X125140000Y-86000000D02*
X125140000Y-85050000D01*
X124220000Y-81210000D02*
X126060000Y-81210000D01*
X126060000Y-85050000D01*
X124220000Y-85050000D01*
X124220000Y-81210000D01*
%TO.C,JP1*%
D12*
X179190000Y-53270000D02*
X179690000Y-52770000D01*
X179190000Y-56870000D02*
X179190000Y-53270000D01*
X179690000Y-52770000D02*
X180490000Y-52770000D01*
X179690000Y-57370000D02*
X179190000Y-56870000D01*
X180490000Y-52770000D02*
X180990000Y-53270000D01*
X180490000Y-57370000D02*
X179690000Y-57370000D01*
X180990000Y-53270000D02*
X180990000Y-56870000D01*
X180990000Y-56870000D02*
X180490000Y-57370000D01*
%TO.C,J3*%
D13*
X183190000Y-60630000D02*
X183190000Y-61880000D01*
X183190000Y-61880000D02*
X184440000Y-61880000D01*
X185740000Y-51480000D02*
X185740000Y-52230000D01*
X185740000Y-52230000D02*
X188690000Y-52230000D01*
X185740000Y-60830000D02*
X188690000Y-60830000D01*
X185740000Y-61580000D02*
X185740000Y-60830000D01*
X188690000Y-52230000D02*
X188690000Y-56530000D01*
X188690000Y-60830000D02*
X188690000Y-56530000D01*
X183480000Y-51470000D02*
X189450000Y-51470000D01*
X189450000Y-61590000D01*
X183480000Y-61590000D01*
X183480000Y-51470000D01*
X183490000Y-51480000D02*
X184240000Y-51480000D01*
X184240000Y-53280000D01*
X183490000Y-53280000D01*
X183490000Y-51480000D01*
X183490000Y-54780000D02*
X184240000Y-54780000D01*
X184240000Y-58280000D01*
X183490000Y-58280000D01*
X183490000Y-54780000D01*
X183490000Y-59780000D02*
X184240000Y-59780000D01*
X184240000Y-61580000D01*
X183490000Y-61580000D01*
X183490000Y-59780000D01*
%TO.C,J6*%
X107020000Y-32700000D02*
X107020000Y-31320000D01*
X108400000Y-32700000D02*
X107020000Y-32700000D01*
X109670000Y-29940000D02*
X112320000Y-29940000D01*
X109670000Y-32700000D02*
X109670000Y-29940000D01*
X109670000Y-32700000D02*
X112320000Y-32700000D01*
X112320000Y-32700000D02*
X112320000Y-29940000D01*
%TO.C,C11*%
X169300000Y-59830000D02*
X177040000Y-59830000D01*
X169300000Y-62570000D02*
X169300000Y-59830000D01*
X177040000Y-59830000D02*
X177040000Y-62570000D01*
X177040000Y-62570000D02*
X169300000Y-62570000D01*
%TO.C,JPWR01*%
X160450000Y-85330000D02*
X160450000Y-89330000D01*
X160740000Y-82110000D02*
X168740000Y-82110000D01*
X160740000Y-91335000D02*
X160740000Y-82110000D01*
X161960000Y-82110000D02*
X161960000Y-82710000D01*
X161960000Y-82710000D02*
X163560000Y-82710000D01*
X162645000Y-91335000D02*
X160740000Y-91335000D01*
X162645000Y-92340000D02*
X162645000Y-91335000D01*
X162760000Y-89670000D02*
X166720000Y-89670000D01*
X162760000Y-91340000D02*
X162760000Y-89670000D01*
X162760000Y-91340000D02*
X166720000Y-91340000D01*
X162760000Y-92340000D02*
X162760000Y-91340000D01*
X163560000Y-82710000D02*
X163560000Y-82110000D01*
X165920000Y-82110000D02*
X165920000Y-82710000D01*
X165920000Y-82710000D02*
X167520000Y-82710000D01*
X166720000Y-89670000D02*
X166720000Y-91340000D01*
X166720000Y-91340000D02*
X166720000Y-92340000D01*
X166835000Y-91335000D02*
X166835000Y-92340000D01*
X166835000Y-92340000D02*
X162645000Y-92340000D01*
X167520000Y-82710000D02*
X167520000Y-82110000D01*
X168740000Y-82110000D02*
X168740000Y-91335000D01*
X168740000Y-91335000D02*
X166835000Y-91335000D01*
%TO.C,C3*%
X155570000Y-63160000D02*
X158310000Y-63160000D01*
X155570000Y-70900000D02*
X155570000Y-63160000D01*
X158310000Y-63160000D02*
X158310000Y-70900000D01*
X158310000Y-70900000D02*
X155570000Y-70900000D01*
%TO.C,R9*%
X143070000Y-60260000D02*
X143070000Y-66800000D01*
X143070000Y-66800000D02*
X143400000Y-66800000D01*
X143400000Y-60260000D02*
X143070000Y-60260000D01*
X145480000Y-60260000D02*
X145810000Y-60260000D01*
X145810000Y-60260000D02*
X145810000Y-66800000D01*
X145810000Y-66800000D02*
X145480000Y-66800000D01*
%TO.C,R8*%
X148570000Y-62570000D02*
X148570000Y-69110000D01*
X148570000Y-69110000D02*
X148900000Y-69110000D01*
X148900000Y-62570000D02*
X148570000Y-62570000D01*
X150980000Y-62570000D02*
X151310000Y-62570000D01*
X151310000Y-62570000D02*
X151310000Y-69110000D01*
X151310000Y-69110000D02*
X150980000Y-69110000D01*
%TO.C,R10*%
X157870000Y-61210000D02*
X158820000Y-61210000D01*
X163610000Y-61210000D02*
X162660000Y-61210000D01*
X158820000Y-60290000D02*
X162660000Y-60290000D01*
X162660000Y-62130000D01*
X158820000Y-62130000D01*
X158820000Y-60290000D01*
%TO.C,J5*%
X106115000Y-91225000D02*
X106115000Y-92475000D01*
X106415000Y-93775000D02*
X107165000Y-93775000D01*
X107165000Y-93775000D02*
X107165000Y-96725000D01*
X107165000Y-96725000D02*
X115215000Y-96725000D01*
X107365000Y-91225000D02*
X106115000Y-91225000D01*
X123265000Y-93775000D02*
X123265000Y-96725000D01*
X123265000Y-96725000D02*
X115215000Y-96725000D01*
X124015000Y-93775000D02*
X123265000Y-93775000D01*
X106405000Y-91515000D02*
X124025000Y-91515000D01*
X124025000Y-97485000D01*
X106405000Y-97485000D01*
X106405000Y-91515000D01*
X106415000Y-91525000D02*
X108215000Y-91525000D01*
X108215000Y-92275000D01*
X106415000Y-92275000D01*
X106415000Y-91525000D01*
X109715000Y-91525000D02*
X120715000Y-91525000D01*
X120715000Y-92275000D01*
X109715000Y-92275000D01*
X109715000Y-91525000D01*
X122215000Y-91525000D02*
X124015000Y-91525000D01*
X124015000Y-92275000D01*
X122215000Y-92275000D01*
X122215000Y-91525000D01*
%TO.C,C2*%
X130742677Y-73655000D02*
X131742677Y-73655000D01*
X131242677Y-73155000D02*
X131242677Y-74155000D01*
X136222323Y-71450000D02*
X136222323Y-81610000D01*
X136262323Y-71450000D02*
X136262323Y-81610000D01*
X136302323Y-71451000D02*
X136302323Y-81609000D01*
X136342323Y-71451000D02*
X136342323Y-81609000D01*
X136382323Y-71453000D02*
X136382323Y-81607000D01*
X136422323Y-71454000D02*
X136422323Y-81606000D01*
X136462323Y-71456000D02*
X136462323Y-81604000D01*
X136502323Y-71458000D02*
X136502323Y-81602000D01*
X136542323Y-71460000D02*
X136542323Y-81600000D01*
X136582323Y-71463000D02*
X136582323Y-81597000D01*
X136622323Y-71466000D02*
X136622323Y-81594000D01*
X136662323Y-71469000D02*
X136662323Y-81591000D01*
X136702323Y-71473000D02*
X136702323Y-81587000D01*
X136742323Y-71476000D02*
X136742323Y-81584000D01*
X136782323Y-71481000D02*
X136782323Y-81579000D01*
X136822323Y-71485000D02*
X136822323Y-81575000D01*
X136862323Y-71490000D02*
X136862323Y-81570000D01*
X136902323Y-71495000D02*
X136902323Y-81565000D01*
X136942323Y-71501000D02*
X136942323Y-81559000D01*
X136982323Y-71507000D02*
X136982323Y-81553000D01*
X137022323Y-71513000D02*
X137022323Y-81547000D01*
X137062323Y-71519000D02*
X137062323Y-81541000D01*
X137102323Y-71526000D02*
X137102323Y-81534000D01*
X137142323Y-71533000D02*
X137142323Y-81527000D01*
X137182323Y-71541000D02*
X137182323Y-81519000D01*
X137222323Y-71549000D02*
X137222323Y-81511000D01*
X137262323Y-71557000D02*
X137262323Y-81503000D01*
X137302323Y-71565000D02*
X137302323Y-81495000D01*
X137342323Y-71574000D02*
X137342323Y-81486000D01*
X137382323Y-71583000D02*
X137382323Y-81477000D01*
X137422323Y-71593000D02*
X137422323Y-81467000D01*
X137462323Y-71602000D02*
X137462323Y-81458000D01*
X137502323Y-71613000D02*
X137502323Y-75290000D01*
X137502323Y-77770000D02*
X137502323Y-81447000D01*
X137542323Y-71623000D02*
X137542323Y-75290000D01*
X137542323Y-77770000D02*
X137542323Y-81437000D01*
X137582323Y-71634000D02*
X137582323Y-75290000D01*
X137582323Y-77770000D02*
X137582323Y-81426000D01*
X137622323Y-71645000D02*
X137622323Y-75290000D01*
X137622323Y-77770000D02*
X137622323Y-81415000D01*
X137662323Y-71657000D02*
X137662323Y-75290000D01*
X137662323Y-77770000D02*
X137662323Y-81403000D01*
X137702323Y-71669000D02*
X137702323Y-75290000D01*
X137702323Y-77770000D02*
X137702323Y-81391000D01*
X137742323Y-71681000D02*
X137742323Y-75290000D01*
X137742323Y-77770000D02*
X137742323Y-81379000D01*
X137782323Y-71693000D02*
X137782323Y-75290000D01*
X137782323Y-77770000D02*
X137782323Y-81367000D01*
X137822323Y-71706000D02*
X137822323Y-75290000D01*
X137822323Y-77770000D02*
X137822323Y-81354000D01*
X137862323Y-71720000D02*
X137862323Y-75290000D01*
X137862323Y-77770000D02*
X137862323Y-81340000D01*
X137902323Y-71733000D02*
X137902323Y-75290000D01*
X137902323Y-77770000D02*
X137902323Y-81327000D01*
X137942323Y-71748000D02*
X137942323Y-75290000D01*
X137942323Y-77770000D02*
X137942323Y-81312000D01*
X137982323Y-71762000D02*
X137982323Y-75290000D01*
X137982323Y-77770000D02*
X137982323Y-81298000D01*
X138022323Y-71777000D02*
X138022323Y-75290000D01*
X138022323Y-77770000D02*
X138022323Y-81283000D01*
X138062323Y-71792000D02*
X138062323Y-75290000D01*
X138062323Y-77770000D02*
X138062323Y-81268000D01*
X138102323Y-71808000D02*
X138102323Y-75290000D01*
X138102323Y-77770000D02*
X138102323Y-81252000D01*
X138142323Y-71824000D02*
X138142323Y-75290000D01*
X138142323Y-77770000D02*
X138142323Y-81236000D01*
X138182323Y-71840000D02*
X138182323Y-75290000D01*
X138182323Y-79770000D02*
X138182323Y-81220000D01*
X138222323Y-71857000D02*
X138222323Y-75290000D01*
X138222323Y-79770000D02*
X138222323Y-81203000D01*
X138262323Y-71874000D02*
X138262323Y-75290000D01*
X138262323Y-79770000D02*
X138262323Y-81186000D01*
X138302323Y-71892000D02*
X138302323Y-75290000D01*
X138302323Y-79770000D02*
X138302323Y-81168000D01*
X138342323Y-71910000D02*
X138342323Y-75290000D01*
X138342323Y-79770000D02*
X138342323Y-81150000D01*
X138382323Y-71928000D02*
X138382323Y-75290000D01*
X138382323Y-79770000D02*
X138382323Y-81132000D01*
X138422323Y-71947000D02*
X138422323Y-75290000D01*
X138422323Y-79770000D02*
X138422323Y-81113000D01*
X138462323Y-71966000D02*
X138462323Y-75290000D01*
X138462323Y-79770000D02*
X138462323Y-81094000D01*
X138502323Y-71986000D02*
X138502323Y-75290000D01*
X138502323Y-79770000D02*
X138502323Y-81074000D01*
X138542323Y-72006000D02*
X138542323Y-75290000D01*
X138542323Y-79770000D02*
X138542323Y-81054000D01*
X138582323Y-72026000D02*
X138582323Y-75290000D01*
X138582323Y-79770000D02*
X138582323Y-81034000D01*
X138622323Y-72047000D02*
X138622323Y-75290000D01*
X138622323Y-79770000D02*
X138622323Y-81013000D01*
X138662323Y-72069000D02*
X138662323Y-75290000D01*
X138662323Y-79770000D02*
X138662323Y-80991000D01*
X138702323Y-72091000D02*
X138702323Y-75290000D01*
X138702323Y-79770000D02*
X138702323Y-80969000D01*
X138742323Y-72113000D02*
X138742323Y-75290000D01*
X138742323Y-79770000D02*
X138742323Y-80947000D01*
X138782323Y-72136000D02*
X138782323Y-75290000D01*
X138782323Y-79770000D02*
X138782323Y-80924000D01*
X138822323Y-72159000D02*
X138822323Y-75290000D01*
X138822323Y-79770000D02*
X138822323Y-80901000D01*
X138862323Y-72183000D02*
X138862323Y-75290000D01*
X138862323Y-79770000D02*
X138862323Y-80877000D01*
X138902323Y-72207000D02*
X138902323Y-75290000D01*
X138902323Y-79770000D02*
X138902323Y-80853000D01*
X138942323Y-72232000D02*
X138942323Y-75290000D01*
X138942323Y-79770000D02*
X138942323Y-80828000D01*
X138982323Y-72258000D02*
X138982323Y-75290000D01*
X138982323Y-79770000D02*
X138982323Y-80802000D01*
X139022323Y-72283000D02*
X139022323Y-75290000D01*
X139022323Y-79770000D02*
X139022323Y-80777000D01*
X139062323Y-72310000D02*
X139062323Y-75290000D01*
X139062323Y-79770000D02*
X139062323Y-80750000D01*
X139102323Y-72337000D02*
X139102323Y-75290000D01*
X139102323Y-79770000D02*
X139102323Y-80723000D01*
X139142323Y-72364000D02*
X139142323Y-75290000D01*
X139142323Y-79770000D02*
X139142323Y-80696000D01*
X139182323Y-72392000D02*
X139182323Y-75290000D01*
X139182323Y-79770000D02*
X139182323Y-80668000D01*
X139222323Y-72421000D02*
X139222323Y-75290000D01*
X139222323Y-79770000D02*
X139222323Y-80639000D01*
X139262323Y-72450000D02*
X139262323Y-75290000D01*
X139262323Y-79770000D02*
X139262323Y-80610000D01*
X139302323Y-72480000D02*
X139302323Y-75290000D01*
X139302323Y-79770000D02*
X139302323Y-80580000D01*
X139342323Y-72510000D02*
X139342323Y-75290000D01*
X139342323Y-79770000D02*
X139342323Y-80550000D01*
X139382323Y-72542000D02*
X139382323Y-75290000D01*
X139382323Y-79770000D02*
X139382323Y-80518000D01*
X139422323Y-72573000D02*
X139422323Y-75290000D01*
X139422323Y-79770000D02*
X139422323Y-80487000D01*
X139462323Y-72606000D02*
X139462323Y-75290000D01*
X139462323Y-79770000D02*
X139462323Y-80454000D01*
X139502323Y-72639000D02*
X139502323Y-75290000D01*
X139502323Y-79770000D02*
X139502323Y-80421000D01*
X139542323Y-72672000D02*
X139542323Y-75290000D01*
X139542323Y-79770000D02*
X139542323Y-80388000D01*
X139582323Y-72707000D02*
X139582323Y-75290000D01*
X139582323Y-79770000D02*
X139582323Y-80353000D01*
X139622323Y-72742000D02*
X139622323Y-75290000D01*
X139622323Y-79770000D02*
X139622323Y-80318000D01*
X139662323Y-72778000D02*
X139662323Y-75290000D01*
X139662323Y-79770000D02*
X139662323Y-80282000D01*
X139702323Y-72814000D02*
X139702323Y-75290000D01*
X139702323Y-79770000D02*
X139702323Y-80246000D01*
X139742323Y-72852000D02*
X139742323Y-75290000D01*
X139742323Y-79770000D02*
X139742323Y-80208000D01*
X139782323Y-72890000D02*
X139782323Y-75290000D01*
X139782323Y-79770000D02*
X139782323Y-80170000D01*
X139822323Y-72929000D02*
X139822323Y-75290000D01*
X139822323Y-79770000D02*
X139822323Y-80131000D01*
X139862323Y-72969000D02*
X139862323Y-75290000D01*
X139862323Y-79770000D02*
X139862323Y-80091000D01*
X139902323Y-73010000D02*
X139902323Y-75290000D01*
X139902323Y-79770000D02*
X139902323Y-80050000D01*
X139942323Y-73052000D02*
X139942323Y-75290000D01*
X139942323Y-79770000D02*
X139942323Y-80008000D01*
X139982323Y-73095000D02*
X139982323Y-77290000D01*
X139982323Y-79770000D02*
X139982323Y-79965000D01*
X140022323Y-73139000D02*
X140022323Y-77290000D01*
X140022323Y-79770000D02*
X140022323Y-79921000D01*
X140062323Y-73183000D02*
X140062323Y-77290000D01*
X140062323Y-79770000D02*
X140062323Y-79877000D01*
X140102323Y-73229000D02*
X140102323Y-77290000D01*
X140102323Y-79770000D02*
X140102323Y-79831000D01*
X140142323Y-73276000D02*
X140142323Y-77290000D01*
X140182323Y-73325000D02*
X140182323Y-77290000D01*
X140222323Y-73374000D02*
X140222323Y-77290000D01*
X140262323Y-73425000D02*
X140262323Y-77290000D01*
X140302323Y-73477000D02*
X140302323Y-77290000D01*
X140342323Y-73530000D02*
X140342323Y-77290000D01*
X140382323Y-73585000D02*
X140382323Y-77290000D01*
X140422323Y-73642000D02*
X140422323Y-77290000D01*
X140462323Y-73700000D02*
X140462323Y-77290000D01*
X140502323Y-73760000D02*
X140502323Y-77290000D01*
X140542323Y-73822000D02*
X140542323Y-77290000D01*
X140582323Y-73886000D02*
X140582323Y-77290000D01*
X140622323Y-73952000D02*
X140622323Y-77290000D01*
X140662323Y-74020000D02*
X140662323Y-79040000D01*
X140702323Y-74091000D02*
X140702323Y-78969000D01*
X140742323Y-74165000D02*
X140742323Y-78895000D01*
X140782323Y-74242000D02*
X140782323Y-78818000D01*
X140822323Y-74322000D02*
X140822323Y-78738000D01*
X140862323Y-74406000D02*
X140862323Y-78654000D01*
X140902323Y-74493000D02*
X140902323Y-78567000D01*
X140942323Y-74586000D02*
X140942323Y-78474000D01*
X140982323Y-74684000D02*
X140982323Y-78376000D01*
X141022323Y-74788000D02*
X141022323Y-78272000D01*
X141062323Y-74900000D02*
X141062323Y-78160000D01*
X141102323Y-75021000D02*
X141102323Y-78039000D01*
X141142323Y-75153000D02*
X141142323Y-77907000D01*
X141182323Y-75300000D02*
X141182323Y-77760000D01*
X141222323Y-75468000D02*
X141222323Y-77592000D01*
X141262323Y-75668000D02*
X141262323Y-77392000D01*
X141302323Y-75931000D02*
X141302323Y-77129000D01*
X132274311Y-73270000D02*
G75*
G02*
X131397419Y-74816902I3948012J-3260000D01*
G01*
%TO.C,R7*%
X160670000Y-73360000D02*
X167210000Y-73360000D01*
X160670000Y-73690000D02*
X160670000Y-73360000D01*
X160670000Y-75770000D02*
X160670000Y-76100000D01*
X160670000Y-76100000D02*
X167210000Y-76100000D01*
X167210000Y-73360000D02*
X167210000Y-73690000D01*
X167210000Y-76100000D02*
X167210000Y-75770000D01*
%TO.C,C5*%
X106210302Y-54185000D02*
X107010302Y-54185000D01*
X106610302Y-53785000D02*
X106610302Y-54585000D01*
X110620000Y-52420000D02*
X110620000Y-60580000D01*
X110660000Y-52420000D02*
X110660000Y-60580000D01*
X110700000Y-52421000D02*
X110700000Y-60579000D01*
X110740000Y-52422000D02*
X110740000Y-60578000D01*
X110780000Y-52423000D02*
X110780000Y-60577000D01*
X110820000Y-52425000D02*
X110820000Y-60575000D01*
X110860000Y-52427000D02*
X110860000Y-60573000D01*
X110900000Y-52430000D02*
X110900000Y-60570000D01*
X110940000Y-52432000D02*
X110940000Y-60568000D01*
X110980000Y-52436000D02*
X110980000Y-60564000D01*
X111020000Y-52439000D02*
X111020000Y-60561000D01*
X111060000Y-52444000D02*
X111060000Y-60556000D01*
X111100000Y-52448000D02*
X111100000Y-60552000D01*
X111140000Y-52453000D02*
X111140000Y-60547000D01*
X111180000Y-52458000D02*
X111180000Y-60542000D01*
X111220000Y-52464000D02*
X111220000Y-60536000D01*
X111260000Y-52470000D02*
X111260000Y-60530000D01*
X111300000Y-52477000D02*
X111300000Y-60523000D01*
X111340000Y-52483000D02*
X111340000Y-60517000D01*
X111380000Y-52491000D02*
X111380000Y-60509000D01*
X111420000Y-52498000D02*
X111420000Y-60502000D01*
X111460000Y-52507000D02*
X111460000Y-60493000D01*
X111500000Y-52515000D02*
X111500000Y-60485000D01*
X111540000Y-52524000D02*
X111540000Y-60476000D01*
X111580000Y-52533000D02*
X111580000Y-60467000D01*
X111620000Y-52543000D02*
X111620000Y-60457000D01*
X111660000Y-52553000D02*
X111660000Y-60447000D01*
X111700000Y-52564000D02*
X111700000Y-60436000D01*
X111740000Y-52575000D02*
X111740000Y-60425000D01*
X111780000Y-52587000D02*
X111780000Y-60413000D01*
X111820000Y-52599000D02*
X111820000Y-60401000D01*
X111860000Y-52611000D02*
X111860000Y-60389000D01*
X111900000Y-52624000D02*
X111900000Y-60376000D01*
X111940000Y-52637000D02*
X111940000Y-60363000D01*
X111980000Y-52651000D02*
X111980000Y-60349000D01*
X112020000Y-52665000D02*
X112020000Y-60335000D01*
X112060000Y-52680000D02*
X112060000Y-60320000D01*
X112100000Y-52695000D02*
X112100000Y-55460000D01*
X112100000Y-57540000D02*
X112100000Y-60305000D01*
X112140000Y-52711000D02*
X112140000Y-55460000D01*
X112140000Y-57540000D02*
X112140000Y-60289000D01*
X112180000Y-52727000D02*
X112180000Y-55460000D01*
X112180000Y-57540000D02*
X112180000Y-60273000D01*
X112220000Y-52743000D02*
X112220000Y-55460000D01*
X112220000Y-57540000D02*
X112220000Y-60257000D01*
X112260000Y-52760000D02*
X112260000Y-55460000D01*
X112260000Y-57540000D02*
X112260000Y-60240000D01*
X112300000Y-52778000D02*
X112300000Y-55460000D01*
X112300000Y-57540000D02*
X112300000Y-60222000D01*
X112340000Y-52796000D02*
X112340000Y-55460000D01*
X112340000Y-57540000D02*
X112340000Y-60204000D01*
X112380000Y-52815000D02*
X112380000Y-55460000D01*
X112380000Y-57540000D02*
X112380000Y-60185000D01*
X112420000Y-52834000D02*
X112420000Y-55460000D01*
X112420000Y-57540000D02*
X112420000Y-60166000D01*
X112460000Y-52854000D02*
X112460000Y-55460000D01*
X112460000Y-57540000D02*
X112460000Y-60146000D01*
X112500000Y-52874000D02*
X112500000Y-55460000D01*
X112500000Y-57540000D02*
X112500000Y-60126000D01*
X112540000Y-52895000D02*
X112540000Y-55460000D01*
X112540000Y-57540000D02*
X112540000Y-60105000D01*
X112580000Y-52916000D02*
X112580000Y-55460000D01*
X112580000Y-57540000D02*
X112580000Y-60084000D01*
X112620000Y-52938000D02*
X112620000Y-55460000D01*
X112620000Y-57540000D02*
X112620000Y-60062000D01*
X112660000Y-52961000D02*
X112660000Y-55460000D01*
X112660000Y-57540000D02*
X112660000Y-60039000D01*
X112700000Y-52984000D02*
X112700000Y-55460000D01*
X112700000Y-57540000D02*
X112700000Y-60016000D01*
X112740000Y-53007000D02*
X112740000Y-55460000D01*
X112740000Y-57540000D02*
X112740000Y-59993000D01*
X112780000Y-53032000D02*
X112780000Y-55460000D01*
X112780000Y-57540000D02*
X112780000Y-59968000D01*
X112820000Y-53057000D02*
X112820000Y-55460000D01*
X112820000Y-57540000D02*
X112820000Y-59943000D01*
X112860000Y-53082000D02*
X112860000Y-55460000D01*
X112860000Y-57540000D02*
X112860000Y-59918000D01*
X112900000Y-53108000D02*
X112900000Y-55460000D01*
X112900000Y-57540000D02*
X112900000Y-59892000D01*
X112940000Y-53135000D02*
X112940000Y-55460000D01*
X112940000Y-57540000D02*
X112940000Y-59865000D01*
X112980000Y-53163000D02*
X112980000Y-55460000D01*
X112980000Y-57540000D02*
X112980000Y-59837000D01*
X113020000Y-53191000D02*
X113020000Y-55460000D01*
X113020000Y-57540000D02*
X113020000Y-59809000D01*
X113060000Y-53220000D02*
X113060000Y-55460000D01*
X113060000Y-57540000D02*
X113060000Y-59780000D01*
X113100000Y-53250000D02*
X113100000Y-55460000D01*
X113100000Y-57540000D02*
X113100000Y-59750000D01*
X113140000Y-53281000D02*
X113140000Y-55460000D01*
X113140000Y-57540000D02*
X113140000Y-59719000D01*
X113180000Y-53312000D02*
X113180000Y-55460000D01*
X113180000Y-57540000D02*
X113180000Y-59688000D01*
X113220000Y-53344000D02*
X113220000Y-55460000D01*
X113220000Y-57540000D02*
X113220000Y-59656000D01*
X113260000Y-53377000D02*
X113260000Y-55460000D01*
X113260000Y-57540000D02*
X113260000Y-59623000D01*
X113300000Y-53411000D02*
X113300000Y-55460000D01*
X113300000Y-57540000D02*
X113300000Y-59589000D01*
X113340000Y-53445000D02*
X113340000Y-55460000D01*
X113340000Y-57540000D02*
X113340000Y-59555000D01*
X113380000Y-53481000D02*
X113380000Y-55460000D01*
X113380000Y-57540000D02*
X113380000Y-59519000D01*
X113420000Y-53518000D02*
X113420000Y-55460000D01*
X113420000Y-57540000D02*
X113420000Y-59482000D01*
X113460000Y-53555000D02*
X113460000Y-55460000D01*
X113460000Y-57540000D02*
X113460000Y-59445000D01*
X113500000Y-53594000D02*
X113500000Y-55460000D01*
X113500000Y-57540000D02*
X113500000Y-59406000D01*
X113540000Y-53633000D02*
X113540000Y-55460000D01*
X113540000Y-57540000D02*
X113540000Y-59367000D01*
X113580000Y-53674000D02*
X113580000Y-55460000D01*
X113580000Y-57540000D02*
X113580000Y-59326000D01*
X113620000Y-53716000D02*
X113620000Y-55460000D01*
X113620000Y-57540000D02*
X113620000Y-59284000D01*
X113660000Y-53759000D02*
X113660000Y-55460000D01*
X113660000Y-57540000D02*
X113660000Y-59241000D01*
X113700000Y-53804000D02*
X113700000Y-55460000D01*
X113700000Y-57540000D02*
X113700000Y-59196000D01*
X113740000Y-53849000D02*
X113740000Y-55460000D01*
X113740000Y-57540000D02*
X113740000Y-59151000D01*
X113780000Y-53896000D02*
X113780000Y-55460000D01*
X113780000Y-57540000D02*
X113780000Y-59104000D01*
X113820000Y-53945000D02*
X113820000Y-55460000D01*
X113820000Y-57540000D02*
X113820000Y-59055000D01*
X113860000Y-53995000D02*
X113860000Y-55460000D01*
X113860000Y-57540000D02*
X113860000Y-59005000D01*
X113900000Y-54047000D02*
X113900000Y-55460000D01*
X113900000Y-57540000D02*
X113900000Y-58953000D01*
X113940000Y-54100000D02*
X113940000Y-55460000D01*
X113940000Y-57540000D02*
X113940000Y-58900000D01*
X113980000Y-54156000D02*
X113980000Y-55460000D01*
X113980000Y-57540000D02*
X113980000Y-58844000D01*
X114020000Y-54213000D02*
X114020000Y-55460000D01*
X114020000Y-57540000D02*
X114020000Y-58787000D01*
X114060000Y-54273000D02*
X114060000Y-55460000D01*
X114060000Y-57540000D02*
X114060000Y-58727000D01*
X114100000Y-54335000D02*
X114100000Y-55460000D01*
X114100000Y-57540000D02*
X114100000Y-58665000D01*
X114140000Y-54399000D02*
X114140000Y-55460000D01*
X114140000Y-57540000D02*
X114140000Y-58601000D01*
X114180000Y-54466000D02*
X114180000Y-58534000D01*
X114220000Y-54536000D02*
X114220000Y-58464000D01*
X114260000Y-54610000D02*
X114260000Y-58390000D01*
X114300000Y-54687000D02*
X114300000Y-58313000D01*
X114340000Y-54769000D02*
X114340000Y-58231000D01*
X114380000Y-54856000D02*
X114380000Y-58144000D01*
X114420000Y-54948000D02*
X114420000Y-58052000D01*
X114460000Y-55047000D02*
X114460000Y-57953000D01*
X114500000Y-55154000D02*
X114500000Y-57846000D01*
X114540000Y-55272000D02*
X114540000Y-57728000D01*
X114580000Y-55403000D02*
X114580000Y-57597000D01*
X114620000Y-55553000D02*
X114620000Y-57447000D01*
X114660000Y-55732000D02*
X114660000Y-57268000D01*
X114700000Y-55967000D02*
X114700000Y-57033000D01*
X114740000Y-56500000D02*
G75*
G02*
X106500000Y-56500000I-4120000J0D01*
G01*
X106500000Y-56500000D02*
G75*
G02*
X114740000Y-56500000I4120000J0D01*
G01*
%TO.C,JPWR02*%
X132400000Y-67590000D02*
X132400000Y-68840000D01*
X132400000Y-68840000D02*
X133650000Y-68840000D01*
X134950000Y-60940000D02*
X134950000Y-61690000D01*
X134950000Y-61690000D02*
X137900000Y-61690000D01*
X134950000Y-67790000D02*
X137900000Y-67790000D01*
X134950000Y-68540000D02*
X134950000Y-67790000D01*
X137900000Y-61690000D02*
X137900000Y-64740000D01*
X137900000Y-67790000D02*
X137900000Y-64740000D01*
X132690000Y-60930000D02*
X138660000Y-60930000D01*
X138660000Y-68550000D01*
X132690000Y-68550000D01*
X132690000Y-60930000D01*
X132700000Y-60940000D02*
X133450000Y-60940000D01*
X133450000Y-62740000D01*
X132700000Y-62740000D01*
X132700000Y-60940000D01*
X132700000Y-64240000D02*
X133450000Y-64240000D01*
X133450000Y-65240000D01*
X132700000Y-65240000D01*
X132700000Y-64240000D01*
X132700000Y-66740000D02*
X133450000Y-66740000D01*
X133450000Y-68540000D01*
X132700000Y-68540000D01*
X132700000Y-66740000D01*
%TO.C,R6*%
X146970000Y-84060000D02*
X147300000Y-84060000D01*
X146970000Y-90600000D02*
X146970000Y-84060000D01*
X147300000Y-90600000D02*
X146970000Y-90600000D01*
X149380000Y-90600000D02*
X149710000Y-90600000D01*
X149710000Y-84060000D02*
X149380000Y-84060000D01*
X149710000Y-90600000D02*
X149710000Y-84060000D01*
%TO.C,R4*%
X110140000Y-80260000D02*
X110140000Y-81210000D01*
X110140000Y-86000000D02*
X110140000Y-85050000D01*
X109220000Y-81210000D02*
X111060000Y-81210000D01*
X111060000Y-85050000D01*
X109220000Y-85050000D01*
X109220000Y-81210000D01*
%TO.C,JP2*%
D12*
X178715000Y-67795000D02*
X179215000Y-67295000D01*
X178715000Y-71395000D02*
X178715000Y-67795000D01*
X179215000Y-67295000D02*
X180015000Y-67295000D01*
X179215000Y-71895000D02*
X178715000Y-71395000D01*
X180015000Y-67295000D02*
X180515000Y-67795000D01*
X180015000Y-71895000D02*
X179215000Y-71895000D01*
X180515000Y-67795000D02*
X180515000Y-71395000D01*
X180515000Y-71395000D02*
X180015000Y-71895000D01*
%TO.C,J4*%
D13*
X183190000Y-45630000D02*
X183190000Y-46880000D01*
X183190000Y-46880000D02*
X184440000Y-46880000D01*
X185740000Y-33980000D02*
X185740000Y-34730000D01*
X185740000Y-34730000D02*
X188690000Y-34730000D01*
X185740000Y-45830000D02*
X188690000Y-45830000D01*
X185740000Y-46580000D02*
X185740000Y-45830000D01*
X188690000Y-34730000D02*
X188690000Y-40280000D01*
X188690000Y-45830000D02*
X188690000Y-40280000D01*
X183480000Y-33970000D02*
X189450000Y-33970000D01*
X189450000Y-46590000D01*
X183480000Y-46590000D01*
X183480000Y-33970000D01*
X183490000Y-33980000D02*
X184240000Y-33980000D01*
X184240000Y-35780000D01*
X183490000Y-35780000D01*
X183490000Y-33980000D01*
X183490000Y-37280000D02*
X184240000Y-37280000D01*
X184240000Y-43280000D01*
X183490000Y-43280000D01*
X183490000Y-37280000D01*
X183490000Y-44780000D02*
X184240000Y-44780000D01*
X184240000Y-46580000D01*
X183490000Y-46580000D01*
X183490000Y-44780000D01*
%TO.C,C1*%
X126900000Y-64620000D02*
X129640000Y-64620000D01*
X126900000Y-72860000D02*
X126900000Y-64620000D01*
X129640000Y-64620000D02*
X129640000Y-72860000D01*
X129640000Y-72860000D02*
X126900000Y-72860000D01*
%TO.C,J1*%
X183190000Y-92630000D02*
X183190000Y-93880000D01*
X183190000Y-93880000D02*
X184440000Y-93880000D01*
X185740000Y-80980000D02*
X185740000Y-81730000D01*
X185740000Y-81730000D02*
X188690000Y-81730000D01*
X185740000Y-92830000D02*
X188690000Y-92830000D01*
X185740000Y-93580000D02*
X185740000Y-92830000D01*
X188690000Y-81730000D02*
X188690000Y-87280000D01*
X188690000Y-92830000D02*
X188690000Y-87280000D01*
X183480000Y-80970000D02*
X189450000Y-80970000D01*
X189450000Y-93590000D01*
X183480000Y-93590000D01*
X183480000Y-80970000D01*
X183490000Y-80980000D02*
X184240000Y-80980000D01*
X184240000Y-82780000D01*
X183490000Y-82780000D01*
X183490000Y-80980000D01*
X183490000Y-84280000D02*
X184240000Y-84280000D01*
X184240000Y-90280000D01*
X183490000Y-90280000D01*
X183490000Y-84280000D01*
X183490000Y-91780000D02*
X184240000Y-91780000D01*
X184240000Y-93580000D01*
X183490000Y-93580000D01*
X183490000Y-91780000D01*
%TO.C,R2*%
X120140000Y-80260000D02*
X120140000Y-81210000D01*
X120140000Y-86000000D02*
X120140000Y-85050000D01*
X119220000Y-81210000D02*
X121060000Y-81210000D01*
X121060000Y-85050000D01*
X119220000Y-85050000D01*
X119220000Y-81210000D01*
%TO.C,Q2*%
X154990000Y-58540000D02*
X158590000Y-58540000D01*
X154951522Y-58528478D02*
G75*
G02*
X156790000Y-54089999I1838478J1838478D01*
G01*
X156790000Y-54090000D02*
G75*
G02*
X158628478Y-58528478I0J-2600000D01*
G01*
%TO.C,Q1*%
X132630000Y-84220000D02*
X142850000Y-84220000D01*
X132630000Y-85600000D02*
X142850000Y-85600000D01*
X132630000Y-88840000D02*
X132630000Y-84220000D01*
X135890000Y-84220000D02*
X135890000Y-85600000D01*
X139590000Y-84220000D02*
X139590000Y-85600000D01*
X142850000Y-84220000D02*
X142850000Y-88840000D01*
X142850000Y-88840000D02*
X132630000Y-88840000D01*
%TO.C,R12*%
X180940000Y-37350000D02*
X180940000Y-38300000D01*
X180940000Y-43090000D02*
X180940000Y-42140000D01*
X180020000Y-38300000D02*
X181860000Y-38300000D01*
X181860000Y-42140000D01*
X180020000Y-42140000D01*
X180020000Y-38300000D01*
%TD*%
M02*
